<svg width="160" height="160" viewBox="0 0 160 160" fill="none" xmlns="http://www.w3.org/2000/svg">
<g id="ob16 1">
<path id="Vector" d="M101.348 113.565C101.013 113.517 101.021 113.027 101.356 112.979L108.268 111.984C109.426 111.815 110.4 111.077 110.871 110.001C111.342 108.933 111.23 107.721 110.583 106.758C107.263 101.821 101.859 100.898 92.448 101.99C92.0888 102.03 91.9611 101.532 92.2963 101.395L95.13 100.24C96.3033 99.7579 97.1654 98.6982 97.3251 97.4379C97.4847 96.1776 96.9659 94.9734 95.9521 94.2108C90.9953 90.486 84.6415 92.4528 72.4928 97.8794C72.437 97.8955 72.3811 97.9115 72.3172 97.9436C72.1576 98.0239 71.99 98.0962 71.8303 98.1764C70.8326 98.6179 69.8029 99.0916 68.7333 99.5813C65.7161 100.85 62.611 101.893 59.4342 102.672C55.6108 103.611 49.4965 104.446 47.916 99.5732C47.9001 99.5251 47.8761 99.4769 47.8522 99.4368C47.7564 98.7062 47.7803 97.9436 47.932 97.1409C48.5227 93.8576 51.4441 92.2842 54.8205 90.4539C59.4501 87.9493 64.7023 85.1156 64.2553 77.0399C64.1835 75.6993 63.505 74.4951 62.4115 73.7406C61.3259 72.994 59.977 72.8013 58.7238 73.2107L6.17781 90.478C3.0249 91.5136 0.702115 94.2991 0.255119 97.5744C-0.670801 104.43 0.925613 110.491 5.01243 115.588C7.15961 118.261 10.6717 119.441 13.9763 118.591L17.7199 117.619C23.8501 116.038 30.2837 116.23 36.3101 118.165L103.751 139.831C104.102 139.944 104.453 140 104.804 140C105.499 140 106.193 139.783 106.784 139.366C107.71 138.7 108.221 137.6 108.237 136.46C108.308 132.398 106.864 129.5 104.222 127.18C103.878 126.883 104.126 126.321 104.573 126.361L112.228 127.1C112.339 127.116 112.451 127.116 112.563 127.116C113.624 127.116 114.622 126.626 115.277 125.767C116.003 124.828 116.195 123.6 115.796 122.484C113.888 117.146 109.442 114.826 101.348 113.565ZM60.2883 109.672C60.2883 109.68 60.2883 109.68 60.2883 109.672C60.2883 109.68 60.2803 109.68 60.2723 109.672C60.2803 109.68 60.2883 109.672 60.2883 109.672ZM106.257 136.548C106.241 136.99 106.049 137.423 105.698 137.696C105.315 138.001 104.82 138.089 104.357 137.937L95.6568 135.143C95.6329 135.135 95.6169 135.119 95.5929 135.111C95.3375 134.983 94.9703 134.742 95.2337 134.437C95.3056 134.349 95.4014 134.276 95.5051 134.204C96.1277 133.955 96.8142 133.803 97.5246 133.747C98.3707 133.682 99.2487 133.739 100.119 133.883C100.558 133.955 100.989 134.052 101.428 134.164C101.859 134.276 102.306 134.413 102.689 134.557L102.721 134.573C103.088 134.71 103.519 134.533 103.671 134.14C103.814 133.771 103.631 133.353 103.272 133.177C102.801 132.936 102.37 132.767 101.907 132.599C101.436 132.43 100.957 132.286 100.462 132.165C99.4882 131.924 98.4665 131.796 97.4208 131.82C96.894 131.836 96.3672 131.892 95.8404 131.997C95.3136 132.109 94.7947 132.286 94.2919 132.51C94.0364 132.631 93.781 132.767 93.5415 132.912C93.4458 132.96 93.35 133.008 93.2542 133.056C92.2325 133.57 91.3624 133.61 90.3248 133.433L86.2779 132.133C85.8947 132.013 85.7111 131.563 85.9107 131.202L85.9187 131.194C86.0624 130.921 86.206 130.64 86.3417 130.359C86.4774 130.078 86.6051 129.805 86.7328 129.484C86.8925 129.091 86.7009 128.617 86.2539 128.48C85.9267 128.376 85.5675 128.537 85.3919 128.842L85.3839 128.858C85.2562 129.074 85.0965 129.331 84.9449 129.564C84.7852 129.797 84.6256 130.038 84.4579 130.263C84.3622 130.391 84.2664 130.511 84.1706 130.64C83.8593 131.033 83.3405 131.186 82.8695 131.033L70.4654 127.052C70.1222 126.939 69.9944 126.538 70.186 126.233V126.225C70.3776 125.936 70.5532 125.639 70.7128 125.334C70.8805 125.021 71.0162 124.732 71.1598 124.37C71.3035 124.009 71.1439 123.576 70.7687 123.407C70.4095 123.246 69.9945 123.415 69.8029 123.752L69.7949 123.768C69.6752 123.985 69.4996 124.258 69.3319 124.491C69.1643 124.732 68.9807 124.964 68.7812 125.189C68.7333 125.245 68.6854 125.302 68.6295 125.358C68.1586 125.88 67.4242 126.08 66.7537 125.872L66.6819 125.847C66.0593 125.647 65.8039 124.908 66.171 124.362L66.179 124.346C66.4344 123.961 66.6739 123.568 66.8974 123.166C67.1049 122.781 67.2885 122.412 67.4721 121.97C67.6397 121.569 67.4242 121.079 66.9772 120.959C66.642 120.862 66.2828 121.039 66.1152 121.352L66.1072 121.368C65.9396 121.681 65.724 122.034 65.5005 122.355C65.277 122.677 65.0376 122.998 64.7822 123.303C64.5746 123.56 64.3511 123.8 64.1276 124.033C63.6806 124.491 63.0022 124.659 62.3875 124.459L36.9247 116.279C33.3967 115.147 29.7489 114.577 26.0851 114.577C23.1158 114.577 20.1464 114.954 17.233 115.701L13.4894 116.664C10.9431 117.322 8.22921 116.407 6.56894 114.344C2.84131 109.696 1.38059 104.141 2.23467 97.8553C2.5779 95.3347 4.36588 93.1833 6.80042 92.3886L33.6361 83.5663C33.8117 83.5502 33.9873 83.5583 34.147 83.6225C34.4822 83.7509 34.6259 84.0961 34.7696 84.4011C34.7855 84.4573 34.8095 84.5135 34.8334 84.5697C34.9691 84.9069 35.1128 85.236 35.2725 85.5491C35.4401 85.8702 35.5997 86.1592 35.8072 86.4803C36.0387 86.8415 36.5416 86.9539 36.9088 86.6569C37.1802 86.4401 37.252 86.0548 37.1003 85.7337L37.0924 85.7177C36.9726 85.4688 36.8449 85.1638 36.7491 84.8828C36.6693 84.658 36.5975 84.4333 36.5336 84.2085C36.4538 83.7188 36.4139 83.2773 36.7411 82.8599C37.1961 82.2738 38.0023 82.1615 38.4094 82.8759C38.5451 83.1167 38.6648 83.3495 38.7925 83.5582C38.8085 83.5904 38.8165 83.6305 38.8245 83.6626C38.9921 84.0961 39.1757 84.5135 39.3752 84.9149C39.5828 85.3243 39.7903 85.7096 40.0457 86.119C40.2932 86.5204 40.8679 86.6168 41.2351 86.2234C41.4426 85.9986 41.4825 85.6615 41.3468 85.3885L41.3308 85.3644C41.1632 85.0273 40.9956 84.6339 40.8519 84.2647C40.7082 83.8874 40.5805 83.5021 40.4768 83.1167C40.4368 82.9722 40.4049 82.8277 40.373 82.6832C40.3411 82.1936 40.1335 81.736 40.6284 81.3828C40.7481 81.2945 40.8759 81.2142 41.0116 81.1339L45.282 79.7291C45.3299 79.7371 45.3778 79.7291 45.4336 79.713C45.8567 79.5766 46.3037 79.4321 46.7586 79.4321C47.3653 79.4321 47.7484 79.7612 48.2034 80.1144C48.2752 80.1706 48.3551 80.2268 48.4269 80.283C48.7063 80.4998 49.0016 80.6844 49.3129 80.8128C49.8557 81.0537 50.4065 81.1901 50.9413 81.2624C51.484 81.3426 52.0108 81.3587 52.5217 81.3426C53.5594 81.3105 54.5491 81.142 55.515 80.9172C55.9939 80.8048 56.4728 80.6683 56.9438 80.5238C57.4147 80.3713 57.8697 80.2108 58.3566 80.0181C58.7956 79.8415 58.9872 79.2715 58.6599 78.8461C58.4683 78.6053 58.1411 78.5169 57.8537 78.6133L57.8298 78.6213C56.9837 78.8942 56.0657 79.111 55.1797 79.2796C54.2857 79.4401 53.3838 79.5364 52.5137 79.5204C52.0029 79.5124 51.508 79.4562 51.053 79.3518C50.7497 79.2635 50.4144 79.1672 50.2787 78.8621C50.1111 78.4688 50.4543 78.1637 50.7736 77.947L59.3464 75.1293C60.0089 74.9126 60.7193 75.0169 61.294 75.4103C61.8767 75.8117 62.2359 76.4539 62.2758 77.1683C62.6509 83.9757 58.3965 86.2796 53.8866 88.7119C52.3621 89.5388 50.8135 90.3737 49.4885 91.4012C48.387 92.0354 47.3094 92.7498 46.3037 93.5927C45.2899 94.4436 44.356 95.439 43.6217 96.603L43.3503 97.0365C43.2705 97.189 43.1907 97.3416 43.1108 97.5021L42.8794 97.9677L42.6958 98.4574C42.6399 98.6179 42.576 98.7785 42.5202 98.9471L42.3925 99.4528C42.3525 99.6214 42.3047 99.79 42.2727 99.9585L42.2009 100.472C42.0173 101.853 42.1769 103.226 42.5122 104.518C42.6319 104.984 43.1667 105.241 43.6297 104.968C43.8931 104.815 44.0208 104.494 43.9649 104.189L43.9569 104.165C43.7414 103.009 43.7015 101.837 43.9011 100.729C43.9809 100.32 44.0847 99.9104 44.2283 99.5251C44.3241 99.3324 44.4518 99.1638 44.6195 99.0113C44.8749 98.7785 45.0505 98.6902 45.3937 98.8026C45.721 98.9069 45.7529 99.0113 45.8247 99.3083C46.1041 103.033 48.6903 105.859 52.8969 108.331C53.0006 108.428 53.1283 108.5 53.264 108.54C55.962 110.081 59.2985 111.486 63.09 112.899C63.1219 112.907 63.1538 112.923 63.1857 112.931C66.187 114.047 69.4756 115.163 72.9718 116.343C76.2364 117.451 79.6208 118.599 83.1808 119.875C84.2504 120.26 85.2881 120.63 86.3018 120.991C91.0033 122.66 95.0182 124.081 98.1791 125.647C98.2031 125.663 98.227 125.671 98.251 125.687C103.495 128.296 106.393 131.314 106.257 136.548Z" fill="#131344"/>
<path id="Vector_2" d="M40.4688 107.32L40.2852 106.886C40.2213 106.734 40.1575 106.581 40.1016 106.429C39.9819 106.116 39.8781 105.803 39.7823 105.498C39.5828 104.871 39.4471 104.229 39.3673 103.595C39.3114 103.274 39.3194 102.953 39.2874 102.632C39.3034 102.311 39.2794 101.99 39.3194 101.668C39.3513 101.018 39.5029 100.392 39.6466 99.7258L39.6626 99.6535C39.7264 99.3324 39.5828 98.9872 39.2794 98.8347C38.9123 98.642 38.4653 98.7865 38.2737 99.1558C37.9145 99.8542 37.6112 100.617 37.4835 101.42C37.3877 101.813 37.3797 102.222 37.3478 102.624C37.3478 103.025 37.3478 103.434 37.4037 103.836C37.4915 104.639 37.691 105.425 38.0023 106.164L38.2498 106.71C38.3456 106.886 38.4333 107.063 38.5371 107.232C38.6409 107.4 38.7447 107.569 38.8644 107.729C38.9841 107.898 39.1038 108.042 39.2635 108.219C39.471 108.452 39.8142 108.54 40.1096 108.412C40.4927 108.251 40.6683 107.809 40.5087 107.424L40.4688 107.32Z" fill="#131344"/>
<path id="Vector_3" d="M11.7094 110.499C11.0788 109.551 10.4482 108.628 9.99323 107.601L9.80964 107.223C9.74579 107.095 9.70588 106.967 9.65 106.83L9.3387 106.051C9.17108 105.522 8.98749 104.992 8.85978 104.438C8.58041 103.354 8.4048 102.23 8.32498 101.106L8.27709 100.256C8.27709 99.9747 8.26112 99.6857 8.26911 99.4047C8.26911 99.1238 8.27709 98.8348 8.29305 98.5538C8.30902 98.2728 8.32498 97.9758 8.34893 97.735L8.35691 97.6788C8.38884 97.3256 8.15736 96.9804 7.80615 96.8921C7.40704 96.7877 6.99996 97.0286 6.89619 97.4219C6.80839 97.7591 6.74453 98.0561 6.68866 98.3692C6.63278 98.6823 6.59287 98.9953 6.55296 99.3004C6.51305 99.6054 6.50507 99.9265 6.48112 100.239C6.46516 100.553 6.46516 100.866 6.46516 101.179C6.47314 102.439 6.64076 103.699 6.94408 104.928C7.07978 105.546 7.30328 106.14 7.50283 106.742C7.62256 107.039 7.75825 107.328 7.88597 107.617C7.94982 107.761 8.01368 107.906 8.08552 108.05L8.317 108.468C8.89969 109.6 9.72184 110.587 10.5999 111.486C10.8473 111.735 11.2464 111.783 11.5497 111.582C11.893 111.35 11.9808 110.884 11.7573 110.539L11.7094 110.499Z" fill="#131344"/>
<path id="Vector_4" d="M75.5038 56.6568C74.981 56.7238 74.4638 56.8291 73.9562 56.9718C73.4454 57.1139 72.9551 57.268 72.4664 57.4512C71.9778 57.6344 71.4892 57.8158 71.009 58.0247C70.5247 58.2278 70.0513 58.4564 69.5908 58.7095C69.3232 58.8536 69.1154 59.0888 69.0047 59.373C68.8939 59.6571 68.8875 59.9717 68.9865 60.2602C69.0855 60.5487 69.2834 60.7923 69.5449 60.9474C69.8063 61.1024 70.1141 61.1588 70.4131 61.1063C70.9295 61.0192 71.441 60.9049 71.9454 60.7639C72.4562 60.6304 72.95 60.4763 73.4437 60.3085C73.9375 60.1407 74.4278 59.9661 74.9096 59.759C75.3962 59.5557 75.8673 59.3171 76.3194 59.045C76.5725 58.892 76.7656 58.6562 76.8665 58.3771C76.9673 58.098 76.9698 57.7925 76.8735 57.5118C76.7772 57.231 76.5879 56.9921 76.3373 56.8349C76.0868 56.6777 75.7901 56.6118 75.497 56.6482L75.5038 56.6568Z" fill="#131344"/>
<path id="Vector_5" d="M64.5191 50.0777C67.8859 50.4147 71.2776 50.4147 74.6444 50.0777C74.954 50.0433 75.24 49.8953 75.4478 49.662C75.6555 49.4287 75.7704 49.1266 75.7704 48.8134C75.7704 48.5003 75.6555 48.1981 75.4478 47.9649C75.24 47.7316 74.954 47.5836 74.6444 47.5492C71.2776 47.2121 67.8859 47.2121 64.5191 47.5492C64.2095 47.5836 63.9235 47.7316 63.7157 47.9649C63.5079 48.1981 63.3931 48.5003 63.3931 48.8134C63.3931 49.1266 63.5079 49.4287 63.7157 49.662C63.9235 49.8953 64.2095 50.0433 64.5191 50.0777Z" fill="#131344"/>
<path id="Vector_6" d="M68.7686 38.7031C69.2896 38.9222 69.8208 39.0986 70.3537 39.2646C70.8867 39.4307 71.4247 39.5779 71.9661 39.7098C72.5076 39.8416 73.0524 39.9597 73.6006 40.0522C74.1545 40.1481 74.7143 40.2053 75.276 40.2234C75.5703 40.2291 75.8576 40.133 76.0899 39.9513C76.3222 39.7697 76.4855 39.5133 76.5525 39.2251C76.6195 38.9369 76.586 38.6344 76.4578 38.368C76.3296 38.1016 76.1144 37.8875 75.8481 37.7615C75.3362 37.5281 74.8088 37.3308 74.2697 37.1708C73.7334 37.015 73.1954 36.8695 72.6506 36.7548C72.1057 36.6401 71.5592 36.5254 71.0093 36.4346C70.4593 36.3439 69.9043 36.2634 69.3407 36.2309C69.0402 36.2125 68.7428 36.3016 68.5014 36.4824C68.2599 36.6633 68.0899 36.9243 68.0214 37.2191C67.9528 37.5139 67.9903 37.8236 68.1271 38.0933C68.2638 38.363 68.4911 38.5754 68.7686 38.6928V38.7031Z" fill="#131344"/>
<path id="Vector_7" d="M133.711 59.0435C134.163 59.3156 134.634 59.5542 135.121 59.7574C135.604 59.9577 136.091 60.1461 136.587 60.307C137.082 60.4679 137.579 60.6271 138.085 60.7624C138.59 60.9034 139.101 61.0177 139.617 61.1048C139.916 61.1573 140.224 61.1009 140.486 60.9459C140.747 60.7908 140.945 60.5472 141.044 60.2587C141.143 59.9702 141.137 59.6556 141.026 59.3714C140.915 59.0873 140.707 58.8521 140.44 58.708C139.979 58.4549 139.506 58.2263 139.021 58.0232C138.541 57.8143 138.054 57.626 137.564 57.4497C137.074 57.2733 136.576 57.1072 136.074 56.9703C135.567 56.8276 135.049 56.7223 134.527 56.6553C134.233 56.6189 133.937 56.6848 133.686 56.8419C133.436 56.9991 133.246 57.2381 133.15 57.5188C133.054 57.7995 133.056 58.105 133.157 58.3841C133.258 58.6632 133.451 58.899 133.704 59.0521L133.711 59.0435Z" fill="#131344"/>
<path id="Vector_8" d="M135.393 47.5492C135.084 47.5836 134.797 47.7316 134.59 47.9649C134.382 48.1981 134.267 48.5003 134.267 48.8134C134.267 49.1266 134.382 49.4287 134.59 49.662C134.797 49.8953 135.084 50.0433 135.393 50.0777C138.76 50.4147 142.152 50.4147 145.518 50.0777C145.828 50.0433 146.114 49.8953 146.322 49.662C146.529 49.4287 146.644 49.1266 146.644 48.8134C146.644 48.5003 146.529 48.1981 146.322 47.9649C146.114 47.7316 145.828 47.5836 145.518 47.5492C142.152 47.2121 138.76 47.2121 135.393 47.5492Z" fill="#131344"/>
<path id="Vector_9" d="M134.759 40.2337C135.32 40.2157 135.88 40.1585 136.434 40.0625C136.984 39.9632 137.53 39.8536 138.068 39.7201C138.606 39.5865 139.148 39.4393 139.681 39.275C140.214 39.1106 140.745 38.9325 141.266 38.7134C141.543 38.596 141.771 38.3836 141.907 38.1139C142.044 37.8442 142.081 37.5345 142.013 37.2396C141.944 36.9448 141.774 36.6839 141.533 36.503C141.292 36.3221 140.994 36.233 140.694 36.2514C140.13 36.2874 139.577 36.3661 139.025 36.4552C138.474 36.5442 137.927 36.6521 137.384 36.7753C136.841 36.8986 136.299 37.0356 135.765 37.1914C135.226 37.3513 134.698 37.5487 134.187 37.782C133.92 37.908 133.705 38.1221 133.577 38.3885C133.449 38.655 133.415 38.9575 133.482 39.2457C133.549 39.5339 133.712 39.7903 133.945 39.972C134.177 40.1537 134.464 40.2497 134.759 40.244V40.2337Z" fill="#131344"/>
<path id="Vector_10" d="M100.083 71.024C101.394 72.1145 102.751 73.241 104.036 74.3504C104.31 74.5864 104.658 74.7161 105.018 74.7161C105.379 74.7161 105.727 74.5864 106.001 74.3504C107.286 73.241 108.642 72.1145 109.953 71.0257C117.808 64.4962 125.932 57.7458 126.589 48.9153C127.072 42.4235 123.865 37.1522 118.416 35.4865C114.287 34.223 108.803 35.293 105.022 40.2064C101.242 35.2947 95.758 34.223 91.6275 35.4865C86.1792 37.1522 82.9681 42.4252 83.455 48.9153C84.1105 57.7441 92.2285 64.4962 100.083 71.024Z" fill="#FF5975"/>
</g>
</svg>
