<svg width="160" height="160" viewBox="0 0 160 160" fill="none" xmlns="http://www.w3.org/2000/svg">
<g id="ob15 1" clip-path="url(#clip0_89_608)">
<path id="Vector" d="M29.3614 52.0297C28.9417 51.879 28.5328 51.8037 28.1239 51.7499C27.7042 51.6961 27.2953 51.6853 26.8756 51.6853C26.4667 51.6961 26.047 51.7176 25.6381 51.7607C25.2291 51.8145 24.8095 51.8898 24.4005 52.0189C24.0885 52.1158 23.8195 52.3633 23.7118 52.7076C23.5397 53.2564 23.841 53.8483 24.4005 54.0312C24.8202 54.1604 25.2291 54.225 25.6381 54.2788C26.0577 54.3326 26.4667 54.3541 26.8756 54.3541C27.2953 54.3648 27.7042 54.3433 28.1239 54.3003C28.5328 54.2465 28.9525 54.1712 29.3614 54.0205C29.6412 53.9129 29.8887 53.6869 29.9963 53.3748C30.2007 52.8475 29.9102 52.2342 29.3614 52.0297Z" fill="#131344"/>
<path id="Vector_2" d="M21.9686 56.4739C21.861 56.1941 21.635 55.9466 21.3337 55.839C20.7848 55.6346 20.1715 55.9251 19.967 56.4739C19.8164 56.8936 19.741 57.3025 19.6872 57.7115C19.6442 58.1311 19.6227 58.5401 19.6334 58.9598C19.6442 59.3687 19.6657 59.7884 19.7088 60.1973C19.7626 60.6062 19.8271 61.0259 19.9562 61.4348C20.0639 61.7469 20.3114 62.0159 20.645 62.1235C21.2045 62.2957 21.7964 61.9944 21.9686 61.4348C22.0977 61.0151 22.1623 60.6062 22.2268 60.1973C22.2806 59.7776 22.3022 59.3687 22.3022 58.9598C22.3129 58.5401 22.2914 58.1311 22.2376 57.7115C22.1946 57.3025 22.1192 56.8828 21.9686 56.4739Z" fill="#131344"/>
<path id="Vector_3" d="M21.9686 44.6475C21.861 44.3677 21.635 44.1202 21.3337 44.0126C20.7848 43.8082 20.1715 44.0987 19.967 44.6475C19.8164 45.0672 19.741 45.4761 19.6872 45.8958C19.6442 46.3047 19.6227 46.7244 19.6334 47.1334C19.6442 47.5423 19.6657 47.962 19.7088 48.3709C19.7626 48.7798 19.8271 49.1995 19.9562 49.6084C20.0639 49.9205 20.3114 50.1895 20.645 50.2971C21.2045 50.4693 21.7964 50.168 21.9686 49.6084C22.0977 49.1995 22.1623 48.7798 22.2268 48.3709C22.2806 47.9512 22.3022 47.5423 22.3022 47.1334C22.3129 46.7137 22.2914 46.3047 22.2376 45.8958C22.1946 45.4654 22.1192 45.0564 21.9686 44.6475Z" fill="#131344"/>
<path id="Vector_4" d="M17.535 52.0297C17.1153 51.879 16.7064 51.8037 16.2975 51.7499C15.8778 51.6961 15.4689 51.6853 15.0492 51.6853C14.6403 51.6961 14.2206 51.7176 13.8117 51.7607C13.4028 51.8145 12.9831 51.8898 12.5742 52.0189C12.2621 52.1158 11.9931 52.3633 11.8855 52.7076C11.7133 53.2564 12.0146 53.8483 12.5742 54.0312C12.9939 54.1604 13.4028 54.225 13.8117 54.2788C14.2314 54.3326 14.6403 54.3541 15.0492 54.3541C15.4689 54.3648 15.8778 54.3433 16.2975 54.3003C16.7064 54.2465 17.1261 54.1712 17.535 54.0205C17.8148 53.9129 18.0623 53.6869 18.1699 53.3748C18.3744 52.8475 18.0838 52.2342 17.535 52.0297Z" fill="#131344"/>
<path id="Vector_5" d="M127.761 107.278C127.334 107.084 126.893 106.921 126.442 106.79L125.774 106.611L125.437 106.523L125.093 106.46C123.275 106.103 121.334 106.147 119.508 106.739C117.67 107.291 116.044 108.494 114.842 109.973C114.442 110.503 114.081 111.063 113.764 111.648C113.33 111.48 112.883 111.347 112.428 111.25C111.96 111.143 111.485 111.072 111.007 111.037C110.766 111.007 110.53 111.026 110.288 111.021C110.05 111.013 109.811 111.02 109.574 111.042C107.697 111.19 105.879 111.763 104.256 112.719C102.653 113.641 101.23 114.846 100.057 116.276C98.8863 117.697 97.9715 119.311 97.3535 121.046C96.7391 122.776 96.4528 124.607 96.5095 126.443C96.5153 126.65 96.6014 126.846 96.7494 126.991C96.8975 127.135 97.096 127.217 97.303 127.218C97.5099 127.218 97.7091 127.139 97.8585 126.996C98.0079 126.852 98.0957 126.657 98.1034 126.45C98.2521 123.176 99.4554 120.038 101.534 117.504C102.562 116.257 103.809 115.207 105.212 114.404C106.582 113.6 108.117 113.117 109.7 112.993C109.894 112.978 110.089 112.973 110.284 112.98C110.477 112.976 110.669 112.981 110.862 112.996C111.245 113.025 111.626 113.083 112 113.171C112.334 113.24 112.662 113.337 112.98 113.461L112.895 113.717C112.827 113.94 112.742 114.163 112.692 114.38L112.527 115.025C112.064 116.756 111.771 118.529 111.653 120.318C111.544 122.121 111.631 123.98 112.185 125.804C112.447 126.748 112.874 127.639 113.446 128.434C113.753 128.856 114.114 129.235 114.519 129.563C114.735 129.729 114.961 129.882 115.196 130.021C115.317 130.085 115.454 130.139 115.583 130.198C115.711 130.259 115.845 130.309 115.982 130.348C116.262 130.435 116.553 130.488 116.846 130.506C116.993 130.522 117.142 130.524 117.289 130.513C117.441 130.499 117.588 130.479 117.739 130.459C117.888 130.437 118.034 130.4 118.175 130.347C118.318 130.308 118.457 130.256 118.591 130.192C118.857 130.069 119.108 129.915 119.338 129.734C120.252 129.022 120.769 128.027 121.052 127.069C121.315 126.133 121.428 125.16 121.386 124.189C121.393 123.948 121.354 123.721 121.338 123.485C121.323 123.25 121.309 123.017 121.266 122.789L121.151 122.106L121.095 121.764L121.015 121.431C120.595 119.655 120.002 117.926 119.052 116.316C118.185 114.845 116.994 113.505 115.511 112.541C115.768 112.069 116.059 111.616 116.379 111.185C117.355 109.991 118.626 109.042 120.107 108.581C120.834 108.318 121.614 108.208 122.395 108.143C122.791 108.123 123.187 108.126 123.582 108.152C123.779 108.167 123.978 108.169 124.174 108.193L124.769 108.277L125.073 108.323L125.367 108.387L125.957 108.521C126.339 108.62 126.715 108.743 127.082 108.889C127.832 109.188 128.551 109.56 129.228 110L129.236 110.005C129.41 110.119 129.622 110.161 129.826 110.122C130.031 110.082 130.212 109.964 130.33 109.792C130.448 109.621 130.495 109.41 130.459 109.205C130.424 109 130.31 108.816 130.141 108.694C129.402 108.136 128.604 107.661 127.761 107.278ZM117.338 117.332C118.146 118.704 118.687 120.286 119.057 121.876C119.427 123.466 119.514 125.104 119.118 126.502C118.92 127.194 118.567 127.797 118.111 128.147C117.658 128.52 117.119 128.593 116.572 128.436C116.025 128.28 115.485 127.819 115.062 127.251C114.639 126.683 114.32 125.972 114.098 125.228C113.854 124.489 113.749 123.687 113.658 122.891C113.643 122.484 113.606 122.08 113.607 121.673C113.608 121.266 113.608 120.854 113.639 120.443C113.746 118.779 114.016 117.129 114.443 115.517L114.602 114.904C114.641 114.73 114.7 114.577 114.749 114.413C115.804 115.198 116.685 116.191 117.338 117.332Z" fill="#131344"/>
<path id="Vector_6" d="M88.0048 68.6606C88.0048 68.6929 88.0048 68.7144 88.0155 68.7467C88.0155 68.7574 88.0155 68.7682 88.0263 68.779C88.0263 68.7897 88.0263 68.8005 88.0263 68.8113C88.0263 68.8328 88.0371 68.8543 88.0478 68.8758V68.8866C88.0478 68.9081 88.0586 68.9296 88.0693 68.9511C88.0693 68.9619 88.0693 68.9619 88.0693 68.9727C88.0693 68.9834 88.0801 68.9942 88.0801 68.9942C88.0801 69.0049 88.0909 69.0157 88.0909 69.0265C88.1016 69.048 88.1232 69.0695 88.1339 69.1018C88.1447 69.1233 88.1554 69.1556 88.177 69.1771C88.2738 69.3278 90.6628 73.0619 95.0425 76.8282C100.886 81.8537 107.504 84.5009 114.197 84.5009C120.891 84.5009 127.509 81.8429 133.352 76.8282C137.635 73.148 140.002 69.5107 140.207 69.1879L140.217 69.1771C140.228 69.1556 140.239 69.1341 140.25 69.1126C140.271 69.0803 140.282 69.048 140.304 69.0157C140.304 69.0049 140.304 69.0049 140.314 69.0049V68.9942C140.325 68.9619 140.336 68.9404 140.336 68.9081C140.347 68.8758 140.357 68.8543 140.357 68.822C140.357 68.8112 140.357 68.8112 140.357 68.8005C140.357 68.7897 140.357 68.7897 140.357 68.7897C140.357 68.7574 140.368 68.7252 140.368 68.6929C140.368 68.6606 140.379 68.6283 140.379 68.6068C140.379 68.596 140.379 68.596 140.379 68.5853C140.379 68.5745 140.379 68.5745 140.379 68.5637C140.379 68.5315 140.379 68.5099 140.368 68.4777C140.368 68.4454 140.368 68.4131 140.357 68.3808V68.37C140.357 68.37 140.357 68.3593 140.357 68.3485C140.347 68.3162 140.336 68.2947 140.336 68.2624C140.325 68.2301 140.325 68.1979 140.304 68.1763V68.1656C140.304 68.1656 140.304 68.1548 140.293 68.1548C140.282 68.1225 140.26 68.101 140.25 68.0687V68.058C140.239 68.0365 140.228 68.0149 140.217 67.9934C140.217 67.9934 140.217 67.9826 140.207 67.9826C140.002 67.6598 137.624 64.0226 133.352 60.3423C127.509 55.3169 120.891 52.6697 114.197 52.6697C107.504 52.6697 100.886 55.3276 95.0425 60.3423C90.6628 64.1087 88.2738 67.8428 88.177 68.0042C88.1662 68.0257 88.1554 68.058 88.1447 68.0795C88.1339 68.101 88.1124 68.1333 88.1016 68.1548C88.1016 68.1656 88.1016 68.1763 88.0909 68.1871C88.0801 68.2194 88.0693 68.2517 88.0586 68.284C88.0478 68.3055 88.0371 68.3378 88.0371 68.3593C88.0371 68.37 88.0371 68.3808 88.0371 68.3916C88.0371 68.4023 88.0371 68.4131 88.0263 68.4238C88.0263 68.4454 88.0263 68.4777 88.0155 68.4992C88.0155 68.5207 88.0048 68.553 88.0048 68.5745C88.0048 68.5853 88.0048 68.596 88.0048 68.6068C88.0048 68.6176 88.0048 68.6283 88.0048 68.6391C87.994 68.6175 88.0048 68.6391 88.0048 68.6606ZM128.692 77.5492C124.84 80.1534 119.933 82.2733 114.176 82.2733C108.677 82.2733 103.953 80.3363 100.186 77.8936C99.6375 77.5385 100.036 76.6883 100.66 76.9036C104.555 78.2056 108.86 78.9266 113.369 78.9697C113.53 78.9697 113.691 78.9697 113.842 78.9697C118.9 78.9697 123.796 78.1303 128.187 76.57C128.811 76.3547 129.23 77.1834 128.692 77.5492ZM117.759 65.9058C117.759 64.5822 118.824 63.5168 120.148 63.5168C121.472 63.5168 122.537 64.5822 122.537 65.9058C122.537 67.2294 121.472 68.2947 120.148 68.2947C118.824 68.2947 117.759 67.2186 117.759 65.9058ZM136.085 67.2401C136.946 67.9073 136.946 69.2094 136.085 69.8766C133.212 72.0934 129.715 73.8367 125.851 75.0096C125.249 75.1926 124.743 74.5254 125.087 73.9873C126.088 72.4162 126.669 70.5545 126.669 68.553C126.669 66.5514 126.088 64.6898 125.087 63.1294C124.743 62.5914 125.249 61.9242 125.851 62.1071C129.715 63.2908 133.212 65.0234 136.085 67.2401ZM100.154 59.2447C103.931 56.7912 108.655 54.8542 114.186 54.8542C119.944 54.8542 124.84 56.9741 128.692 59.5783C129.23 59.9441 128.8 60.7727 128.187 60.5575C123.796 58.9972 118.9 58.1578 113.842 58.1578C113.681 58.1578 113.519 58.1578 113.369 58.1578C108.849 58.2116 104.534 58.9218 100.628 60.2347C100.025 60.4391 99.616 59.5998 100.154 59.2447ZM92.137 67.2832C96.3661 63.8504 102.005 61.5798 108.332 60.7405C108.957 60.6544 109.344 61.3861 108.935 61.8596C107.353 63.6459 106.395 65.9919 106.395 68.5637C106.395 71.1356 107.353 73.4816 108.935 75.2679C109.344 75.7306 108.957 76.4624 108.332 76.387C102.016 75.5477 96.3769 73.2771 92.137 69.8443C91.3192 69.1879 91.3192 67.9396 92.137 67.2832Z" fill="#131344"/>
<path id="Vector_7" d="M114.025 48.4944C114.488 48.5805 114.929 48.2792 115.015 47.8272C115.133 47.2353 115.187 46.6327 115.23 46.0409C115.273 45.449 115.284 44.8464 115.295 44.2545C115.295 43.6627 115.273 43.0601 115.23 42.4682C115.187 41.8764 115.133 41.2737 115.015 40.6819C114.95 40.3483 114.692 40.0793 114.348 40.0147C113.885 39.9286 113.444 40.2299 113.358 40.6819C113.239 41.2737 113.186 41.8764 113.143 42.4682C113.1 43.0601 113.089 43.6627 113.078 44.2545C113.089 44.8464 113.1 45.449 113.143 46.0409C113.186 46.6327 113.239 47.2353 113.358 47.8272C113.422 48.1608 113.681 48.4298 114.025 48.4944Z" fill="#131344"/>
<path id="Vector_8" d="M102.608 47.3968C102.769 47.7842 102.941 48.1501 103.146 48.516C103.339 48.8818 103.565 49.2369 103.834 49.5705C104.017 49.7857 104.308 49.9256 104.609 49.8826C105.083 49.8288 105.416 49.3983 105.362 48.9141C105.309 48.4837 105.201 48.0748 105.083 47.6874C104.953 47.2892 104.814 46.9018 104.652 46.5252C104.491 46.1486 104.308 45.772 104.103 45.4061C103.899 45.0402 103.684 44.6851 103.425 44.3408C103.242 44.104 102.941 43.9749 102.629 44.018C102.156 44.0825 101.833 44.5237 101.897 44.9864C101.962 45.4061 102.069 45.815 102.188 46.2132C102.306 46.6221 102.446 47.0095 102.608 47.3968Z" fill="#131344"/>
<path id="Vector_9" d="M94.3647 52.6484C94.5369 52.8744 94.7198 53.0896 94.9243 53.2833C95.1287 53.477 95.3547 53.6707 95.6237 53.8106C95.8174 53.9182 96.0649 53.9613 96.3017 53.8967C96.7859 53.7676 97.0657 53.2725 96.9366 52.7883C96.8612 52.487 96.7321 52.2287 96.5922 51.9812C96.4523 51.7336 96.2909 51.4969 96.108 51.2817C95.9358 51.0557 95.7421 50.8512 95.5376 50.6467C95.3224 50.453 95.1072 50.2593 94.8489 50.1087C94.6445 49.9903 94.3862 49.9472 94.1387 50.0226C93.6652 50.1625 93.3962 50.6575 93.5361 51.131C93.6222 51.4216 93.7513 51.6798 93.8912 51.9274C94.0419 52.1856 94.2033 52.4224 94.3647 52.6484Z" fill="#131344"/>
<path id="Vector_10" d="M132.739 53.8211C133.008 53.6704 133.234 53.4875 133.438 53.2938C133.642 53.1001 133.836 52.8849 133.998 52.6589C134.17 52.4329 134.331 52.1962 134.471 51.9487C134.611 51.7012 134.74 51.4429 134.826 51.1524C134.891 50.9264 134.869 50.6681 134.74 50.4421C134.493 50.0117 133.944 49.8718 133.513 50.1193C133.255 50.27 133.029 50.4637 132.825 50.6574C132.62 50.8511 132.426 51.0663 132.254 51.2923C132.082 51.5182 131.921 51.7442 131.77 51.9917C131.63 52.2392 131.501 52.4975 131.426 52.7988C131.372 53.014 131.393 53.2615 131.512 53.4767C131.749 53.9072 132.297 54.0578 132.739 53.8211Z" fill="#131344"/>
<path id="Vector_11" d="M124.539 49.5812C124.808 49.2476 125.034 48.8925 125.227 48.5266C125.421 48.1608 125.604 47.7841 125.765 47.4075C125.927 47.0201 126.067 46.6327 126.196 46.2345C126.314 45.8363 126.433 45.4274 126.486 45.0077C126.529 44.7172 126.411 44.4051 126.164 44.2114C125.787 43.9208 125.249 43.9854 124.958 44.3621C124.689 44.6957 124.474 45.0615 124.28 45.4274C124.076 45.7933 123.904 46.1699 123.732 46.5466C123.559 46.9232 123.419 47.3106 123.301 47.7088C123.172 48.1069 123.075 48.5159 123.021 48.9356C122.989 49.2153 123.097 49.5167 123.333 49.7104C123.688 50.0009 124.237 49.9471 124.539 49.5812Z" fill="#131344"/>
<path id="Vector_12" d="M45.5388 121.112C39.9002 120.08 36.3376 118.301 34.6477 115.676C33.8989 114.504 33.5208 113.127 33.5637 111.731L33.555 109.56C33.5134 109.165 33.4948 108.769 33.4741 108.34C33.4555 107.635 33.3878 106.933 33.2717 106.238C33.2141 105.934 33.1576 105.632 33.1022 105.333C32.7237 103.288 32.3671 101.355 31.4352 99.4016C29.8076 96.0025 26.4726 95.0318 23.2458 94.0944C22.8597 93.9835 22.4725 93.8725 22.0634 93.7472C15.7576 92.7011 10.1289 90.5078 5.32814 87.2285L5 87V125.059L5.08532 125.123C13.6247 131.632 23.5707 133 30.4179 133C31.8399 133 33.2454 132.94 34.5821 132.82C40.772 132.266 48.2252 129.714 50.4937 125.908C51.2594 124.617 50.9564 123.939 50.8558 123.716C50.3559 122.59 48.4166 121.64 45.5388 121.112Z" fill="#FCCA97"/>
<path id="Vector_13" d="M69.0822 74.818C68.4283 74.0529 67.5188 73.3385 66.2904 72.632C54.2641 66.9784 44.9072 67.3249 40.5519 69.34C40.3919 69.4153 40.2298 69.4952 40.058 69.583L40 69.6134V104.175L40.1428 104.115C46.4684 101.496 56.3182 102.694 66.503 107.307L66.6362 107.362C67.303 107.638 68.1803 108 68.9791 108C69.4817 108 69.9541 107.856 70.3246 107.457C70.7659 106.98 70.9044 106.106 70.9828 105.303L71 84.479C71 83.5655 71 82.6564 71 81.7395C70.8314 79.2823 70.5275 76.5135 69.0822 74.818Z" fill="#FCCA97"/>
<path id="Vector_14" d="M34.545 134.761C41.0742 134.182 49.3675 131.441 52.1534 126.788C52.575 126.114 52.8493 125.358 52.9577 124.568C53.0528 124.387 53.1031 124.185 53.1044 123.98V105.052C58.2228 105.918 64.1803 107.921 70.5117 111.418L70.503 120.538L70.5389 135.727C70.5397 136.18 70.363 136.616 70.0473 136.938C69.7316 137.26 69.3026 137.442 68.8541 137.445C68.1454 137.451 67.4411 137.46 66.7291 137.474L64.1846 137.533C63.3368 137.568 62.4879 137.589 61.6401 137.643C61.4983 137.651 61.3595 137.688 61.2319 137.751C61.1044 137.815 60.9907 137.903 60.8976 138.012C60.8045 138.12 60.7338 138.246 60.6898 138.383C60.6457 138.52 60.6292 138.664 60.6412 138.807C60.6704 139.07 60.7918 139.313 60.9834 139.494C61.1751 139.674 61.4242 139.779 61.6858 139.789C62.5184 139.835 63.352 139.856 64.1857 139.891L66.7302 139.951C68.4269 139.986 70.1226 139.982 71.8193 140C73.516 139.982 75.2116 139.985 76.9083 139.951L79.4528 139.891C80.3006 139.856 81.1495 139.835 81.9973 139.781C82.1392 139.773 82.278 139.736 82.4055 139.673C82.533 139.61 82.6467 139.521 82.7398 139.413C82.833 139.304 82.9036 139.178 82.9477 139.042C82.9917 138.905 83.0082 138.761 82.9962 138.618C82.967 138.355 82.8456 138.111 82.654 137.931C82.4624 137.751 82.2132 137.646 81.9517 137.636C81.1191 137.589 80.2854 137.568 79.4517 137.533L76.9072 137.474C76.1985 137.46 75.4942 137.451 74.7822 137.445C74.3338 137.442 73.9048 137.26 73.5891 136.938C73.2734 136.616 73.0966 136.18 73.0975 135.727L73.1334 120.538L73.116 102.366L73.0899 84.197C73.0725 78.1396 73.1355 72.0823 72.8725 66.0249C72.8656 65.8801 72.8298 65.7381 72.7673 65.6076C72.7048 65.4771 72.6169 65.3607 72.5088 65.2653C72.4006 65.17 72.2746 65.0977 72.1382 65.0529C72.0018 65.008 71.8578 64.9914 71.7149 65.0042C71.1714 65.0525 70.7725 65.5371 70.7486 66.0842C70.6595 68.1224 70.6106 70.1606 70.5802 72.1987C58.5565 65.8469 46.2274 63.856 38.8373 67.1522C35.8841 68.4707 33.9929 70.5583 33.3679 73.1953C33.2182 73.8213 33.1323 74.4612 33.1114 75.1049C33.1114 75.1049 33.1114 75.1049 33.1114 75.1115V91.9487C27.3256 92.2992 15.1867 91.9223 5.10324 84.241C4.62976 83.8765 4.06459 83.6535 3.47201 83.5976C2.87942 83.5417 2.2832 83.6549 1.75114 83.9245C1.22376 84.1891 0.780214 84.5976 0.470734 85.1038C0.161254 85.6101 -0.00178645 86.1938 8.31058e-05 86.789V121.042C-0.00431139 121.851 0.165624 122.65 0.498063 123.386C0.830503 124.121 1.31746 124.774 1.92504 125.3C11.4238 133.451 22.9963 134.947 30.2049 134.947C31.9309 134.945 33.4081 134.861 34.545 134.761ZM40.134 116.936L40.1427 116.949L39.9732 116.875L40.134 116.936ZM39.8645 69.5046C44.8644 67.2731 54.512 67.5895 65.8335 72.7217C66.8944 73.314 67.8878 74.0029 68.6171 74.8291C70.0726 76.4772 70.3693 79.2373 70.5367 81.5315C70.5367 82.42 70.5367 83.3089 70.5367 84.1981L70.5193 102.37V104.538C70.441 105.329 70.3019 106.135 69.8845 106.565C68.928 107.564 67.215 106.821 66.1302 106.392C55.587 101.777 45.3176 100.609 38.8406 103.499C38.0866 103.831 37.3687 104.242 36.6982 104.724C36.6392 104.746 36.5774 104.76 36.5145 104.765C35.9439 104.796 35.7537 104.462 35.6613 104.041V75.1895C35.6613 75.1895 35.6613 75.1895 35.6613 75.1818V75.1434C35.6785 74.6866 35.7411 74.2327 35.8483 73.7886C36.3895 71.4868 38.3319 70.1891 39.8645 69.5046ZM2.54786 121.042V86.789C2.5444 86.6718 2.57485 86.5561 2.63547 86.4562C2.6961 86.3563 2.78427 86.2764 2.88916 86.2264C2.9979 86.17 3.12038 86.1465 3.24198 86.1586C3.36359 86.1707 3.4792 86.2179 3.57501 86.2945C9.52924 90.8312 16.1291 92.9749 21.8725 93.9253C25.4409 95.0043 29.2636 95.7327 31.0255 99.4069C32.0744 101.597 32.3853 103.777 32.832 106.127C33.0494 107.245 33.0048 108.345 33.1146 109.399V111.477C33.1146 111.498 33.1146 111.516 33.1211 111.537C33.0778 112.957 33.4655 114.357 34.232 115.549C35.9472 118.203 39.533 119.996 45.1959 121.029C47.985 121.538 49.8556 122.433 50.3251 123.486C50.4132 123.683 50.6795 124.279 49.9751 125.458C47.7567 129.17 40.4232 131.659 34.3233 132.199C28.7549 132.693 14.6128 132.815 3.57175 123.34C3.24628 123.055 2.98608 122.702 2.80926 122.305C2.63244 121.908 2.54324 121.477 2.54786 121.042Z" fill="#131344"/>
</g>
<defs>
<clipPath id="clip0_89_608">
<rect width="160" height="160" fill="white"/>
</clipPath>
</defs>
</svg>
