<svg width="160" height="160" viewBox="0 0 160 160" fill="none" xmlns="http://www.w3.org/2000/svg">
<g id="ob9 1">
<path id="Vector" d="M61.2117 31.1616H7.37086L7.35463 31.2358C7.32183 31.3881 7.3059 31.5435 7.30713 31.6992V72.5195L7.40793 72.5125C7.60257 72.4998 7.76594 72.494 7.9212 72.494H61.2175C61.5419 72.4937 61.8529 72.3647 62.0823 72.1353C62.3117 71.9059 62.4407 71.5949 62.441 71.2705V32.384C62.4407 32.2229 62.4086 32.0636 62.3466 31.915C62.2847 31.7663 62.194 31.6314 62.0798 31.5179C61.9657 31.4043 61.8302 31.3144 61.6812 31.2533C61.5323 31.1922 61.3727 31.161 61.2117 31.1616Z" fill="#FF5975"/>
<path id="Vector_2" d="M85.1893 111.893C92.5569 111.893 98.5921 117.207 100.844 119.492L101.005 119.655V100.634L100.901 100.646C100.628 100.676 100.354 100.691 100.08 100.691H65.7269C65.4025 100.691 65.0915 100.82 64.8621 101.05C64.6327 101.279 64.5037 101.59 64.5034 101.915V135.692C64.5103 135.865 64.5103 136.039 64.5103 136.214L64.5034 140.798C64.5057 141.1 64.619 141.392 64.822 141.617L64.8556 141.644L64.9112 141.688L64.9471 141.744C65.166 141.925 65.4417 142.023 65.7257 142.021H96.6954L97.9826 141.996L97.9954 142.021H100.928L100.945 141.948C100.986 141.764 101.006 141.577 101.004 141.388V123.306L100.843 123.469C98.5909 125.754 92.5557 131.069 85.1881 131.069C80.4227 131.069 76.2135 128.78 73.5104 126.854C73.3946 126.793 73.2787 126.738 73.1628 126.68L73.0632 126.63L72.9983 126.494L72.9694 126.459C70.3868 124.531 68.8273 122.726 68.7613 122.649C68.4774 122.326 68.3208 121.91 68.3208 121.48C68.3208 121.05 68.4774 120.634 68.7613 120.311C69.0625 119.969 76.1023 111.893 85.1893 111.893Z" fill="#FF5975"/>
<path id="Vector_3" d="M82.9313 52.9949H67.2321C66.4846 52.997 65.7685 53.2952 65.2404 53.8242C64.7123 54.3531 64.4153 55.0698 64.4143 55.8173V73.529C64.414 73.7784 64.3148 74.0175 64.1385 74.1939C63.9621 74.3702 63.723 74.4695 63.4735 74.4698H34.0297C33.7532 74.5056 33.4813 74.5708 33.2187 74.6644C32.7367 74.6134 32.2223 74.5486 31.6349 74.4686H27.7211C26.6736 74.4698 25.6694 74.8865 24.9288 75.6271C24.1881 76.3678 23.7714 77.372 23.7702 78.4195V119.222C23.7705 119.572 23.9094 119.907 24.1564 120.154C24.4034 120.401 24.7383 120.539 25.0876 120.54H59.7069C60.4552 120.539 61.1725 120.241 61.7016 119.712C62.2307 119.183 62.5284 118.466 62.5293 117.717V114.547L62.4389 114.498C62.4632 114.208 62.4876 113.918 62.5154 113.63L62.5304 113.615V99.6557C62.5304 99.6134 62.5335 99.5712 62.5397 99.5294L62.5478 99.4773V99.4703L62.5907 99.344C62.6539 99.1603 62.773 99.0008 62.9313 98.888C63.0896 98.7752 63.2792 98.7147 63.4735 98.7149H80.2827C81.3304 98.7146 82.3352 98.2983 83.076 97.5574C83.8169 96.8165 84.2333 95.8118 84.2336 94.764V86.0744C84.235 86.0077 84.2411 85.9411 84.2521 85.8752V54.3122C84.2519 54.139 84.2176 53.9675 84.1512 53.8075C84.0847 53.6475 83.9874 53.5022 83.8647 53.3798C83.742 53.2575 83.5965 53.1605 83.4363 53.0945C83.2761 53.0284 83.1045 52.9946 82.9313 52.9949Z" fill="#FFD9B2"/>
<path id="Vector_4" d="M7.91795 88.2352H21.7054V121.476C21.7054 121.775 21.8243 122.062 22.036 122.274C22.2476 122.485 22.5346 122.604 22.8339 122.604H62.3426V143.05C62.3426 143.35 62.4615 143.637 62.6731 143.848C62.8848 144.06 63.1718 144.179 63.4711 144.179H106.872C107.171 144.179 107.458 144.06 107.669 143.848C107.881 143.637 108 143.35 108 143.05V92.8673C107.998 90.7681 107.163 88.7556 105.678 87.2712C104.194 85.7868 102.181 84.9518 100.082 84.9494H86.3177V52.0541C86.3177 51.7548 86.1989 51.4677 85.9872 51.2561C85.7756 51.0445 85.4886 50.9256 85.1893 50.9256H64.5984V30.1285C64.5984 29.8292 64.4795 29.5422 64.2679 29.3305C64.0563 29.1189 63.7692 29 63.4699 29H1.12849C0.829193 29 0.542159 29.1189 0.330527 29.3305C0.118894 29.5422 0 29.8292 0 30.1285V80.3172C0.00245308 82.4165 0.837447 84.429 2.32182 85.9134C3.80619 87.3978 5.81873 88.2327 7.91795 88.2352ZM100.081 100.785C101.682 100.787 103.246 100.299 104.562 99.388C104.675 99.31 104.807 99.2643 104.943 99.2558C105.08 99.2473 105.217 99.2764 105.338 99.3399C105.459 99.4034 105.561 99.4989 105.632 99.616C105.703 99.7331 105.741 99.8674 105.741 100.004V140.798C105.741 141.097 105.622 141.384 105.41 141.596C105.199 141.808 104.912 141.926 104.612 141.926H65.7269C65.4276 141.926 65.1406 141.808 64.9289 141.596C64.7173 141.384 64.5984 141.097 64.5984 140.798V101.914C64.5984 101.614 64.7173 101.327 64.9289 101.116C65.1406 100.904 65.4276 100.785 65.7269 100.785H100.081ZM64.5984 73.5278V55.8172C64.5984 55.1188 64.8759 54.4489 65.3698 53.9551C65.8636 53.4612 66.5335 53.1837 67.2319 53.1837H82.9311C83.2304 53.1837 83.5175 53.3026 83.7291 53.5142C83.9407 53.7259 84.0596 54.0129 84.0596 54.3122V85.8809C84.0473 85.9459 84.0407 86.0118 84.0399 86.0779V94.7675C84.0399 95.7655 83.6434 96.7227 82.9377 97.4284C82.232 98.1341 81.2748 98.5306 80.2767 98.5306H63.4688C63.1695 98.5306 62.8824 98.6495 62.6708 98.8612C62.4592 99.0728 62.3403 99.3598 62.3403 99.6591V117.722C62.34 118.42 62.0624 119.09 61.5686 119.584C61.0748 120.078 60.4051 120.355 59.7068 120.355H25.0874C24.7881 120.355 24.5011 120.237 24.2895 120.025C24.0778 119.813 23.9589 119.526 23.9589 119.227V78.4194C23.9589 77.4214 24.3554 76.4642 25.0611 75.7585C25.7669 75.0527 26.7241 74.6563 27.7221 74.6563H63.4711C63.7702 74.656 64.0569 74.5369 64.2683 74.3253C64.4797 74.1137 64.5984 73.8269 64.5984 73.5278ZM2.25813 72.6368C2.25813 72.4572 2.2674 72.2892 2.26856 72.1583C2.26731 72.1195 2.26383 72.0808 2.25813 72.0424V32.3855C2.25813 32.2373 2.28731 32.0905 2.34403 31.9536C2.40074 31.8167 2.48387 31.6923 2.58866 31.5875C2.69345 31.4827 2.81784 31.3996 2.95476 31.3429C3.09167 31.2862 3.23843 31.257 3.38662 31.257H61.2118C61.5111 31.257 61.7981 31.3759 62.0098 31.5875C62.2214 31.7991 62.3403 32.0862 62.3403 32.3855V71.2708C62.3403 71.5701 62.2214 71.8571 62.0098 72.0688C61.7981 72.2804 61.5111 72.3993 61.2118 72.3993H7.91563C6.40912 72.3996 4.93441 72.8327 3.667 73.6471L3.58706 73.6645C3.23368 73.7549 2.87683 73.9935 2.55705 73.7444C2.31838 73.5591 2.26277 73.1651 2.25581 72.7828L2.25813 72.6368Z" fill="#131344"/>
<path id="Vector_5" d="M13.4351 65.0629C13.758 65.2976 14.1609 65.3945 14.5551 65.3324C14.9494 65.2702 15.3029 65.0541 15.538 64.7315L24.2542 52.7573C24.7767 52.2521 25.3294 51.7968 25.9678 51.8084C26.5205 51.8188 27.1032 52.1652 27.6628 52.6055L35.8542 60.1875C35.9162 60.2443 35.9816 60.2973 36.05 60.3462C36.2521 60.4884 36.4803 60.5894 36.7214 60.6434C36.9626 60.6975 37.2121 60.7035 37.4555 60.6611C37.699 60.6187 37.9318 60.5287 38.1405 60.3964C38.3492 60.264 38.5298 60.0919 38.6719 59.8897L46.9815 48.0719C46.9931 48.0591 47.0081 48.0498 47.0186 48.0359C47.2572 47.7289 47.7369 46.9596 48.2119 47.0685C48.5201 47.1392 48.6661 47.5586 48.7518 47.9409L48.7947 48.9628C48.7947 49.3623 48.9534 49.7454 49.2358 50.0279C49.5183 50.3103 49.9014 50.469 50.3009 50.469C50.7003 50.469 51.0835 50.3103 51.3659 50.0279C51.6484 49.7454 51.8071 49.3623 51.8071 48.9628L52.1663 40.4806C52.2483 40.1531 52.2393 39.8093 52.1403 39.4865C52.0413 39.1637 51.8559 38.8741 51.6043 38.6489C51.2705 38.323 50.8265 38.1344 50.3602 38.1205C49.8939 38.1065 49.4394 38.2682 49.0867 38.5736L41.1514 42.2591C40.7826 42.4127 40.49 42.7066 40.3379 43.076C40.1858 43.4453 40.1867 43.86 40.3403 44.2287C40.494 44.5975 40.7878 44.8901 41.1572 45.0422C41.5266 45.1943 41.9412 45.1934 42.31 45.0398L42.734 44.8834C43.2218 44.7617 44.3306 44.4269 44.2472 45.2576C44.2402 45.3294 44.2275 45.4001 44.2147 45.4708L37.686 54.7536C36.8216 55.5032 35.9121 54.9853 35.1243 54.3353C35.0685 54.2907 35.0083 54.2519 34.9447 54.2194L26.6989 46.5865L26.6653 46.5552C26.4684 46.3758 26.2353 46.241 25.9816 46.1598C25.728 46.0786 25.4598 46.053 25.1954 46.0848C24.931 46.1166 24.6765 46.205 24.4493 46.3439C24.2221 46.4829 24.0276 46.6692 23.8788 46.8901L13.0748 63.0121C12.8593 63.3346 12.7764 63.7278 12.8436 64.1098C12.9107 64.4918 13.1226 64.8332 13.4351 65.0629Z" fill="#131344"/>
<path id="Vector_6" d="M85.1892 131.165C94.2693 131.165 101.385 123.055 101.684 122.707C101.98 122.365 102.143 121.928 102.143 121.476C102.143 121.024 101.98 120.587 101.684 120.245C101.385 119.898 94.2693 111.787 85.1892 111.787C76.1092 111.787 68.993 119.898 68.6941 120.245C68.3983 120.587 68.2355 121.024 68.2355 121.476C68.2355 121.928 68.3983 122.365 68.6941 122.707C68.993 123.057 76.1092 131.165 85.1892 131.165ZM91.5385 118.285C91.5029 118.098 91.4446 117.916 91.3647 117.744C91.3166 117.653 91.2778 117.558 91.2488 117.46C91.338 117.308 91.5419 117.273 91.7759 117.294C94.3249 118.59 96.4104 120.33 97.6316 121.485C96.473 122.584 94.5369 124.212 92.1537 125.482L92.0031 125.515C91.8524 125.551 91.6555 125.646 91.4932 125.611C91.448 125.604 91.4048 125.587 91.3669 125.562C91.329 125.536 91.2973 125.502 91.2741 125.463C91.2508 125.423 91.2367 125.379 91.2328 125.334C91.2288 125.288 91.235 125.242 91.2511 125.199C91.8883 124.169 92.2499 122.992 92.3011 121.781C92.3522 120.57 92.0911 119.367 91.5431 118.286L91.5385 118.285ZM76.8496 118.285C76.8984 118.266 76.9456 118.243 76.9909 118.216C77.2852 118.037 78.6129 117.153 78.8841 117.795C78.9605 117.972 78.796 118.332 78.7172 118.543C78.2576 119.549 78.0398 120.649 78.0813 121.754C78.1227 122.859 78.4223 123.939 78.9559 124.907C79.0324 125.091 79.0984 125.283 79.0544 125.371C78.8343 125.819 77.8506 125.219 77.6061 125.087C77.5378 125.05 77.4655 125.021 77.3906 125C75.7234 123.997 74.1696 122.816 72.7562 121.479C74.0149 120.286 75.3853 119.216 76.8484 118.285H76.8496Z" fill="#131344"/>
<path id="Vector_7" d="M48.166 82.4732C50.6176 82.5497 53.0681 82.5891 55.5197 82.6157C57.9713 82.6424 60.4218 82.6435 62.8734 82.6597L70.2271 82.6192L73.9034 82.5659C75.1292 82.5346 76.355 82.5161 77.5797 82.472C77.8292 82.472 78.0685 82.3729 78.2449 82.1965C78.4214 82.0201 78.5205 81.7808 78.5205 81.5313C78.5205 81.2818 78.4214 81.0425 78.2449 80.8661C78.0685 80.6896 77.8292 80.5905 77.5797 80.5905C76.3539 80.5477 75.128 80.5291 73.9034 80.4967L70.2271 80.4434L62.8734 80.4028C60.4218 80.4191 57.9713 80.4144 55.5197 80.4469C53.0681 80.4793 50.6176 80.5129 48.166 80.5894C47.9165 80.5894 47.6772 80.6885 47.5007 80.8649C47.3243 81.0413 47.2252 81.2806 47.2252 81.5301C47.2252 81.7796 47.3243 82.0189 47.5007 82.1953C47.6772 82.3718 47.9165 82.4709 48.166 82.4709V82.4732Z" fill="#131344"/>
<path id="Vector_8" d="M68.643 67.6094C70.133 67.7554 71.6218 67.7902 73.1118 67.7971C74.6018 67.8041 76.0906 67.76 77.5806 67.6094C77.814 67.5862 78.0304 67.4771 78.1879 67.3032C78.3453 67.1294 78.4325 66.9032 78.4325 66.6686C78.4325 66.4341 78.3453 66.2079 78.1879 66.034C78.0304 65.8602 77.814 65.751 77.5806 65.7278C76.0906 65.5772 74.6018 65.5424 73.1118 65.5401C71.6218 65.5378 70.133 65.5818 68.643 65.7278C68.4096 65.751 68.1932 65.8602 68.0357 66.034C67.8783 66.2079 67.7911 66.4341 67.7911 66.6686C67.7911 66.9032 67.8783 67.1294 68.0357 67.3032C68.1932 67.4771 68.4096 67.5862 68.643 67.6094Z" fill="#131344"/>
<path id="Vector_9" d="M30.6985 115.308C32.9613 115.385 35.2241 115.424 37.488 115.451C39.752 115.477 42.0136 115.479 44.2775 115.495L51.067 115.454L54.4618 115.401C55.5937 115.37 56.7245 115.351 57.8565 115.307C58.0979 115.295 58.3255 115.191 58.4922 115.016C58.6588 114.84 58.7518 114.608 58.7518 114.366C58.7518 114.125 58.6588 113.892 58.4922 113.717C58.3255 113.542 58.0979 113.437 57.8565 113.425C56.7245 113.383 55.5937 113.364 54.4618 113.332L51.067 113.278L44.2775 113.238C42.0147 113.254 39.752 113.249 37.488 113.282C35.2241 113.314 32.9625 113.348 30.6985 113.424C30.449 113.424 30.2097 113.523 30.0333 113.7C29.8569 113.876 29.7577 114.116 29.7577 114.365C29.7577 114.615 29.8569 114.854 30.0333 115.03C30.2097 115.207 30.449 115.306 30.6985 115.306V115.308Z" fill="#131344"/>
<path id="Vector_10" d="M70.1168 87.1333C69.2027 87.0904 68.2874 87.0719 67.3732 87.0394L64.6297 86.9861C62.8002 86.9583 60.9707 86.956 59.1425 86.9456C57.313 86.9618 55.4835 86.9571 53.6553 86.9896C51.827 87.022 49.9964 87.0556 48.1681 87.1321C47.9266 87.1441 47.699 87.2484 47.5324 87.4236C47.3658 87.5987 47.2728 87.8312 47.2728 88.0729C47.2728 88.3147 47.3658 88.5471 47.5324 88.7223C47.699 88.8974 47.9266 89.0018 48.1681 89.0137C49.9975 89.0902 51.827 89.1296 53.6553 89.1562C55.4835 89.1829 57.3142 89.1841 59.1425 89.2003C60.9719 89.1898 62.8014 89.1864 64.6297 89.1597L67.3732 89.1064C68.2874 89.0751 69.2027 89.0566 70.1168 89.0126C70.3583 89.0006 70.5859 88.8962 70.7525 88.7211C70.9192 88.546 71.0121 88.3135 71.0121 88.0718C71.0121 87.83 70.9192 87.5975 70.7525 87.4224C70.5859 87.2473 70.3583 87.1429 70.1168 87.1309V87.1333Z" fill="#131344"/>
<path id="Vector_11" d="M35.7434 89.738C38.5288 89.738 40.7868 87.48 40.7868 84.6946C40.7868 81.9091 38.5288 79.6511 35.7434 79.6511C32.958 79.6511 30.7 81.9091 30.7 84.6946C30.7 87.48 32.958 89.738 35.7434 89.738Z" fill="#131344"/>
<path id="Vector_12" d="M57.8564 97.9884C57.4532 97.9456 57.0453 97.927 56.6456 97.8946L55.4349 97.8413C54.6239 97.8077 53.8198 97.8019 53.0122 97.7996C52.2047 97.7973 51.3971 97.81 50.5896 97.8448C49.782 97.8795 48.9745 97.9108 48.1669 97.9873C47.9335 98.0105 47.717 98.1196 47.5596 98.2935C47.4022 98.4674 47.315 98.6935 47.315 98.9281C47.315 99.1627 47.4022 99.3889 47.5596 99.5627C47.717 99.7366 47.9335 99.8457 48.1669 99.8689C48.9779 99.9454 49.782 99.9848 50.5896 100.011C51.3971 100.038 52.2047 100.052 53.0122 100.057C53.8198 100.061 54.6273 100.049 55.4349 100.015L56.6456 99.9616C57.0488 99.9304 57.4566 99.9118 57.8564 99.8678C58.0879 99.842 58.3018 99.7318 58.4571 99.5583C58.6125 99.3847 58.6984 99.1599 58.6984 98.927C58.6984 98.694 58.6125 98.4692 58.4571 98.2956C58.3018 98.1221 58.0879 98.0119 57.8564 97.9861V97.9884Z" fill="#131344"/>
<path id="Vector_13" d="M57.8564 104.53C57.4532 104.487 57.0453 104.469 56.6456 104.436L55.4349 104.383C54.6239 104.349 53.8198 104.343 53.0122 104.341C52.2047 104.339 51.3971 104.352 50.5896 104.386C49.782 104.421 48.9745 104.452 48.1669 104.529C47.9335 104.552 47.717 104.661 47.5596 104.835C47.4022 105.009 47.315 105.235 47.315 105.47C47.315 105.704 47.4022 105.93 47.5596 106.104C47.717 106.278 47.9335 106.387 48.1669 106.41C48.9779 106.487 49.782 106.526 50.5896 106.553C51.3971 106.58 52.2047 106.594 53.0122 106.598C53.8198 106.603 54.6273 106.59 55.4349 106.556L56.6456 106.503C57.0488 106.472 57.4566 106.453 57.8564 106.409C58.0879 106.384 58.3018 106.273 58.4571 106.1C58.6125 105.926 58.6984 105.701 58.6984 105.468C58.6984 105.236 58.6125 105.011 58.4571 104.837C58.3018 104.664 58.0879 104.553 57.8564 104.528V104.53Z" fill="#131344"/>
<path id="Vector_14" d="M35.7434 107.134C38.5288 107.134 40.7868 104.876 40.7868 102.091C40.7868 99.3056 38.5288 97.0476 35.7434 97.0476C32.958 97.0476 30.7 99.3056 30.7 102.091C30.7 104.876 32.958 107.134 35.7434 107.134Z" fill="#131344"/>
<path id="Vector_15" d="M16.0536 136.521C16.339 136.344 16.6115 136.148 16.8692 135.933C17.1263 135.723 17.3733 135.502 17.6101 135.272C17.8498 135.044 18.0764 134.803 18.2889 134.549C18.5047 134.291 18.6942 134.013 18.8545 133.717C18.9675 133.499 19.0082 133.251 18.9706 133.008C18.933 132.765 18.8191 132.541 18.6453 132.367C18.4715 132.193 18.247 132.079 18.0041 132.042C17.7612 132.004 17.5127 132.045 17.2945 132.158C16.9988 132.318 16.7199 132.508 16.462 132.723C16.2084 132.936 15.9671 133.162 15.7391 133.402C15.5076 133.638 15.287 133.884 15.0774 134.142C14.8624 134.4 14.6658 134.672 14.4892 134.957C14.3586 135.175 14.3044 135.429 14.3354 135.681C14.3663 135.932 14.4805 136.167 14.6599 136.346C14.8392 136.525 15.0734 136.639 15.3251 136.67C15.5768 136.701 15.8317 136.647 16.0491 136.516L16.0536 136.521Z" fill="#131344"/>
<path id="Vector_16" d="M7.15802 133.717C7.50881 134.284 7.92656 134.807 8.40227 135.275C8.86468 135.756 9.38881 136.175 9.96099 136.519C10.1787 136.644 10.4316 136.694 10.6806 136.661C10.9295 136.628 11.1607 136.514 11.3382 136.336C11.5158 136.159 11.6299 135.928 11.6629 135.679C11.6959 135.43 11.646 135.177 11.5208 134.96C11.1767 134.388 10.7583 133.864 10.2766 133.402C9.80875 132.926 9.28542 132.509 8.71787 132.158C8.50032 132.03 8.24629 131.977 7.99571 132.009C7.74514 132.041 7.51223 132.155 7.33363 132.333C7.15502 132.512 7.04085 132.745 7.00906 132.995C6.97727 133.246 7.02967 133.5 7.15802 133.717Z" fill="#131344"/>
<path id="Vector_17" d="M9.96049 139.487C9.39227 139.837 8.86881 140.255 8.4017 140.731C7.92131 141.194 7.50305 141.718 7.15739 142.289C7.03222 142.507 6.98227 142.759 7.01528 143.008C7.04829 143.257 7.16242 143.488 7.34 143.666C7.51759 143.843 7.74874 143.957 7.9977 143.99C8.24667 144.023 8.49958 143.973 8.71731 143.848C9.28849 143.503 9.81245 143.085 10.2761 142.604C10.7527 142.138 11.1705 141.614 11.5204 141.046C11.6477 140.829 11.6993 140.575 11.667 140.326C11.6348 140.076 11.5207 139.843 11.3424 139.665C11.1641 139.487 10.9318 139.373 10.6818 139.341C10.4318 139.309 10.1781 139.36 9.96049 139.487Z" fill="#131344"/>
<path id="Vector_18" d="M14.4923 141.048C14.8485 141.61 15.2658 142.132 15.7366 142.603C16.1917 143.092 16.7162 143.511 17.2931 143.847C17.4637 143.94 17.6549 143.989 17.8491 143.989C18.0434 143.989 18.2346 143.94 18.4051 143.847C18.5373 143.774 18.6538 143.676 18.7481 143.559C18.8424 143.441 18.9125 143.306 18.9545 143.161C18.9965 143.016 19.0096 142.865 18.993 142.715C18.9764 142.565 18.9303 142.42 18.8576 142.288C18.5213 141.711 18.102 141.187 17.6132 140.732C17.1418 140.262 16.6198 139.844 16.0567 139.488C15.8397 139.352 15.5828 139.293 15.3279 139.322C15.0731 139.35 14.8356 139.465 14.6543 139.646C14.473 139.827 14.3586 140.064 14.33 140.319C14.3014 140.574 14.3602 140.831 14.4968 141.048H14.4923Z" fill="#131344"/>
<path id="Vector_19" d="M120.68 49.0026C121.08 48.7187 121.466 48.4143 121.835 48.0907C122.204 47.7694 122.563 47.4389 122.91 47.0992C123.263 46.7631 123.596 46.4077 123.921 46.0439C124.248 45.6753 124.546 45.2831 124.815 44.8706C124.96 44.6395 125.023 44.3658 124.992 44.0944C124.962 43.8231 124.84 43.5701 124.647 43.377C124.454 43.1839 124.201 43.0622 123.929 43.0317C123.657 43.0012 123.384 43.0639 123.152 43.2093C122.74 43.4776 122.347 43.776 121.978 44.102C121.617 44.4272 121.255 44.7597 120.922 45.1127C120.59 45.4657 120.25 45.8187 119.93 46.1873C119.606 46.556 119.302 46.9412 119.018 47.3414C118.858 47.5712 118.785 47.8497 118.81 48.1283C118.835 48.4069 118.957 48.6678 119.155 48.8655C119.353 49.0633 119.614 49.1854 119.892 49.2104C120.171 49.2355 120.45 49.1619 120.68 49.0026Z" fill="#131344"/>
<path id="Vector_20" d="M110.111 47.0978C110.793 47.8029 111.54 48.4407 112.344 49.0024C112.575 49.1567 112.852 49.2262 113.128 49.1992C113.404 49.1721 113.662 49.0502 113.858 48.8542C114.054 48.6581 114.176 48.4001 114.203 48.1242C114.23 47.8483 114.161 47.5715 114.006 47.3411C113.446 46.5381 112.808 45.791 112.104 45.1101C111.417 44.4125 110.67 43.7764 109.872 43.2091C109.641 43.0515 109.363 42.9794 109.085 43.0051C108.808 43.0308 108.548 43.1529 108.35 43.35C108.153 43.5472 108.031 43.8071 108.005 44.0848C107.979 44.3624 108.052 44.6403 108.209 44.8703C108.777 45.6668 109.414 46.4122 110.111 47.0978Z" fill="#131344"/>
<path id="Vector_21" d="M109.872 59.7976C110.674 59.2359 111.422 58.5999 112.105 57.8978C112.803 57.2118 113.439 56.4652 114.006 55.6668C114.163 55.4367 114.236 55.1588 114.21 54.8812C114.184 54.6035 114.062 54.3436 113.865 54.1465C113.667 53.9493 113.407 53.8273 113.13 53.8015C112.852 53.7758 112.574 53.848 112.343 54.0056C111.544 54.5716 110.797 55.2073 110.111 55.9053C109.408 56.5876 108.772 57.3346 108.21 58.1364C108.055 58.3667 107.986 58.6435 108.013 58.9194C108.04 59.1953 108.162 59.4533 108.358 59.6494C108.554 59.8454 108.812 59.9674 109.089 59.9944C109.365 60.0214 109.642 59.9519 109.872 59.7976Z" fill="#131344"/>
<path id="Vector_22" d="M119.016 55.6656C119.59 56.4587 120.226 57.2044 120.92 57.8955C121.593 58.6073 122.341 59.245 123.151 59.7977C123.382 59.9431 123.656 60.0058 123.928 59.9753C124.199 59.9448 124.452 59.8231 124.645 59.63C124.839 59.4369 124.961 59.1839 124.991 58.9126C125.021 58.6412 124.959 58.3675 124.813 58.1364C124.26 57.3274 123.622 56.5799 122.91 55.9065C122.218 55.2137 121.472 54.5776 120.678 54.0043C120.449 53.8432 120.169 53.7682 119.89 53.7926C119.61 53.8169 119.348 53.939 119.149 54.1374C118.951 54.3358 118.829 54.5978 118.804 54.8773C118.78 55.1568 118.855 55.4359 119.016 55.6656Z" fill="#131344"/>
</g>
</svg>
