<svg width="160" height="160" viewBox="0 0 160 160" fill="none" xmlns="http://www.w3.org/2000/svg">
<g id="ob3 1" clip-path="url(#clip0_89_654)">
<path id="Vector" d="M153.491 52.7327L151.298 51.9809C149.466 51.3544 148.025 49.9133 147.398 48.0807L146.646 45.8879C146.427 45.2613 145.534 45.2613 145.315 45.8879L144.563 48.0807C143.936 49.9133 142.495 51.3544 140.663 51.9809L138.47 52.7327C137.843 52.952 137.843 53.8448 138.47 54.0641L140.663 54.816C142.495 55.4425 143.936 56.8835 144.563 58.7161L145.315 60.909C145.534 61.5355 146.427 61.5355 146.646 60.909L147.398 58.7161C148.025 56.8835 149.466 55.4425 151.298 54.816L153.491 54.0641C154.118 53.8292 154.118 52.9364 153.491 52.7327Z" fill="#FCCA97"/>
<path id="Vector_2" d="M128.155 63.6294L126.292 62.991C124.736 62.459 123.513 61.2353 122.98 59.6791L122.342 57.817C122.156 57.285 121.398 57.285 121.211 57.817L120.573 59.6791C120.041 61.2353 118.817 62.459 117.261 62.991L115.399 63.6294C114.867 63.8156 114.867 64.5738 115.399 64.76L117.261 65.3984C118.817 65.9305 120.041 67.1541 120.573 68.7103L121.211 70.5724C121.398 71.1045 122.156 71.1045 122.342 70.5724L122.98 68.7103C123.513 67.1541 124.736 65.9305 126.292 65.3984L128.155 64.76C128.687 64.5738 128.687 63.8023 128.155 63.6294Z" fill="#131344"/>
<path id="Vector_3" d="M149.514 84.0043L146.029 82.8209C143.127 81.8267 140.855 79.5544 139.862 76.6509L138.679 73.1636C138.332 72.1694 136.928 72.1694 136.581 73.1636L135.398 76.6509C134.404 79.5544 132.133 81.8267 129.231 82.8209L125.745 84.0043C124.752 84.3515 124.752 85.7559 125.745 86.1031L129.231 87.2866C132.133 88.2807 134.404 90.553 135.398 93.4565L136.581 96.9438C136.928 97.938 138.332 97.938 138.679 96.9438L139.862 93.4565C140.855 90.553 143.127 88.2807 146.029 87.2866L149.514 86.1031C150.524 85.7559 150.524 84.3357 149.514 84.0043Z" fill="#FF5975"/>
<path id="Vector_4" d="M110.089 96.6594C110.059 96.6125 110.028 96.5812 109.997 96.55C109.967 96.5031 109.921 96.4718 109.874 96.4249C109.859 96.4092 109.844 96.3936 109.828 96.378C109.813 96.3623 109.782 96.3467 109.767 96.3311C109.721 96.2998 109.675 96.2685 109.629 96.2372C109.583 96.206 109.537 96.1903 109.506 96.1591C109.46 96.1434 109.414 96.1121 109.368 96.0965C109.322 96.0809 109.276 96.0652 109.214 96.0496C109.168 96.034 109.122 96.0183 109.076 96.0183C109.015 96.0027 108.969 96.0027 108.907 96.0027C108.877 96.0027 108.861 96.0027 108.831 96.0027H74.7508C74.7201 96.0027 74.7047 96.0027 74.674 96.0027C74.6126 96.0027 74.5512 96.0027 74.5051 96.0183C74.4591 96.0183 74.413 96.034 74.367 96.0496C74.3209 96.0652 74.2595 96.0809 74.2135 96.0965C74.1674 96.1121 74.1214 96.1434 74.0753 96.1591C74.0293 96.1747 73.9832 96.206 73.9371 96.2372C73.8911 96.2685 73.845 96.2998 73.799 96.3311C73.7683 96.3467 73.7529 96.3623 73.7222 96.378C73.7069 96.3936 73.6915 96.4092 73.6762 96.4249C73.6301 96.4718 73.5994 96.5031 73.5534 96.55C73.5227 96.5812 73.492 96.6282 73.4613 96.6594C73.4306 96.7063 73.3999 96.7532 73.3845 96.8002C73.3538 96.8471 73.3385 96.894 73.3077 96.9409C73.2924 96.9878 73.2617 97.0347 73.2463 97.0816C73.231 97.1285 73.2156 97.1754 73.2003 97.238C73.1849 97.2849 73.1849 97.3318 73.1696 97.3787C73.1542 97.4413 73.1542 97.4882 73.1542 97.5507C73.1542 97.5664 73.1542 97.5976 73.1542 97.6133V138.285C73.1542 138.3 73.1542 138.332 73.1542 138.347C73.1542 138.41 73.1542 138.457 73.1696 138.519C73.1696 138.566 73.1849 138.613 73.2003 138.66C73.2156 138.707 73.231 138.754 73.2463 138.816C73.2617 138.863 73.277 138.91 73.3077 138.957C73.3231 139.004 73.3538 139.051 73.3845 139.098C73.4152 139.145 73.4306 139.192 73.4613 139.223C73.492 139.27 73.5227 139.301 73.5534 139.332C73.5841 139.379 73.6301 139.41 73.6762 139.457C73.6915 139.473 73.7069 139.489 73.7222 139.504C73.7529 139.52 73.7683 139.536 73.799 139.567C73.8297 139.598 73.8757 139.629 73.9065 139.645C73.9525 139.676 74.0139 139.708 74.06 139.723C74.0907 139.739 74.1367 139.754 74.1674 139.77C74.2288 139.801 74.2902 139.817 74.3516 139.833C74.3823 139.848 74.413 139.848 74.4437 139.864C74.5359 139.88 74.6433 139.895 74.7354 139.895H108.815C108.907 139.895 109.015 139.88 109.107 139.864C109.138 139.864 109.168 139.848 109.214 139.833C109.276 139.817 109.337 139.801 109.399 139.77C109.445 139.754 109.475 139.739 109.506 139.723C109.552 139.692 109.613 139.676 109.66 139.645C109.706 139.614 109.736 139.598 109.767 139.567C109.798 139.551 109.813 139.536 109.844 139.504C109.859 139.489 109.874 139.473 109.89 139.457C109.936 139.41 109.967 139.379 110.013 139.332C110.043 139.301 110.074 139.254 110.105 139.223C110.135 139.176 110.166 139.129 110.181 139.098C110.212 139.051 110.228 139.004 110.258 138.957C110.274 138.91 110.289 138.863 110.304 138.816C110.32 138.769 110.335 138.722 110.35 138.66C110.366 138.613 110.366 138.566 110.381 138.519C110.381 138.457 110.396 138.41 110.396 138.347C110.396 138.332 110.396 138.3 110.396 138.285V97.5976C110.396 97.582 110.396 97.5507 110.396 97.5351C110.396 97.4725 110.381 97.4256 110.381 97.3631C110.366 97.3162 110.366 97.2693 110.35 97.2224C110.335 97.1754 110.32 97.1285 110.304 97.066C110.289 97.0034 110.274 96.9722 110.258 96.9253C110.243 96.8783 110.212 96.8314 110.181 96.7845C110.135 96.7533 110.12 96.7063 110.089 96.6594ZM79.8627 99.2082H103.657C104.333 99.2082 104.701 100.021 104.256 100.537L92.6503 114.376C92.1745 114.939 91.3148 114.939 90.8389 114.376L79.2333 100.537C78.8342 100.021 79.1873 99.2082 79.8627 99.2082ZM76.3012 131.717V104.149C76.3012 103.399 77.2223 103.055 77.6982 103.633L89.0274 117.159C89.4112 117.613 89.4112 118.27 89.0274 118.723L77.6982 132.249C77.2223 132.812 76.3012 132.468 76.3012 131.717ZM103.673 136.658H79.8781C79.2026 136.658 78.8342 135.861 79.2794 135.329L90.8849 121.491C91.3608 120.928 92.2205 120.928 92.6964 121.491L104.302 135.329C104.701 135.861 104.348 136.658 103.673 136.658ZM107.234 131.717C107.234 132.468 106.313 132.812 105.837 132.233L94.5078 118.707C94.1241 118.254 94.1241 117.597 94.5078 117.144L105.837 103.618C106.313 103.055 107.234 103.399 107.234 104.134V131.717Z" fill="#131344"/>
<path id="Vector_5" d="M4.04158 107.974H38.5209C40.0153 107.974 41.2324 106.769 41.2324 105.291V100.016C41.2324 98.5373 40.0153 97.333 38.5209 97.333H4.04158C2.54717 97.333 1.33008 98.5373 1.33008 100.016V105.291C1.33008 106.769 2.54717 107.974 4.04158 107.974Z" fill="#FF5975"/>
<path id="Vector_6" d="M62.4285 107.974C63.9416 107.974 65.1739 106.769 65.1739 105.291V100.016C65.1739 98.5373 63.9416 97.333 62.4285 97.333H47.9682C46.4551 97.333 45.2227 98.5373 45.2227 100.016V105.291C45.2227 106.769 46.4551 107.974 47.9682 107.974H62.4285Z" fill="#131344"/>
<path id="Vector_7" d="M66.5039 114.982C66.5039 113.319 65.2751 111.964 63.7663 111.964H4.06768C2.55889 111.964 1.33008 113.319 1.33008 114.982V120.916C1.33008 122.58 2.55889 123.935 4.06768 123.935H63.7663C65.2751 123.935 66.5039 122.58 66.5039 120.916V114.982Z" fill="#131344"/>
<path id="Vector_8" d="M63.7764 126.595H38.6397C37.1364 126.595 35.9121 127.95 35.9121 129.613V135.547C35.9121 137.211 37.1364 138.565 38.6397 138.565H63.7764C65.2796 138.565 66.5039 137.211 66.5039 135.547V129.613C66.5039 127.95 65.2796 126.595 63.7764 126.595Z" fill="#FF5975"/>
<path id="Vector_9" d="M4.02644 126.595C2.54038 126.595 1.33008 127.95 1.33008 129.613V135.547C1.33008 137.211 2.54038 138.565 4.02644 138.565H27.8954C29.3815 138.565 30.5918 137.211 30.5918 135.547V129.613C30.5918 127.95 29.3815 126.595 27.8954 126.595H4.02644Z" fill="#131344"/>
<path id="Vector_10" d="M1.22395 54.1586C3.45256 54.2655 5.68117 54.3418 7.90978 54.3876L11.2837 54.4639L14.6575 54.5097C15.679 54.525 16.7004 54.525 17.7219 54.5402C18.8207 54.5402 19.7029 55.4256 19.7029 56.5094V60.2798C19.7029 61.7605 20.91 62.9512 22.4113 62.9512H30.1495C31.6507 62.9512 32.8579 61.7605 32.8579 60.2798V56.5704C32.8579 55.4866 33.7555 54.6013 34.8544 54.6013L55.2059 54.6776L82.2434 54.6318C91.2507 54.586 100.273 54.7387 109.281 54.1586C109.915 54.1128 110.426 53.5938 110.395 52.9374C110.38 52.3268 109.838 51.8383 109.219 51.7926C100.227 51.2125 91.2352 51.3804 82.2434 51.3193L55.2059 51.2735L34.8544 51.3499C33.7555 51.3499 32.8579 50.4798 32.8579 49.3807V45.6713C32.8579 44.1907 31.6507 43 30.1495 43H22.4113C20.91 43 19.7029 44.1907 19.7029 45.6713V49.4418C19.7029 50.5256 18.8207 51.3957 17.7219 51.4109C16.7004 51.4109 15.679 51.4262 14.6575 51.4415L11.2837 51.4873L7.90978 51.5636C5.65021 51.6094 3.40613 51.6857 1.14656 51.7926C0.496551 51.8231 -0.0296538 52.3574 0.00129914 53.029C0.0322521 53.6549 0.589409 54.1281 1.22395 54.1586Z" fill="#131344"/>
<path id="Vector_11" d="M109.219 74.3256C100.227 73.7612 91.2352 73.8985 82.2434 73.8527L70.5277 73.8222C69.4288 73.8222 68.5312 72.9375 68.5312 71.8545V68.026C68.5312 66.5464 67.324 65.3567 65.8228 65.3567H58.0846C56.5833 65.3567 55.3762 66.5464 55.3762 68.026V71.8393C55.3762 72.9223 54.494 73.807 53.3952 73.807L28.1685 73.8985L14.6575 73.9595C12.398 73.9747 10.1539 74.0052 7.89431 74.0815C5.63474 74.1425 3.39066 74.2188 1.13109 74.3408C0.496555 74.3713 -0.0296535 74.9052 0.00129947 75.5611C0.016776 76.1864 0.558464 76.6593 1.193 76.6898C3.42161 76.8118 5.66569 76.8881 7.89431 76.9491C10.1539 77.0101 12.398 77.0559 14.6575 77.0711L28.1685 77.1321L53.3952 77.2237C54.494 77.2237 55.3762 78.1083 55.3762 79.1913V82.6385C55.3762 84.1181 56.5833 85.3078 58.0846 85.3078H65.8228C67.324 85.3078 68.5312 84.1181 68.5312 82.6385V79.1608C68.5312 78.0778 69.4134 77.1932 70.5277 77.1932L82.2434 77.1627C91.2507 77.1169 100.273 77.2542 109.281 76.6898C109.915 76.644 110.426 76.1254 110.395 75.4695C110.38 74.8442 109.838 74.3713 109.219 74.3256Z" fill="#131344"/>
</g>
<defs>
<clipPath id="clip0_89_654">
<rect width="160" height="160" fill="white"/>
</clipPath>
</defs>
</svg>
