<svg width="300" height="300" viewBox="0 0 300 300" fill="none" xmlns="http://www.w3.org/2000/svg">
<path d="M251.97 224.14L234.83 192.25C233.4 189.58 230.63 187.93 227.6 187.93H84.2799C81.2499 187.93 78.4799 189.59 77.0499 192.25L59.9099 224.14C59.5999 224.73 59.4299 225.36 59.4099 226.03C59.4199 226.24 59.4299 226.43 59.4399 226.64C59.5299 227.34 59.7699 227.98 60.1799 228.55C60.9599 229.66 62.2899 230.33 63.7399 230.33H248.14C249.57 230.33 250.9 229.67 251.69 228.56C252.09 228 252.34 227.36 252.43 226.65C252.44 226.44 252.45 226.24 252.46 226.02C252.45 225.35 252.28 224.71 251.97 224.14ZM179.51 225.18C179.3 225.53 178.94 225.74 178.53 225.74H126.15C125.75 225.74 125.38 225.53 125.17 225.18C124.97 224.84 124.96 224.41 125.15 224.06L130.55 214.12C130.75 213.75 131.13 213.53 131.55 213.53H173.11C173.53 213.53 173.91 213.76 174.11 214.12L179.52 224.06C179.72 224.41 179.71 224.84 179.51 225.18ZM236.66 208.64C236.46 208.98 236.08 209.2 235.68 209.2H76.7399C76.3399 209.2 75.9699 208.99 75.7599 208.64C75.5599 208.3 75.5499 207.87 75.7399 207.52L83.4599 193.32C83.6599 192.95 84.0399 192.73 84.4599 192.73H227.95C228.37 192.73 228.75 192.96 228.95 193.32L236.67 207.52C236.87 207.87 236.86 208.3 236.66 208.64Z" fill="#59ADFF"/>
<path d="M86.19 185.66H227.6C230.05 185.66 232.05 183.66 232.05 181.21V108.65C232.05 105.45 229.45 102.85 226.25 102.85H209.16C208.58 102.85 208.04 103.11 207.67 103.56C207.3 104.02 207.15 104.63 207.28 105.21C207.53 106.37 207.65 107.57 207.65 108.76C207.65 109.03 207.64 109.31 207.63 109.62C207.6 110.16 207.79 110.67 208.16 111.06C208.53 111.45 209.03 111.66 209.57 111.66H217.79C220.77 111.66 223.19 114.08 223.19 117.06V171.96C223.19 174.61 221.22 176.9 218.6 177.29H218.58C218.43 177.34 218.3 177.35 218.16 177.34C218.14 177.34 218.13 177.34 218.11 177.34H218.1L218.02 177.35C217.94 177.36 217.86 177.36 217.79 177.36H177.14L177.12 177.37C176.85 177.46 176.63 177.45 176.39 177.36L176.37 177.35H94.22C94.21 177.35 94.2 177.35 94.19 177.35C94.16 177.35 94.13 177.35 94.11 177.35C94.08 177.35 94.05 177.35 94.02 177.34C94 177.34 93.98 177.34 93.96 177.33C91.08 177.19 88.83 174.82 88.83 171.94V126.15C88.83 125.07 87.95 124.2 86.88 124.2H81.79C80.71 124.2 79.84 125.08 79.84 126.15V179.3C79.83 182.81 82.68 185.66 86.19 185.66Z" fill="#59ADFF"/>
<path d="M118.23 48.3298L130.32 55.4098C130.77 55.6698 130.98 56.2098 130.84 56.7098C130.77 56.9598 130.6 57.1798 130.36 57.3498L118.83 65.2398C118.5 65.4598 118.46 65.8298 118.57 66.0998C118.68 66.3698 118.96 66.6098 119.35 66.5398L133.17 64.1898C133.69 64.0998 134.19 64.3798 134.4 64.8598C134.5 65.0898 134.51 65.3698 134.44 65.6598L130.8 78.6898C130.73 78.9398 130.77 79.1898 130.92 79.3898C131.08 79.5998 131.33 79.7198 131.59 79.7198C131.82 79.7198 132.04 79.6198 132.2 79.4298C133.47 77.9398 134.55 76.2298 135.41 74.3598C135.77 73.5798 136.21 72.8098 136.72 72.0798C137.96 70.2798 139.55 68.7598 141.42 67.5398C143.26 66.3498 145.35 65.5098 147.48 65.1098C148.51 64.9098 149.59 64.8098 150.69 64.8098C150.8 64.8098 150.92 64.8098 151.03 64.8098C151.45 64.8098 151.88 64.8098 152.36 64.8398C152.39 64.8398 152.42 64.8398 152.45 64.8398H158C158.28 64.8398 158.53 64.6798 158.65 64.4298C158.77 64.1798 158.73 63.8798 158.55 63.6698L156.3 60.9598C155.97 60.5598 155.95 59.9798 156.26 59.5598C156.41 59.3498 156.65 59.1998 156.93 59.1298L170.46 55.6598C170.85 55.5598 171.01 55.2298 171 54.9398C170.99 54.6498 170.8 54.3298 170.41 54.2598L156.67 51.7498C156.47 51.7098 156.18 51.6098 155.97 51.3598C155.63 50.9598 155.61 50.3798 155.91 49.9598L164.07 38.5698C164.3 38.2398 164.21 37.8798 164.02 37.6698C163.83 37.4598 163.48 37.3298 163.14 37.5298L150.96 44.4598C150.51 44.7198 149.94 44.6298 149.57 44.2598C149.4 44.0798 149.29 43.8198 149.26 43.5298L148.2 29.5998C148.17 29.1998 147.87 28.9798 147.58 28.9498C147.3 28.9098 146.95 29.0398 146.81 29.4098L141.95 42.4998C141.85 42.7698 141.67 42.9898 141.45 43.1298C141 43.3998 140.43 43.3198 140.06 42.9498L130.26 32.9398C129.98 32.6498 129.61 32.6798 129.37 32.8298C129.13 32.9798 128.94 33.2998 129.07 33.6798L133.77 46.8398C133.87 47.1098 133.88 47.3898 133.79 47.6398C133.61 48.1298 133.13 48.4398 132.61 48.3898L118.66 46.9998C118.26 46.9598 118 47.2198 117.91 47.4898C117.82 47.7698 117.88 48.1298 118.23 48.3298Z" fill="#59ADFF"/>
<path d="M111.12 111.68H132.16C133.24 111.68 134.11 110.8 134.11 109.73V104.8C134.11 103.72 133.23 102.85 132.16 102.85H111.12C110.04 102.85 109.17 103.73 109.17 104.8V109.73C109.17 110.8 110.05 111.68 111.12 111.68Z" fill="#59ADFF"/>
<path d="M275.64 190.84L258.81 186.96C258.53 186.9 258.29 186.75 258.13 186.55C257.81 186.13 257.81 185.56 258.13 185.15L268.85 171.55C269.1 171.24 269.02 170.88 268.84 170.65C268.66 170.43 268.31 170.28 267.96 170.46L252.54 178.33C252.07 178.57 251.51 178.45 251.16 178.06C250.99 177.87 250.9 177.6 250.89 177.31L250.36 160.05C250.35 159.65 250.06 159.42 249.77 159.37C249.49 159.32 249.14 159.43 248.98 159.8L242.22 175.74C242.02 176.22 241.51 176.5 240.99 176.42C240.74 176.38 240.49 176.24 240.3 176.02L235.57 170.72C235.37 170.49 235.07 170.42 234.78 170.53C234.49 170.64 234.32 170.9 234.32 171.2V178.95C234.32 183.9 235.56 188.82 237.9 193.18L248.82 213.51C248.95 213.75 249.18 213.89 249.44 213.89C249.49 213.89 249.55 213.88 249.6 213.87C249.92 213.8 250.15 213.54 250.16 213.21L250.57 205.25C250.59 204.96 250.69 204.7 250.86 204.51C251.22 204.12 251.78 204.02 252.24 204.27L267.5 212.47C267.85 212.66 268.2 212.52 268.38 212.31C268.57 212.09 268.65 211.73 268.41 211.41L258 197.57C257.76 197.26 257.71 196.85 257.84 196.49C257.98 196.13 258.29 195.86 258.67 195.78L275.62 192.25C276.01 192.17 276.19 191.84 276.19 191.55C276.2 191.26 276.03 190.93 275.64 190.84Z" fill="#FFD500"/>
<path d="M261.63 86.8497V44.4598C261.63 43.3798 260.75 42.5098 259.68 42.5098H217.29C216.21 42.5098 215.34 43.3898 215.34 44.4598V86.8497C215.34 87.9297 216.22 88.7997 217.29 88.7997H259.68C260.75 88.7997 261.63 87.9197 261.63 86.8497ZM254.68 78.1597C254.48 78.5097 254.1 78.7297 253.7 78.7297H223.27C222.87 78.7297 222.49 78.5097 222.29 78.1597C222.09 77.8097 222.09 77.3797 222.29 77.0297L237.5 50.6798C237.7 50.3298 238.08 50.1098 238.48 50.1098C238.88 50.1098 239.26 50.3298 239.46 50.6798L254.68 77.0397C254.88 77.3797 254.88 77.8197 254.68 78.1597Z" fill="#FFD500"/>
<path d="M190.28 93.9096H173.53C171.66 93.9096 169.89 94.6496 168.66 95.9296C167.09 97.5696 166.5 99.7996 167.04 102.06C167.73 104.94 170.34 106.96 173.38 106.98H187.98C188.3 106.98 188.6 107.12 188.82 107.35C189.04 107.59 189.14 107.9 189.11 108.23C189.05 108.8 188.54 109.25 187.93 109.25H173.38C171.36 109.31 169.73 109.46 168.27 109.71C166.43 110.04 164.89 110.55 163.58 111.26C162.18 112.01 160.95 113.06 159.91 114.38C159.01 115.51 158.23 116.9 157.44 118.77L157.43 118.78C157.3 119.1 156.99 119.31 156.66 119.29C156.39 119.28 156.15 119.16 156 118.95C155.85 118.75 155.8 118.49 155.87 118.25C156.39 116.3 157.16 114.57 158.17 113.12C158.79 112.24 159.42 111.53 160.09 110.93L160.63 110.45L161.22 110.02C161.29 109.97 161.36 109.92 161.43 109.87C161.56 109.77 161.68 109.68 161.82 109.61L162.45 109.24C162.94 108.96 163.45 108.71 164.01 108.48C164.78 108.16 165.38 107.54 165.66 106.77C165.94 106 165.9 105.17 165.52 104.43C165.49 104.37 165.46 104.31 165.43 104.25C164.78 102.9 163.25 102.23 161.87 102.68C160.31 103.2 158.71 103.28 157.11 102.93C154.81 102.42 152.75 101.03 151.46 99.1096C150.81 98.1396 150.34 97.0396 150.1 95.9096C149.98 95.3596 149.91 94.7696 149.9 94.1796C149.9 94.0296 149.9 93.8996 149.9 93.7696V92.6196C149.9 91.8696 149.9 91.1196 149.9 90.3696C149.9 87.1096 149.89 83.7396 150.21 80.4296C150.25 79.9996 150.6 79.6496 151.01 79.6396C151.45 79.6296 151.82 79.9596 151.86 80.3896C152.17 83.6796 152.17 87.0396 152.17 90.2796C152.17 91.0596 152.17 91.8396 152.17 92.6096V93.7596C152.17 93.8896 152.17 94.0196 152.17 94.1196C152.18 94.5596 152.23 94.9896 152.32 95.4196C152.5 96.2796 152.85 97.0896 153.34 97.8096C154.33 99.2796 155.88 100.32 157.58 100.68C159.29 101.05 161.13 100.73 162.62 99.8096C164.12 98.8896 165.22 97.3896 165.65 95.6996C165.88 94.8396 165.89 94.0596 165.88 92.9496L165.87 83.7696V82.0496C165.87 81.6096 165.87 81.1496 165.84 80.7496C165.83 80.6396 165.83 80.5296 165.82 80.4196C165.8 80.0696 165.79 79.6996 165.71 79.3396C165.69 79.2296 165.68 79.1296 165.66 79.0196C165.61 78.6696 165.55 78.2996 165.45 77.9496C165.02 76.1396 164.2 74.3796 163.07 72.8696C161.96 71.3596 160.51 70.0596 158.9 69.1096C157.29 68.1496 155.46 67.5196 153.61 67.2696C153.27 67.1996 152.92 67.1796 152.58 67.1696C152.45 67.1596 152.32 67.1596 152.2 67.1496C151.83 67.1196 151.4 67.1196 150.98 67.1196H150.71C149.72 67.1196 148.8 67.1996 147.89 67.3796C146.06 67.7296 144.25 68.4596 142.67 69.4796C141.07 70.5096 139.68 71.8596 138.63 73.3796C137.53 74.9596 136.82 76.7296 136.57 78.4996C136.51 78.8896 136.48 79.3196 136.47 79.8696V84.4496L136.49 127.27L136.44 159.82C136.43 163.89 138.02 167.72 140.89 170.6C143.77 173.48 147.59 175.07 151.67 175.07H160.39C168.79 175.07 175.62 168.24 175.62 159.84V131.3C175.62 127.06 179.07 123.61 183.31 123.61H190.51C194.48 123.61 198.21 122.07 201.01 119.26C203.8 116.47 205.34 112.77 205.36 108.83C205.37 104.94 203.83 101.25 201.02 98.4196C198.19 95.5596 194.27 93.9096 190.28 93.9096Z" fill="#FFD500"/>
<path d="M184.05 81.8496V86.6496C184.05 89.4096 186.29 91.6496 189.05 91.6496H190.54C190.95 91.6496 191.36 91.6696 191.76 91.6996C191.89 91.7096 192.02 91.7095 192.15 91.7095C193.53 91.7095 194.83 91.1896 195.86 90.2396C197 89.1796 197.65 87.6696 197.65 86.1196V81.8596C197.65 73.7296 191.04 67.1196 182.91 67.1196H182.6C181.56 67.1196 180.63 67.6996 180.18 68.6396C179.73 69.5596 179.84 70.6296 180.46 71.4396C182.81 74.4296 184.05 78.0396 184.05 81.8496Z" fill="#FFD500"/>
<path d="M164.95 71.4803L164.97 71.5003C166.27 73.2603 167.23 75.3003 167.74 77.4203C167.86 77.8303 167.92 78.2603 167.99 78.6803C168.01 78.8003 168.02 78.9203 168.04 79.0403C168.12 79.4703 168.14 79.9103 168.16 80.3403C168.17 80.4503 168.17 80.5603 168.18 80.6703C168.21 81.1403 168.21 81.5703 168.21 81.9803V86.6303C168.21 87.9603 168.73 89.2103 169.67 90.1502C170.63 91.1102 171.92 91.6302 173.3 91.6302C173.31 91.6302 173.32 91.6302 173.34 91.6302H176.17C179.27 91.6302 181.8 89.1003 181.8 86.0003V81.8303C181.8 73.7003 175.19 67.0903 167.06 67.0903C166.02 67.0903 165.13 67.6403 164.66 68.5703C164.2 69.4903 164.3 70.5803 164.92 71.4203C164.93 71.4503 164.94 71.4703 164.95 71.4803Z" fill="#FFD500"/>
<path d="M104.95 91.6797H57.03C55.95 91.6797 55.08 92.5597 55.08 93.6297V120C55.08 121.08 55.96 121.95 57.03 121.95H104.95C106.03 121.95 106.9 121.07 106.9 120V93.6297C106.9 92.5597 106.03 91.6797 104.95 91.6797ZM62.93 102.77L67.62 97.5397C67.85 97.2897 68.15 97.1397 68.46 97.1097C68.79 97.0897 69.06 97.1797 69.27 97.3997L72.27 100.43C72.59 100.75 73.02 100.93 73.47 100.93H73.48C73.94 100.93 74.37 100.75 74.69 100.42L75.68 99.4097C76.33 98.7397 76.99 98.0697 77.64 97.3997C77.86 97.1697 78.16 97.0397 78.48 97.0397C78.8 97.0397 79.1 97.1597 79.32 97.3797L82.27 100.41C82.59 100.74 83.02 100.92 83.48 100.92C83.94 100.92 84.37 100.74 84.69 100.42L87.63 97.4397L87.64 97.4197C88.09 96.9797 88.81 96.9697 89.27 97.4097C89.28 97.4197 89.29 97.4297 89.29 97.4397L91.78 100.01L92.29 100.54C92.94 101.21 94.01 101.23 94.69 100.58C94.88 100.39 95.07 100.22 95.19 100.1L95.2 100.09C95.59 99.7197 96.01 99.3297 96.51 98.8797C96.65 98.7597 96.79 98.6297 96.92 98.5097C97.21 98.2497 97.52 97.9697 97.83 97.7097C98.15 97.4397 98.62 97.4297 98.92 97.6897C99.27 97.9897 99.32 98.4897 99.03 98.8397C98.78 99.1497 98.52 99.4597 98.26 99.7497C98.13 99.8997 98 100.05 97.87 100.2C97.47 100.67 97.07 101.12 96.69 101.54C96.31 101.96 95.92 102.39 95.48 102.85C95.21 103.15 94.93 103.44 94.66 103.73C94.52 103.88 94.38 104.02 94.24 104.17C94.04 104.38 93.76 104.5 93.47 104.51C93.18 104.51 92.9 104.41 92.69 104.2L89.69 101.16C89.37 100.83 88.94 100.65 88.48 100.65H88.47C88.01 100.65 87.58 100.84 87.26 101.17L84.31 104.21C84.09 104.44 83.79 104.57 83.48 104.57C83.16 104.57 82.86 104.45 82.63 104.22L82.62 104.21L79.69 101.21C79.37 100.88 78.94 100.7 78.48 100.7C78.02 100.7 77.59 100.88 77.27 101.21L77.26 101.22C76.3 102.2 75.32 103.21 74.34 104.19L74.32 104.21C74.1 104.43 73.8 104.56 73.49 104.56C73.18 104.56 72.89 104.44 72.66 104.23C72.65 104.22 72.64 104.21 72.64 104.2L69.62 101.06C68.98 100.39 67.91 100.37 67.23 101L64.13 103.91C63.8 104.22 63.29 104.24 62.98 103.96C62.66 103.63 62.63 103.1 62.93 102.77ZM98.32 115.92H63.67C61.46 115.92 59.66 114.12 59.66 111.91C59.66 109.7 61.46 107.9 63.67 107.9H98.32C100.53 107.9 102.33 109.7 102.33 111.91C102.33 114.12 100.53 115.92 98.32 115.92Z" fill="#FFD500"/>
<path d="M275.31 118.17H270.91C270.28 118.17 269.78 117.66 269.78 117.04V112.15C269.78 111.07 268.9 110.2 267.83 110.2H258.82C257.74 110.2 256.87 111.08 256.87 112.15V134.31C256.87 135.39 257.75 136.26 258.82 136.26H275.32C276.4 136.26 277.27 135.38 277.27 134.31V120.12C277.26 119.05 276.38 118.17 275.31 118.17Z" fill="#FF5975"/>
<path d="M217.8 113.94H209.6C208.05 113.94 206.61 114.83 205.95 116.2C205.11 117.93 204 119.5 202.63 120.86C199.4 124.09 195.1 125.87 190.53 125.87H183.33C180.34 125.87 177.91 128.3 177.91 131.29V143.46C177.91 143.75 178.08 144 178.34 144.12C178.61 144.23 178.91 144.18 179.12 143.98L196.02 127.82C196.43 127.43 197.07 127.4 197.51 127.75C197.95 128.1 198.07 128.73 197.78 129.22L180.43 158.26C180.27 158.52 180.29 158.84 180.48 159.07C180.67 159.31 180.98 159.4 181.26 159.31L213.44 148.85C213.98 148.67 214.57 148.93 214.81 149.44C215.06 149.95 214.89 150.57 214.41 150.88L186.18 169.51C185.93 169.67 185.81 169.97 185.88 170.27C185.95 170.56 186.18 170.78 186.48 170.82L217.41 174.97C217.55 174.99 217.69 175 217.83 175C219.09 175 220.26 174.25 220.71 173.1C220.85 172.73 220.92 172.36 220.92 171.97V117.07C220.93 115.35 219.53 113.94 217.8 113.94Z" fill="#FF5975"/>
<path d="M134.11 115.89C134.11 114.81 133.23 113.94 132.16 113.94H111.12C110.04 113.94 109.17 114.82 109.17 115.89V123.08C109.17 123.71 108.66 124.21 108.04 124.21H93.0399C91.9599 124.21 91.0899 125.09 91.0899 126.16V171.95C91.0899 173.16 91.7999 174.27 92.8999 174.79C93.2599 174.96 93.6599 175.04 94.0899 175.04C94.2499 175.04 94.4099 175.03 94.5699 175.01L125.65 170.58C125.95 170.54 126.18 170.32 126.25 170.03C126.32 169.73 126.2 169.44 125.94 169.28L97.6599 150.62C97.1899 150.31 97.0199 149.69 97.2599 149.18C97.5099 148.67 98.0999 148.42 98.6299 148.6L130.81 159.05C131.1 159.15 131.4 159.06 131.59 158.82C131.78 158.58 131.8 158.26 131.64 158.01L114.29 128.97C114 128.48 114.12 127.85 114.56 127.5C115 127.15 115.64 127.18 116.05 127.56L132.9 143.67C133.11 143.87 133.41 143.93 133.68 143.81C133.95 143.69 134.12 143.44 134.11 143.15L134.1 127.3L134.11 115.89Z" fill="#FF5975"/>
<path d="M92.07 248.19C89.12 245.5 85.29 244.02 81.3 244.02H75.59C66.02 244.02 57.94 236.54 57.2 226.99C57.15 226.6 57.13 226.22 57.15 225.83C57.15 225.8 57.15 225.77 57.15 225.73C57.15 225.67 57.14 225.61 57.14 225.56C57.14 225.44 57.16 225.31 57.21 225.17V225.15C57.33 224.41 57.56 223.71 57.91 223.06L63.62 212.43C65.43 209.07 65.97 205.16 65.15 201.44L63.66 194.64C63.57 194.25 63.25 194.08 62.96 194.08C62.67 194.08 62.35 194.25 62.26 194.64L57.55 216.2C57.48 216.49 57.34 216.73 57.14 216.89C56.73 217.22 56.15 217.22 55.74 216.9L38.23 203.4C37.92 203.16 37.56 203.23 37.34 203.42C37.12 203.6 36.98 203.95 37.16 204.31L47.42 223.9C47.66 224.36 47.56 224.93 47.16 225.28C46.97 225.45 46.71 225.55 46.41 225.56L24.36 226.47C23.96 226.49 23.73 226.78 23.68 227.06C23.63 227.34 23.75 227.69 24.11 227.84L44.56 236.25C44.92 236.4 45.18 236.72 45.25 237.1C45.32 237.48 45.18 237.87 44.9 238.13L28.56 253.03C28.26 253.3 28.28 253.67 28.42 253.92C28.56 254.17 28.88 254.37 29.26 254.24L50.33 247.54C50.83 247.38 51.37 247.58 51.64 248.03C51.77 248.25 51.83 248.52 51.79 248.81L48.86 270.68C48.81 271.08 49.06 271.35 49.33 271.45C49.6 271.55 49.97 271.49 50.18 271.16L62.01 252.48C62.29 252.04 62.83 251.85 63.33 252.01C63.57 252.09 63.79 252.26 63.95 252.51L75.76 271.15C75.91 271.39 76.14 271.49 76.36 271.49C76.45 271.49 76.53 271.47 76.61 271.45C76.88 271.35 77.13 271.08 77.08 270.68L74.14 248.81C74.1 248.52 74.16 248.24 74.29 248.03C74.57 247.58 75.11 247.38 75.6 247.54L96.6801 254.24C97.0601 254.36 97.3701 254.16 97.5201 253.92C97.6601 253.67 97.6801 253.3 97.3801 253.03L92.07 248.19Z" fill="#FF5975"/>
<path d="M30.6399 164.77H54.08C55.16 164.77 56.03 163.89 56.03 162.82V148.55C56.03 147.47 55.15 146.6 54.08 146.6H30.6399C29.5599 146.6 28.6899 147.48 28.6899 148.55V162.82C28.6899 163.9 29.5599 164.77 30.6399 164.77Z" fill="#FF5975"/>
<path d="M280.04 57.6401H270.9C270.22 57.6401 269.67 58.1901 269.67 58.8701V68.0001C269.67 68.6801 270.22 69.2301 270.9 69.2301H280.03C280.71 69.2301 281.26 68.6801 281.26 68.0001V58.8701C281.27 58.1901 280.72 57.6401 280.04 57.6401ZM278.8 65.5701C278.8 66.2301 278.26 66.7701 277.6 66.7701H273.33C272.67 66.7701 272.13 66.2301 272.13 65.5701V61.3001C272.13 60.6401 272.67 60.1101 273.33 60.1101H277.6C278.26 60.1101 278.8 60.6401 278.8 61.3001V65.5701Z" fill="#131344"/>
<path d="M272.65 48.4097C272.01 49.1097 271.39 49.8197 270.82 50.5797C270.53 50.9497 270.56 51.5097 270.95 51.8497C271.28 52.1497 271.8 52.1497 272.15 51.8697C272.9 51.2997 273.61 50.6797 274.3 50.0497C274.5 49.8697 274.7 49.6897 274.89 49.4997C275.22 49.1897 275.73 49.1897 276.06 49.4997C276.25 49.6897 276.45 49.8697 276.65 50.0497C277.35 50.6897 278.07 51.2997 278.82 51.8797C279.16 52.1397 279.65 52.1397 279.99 51.8497C280.37 51.5197 280.4 50.9397 280.1 50.5397C279.53 49.7897 278.92 49.0897 278.3 48.3997C278.12 48.1997 277.94 48.0098 277.75 47.8098C277.44 47.4798 277.44 46.9698 277.75 46.6498C277.95 46.4298 278.17 46.1998 278.3 46.0498C278.94 45.3498 279.56 44.6398 280.13 43.8798C280.39 43.5398 280.39 43.0498 280.1 42.7098C279.78 42.3298 279.19 42.2998 278.79 42.5998C278.04 43.1698 277.34 43.7798 276.65 44.3998C276.5 44.5298 276.27 44.7498 276.05 44.9598C275.72 45.2698 275.22 45.2598 274.89 44.9598C274.69 44.7698 274.5 44.5898 274.29 44.4098C273.59 43.7698 272.88 43.1498 272.12 42.5698C271.75 42.2898 271.19 42.3098 270.85 42.6998C270.55 43.0398 270.56 43.5498 270.83 43.9098C271.4 44.6598 272.02 45.3598 272.65 46.0598C272.83 46.2598 273.01 46.4598 273.2 46.6598C273.51 46.9898 273.51 47.4998 273.2 47.8298C273.01 48.0197 272.83 48.2098 272.65 48.4097Z" fill="#131344"/>
<path d="M279.6 116.8C279.6 116.78 279.59 116.76 279.59 116.74C279.58 116.69 279.56 116.64 279.54 116.58C279.53 116.56 279.52 116.54 279.51 116.52C279.49 116.47 279.46 116.41 279.43 116.36C279.42 116.35 279.42 116.34 279.41 116.33C279.38 116.28 279.34 116.23 279.29 116.18L271.8 108.21C271.79 108.2 271.78 108.2 271.78 108.19C271.77 108.18 271.77 108.18 271.76 108.17C271.71 108.13 271.66 108.08 271.61 108.05C271.6 108.04 271.58 108.03 271.57 108.02C271.51 107.99 271.46 107.96 271.4 107.93C271.39 107.93 271.38 107.92 271.37 107.92C271.3 107.89 271.23 107.87 271.15 107.85C271.07 107.83 271 107.83 270.92 107.82H255.72C255.04 107.82 254.49 108.37 254.49 109.05V137.38C254.49 138.06 255.04 138.61 255.72 138.61H278.39C279.07 138.61 279.62 138.06 279.62 137.38V117.01C279.62 116.95 279.62 116.88 279.6 116.8ZM277.16 134.31C277.16 135.33 276.33 136.16 275.31 136.16H258.81C257.79 136.16 256.96 135.33 256.96 134.31V112.15C256.96 111.13 257.79 110.3 258.81 110.3H267.82C268.84 110.3 269.67 111.13 269.67 112.15V117.04C269.67 117.72 270.22 118.27 270.9 118.27H275.3C276.32 118.27 277.15 119.1 277.15 120.12V134.31H277.16Z" fill="#131344"/>
<path d="M273.23 142.78C272.2 142.65 271.17 142.59 270.15 142.54C269.12 142.49 268.09 142.48 267.07 142.47C266.04 142.47 265.01 142.49 263.99 142.53C262.96 142.58 261.93 142.64 260.91 142.77C260.5 142.82 260.15 143.15 260.1 143.58C260.04 144.09 260.4 144.56 260.91 144.62C261.94 144.75 262.97 144.82 263.99 144.86C265.02 144.91 266.05 144.92 267.07 144.92C268.1 144.91 269.13 144.9 270.15 144.85C271.18 144.8 272.21 144.74 273.23 144.61C273.64 144.56 273.99 144.23 274.04 143.8C274.1 143.31 273.74 142.84 273.23 142.78Z" fill="#131344"/>
<path d="M273.23 147.3C272.2 147.17 271.17 147.11 270.15 147.06C269.12 147.01 268.09 147 267.07 146.99C266.04 146.99 265.01 147.01 263.99 147.05C262.96 147.09 261.93 147.16 260.91 147.29C260.5 147.34 260.15 147.67 260.1 148.1C260.04 148.61 260.4 149.07 260.91 149.14C261.94 149.27 262.97 149.34 263.99 149.38C265.02 149.43 266.05 149.44 267.07 149.44C268.1 149.43 269.13 149.42 270.15 149.37C271.18 149.32 272.21 149.26 273.23 149.13C273.64 149.08 273.99 148.75 274.04 148.32C274.1 147.83 273.74 147.37 273.23 147.3Z" fill="#131344"/>
<path d="M262.76 40.1399H240.74C240.06 40.1399 239.51 39.5899 239.51 38.9099V30.3799C239.51 29.6999 238.96 29.1499 238.28 29.1499H202.54C201.86 29.1499 201.31 29.6999 201.31 30.3799V56.0799C201.31 56.7599 201.86 57.3099 202.54 57.3099H211.74C212.42 57.3099 212.97 57.8599 212.97 58.5399V89.9199C212.97 90.5999 213.52 91.1499 214.2 91.1499H262.75C263.43 91.1499 263.98 90.5999 263.98 89.9199V41.3799C264 40.6999 263.44 40.1399 262.76 40.1399ZM261.53 86.8499C261.53 87.8699 260.7 88.6999 259.68 88.6999H217.29C216.27 88.6999 215.44 87.8699 215.44 86.8499V44.4599C215.44 43.4399 216.27 42.6099 217.29 42.6099H259.68C260.7 42.6099 261.53 43.4399 261.53 44.4599V86.8499Z" fill="#131344"/>
<path d="M262.12 260.84L257.47 260.74C256.9 260.73 256.39 260.36 256.21 259.82L254.68 255.43C254.45 254.75 253.49 254.75 253.25 255.43L251.72 259.82C251.53 260.36 251.03 260.72 250.46 260.74L245.81 260.84C245.09 260.86 244.8 261.76 245.37 262.19L249.07 265C249.52 265.35 249.72 265.94 249.55 266.48L248.21 270.93C248 271.61 248.77 272.18 249.36 271.77L253.18 269.11C253.65 268.79 254.27 268.79 254.74 269.11L258.55 271.77C259.14 272.18 259.91 271.62 259.7 270.93L258.36 266.48C258.19 265.93 258.39 265.34 258.84 265L262.54 262.19C263.13 261.76 262.83 260.85 262.12 260.84Z" fill="#131344"/>
<path d="M254.77 76.98L239.56 50.62C239.34 50.24 238.93 50 238.49 50C238.05 50 237.64 50.24 237.42 50.62L222.2 76.98C221.98 77.36 221.98 77.83 222.2 78.21C222.42 78.59 222.83 78.83 223.27 78.83H253.7C254.14 78.83 254.55 78.59 254.77 78.21C254.99 77.83 254.99 77.36 254.77 76.98ZM249.43 76.36H227.55C226.6 76.36 226.01 75.33 226.48 74.51L237.42 55.56C237.9 54.74 239.08 54.74 239.56 55.56L250.5 74.51C250.97 75.34 250.38 76.36 249.43 76.36Z" fill="#131344"/>
<path d="M239.41 260.84L234.76 260.74C234.19 260.73 233.68 260.36 233.5 259.82L231.97 255.43C231.74 254.75 230.78 254.75 230.55 255.43L229.02 259.82C228.83 260.36 228.33 260.72 227.76 260.74L223.11 260.84C222.39 260.86 222.1 261.76 222.67 262.19L226.37 265C226.82 265.35 227.02 265.94 226.85 266.48L225.51 270.93C225.3 271.61 226.07 272.18 226.66 271.77L230.48 269.11C230.95 268.79 231.57 268.79 232.04 269.11L235.86 271.77C236.45 272.18 237.22 271.62 237.01 270.93L235.67 266.48C235.5 265.93 235.7 265.34 236.15 265L239.85 262.19C240.42 261.76 240.13 260.85 239.41 260.84Z" fill="#131344"/>
<path d="M238.44 69.0701C238.95 69.0901 239.39 68.7001 239.41 68.1901L239.72 61.7001C239.72 61.6601 239.72 61.6201 239.72 61.5801C239.69 60.9001 239.11 60.3701 238.43 60.4001C237.75 60.4301 237.22 61.0101 237.25 61.6901L237.56 68.1801C237.58 68.6601 237.96 69.0501 238.44 69.0701Z" fill="#131344"/>
<path d="M238.49 74.1498C239.34 74.1498 240.03 73.4598 240.03 72.6098C240.03 71.7598 239.34 71.0698 238.49 71.0698C237.64 71.0698 236.95 71.7598 236.95 72.6098C236.95 73.4598 237.63 74.1498 238.49 74.1498Z" fill="#131344"/>
<path d="M229.04 193.27C228.82 192.88 228.41 192.63 227.95 192.63H84.4599C84.0099 192.63 83.5899 192.88 83.3699 193.27L75.6499 207.47C75.4399 207.85 75.4499 208.32 75.6699 208.69C75.8899 209.07 76.2999 209.29 76.7299 209.29H235.68C236.11 209.29 236.52 209.06 236.74 208.69C236.96 208.32 236.97 207.85 236.76 207.47L229.04 193.27Z" fill="#131344"/>
<path d="M216.7 260.84L212.05 260.74C211.48 260.73 210.97 260.36 210.79 259.82L209.26 255.43C209.03 254.75 208.07 254.75 207.84 255.43L206.31 259.82C206.12 260.36 205.62 260.72 205.05 260.74L200.4 260.84C199.68 260.86 199.39 261.76 199.96 262.19L203.66 265C204.11 265.35 204.31 265.94 204.14 266.48L202.8 270.93C202.59 271.61 203.36 272.18 203.95 271.77L207.77 269.11C208.24 268.79 208.86 268.79 209.33 269.11L213.15 271.77C213.74 272.18 214.51 271.62 214.3 270.93L212.96 266.48C212.79 265.93 212.99 265.34 213.44 265L217.14 262.19C217.71 261.76 217.42 260.85 216.7 260.84Z" fill="#131344"/>
<path d="M194 260.84L189.35 260.74C188.78 260.73 188.27 260.36 188.09 259.82L186.56 255.43C186.33 254.75 185.37 254.75 185.14 255.43L183.61 259.82C183.42 260.36 182.92 260.72 182.35 260.74L177.7 260.84C176.98 260.86 176.69 261.76 177.26 262.19L180.96 265C181.41 265.35 181.61 265.94 181.44 266.48L180.1 270.93C179.89 271.61 180.66 272.18 181.25 271.77L185.07 269.11C185.54 268.79 186.16 268.79 186.63 269.11L190.45 271.77C191.04 272.18 191.81 271.62 191.6 270.93L190.26 266.48C190.09 265.93 190.29 265.34 190.74 265L194.44 262.19C195.01 261.76 194.71 260.85 194 260.84Z" fill="#131344"/>
<path d="M174.21 214.07C173.99 213.67 173.58 213.43 173.12 213.43H152.34H131.56C131.11 213.43 130.69 213.68 130.47 214.07L125.07 224.01C124.86 224.39 124.87 224.86 125.09 225.23C125.31 225.61 125.72 225.83 126.15 225.83H152.34H178.53C178.97 225.83 179.37 225.6 179.59 225.23C179.81 224.86 179.82 224.39 179.61 224.01L174.21 214.07Z" fill="#131344"/>
<path d="M171.29 260.84L166.64 260.74C166.07 260.73 165.56 260.36 165.38 259.82L163.85 255.43C163.62 254.75 162.66 254.75 162.43 255.43L160.9 259.82C160.71 260.36 160.21 260.72 159.64 260.74L154.99 260.84C154.27 260.86 153.98 261.76 154.55 262.19L158.25 265C158.7 265.35 158.9 265.94 158.73 266.48L157.39 270.93C157.18 271.61 157.95 272.18 158.54 271.77L162.36 269.11C162.83 268.79 163.45 268.79 163.92 269.11L167.74 271.77C168.33 272.18 169.1 271.62 168.89 270.93L167.55 266.48C167.38 265.93 167.58 265.34 168.03 265L171.73 262.19C172.3 261.76 172.01 260.85 171.29 260.84Z" fill="#131344"/>
<path d="M146.38 268.97C141.5 268.74 136.62 268.68 131.74 268.66C129.3 268.65 126.86 268.67 124.42 268.72C121.98 268.76 119.54 268.84 117.1 268.97C116.63 268.99 116.25 269.37 116.22 269.85C116.2 270.36 116.59 270.8 117.1 270.82C119.54 270.95 121.98 271.03 124.42 271.07C126.86 271.11 129.3 271.13 131.74 271.13C136.62 271.11 141.5 271.05 146.38 270.82C146.85 270.8 147.24 270.42 147.26 269.94C147.29 269.43 146.89 268.99 146.38 268.97Z" fill="#131344"/>
<path d="M146.38 257.87C142.55 257.64 138.72 257.58 134.9 257.56C132.98 257.55 131.07 257.57 129.16 257.62C127.25 257.66 125.33 257.74 123.42 257.87C122.96 257.9 122.59 258.26 122.56 258.73C122.53 259.24 122.91 259.68 123.42 259.72C125.33 259.85 127.25 259.93 129.16 259.97C131.08 260.01 132.99 260.03 134.9 260.03C138.73 260.01 142.56 259.95 146.38 259.72C146.84 259.69 147.22 259.32 147.25 258.85C147.28 258.34 146.89 257.9 146.38 257.87Z" fill="#131344"/>
<path d="M146.38 263.42C145.16 263.3 143.94 263.23 142.72 263.19C141.5 263.14 140.28 263.13 139.06 263.12C137.84 263.11 136.62 263.13 135.4 263.18C134.18 263.22 132.96 263.29 131.74 263.43C131.32 263.48 130.97 263.81 130.92 264.25C130.86 264.76 131.23 265.22 131.74 265.28C132.96 265.42 134.18 265.48 135.4 265.53C136.62 265.57 137.84 265.59 139.06 265.59C140.28 265.58 141.5 265.57 142.72 265.52C143.94 265.47 145.16 265.41 146.38 265.29C146.81 265.25 147.17 264.9 147.21 264.45C147.27 263.92 146.89 263.47 146.38 263.42Z" fill="#131344"/>
<path d="M284.4 190.43L262.14 185.3C261.7 185.2 261.51 184.67 261.8 184.32L275.94 166.38C276.3 165.92 276.29 165.28 275.93 164.83C275.56 164.38 274.93 164.25 274.42 164.51L254.06 174.9C253.66 175.1 253.17 174.82 253.16 174.37L252.46 151.54C252.44 150.96 252.02 150.47 251.45 150.36C250.88 150.25 250.31 150.56 250.09 151.09L241.17 172.12C240.99 172.54 240.44 172.63 240.14 172.29L237.95 169.84C235.67 167.28 234.41 163.98 234.41 160.56V108.65C234.41 104.14 230.75 100.48 226.24 100.48H207.92C206.57 100.48 205.3 99.83 204.51 98.73C203.89 97.86 203.18 97.05 202.41 96.32C200.85 94.83 200.01 92.76 200.01 90.61V81.84C200.01 72.4 192.35 64.74 182.91 64.74H164.77C163.33 64.74 161.97 64.1 161.06 62.99L159.98 61.69C159.69 61.34 159.86 60.81 160.3 60.7L179.23 55.85C179.87 55.68 180.29 55.03 180.12 54.35C180 53.87 179.58 53.52 179.1 53.43L159.93 49.93C159.49 49.85 159.28 49.33 159.54 48.97L170.92 33.09C171.26 32.62 171.22 31.97 170.83 31.54C170.44 31.11 169.81 31.01 169.3 31.29L152.32 40.96C151.93 41.19 151.44 40.92 151.4 40.47L149.91 21.03C149.87 20.54 149.57 20.09 149.11 19.92C148.45 19.69 147.76 20.02 147.52 20.65L140.73 38.97C140.57 39.4 140.03 39.51 139.71 39.19L126.05 25.23C125.58 24.75 124.81 24.72 124.3 25.21C123.94 25.55 123.85 26.09 124.02 26.56L130.58 44.91C130.73 45.34 130.39 45.78 129.94 45.73L110.5 43.82C109.92 43.76 109.39 44.11 109.21 44.67C109.03 45.22 109.26 45.82 109.76 46.12L126.62 55.99C127.01 56.22 127.03 56.77 126.66 57.03L110.58 68.03C110.17 68.31 109.93 68.8 110.02 69.28C110.14 69.97 110.79 70.4 111.44 70.29L130.7 67.01C131.15 66.93 131.52 67.35 131.4 67.79L126.12 86.6C125.96 87.16 126.22 87.75 126.73 88.02C126.91 88.1199 127.11 88.16 127.31 88.16C127.66 88.16 128.01 88.01 128.25 87.73L132.69 82.51C133.15 81.97 134.03 82.29 134.03 83V84.48V90.6V98.64C134.03 99.66 133.2 100.49 132.18 100.49H111.13C110.11 100.49 109.28 99.66 109.28 98.64V81.76C109.28 81.08 108.73 80.53 108.05 80.53H101.69C101.01 80.53 100.46 79.98 100.46 79.3V73.33C100.46 72.65 99.91 72.1 99.23 72.1H93.06C92.38 72.1 91.83 71.55 91.83 70.87V64.95C91.83 64.27 91.28 63.72 90.6 63.72H36.48C35.8 63.72 35.25 64.27 35.25 64.95V106.28C35.25 106.96 35.8 107.51 36.48 107.51H42.65C43.33 107.51 43.88 108.06 43.88 108.74V114.66C43.88 115.34 44.43 115.89 45.11 115.89H51.47C52.15 115.89 52.7 116.44 52.7 117.12V123.09C52.7 123.77 53.25 124.32 53.93 124.32H75.6C76.62 124.32 77.45 125.15 77.45 126.17V178.94C77.45 183.89 76.23 188.76 73.88 193.12L68.89 202.4C68.62 202.91 67.87 202.8 67.74 202.24L64.16 185.88C64.01 185.23 63.38 184.79 62.69 184.94C62.2 185.04 61.84 185.45 61.74 185.93L55.83 212.88C55.73 213.32 55.21 213.51 54.85 213.24L32.97 196.36C32.51 196.01 31.87 196.02 31.42 196.39C30.98 196.76 30.85 197.39 31.12 197.91L43.96 222.4C44.17 222.8 43.89 223.28 43.44 223.3L15.83 224.44C15.16 224.47 14.62 225.02 14.65 225.72C14.66 226.21 15 226.64 15.46 226.83L40.97 237.33C41.39 237.5 41.48 238.05 41.15 238.35L20.73 256.97C20.3 257.36 20.21 258 20.5 258.5C20.79 259 21.39 259.23 21.94 259.06L48.27 250.69C48.7 250.55 49.13 250.91 49.07 251.36L45.4 278.75C45.32 279.32 45.66 279.88 46.2 280.07C46.34 280.12 46.48 280.14 46.62 280.14C47.03 280.14 47.43 279.93 47.66 279.57L62.45 256.23C62.69 255.85 63.25 255.85 63.49 256.23L78.28 279.57C78.64 280.13 79.39 280.32 79.98 279.96C80.4 279.7 80.61 279.2 80.54 278.7L76.87 251.36C76.81 250.91 77.24 250.55 77.67 250.69L104.01 259.06C104.56 259.24 105.16 259 105.45 258.5C105.74 258 105.64 257.36 105.21 256.97L92.28 245.19C91.86 244.81 92.14 244.12 92.7 244.12H236.29C246.03 244.12 254.04 236.57 254.78 227.01C254.83 226.62 254.85 226.23 254.84 225.83C254.84 225.74 254.85 225.65 254.85 225.56C254.85 225.41 254.82 225.27 254.77 225.14C254.66 224.41 254.42 223.69 254.06 223.01C252.96 220.97 252.4 218.71 252.4 216.41C252.4 216.17 252.41 215.92 252.42 215.68L252.81 208.22C252.83 207.77 253.32 207.49 253.72 207.71L273.84 218.52C274.35 218.79 274.98 218.67 275.36 218.24C275.74 217.8 275.75 217.15 275.41 216.69L261.66 198.45C261.39 198.09 261.58 197.57 262.03 197.47L284.35 192.83C284.83 192.73 285.24 192.37 285.35 191.89C285.48 191.23 285.05 190.58 284.4 190.43ZM209.6 114.04H217.79C219.47 114.04 220.83 115.4 220.83 117.08V171.97C220.83 172.36 220.76 172.72 220.63 173.06C220.13 174.33 218.78 175.05 217.43 174.87L186.5 170.72C185.94 170.64 185.77 169.91 186.24 169.59L214.47 150.96C214.98 150.62 215.17 149.95 214.9 149.4C214.63 148.85 213.99 148.57 213.41 148.76L181.23 159.22C180.69 159.4 180.22 158.81 180.51 158.32L197.86 129.28C198.18 128.75 198.05 128.07 197.57 127.68C197.09 127.29 196.39 127.32 195.95 127.75L179.05 143.91C178.66 144.28 178.01 144.01 178.01 143.46V131.3C178.01 128.36 180.39 125.98 183.33 125.98H190.53C195.13 125.98 199.46 124.19 202.7 120.94C204.09 119.55 205.2 117.97 206.03 116.25C206.7 114.89 208.1 114.04 209.6 114.04ZM182.61 67.21H182.92C191 67.21 197.56 73.76 197.56 81.85V86.11C197.56 89.26 194.91 91.82 191.77 91.59C191.37 91.56 190.96 91.54 190.54 91.54H189.05C186.34 91.54 184.15 89.35 184.15 86.64V81.84C184.15 77.89 182.81 74.26 180.55 71.36C179.24 69.67 180.47 67.21 182.61 67.21ZM167.05 67.21C175.13 67.21 181.69 73.76 181.69 81.85V86.02C181.69 89.0799 179.21 91.55 176.16 91.55H173.33C170.57 91.57 168.3 89.41 168.3 86.65V83.78V82.25C168.3 81.74 168.31 81.25 168.27 80.68C168.24 80.13 168.23 79.58 168.13 79.03C168.04 78.48 167.98 77.93 167.83 77.4C167.31 75.25 166.36 73.21 165.05 71.44C165.03 71.41 165.01 71.39 164.99 71.36C163.71 69.65 164.9 67.21 167.05 67.21ZM163.02 72.95C164.13 74.45 164.95 76.18 165.38 77.99C165.52 78.44 165.56 78.91 165.64 79.37C165.73 79.83 165.73 80.3 165.76 80.77C165.8 81.22 165.79 81.74 165.79 82.25V83.78V89.9V92.96C165.8 94.0499 165.79 94.84 165.56 95.68C165.14 97.34 164.04 98.83 162.57 99.73C161.11 100.63 159.29 100.96 157.6 100.59C155.91 100.24 154.39 99.2 153.42 97.76C152.94 97.05 152.59 96.24 152.42 95.4C152.33 94.98 152.28 94.55 152.27 94.12C152.27 94.02 152.27 93.89 152.27 93.76V92.61C152.25 88.53 152.35 84.45 151.96 80.38C151.91 79.91 151.51 79.53 151.01 79.54C150.53 79.55 150.15 79.95 150.11 80.42C149.73 84.48 149.82 88.55 149.8 92.61V93.76C149.8 93.88 149.8 94.0099 149.8 94.17C149.81 94.7599 149.88 95.35 150 95.92C150.24 97.07 150.72 98.18 151.38 99.16C152.69 101.11 154.78 102.52 157.09 103.02C158.98 103.44 160.63 103.19 161.9 102.77C163.26 102.32 164.72 102.99 165.34 104.29C165.37 104.35 165.4 104.41 165.43 104.47C166.18 105.96 165.5 107.75 163.96 108.39C163.43 108.62 162.9 108.87 162.39 109.16L161.76 109.53C161.54 109.65 161.36 109.81 161.15 109.95L160.55 110.38L160 110.87C159.26 111.52 158.63 112.28 158.07 113.07C156.96 114.66 156.23 116.44 155.76 118.23C155.62 118.78 155.99 119.37 156.64 119.4C157.02 119.42 157.36 119.18 157.51 118.83V118.82C158.18 117.24 158.95 115.73 159.97 114.45C160.97 113.17 162.19 112.12 163.61 111.35C165.03 110.58 166.62 110.11 168.27 109.81C169.93 109.52 171.64 109.4 173.36 109.35H187.91C188.55 109.35 189.13 108.88 189.19 108.24C189.26 107.5 188.69 106.88 187.96 106.88H173.36C170.43 106.86 167.8 104.89 167.12 102.04C166.59 99.8 167.2 97.58 168.72 96C169.96 94.7 171.72 94.01 173.52 94.01H190.26C198.4 94.01 205.3 100.67 205.27 108.82C205.25 112.73 203.72 116.41 200.95 119.18C198.17 121.97 194.46 123.5 190.52 123.5H183.32C179.02 123.5 175.53 126.99 175.53 131.29V159.86C175.53 168.22 168.76 174.99 160.4 174.99H151.68C143.32 174.99 136.54 168.2 136.55 159.84L136.6 127.29L136.59 102.82L136.58 90.58V84.46V79.9C136.59 79.45 136.61 79 136.68 78.55C136.93 76.75 137.66 75 138.73 73.47C139.79 71.94 141.17 70.61 142.75 69.59C144.33 68.57 146.1 67.85 147.93 67.5C148.86 67.32 149.78 67.24 150.73 67.24C151.24 67.24 151.77 67.23 152.21 67.27C152.68 67.3 153.15 67.29 153.61 67.39C155.46 67.64 157.26 68.26 158.87 69.22C160.49 70.17 161.91 71.45 163.02 72.95ZM132.12 79.36C131.97 79.54 131.78 79.62 131.59 79.62C131.16 79.62 130.75 79.22 130.9 78.71L134.54 65.68C134.62 65.4 134.62 65.09 134.5 64.82C134.27 64.28 133.7 63.99 133.16 64.09L119.34 66.44C118.69 66.55 118.34 65.69 118.89 65.32L130.42 57.43C130.66 57.26 130.86 57.02 130.94 56.74C131.1 56.17 130.86 55.6 130.38 55.32L118.29 48.24C117.72 47.91 118 47.03 118.66 47.1L132.6 48.47C133.15 48.53 133.69 48.21 133.89 47.65C133.99 47.37 133.97 47.06 133.87 46.79L129.17 33.63C128.95 33.01 129.73 32.52 130.19 32.99L140 43.01C140.39 43.4 141 43.51 141.51 43.21C141.77 43.06 141.95 42.81 142.05 42.53L146.91 29.44C147.14 28.82 148.05 28.95 148.1 29.61L149.16 43.54C149.19 43.83 149.29 44.12 149.5 44.34C149.91 44.76 150.53 44.84 151.01 44.56L163.19 37.63C163.76 37.3 164.38 37.98 163.99 38.53L155.83 49.92C155.51 50.37 155.52 50.99 155.9 51.44C156.09 51.67 156.37 51.8 156.66 51.86L170.4 54.37C171.05 54.49 171.08 55.41 170.44 55.57L156.91 59.04C156.62 59.11 156.36 59.27 156.18 59.51C155.83 59.99 155.87 60.61 156.22 61.03L158.47 63.74C158.8 64.14 158.52 64.75 157.99 64.75H152.44C152.41 64.75 152.39 64.75 152.36 64.75C151.77 64.71 151.26 64.72 150.73 64.72C149.65 64.72 148.53 64.81 147.45 65.02C145.28 65.43 143.2 66.27 141.35 67.46C139.5 68.66 137.88 70.21 136.62 72.02C136.12 72.74 135.67 73.51 135.3 74.32C134.48 76.13 133.41 77.84 132.12 79.36ZM135.31 177.47H176.37C176.5 177.52 176.64 177.54 176.78 177.54C176.92 177.54 177.05 177.51 177.17 177.47H217.8C217.91 177.47 218.01 177.46 218.12 177.45C218.17 177.45 218.21 177.46 218.26 177.46C218.39 177.46 218.51 177.44 218.63 177.4C221.27 177 223.31 174.72 223.31 171.97V117.08C223.31 114.04 220.85 111.58 217.81 111.58H209.59C208.53 111.58 207.69 110.69 207.74 109.64C207.75 109.35 207.77 109.06 207.77 108.77C207.77 107.55 207.64 106.35 207.39 105.2C207.15 104.05 208 102.96 209.18 102.96H226.27C229.42 102.96 231.97 105.51 231.97 108.66V181.22C231.97 183.62 230.02 185.57 227.62 185.57H86.19C82.74 185.57 79.94 182.77 79.94 179.32V126.18C79.94 125.16 80.77 124.33 81.79 124.33H86.88C87.9 124.33 88.73 125.16 88.73 126.18V171.97C88.73 174.91 91.05 177.31 93.96 177.46C94.01 177.46 94.06 177.47 94.11 177.47C94.13 177.47 94.14 177.47 94.16 177.47C94.18 177.47 94.21 177.47 94.23 177.47H135.31ZM109.27 104.8C109.27 103.78 110.1 102.95 111.12 102.95H132.16C133.18 102.95 134.01 103.78 134.01 104.8V109.73C134.01 110.75 133.18 111.58 132.16 111.58H111.12C110.1 111.58 109.27 110.75 109.27 109.73V104.8ZM109.27 123.09V115.9C109.27 114.88 110.1 114.05 111.12 114.05H132.16C133.18 114.05 134.01 114.88 134.01 115.9L134 127.3L134.02 143.16C134.02 143.7 133.37 143.98 132.98 143.61L116.13 127.5C115.69 127.07 114.99 127.04 114.51 127.43C114.03 127.81 113.91 128.5 114.22 129.03L131.57 158.07C131.86 158.56 131.39 159.15 130.85 158.97L98.68 148.5C98.09 148.31 97.46 148.58 97.19 149.14C96.92 149.7 97.11 150.36 97.62 150.71L125.9 169.37C126.38 169.68 126.21 170.42 125.65 170.5L94.57 174.93C94.02 175.01 93.46 174.95 92.96 174.72C91.93 174.24 91.21 173.19 91.21 171.97V126.18C91.21 125.16 92.04 124.33 93.06 124.33H108.05C108.72 124.32 109.27 123.77 109.27 123.09ZM104.95 82.99C105.97 82.99 106.8 83.82 106.8 84.84V87.47C106.8 88.49 105.97 89.32 104.95 89.32H57.03C56.01 89.32 55.18 88.49 55.18 87.47V84.84C55.18 83.82 56.01 82.99 57.03 82.99H104.95ZM45.12 72.09C44.44 72.09 43.89 72.64 43.89 73.32V102.07C43.89 103.71 42.57 105.03 40.93 105.03H39.58C38.56 105.03 37.72 104.2 37.72 103.18V68.11C37.72 67.04 38.59 66.17 39.67 66.17H87.49C88.51 66.17 89.34 67 89.34 68.03V69.13C89.34 70.77 88.02 72.09 86.38 72.09H45.12ZM57.03 121.85C56.01 121.85 55.18 121.02 55.18 120V93.63C55.18 92.61 56.01 91.78 57.03 91.78H104.95C105.97 91.78 106.8 92.61 106.8 93.63V120C106.8 121.02 105.97 121.85 104.95 121.85H57.03ZM97.32 253.11C97.81 253.56 97.35 254.36 96.72 254.16L75.64 247.46C75.11 247.29 74.52 247.49 74.21 247.99C74.06 248.24 74.01 248.55 74.05 248.84L76.99 270.72C77.08 271.37 76.21 271.69 75.85 271.13L64.04 252.49C63.88 252.24 63.65 252.04 63.37 251.95C62.81 251.76 62.23 251.99 61.93 252.46L50.1 271.14C49.75 271.7 48.88 271.38 48.97 270.73L51.9 248.85C51.94 248.56 51.89 248.25 51.74 248C51.43 247.5 50.84 247.3 50.31 247.47L29.24 254.17C28.61 254.37 28.15 253.57 28.64 253.12L44.98 238.22C45.29 237.94 45.44 237.51 45.36 237.1C45.29 236.68 45.01 236.33 44.61 236.17L24.16 227.75C23.55 227.5 23.71 226.59 24.37 226.57L46.42 225.66C46.72 225.65 47.01 225.55 47.23 225.36C47.67 224.96 47.77 224.35 47.51 223.86L37.25 204.27C36.95 203.68 37.65 203.09 38.17 203.49L55.68 216.99C56.12 217.33 56.74 217.34 57.2 216.98C57.43 216.8 57.58 216.52 57.64 216.24L62.37 194.69C62.51 194.04 63.43 194.04 63.57 194.69L65.06 201.49C65.87 205.2 65.33 209.07 63.54 212.41L57.83 223.04C57.47 223.72 57.23 224.44 57.12 225.17C57.07 225.3 57.04 225.44 57.04 225.59C57.04 225.68 57.05 225.77 57.05 225.86C57.03 226.25 57.05 226.64 57.1 227.03C57.84 236.59 65.85 244.14 75.59 244.14H81.3C85.26 244.14 89.08 245.62 92 248.29L97.32 253.11ZM252.34 226.64C252.25 227.29 252.02 227.93 251.61 228.5C250.82 229.61 249.5 230.23 248.14 230.23H96.01H96H63.74C62.37 230.23 61.05 229.61 60.26 228.49C59.86 227.92 59.62 227.28 59.54 226.63C59.53 226.43 59.52 226.23 59.51 226.02C59.53 225.39 59.68 224.76 59.99 224.18L77.14 192.3C78.55 189.67 81.29 188.03 84.28 188.03H227.6C230.58 188.03 233.33 189.67 234.74 192.3L251.88 224.19C252.19 224.77 252.34 225.4 252.36 226.02C252.36 226.23 252.35 226.44 252.34 226.64ZM275.61 192.15L258.66 195.68C258.24 195.77 257.9 196.06 257.76 196.45C257.61 196.85 257.67 197.29 257.93 197.63L268.36 211.46C268.76 211.99 268.16 212.69 267.58 212.37L252.32 204.18C251.84 203.92 251.22 204.01 250.82 204.44C250.62 204.66 250.52 204.95 250.5 205.24L250.09 213.2C250.06 213.82 249.22 214.01 248.93 213.46L238.01 193.13C235.67 188.77 234.44 183.9 234.44 178.95V171.2C234.44 170.63 235.14 170.36 235.52 170.79L240.25 176.09C240.44 176.31 240.71 176.48 241 176.52C241.58 176.61 242.12 176.29 242.33 175.78L249.09 159.84C249.35 159.23 250.25 159.4 250.27 160.06L250.8 177.32C250.81 177.62 250.9 177.91 251.1 178.14C251.49 178.58 252.1 178.68 252.6 178.44L268.03 170.57C268.62 170.27 269.21 170.98 268.79 171.5L258.07 185.1C257.73 185.53 257.71 186.16 258.07 186.62C258.25 186.85 258.52 187.01 258.81 187.07L275.64 190.95C276.26 191.09 276.25 192.01 275.61 192.15Z" fill="#131344"/>
<path d="M98.32 107.8H63.67C61.4 107.8 59.56 109.64 59.56 111.91C59.56 114.18 61.41 116.02 63.67 116.02H98.32C100.59 116.02 102.43 114.18 102.43 111.91C102.43 109.64 100.58 107.8 98.32 107.8ZM98.32 113.56H63.67C62.76 113.56 62.03 112.82 62.03 111.92C62.03 111.01 62.77 110.28 63.67 110.28H98.32C99.23 110.28 99.96 111.02 99.96 111.92C99.96 112.82 99.22 113.56 98.32 113.56Z" fill="#131344"/>
<path d="M64.22 103.961L67.32 101.05C67.96 100.45 68.96 100.48 69.57 101.11L72.59 104.251C72.6 104.261 72.61 104.271 72.61 104.271C73.11 104.771 73.92 104.761 74.41 104.261L74.43 104.241C75.41 103.251 76.39 102.261 77.36 101.26C77.99 100.62 79.02 100.62 79.65 101.26L82.57 104.251L82.58 104.261L82.6 104.281C83.11 104.781 83.92 104.771 84.42 104.261L87.37 101.22C87.99 100.58 89.03 100.57 89.66 101.21L90.11 101.66L92.6 104.201L92.6201 104.221L92.65 104.241C93.1201 104.701 93.8901 104.691 94.3401 104.211C94.7501 103.771 95.1701 103.341 95.5801 102.901C95.9901 102.471 96.3901 102.031 96.7901 101.591C97.1901 101.151 97.5901 100.7 97.9701 100.25C98.3601 99.7905 98.7501 99.3505 99.1301 98.8805C99.4301 98.5005 99.4001 97.9305 99.0001 97.5905C98.6501 97.2905 98.1301 97.3205 97.7801 97.6105C97.3301 97.9905 96.9001 98.3905 96.4601 98.7805C96.0201 99.1805 95.5801 99.5905 95.1501 100C95.0201 100.12 94.84 100.3 94.6301 100.49C93.99 101.101 92.9801 101.08 92.3701 100.45L91.86 99.9205L89.37 97.3505C89.36 97.3405 89.35 97.3305 89.35 97.3305C88.85 96.8405 88.06 96.8505 87.57 97.3405L87.56 97.3505L84.62 100.33C83.99 100.97 82.97 100.96 82.34 100.32L79.41 97.3205L79.4 97.3105V97.3005C78.89 96.8005 78.07 96.8105 77.57 97.3205C76.59 98.3305 75.61 99.3305 74.62 100.34C74 100.98 72.97 100.98 72.34 100.35L69.39 97.3705L69.35 97.3205C69.15 97.1205 68.87 96.9705 68.46 97.0005C68.11 97.0205 67.78 97.2005 67.55 97.4605L62.86 102.691C62.53 103.061 62.55 103.651 62.93 104.001C63.29 104.341 63.86 104.291 64.22 103.961Z" fill="#131344"/>
<path d="M57.17 144.23H47.52C46.2 144.23 44.98 143.5 44.37 142.33L42.79 139.34C42.58 138.93 42.16 138.68 41.7 138.68H27.56C26.88 138.68 26.33 139.23 26.33 139.91V165.9C26.33 166.58 26.88 167.13 27.56 167.13H57.17C57.85 167.13 58.4 166.58 58.4 165.9V145.46C58.4 144.78 57.85 144.23 57.17 144.23ZM55.93 162.82C55.93 163.84 55.1 164.67 54.08 164.67H30.64C29.62 164.67 28.79 163.84 28.79 162.82V148.55C28.79 147.53 29.62 146.7 30.64 146.7H44.62C44.62 146.7 44.62 146.7 44.63 146.7H54.09C55.11 146.7 55.94 147.53 55.94 148.55V162.82H55.93Z" fill="#131344"/>
<path d="M48.53 171.42C47.5 171.29 46.47 171.22 45.45 171.17C44.42 171.12 43.39 171.11 42.37 171.11C41.34 171.12 40.31 171.13 39.29 171.18C38.27 171.23 37.23 171.29 36.21 171.42C35.79 171.47 35.45 171.8 35.4 172.23C35.34 172.74 35.7 173.2 36.21 173.27C37.24 173.39 38.27 173.46 39.29 173.5C40.32 173.55 41.35 173.56 42.37 173.57C43.4 173.57 44.43 173.55 45.45 173.51C46.48 173.47 47.51 173.4 48.53 173.27C48.94 173.22 49.28 172.89 49.34 172.46C49.4 171.96 49.04 171.49 48.53 171.42Z" fill="#131344"/>
<path d="M48.53 175.95C47.5 175.81 46.47 175.75 45.45 175.7C44.42 175.66 43.39 175.64 42.37 175.64C41.34 175.65 40.31 175.66 39.29 175.71C38.26 175.76 37.23 175.82 36.21 175.94C35.79 175.99 35.45 176.32 35.39 176.76C35.33 177.27 35.7 177.73 36.21 177.79C37.24 177.91 38.27 177.98 39.29 178.02C40.32 178.07 41.35 178.08 42.37 178.09C43.39 178.1 44.43 178.08 45.45 178.03C46.48 177.99 47.51 177.92 48.53 177.78C48.94 177.73 49.28 177.41 49.33 176.98C49.4 176.48 49.04 176.01 48.53 175.95Z" fill="#131344"/>
<path d="M96.79 21.9502H59.26C58.63 21.9502 58.12 22.4602 58.12 23.0902V47.1502C58.12 47.7802 58.63 48.2902 59.26 48.2902H86.56C87.45 48.2902 88.32 48.6002 89.01 49.1602L95.85 54.6802C96.68 55.3502 97.93 55.4002 97.93 53.6902C97.93 51.3402 97.93 48.3002 97.93 48.3002V23.1002C97.93 22.4602 97.42 21.9502 96.79 21.9502ZM90.37 29.1302L90.11 34.9402C90.09 35.3902 89.74 35.7802 89.29 35.8002C88.81 35.8202 88.42 35.4502 88.4 34.9902L88.27 32.1202C88.26 31.8202 87.89 31.6702 87.68 31.8802L84.62 34.8602L79.13 40.1402H79.12C78.64 40.6002 77.87 40.5902 77.41 40.1102C77.3 40.0002 77.22 39.8702 77.17 39.7302L75.18 34.9102C75.03 34.5602 74.58 34.4602 74.3 34.7202L73.65 35.3202C72.83 36.0802 72 36.8302 71.17 37.5902C69.52 39.0802 67.84 40.5502 66.13 41.9702C65.79 42.2602 65.27 42.2602 64.95 41.9502C64.61 41.6102 64.62 41.0802 64.93 40.7502C66.47 39.1202 68.06 37.5402 69.66 35.9702C70.46 35.1902 71.27 34.4102 72.08 33.6402L74.48 31.3602C74.92 30.9402 75.63 30.8902 76.09 31.3002C76.22 31.4202 76.32 31.5602 76.39 31.7102L76.4 31.7302L78.4 36.4302C78.55 36.7802 79.01 36.8802 79.28 36.6102L82.92 33.1002L85.87 30.2802C86.09 30.0702 85.95 29.6902 85.65 29.6802L83.25 29.5502C82.8 29.5302 82.41 29.1802 82.4 28.7302C82.38 28.2502 82.75 27.8702 83.21 27.8402L89.05 27.5302C89.1 27.5202 89.15 27.5102 89.2 27.5102C89.29 27.5102 89.38 27.5202 89.46 27.5302C90 27.6002 90.43 28.0502 90.46 28.6102C90.47 28.8002 90.44 28.9702 90.37 29.1302Z" fill="#131344"/>
</svg>
