<?xml version="1.0" encoding="UTF-8"?> <svg xmlns="http://www.w3.org/2000/svg" width="432" height="222" viewBox="0 0 432 222" fill="none"> <path d="M2 94.8574H190V117.857H2V94.8574Z" fill="#59ADFF"></path> <path d="M242 7.85742H430V30.8574H242V7.85742Z" fill="#59ADFF"></path> <path d="M84.75 43.5847H341.254V65.4029H84.75V43.5847Z" fill="#59ADFF"></path> <path d="M85 63H170V199H85V63Z" fill="#59ADFF"></path> <path d="M350.874 206.476C349.643 206.949 349.029 208.314 349.495 209.515C349.887 210.511 350.379 211.408 350.936 212.265C351.47 213.127 352.074 213.972 352.714 214.759C353.354 215.546 354.041 216.322 354.74 217.045C355.462 217.762 356.209 218.474 357.079 219.08C357.709 219.522 358.56 219.638 359.308 219.332C360.514 218.865 361.1 217.482 360.633 216.281C360.242 215.285 359.726 214.393 359.192 213.531C358.659 212.669 358.054 211.823 357.438 211.031C356.816 210.215 356.135 209.463 355.407 208.722C354.684 208.005 353.938 207.293 353.044 206.692C352.454 206.315 351.627 206.193 350.874 206.476Z" fill="#59ADFF"></path> <path d="M170 62.9998H255V199H170V62.9998Z" fill="#FFD500"></path> <path d="M255 62.9998H341V199H255V62.9998Z" fill="#FF5975"></path> <path d="M340.264 221.061C341.487 221.682 342.987 221.193 343.613 219.974C343.952 219.321 344.139 218.656 344.279 218.001C344.419 217.347 344.506 216.681 344.54 216.003C344.58 215.348 344.562 214.658 344.473 213.985C344.384 213.313 344.248 212.651 343.954 211.954C343.735 211.461 343.351 211.009 342.836 210.737C341.608 210.093 340.096 210.536 339.424 211.766C339.061 212.425 338.874 213.09 338.734 213.744C338.594 214.398 338.507 215.064 338.496 215.737C338.485 216.409 338.498 217.076 338.587 217.749C338.676 218.422 338.812 219.083 339.082 219.786C339.313 220.325 339.721 220.772 340.264 221.061Z" fill="#FF5975"></path> <path d="M356.001 201.66C356.732 202.003 357.453 202.199 358.191 202.367C358.924 202.511 359.663 202.58 360.414 202.596C361.141 202.617 361.887 202.609 362.639 202.526C363.391 202.442 364.131 202.312 364.884 202.029C365.479 201.81 365.969 201.368 366.273 200.774C366.846 199.543 366.322 198.108 365.088 197.54C364.357 197.196 363.618 197.029 362.88 196.861C362.148 196.717 361.409 196.648 360.675 196.604C359.942 196.559 359.196 196.566 358.445 196.65C357.693 196.734 356.952 196.864 356.199 197.147C355.628 197.36 355.155 197.772 354.875 198.361C354.273 199.574 354.785 201.062 356.001 201.66Z" fill="#FF5975"></path> <path d="M17 106.857C17 108.514 15.6569 109.857 14 109.857C12.3431 109.857 11 108.514 11 106.857C11 105.2 12.3431 103.857 14 103.857C15.6569 103.857 17 105.2 17 106.857Z" fill="#131344"></path> <path d="M29 106.857C29 108.514 27.6569 109.857 26 109.857C24.3431 109.857 23 108.514 23 106.857C23 105.2 24.3431 103.857 26 103.857C27.6569 103.857 29 105.2 29 106.857Z" fill="#131344"></path> <path d="M41 106.857C41 108.514 39.6569 109.857 38 109.857C36.3431 109.857 35 108.514 35 106.857C35 105.2 36.3431 103.857 38 103.857C39.6569 103.857 41 105.2 41 106.857Z" fill="#131344"></path> <path d="M257 19.8572C257 21.514 255.657 22.8572 254 22.8572C252.343 22.8572 251 21.514 251 19.8572C251 18.2003 252.343 16.8572 254 16.8572C255.657 16.8572 257 18.2003 257 19.8572Z" fill="#131344"></path> <path d="M269 19.8572C269 21.514 267.657 22.8572 266 22.8572C264.343 22.8572 263 21.514 263 19.8572C263 18.2003 264.343 16.8572 266 16.8572C267.657 16.8572 269 18.2003 269 19.8572Z" fill="#131344"></path> <path d="M281 19.8572C281 21.514 279.657 22.8572 278 22.8572C276.343 22.8572 275 21.514 275 19.8572C275 18.2003 276.343 16.8572 278 16.8572C279.657 16.8572 281 18.2003 281 19.8572Z" fill="#131344"></path> <path d="M143.376 128.324C138.537 129.87 133.361 127.2 131.815 122.361C130.269 117.521 132.938 112.345 137.777 110.799C142.616 109.253 147.792 111.923 149.339 116.762C150.885 121.602 148.215 126.778 143.376 128.324Z" fill="#131344"></path> <path d="M112.361 138.233C107.522 139.778 102.346 137.109 100.799 132.269C99.2534 127.429 101.923 122.253 106.762 120.707C111.601 119.161 116.777 121.831 118.323 126.671C119.869 131.51 117.2 136.687 112.361 138.233Z" fill="#131344"></path> <path d="M114.675 147.237C115.754 146.588 117.168 146.921 117.844 148.013C121.325 153.724 128.201 156.279 134.57 154.245C140.938 152.21 145.053 146.122 144.584 139.47C144.488 138.214 145.441 137.103 146.717 137.001C147.992 136.899 149.083 137.858 149.185 139.134C149.817 147.935 144.398 155.944 135.973 158.636C127.567 161.321 118.488 157.944 113.9 150.406C113.251 149.328 113.584 147.913 114.675 147.237Z" fill="#131344"></path> <path d="M98.9922 53.8572C98.9922 55.514 97.649 56.8572 95.9922 56.8572C94.3353 56.8572 92.9922 55.514 92.9922 53.8572C92.9922 52.2003 94.3353 50.8572 95.9922 50.8572C97.649 50.8572 98.9922 52.2003 98.9922 53.8572Z" fill="#131344"></path> <path d="M110.902 53.8572C110.902 55.514 109.559 56.8572 107.902 56.8572C106.245 56.8572 104.902 55.514 104.902 53.8572C104.902 52.2003 106.245 50.8572 107.902 50.8572C109.559 50.8572 110.902 52.2003 110.902 53.8572Z" fill="#131344"></path> <path d="M122.812 53.8572C122.812 55.514 121.469 56.8572 119.812 56.8572C118.156 56.8572 116.812 55.514 116.812 53.8572C116.812 52.2003 118.156 50.8572 119.812 50.8572C121.469 50.8572 122.812 52.2003 122.812 53.8572Z" fill="#131344"></path> <path d="M231.02 116.068C226.004 115.267 222.587 110.551 223.388 105.534C224.189 100.517 228.905 97.0992 233.921 97.9001C236.479 98.3085 238.621 99.7348 240 101.7C241.326 103.589 241.946 105.975 241.554 108.434C241.326 109.863 240.78 111.163 240 112.271C238.042 115.056 234.608 116.641 231.02 116.068Z" fill="#131344"></path> <path d="M198.868 110.934C193.852 110.133 190.434 105.417 191.235 100.4C192.036 95.3832 196.752 91.9654 201.769 92.7663C206.785 93.5672 210.202 98.2835 209.401 103.3C208.6 108.317 203.885 111.735 198.868 110.934Z" fill="#131344"></path> <path d="M196.875 120.016C198.131 119.922 199.243 120.857 199.354 122.136C199.888 128.803 204.874 134.183 211.476 135.238C218.078 136.292 224.495 132.711 227.075 126.562C227.555 125.398 228.907 124.836 230.091 125.319C231.275 125.803 231.817 127.151 231.334 128.335C227.931 136.477 219.484 141.184 210.749 139.79C202.035 138.399 195.453 131.292 194.755 122.495C194.661 121.24 195.596 120.127 196.875 120.016Z" fill="#131344"></path> <path d="M316.86 133.014C312.507 134.037 308.151 131.784 306.376 127.857C306.134 127.322 305.941 126.756 305.801 126.163C304.639 121.217 307.706 116.266 312.651 115.104C317.597 113.942 322.548 117.009 323.71 121.955C324.193 124.012 323.945 126.071 323.134 127.857C321.995 130.365 319.748 132.335 316.86 133.014Z" fill="#131344"></path> <path d="M285.165 140.462C280.219 141.624 275.268 138.556 274.106 133.61C273.636 131.61 273.858 129.608 274.616 127.857C275.732 125.279 278.011 123.243 280.956 122.551C285.363 121.516 289.775 123.839 291.505 127.857C291.717 128.348 291.888 128.864 292.014 129.402C293.177 134.348 290.11 139.3 285.165 140.462Z" fill="#131344"></path> <path d="M286.766 149.62C287.892 149.057 289.276 149.5 289.864 150.642C292.887 156.608 299.542 159.694 306.05 158.165C312.559 156.636 317.138 150.888 317.192 144.22C317.195 142.961 318.232 141.928 319.511 141.926C320.79 141.924 321.803 142.966 321.805 144.245C321.745 153.069 315.715 160.629 307.105 162.653C298.514 164.671 289.728 160.592 285.745 152.719C285.182 151.592 285.625 150.209 286.766 149.62Z" fill="#131344"></path> <path d="M86.215 9.12733C85.7524 9.12733 85.2897 9.14274 84.8116 9.21977C84.349 9.2968 83.8863 9.40464 83.4083 9.62034C83.0844 9.7744 82.7914 10.0363 82.6372 10.3907C82.2671 11.1918 82.6218 12.1316 83.4083 12.5014C83.8709 12.717 84.3336 12.8249 84.8116 12.9019C85.2743 12.979 85.7369 12.9944 86.215 12.979C86.6777 12.9635 87.1403 12.9327 87.6184 12.8711C88.0964 12.7941 88.5591 12.7016 89.0217 12.5168C89.3919 12.3627 89.7157 12.0546 89.8854 11.654C90.2092 10.8683 89.8237 9.95928 89.0217 9.63575C88.5591 9.45087 88.0964 9.35843 87.6184 9.26599C87.1403 9.15814 86.6777 9.12733 86.215 9.12733Z" fill="#131344"></path> <path d="M77.5326 21.0828C77.6868 21.4063 77.949 21.699 78.3037 21.8531C79.1056 22.2229 80.0463 21.8685 80.4164 21.0828C80.6323 20.6206 80.7403 20.1584 80.8174 19.6808C80.8791 19.2032 80.9099 18.741 80.8945 18.2788C80.8791 17.8166 80.8483 17.3544 80.7866 16.8768C80.7095 16.4146 80.6169 15.9524 80.4319 15.4748C80.2777 15.105 79.9692 14.7815 79.5683 14.612C78.7817 14.2885 77.8719 14.6737 77.548 15.4748C77.363 15.937 77.2704 16.3992 77.1779 16.8768C77.1008 17.339 77.0699 17.8012 77.0699 18.2788C77.0545 18.741 77.0854 19.2032 77.1625 19.6808C77.2087 20.143 77.3167 20.6052 77.5326 21.0828Z" fill="#131344"></path> <path d="M77.5326 6.58525C77.6868 6.90879 77.949 7.20151 78.3037 7.35558C79.1056 7.72534 80.0463 7.37099 80.4164 6.58525C80.6323 6.12306 80.7403 5.66087 80.8174 5.18327C80.8791 4.72107 80.9099 4.25888 80.8945 3.78127C80.8791 3.31908 80.8483 2.85688 80.7866 2.37928C80.7095 1.91709 80.6169 1.4549 80.4319 0.977295C80.2777 0.592132 79.9692 0.284001 79.5683 0.11453C78.7817 -0.209007 77.8719 0.176157 77.548 0.977295C77.363 1.43949 77.2704 1.90168 77.1779 2.37928C77.1008 2.84148 77.0699 3.30367 77.0699 3.78127C77.0545 4.24347 77.0854 4.70567 77.1625 5.18327C77.2396 5.66087 77.3167 6.12306 77.5326 6.58525Z" fill="#131344"></path> <path d="M68.9273 12.486C69.39 12.7016 69.8526 12.8095 70.3307 12.8865C70.7933 12.9635 71.256 12.979 71.7341 12.9635C72.1967 12.9481 72.6593 12.9173 73.1374 12.8557C73.6001 12.7787 74.0627 12.6862 74.5408 12.5014C74.9263 12.3473 75.2348 12.0392 75.4044 11.6386C75.7283 10.8529 75.3427 9.94387 74.5408 9.62034C74.0782 9.43546 73.6155 9.34302 73.1374 9.25059C72.6748 9.17355 72.2121 9.14274 71.7341 9.14274C71.2714 9.14274 70.8088 9.15814 70.3307 9.23517C69.8526 9.31221 69.4054 9.42006 68.9273 9.63575C68.6035 9.78981 68.3104 10.0517 68.1562 10.4061C67.7707 11.1764 68.1254 12.1162 68.9273 12.486Z" fill="#131344"></path> <path d="M56.6929 44.909C57.4591 45.1236 58.2254 45.2309 58.9763 45.3076C59.7425 45.3689 60.5088 45.3995 61.275 45.3842C62.0413 45.3689 62.8075 45.3382 63.5738 45.2616C64.34 45.1849 65.1062 45.093 65.8725 44.909C66.3935 44.7864 66.8226 44.3726 66.9605 43.8208C67.1444 43.0391 66.6694 42.2421 65.8725 42.0428C65.1062 41.8589 64.34 41.7669 63.5738 41.6903C62.8075 41.6137 62.0413 41.583 61.275 41.5677C60.5088 41.5523 59.7425 41.5983 58.9763 41.6596C58.2101 41.7363 57.4438 41.8436 56.6929 42.0582C56.2025 42.1961 55.804 42.564 55.6508 43.0851C55.4363 43.8668 55.896 44.6945 56.6929 44.909Z" fill="#131344"></path> <path d="M48.6933 34.9769C48.7699 35.7433 48.8619 36.5096 49.0458 37.276C49.1684 37.7971 49.5821 38.2263 50.1338 38.3643C50.9307 38.5482 51.7276 38.073 51.9115 37.276C52.0954 36.5096 52.1874 35.7433 52.264 34.9769C52.3406 34.2105 52.3713 33.4442 52.3713 32.6931C52.3866 31.9268 52.3559 31.1604 52.2946 30.394C52.218 29.6277 52.1107 28.8613 51.8962 28.0949C51.7583 27.6198 51.3752 27.2059 50.8694 27.0527C50.0726 26.8381 49.2603 27.2979 49.0305 28.0949C48.8159 28.8613 48.7086 29.6277 48.632 30.394C48.5707 31.1604 48.5401 31.9268 48.5554 32.6931C48.586 33.4442 48.6167 34.2105 48.6933 34.9769Z" fill="#131344"></path> <path d="M48.6933 56.5732C48.7699 57.3395 48.8619 58.1059 49.0458 58.8723C49.1684 59.3934 49.5821 59.8226 50.1338 59.9605C50.9307 60.1445 51.7276 59.6693 51.9115 58.8723C52.0954 58.1059 52.1874 57.3395 52.264 56.5732C52.3406 55.8068 52.3713 55.0404 52.3713 54.2741C52.3866 53.5077 52.3559 52.7413 52.2946 51.975C52.218 51.2086 52.1107 50.4422 51.8962 49.6759C51.7583 49.2007 51.3752 48.7869 50.8694 48.6489C50.0726 48.4343 49.2603 48.8942 49.0305 49.6759C48.8159 50.4422 48.7086 51.2086 48.632 51.975C48.5707 52.7413 48.5401 53.5077 48.5554 54.2741C48.586 55.0404 48.6167 55.8068 48.6933 56.5732Z" fill="#131344"></path> <path d="M35.0849 44.909C35.8511 45.1236 36.6173 45.2309 37.3836 45.3076C38.1498 45.3689 38.9161 45.3995 39.6823 45.3842C40.4485 45.3689 41.2148 45.3382 41.981 45.2616C42.7473 45.1849 43.5135 45.093 44.2644 44.909C44.7855 44.7864 45.2146 44.3726 45.3525 43.8208C45.5364 43.0391 45.0613 42.2421 44.2644 42.0428C43.4982 41.8589 42.7319 41.7669 41.981 41.6903C41.2148 41.6137 40.4485 41.583 39.6823 41.5677C38.9161 41.5523 38.1498 41.5983 37.3836 41.6596C36.6173 41.7363 35.8511 41.8436 35.0849 42.0582C34.6098 42.1961 34.196 42.564 34.0581 43.0851C33.8282 43.8668 34.3033 44.6945 35.0849 44.909Z" fill="#131344"></path> <path fill-rule="evenodd" clip-rule="evenodd" d="M131.815 122.361C133.361 127.2 138.537 129.87 143.376 128.324C148.215 126.778 150.885 121.602 149.339 116.762C147.792 111.923 142.616 109.253 137.777 110.799C132.938 112.345 130.269 117.521 131.815 122.361ZM100.799 132.269C102.346 137.109 107.522 139.778 112.361 138.233C117.2 136.687 119.869 131.51 118.323 126.671C116.777 121.831 111.601 119.161 106.762 120.707C101.923 122.253 99.2534 127.429 100.799 132.269ZM117.844 148.013C117.168 146.921 115.754 146.588 114.675 147.237C113.584 147.913 113.251 149.328 113.9 150.406C118.488 157.944 127.567 161.321 135.973 158.636C144.398 155.944 149.817 147.935 149.185 139.134C149.083 137.858 147.992 136.899 146.717 137.001C145.441 137.103 144.488 138.214 144.584 139.47C145.053 146.122 140.938 152.21 134.57 154.245C128.201 156.279 121.325 153.724 117.844 148.013ZM98.9922 53.8572C98.9922 55.514 97.649 56.8572 95.9922 56.8572C94.3353 56.8572 92.9922 55.514 92.9922 53.8572C92.9922 52.2003 94.3353 50.8572 95.9922 50.8572C97.649 50.8572 98.9922 52.2003 98.9922 53.8572ZM110.902 53.8572C110.902 55.514 109.559 56.8572 107.902 56.8572C106.245 56.8572 104.902 55.514 104.902 53.8572C104.902 52.2003 106.245 50.8572 107.902 50.8572C109.559 50.8572 110.902 52.2003 110.902 53.8572ZM122.812 53.8572C122.812 55.514 121.469 56.8572 119.812 56.8572C118.156 56.8572 116.812 55.514 116.812 53.8572C116.812 52.2003 118.156 50.8572 119.812 50.8572C121.469 50.8572 122.812 52.2003 122.812 53.8572ZM191.235 100.4C190.434 105.417 193.852 110.133 198.868 110.934C203.885 111.735 208.6 108.317 209.401 103.3C210.202 98.2835 206.785 93.5672 201.769 92.7663C196.752 91.9654 192.036 95.3832 191.235 100.4ZM199.354 122.136C199.243 120.857 198.131 119.922 196.875 120.016C195.596 120.127 194.661 121.24 194.755 122.495C195.453 131.292 202.035 138.399 210.749 139.79C219.484 141.184 227.931 136.477 231.334 128.335C231.817 127.151 231.275 125.803 230.091 125.319C228.907 124.836 227.555 125.398 227.075 126.562C224.495 132.711 218.078 136.292 211.476 135.238C204.874 134.183 199.888 128.803 199.354 122.136Z" fill="#131344"></path> <path fill-rule="evenodd" clip-rule="evenodd" d="M257 19.8572C257 21.514 255.657 22.8572 254 22.8572C252.343 22.8572 251 21.514 251 19.8572C251 18.2003 252.343 16.8572 254 16.8572C255.657 16.8572 257 18.2003 257 19.8572ZM269 19.8572C269 21.514 267.657 22.8572 266 22.8572C264.343 22.8572 263 21.514 263 19.8572C263 18.2003 264.343 16.8572 266 16.8572C267.657 16.8572 269 18.2003 269 19.8572ZM281 19.8572C281 21.514 279.657 22.8572 278 22.8572C276.343 22.8572 275 21.514 275 19.8572C275 18.2003 276.343 16.8572 278 16.8572C279.657 16.8572 281 18.2003 281 19.8572Z" fill="#131344"></path> <path fill-rule="evenodd" clip-rule="evenodd" d="M17 106.857C17 108.514 15.6569 109.857 14 109.857C12.3431 109.857 11 108.514 11 106.857C11 105.2 12.3431 103.857 14 103.857C15.6569 103.857 17 105.2 17 106.857ZM29 106.857C29 108.514 27.6569 109.857 26 109.857C24.3431 109.857 23 108.514 23 106.857C23 105.2 24.3431 103.857 26 103.857C27.6569 103.857 29 105.2 29 106.857ZM41 106.857C41 108.514 39.6569 109.857 38 109.857C36.3431 109.857 35 108.514 35 106.857C35 105.2 36.3431 103.857 38 103.857C39.6569 103.857 41 105.2 41 106.857ZM131.815 122.361C133.361 127.2 138.537 129.87 143.376 128.324C148.215 126.778 150.885 121.602 149.339 116.762C147.792 111.923 142.616 109.253 137.777 110.799C132.938 112.345 130.269 117.521 131.815 122.361ZM100.799 132.269C102.346 137.109 107.522 139.778 112.361 138.233C117.2 136.687 119.869 131.51 118.323 126.671C116.777 121.831 111.601 119.161 106.762 120.707C101.923 122.253 99.2534 127.429 100.799 132.269ZM117.844 148.013C117.168 146.921 115.754 146.588 114.675 147.237C113.584 147.913 113.251 149.328 113.9 150.406C118.488 157.944 127.567 161.321 135.973 158.636C144.398 155.944 149.817 147.935 149.185 139.134C149.083 137.858 147.992 136.899 146.717 137.001C145.441 137.103 144.488 138.214 144.584 139.47C145.053 146.122 140.938 152.21 134.57 154.245C128.201 156.279 121.325 153.724 117.844 148.013Z" fill="#131344"></path> <path fill-rule="evenodd" clip-rule="evenodd" d="M0 96.8571C0 94.648 1.79086 92.8571 4 92.8571H82V44.8571C82 42.648 83.7909 40.8571 86 40.8571H240V9.85716C240 7.64802 241.791 5.85716 244 5.85716H428C430.209 5.85716 432 7.64802 432 9.85716V127.857C432 130.066 430.209 131.857 428 131.857H344V196.857C344 199.066 342.209 200.857 340 200.857H257.071C257.032 200.857 257 200.889 257 200.928C257 200.968 256.968 201 256.929 201H253.071C253.032 201 253 200.968 253 200.928C253 200.889 252.968 200.857 252.929 200.857H192V214.857C192 217.066 190.209 218.857 188 218.857H4C1.79086 218.857 0 217.066 0 214.857V96.8571ZM344 44.8571V127.857H424C426.209 127.857 428 126.066 428 123.857V36.8572C428 34.648 426.209 32.8572 424 32.8572H248C245.791 32.8572 244 34.648 244 36.8572V40.8571H340C342.209 40.8571 344 42.648 344 44.8571ZM4 100.857C4 98.648 5.79086 96.8571 8 96.8571H82V115.857H8C5.79086 115.857 4 114.066 4 111.857L4 100.857ZM188 210.857C188 213.066 186.209 214.857 184 214.857H8C5.79086 214.857 4 213.066 4 210.857L4 123.857C4 121.648 5.79086 119.857 8 119.857H82V196.857C82 199.066 83.7909 200.857 86 200.857H167.929C167.968 200.857 168 200.889 168 200.928C168 200.968 168.032 201 168.071 201H171.929C171.945 201 171.96 200.994 171.972 200.985C171.982 200.977 171.99 200.967 171.995 200.954C171.998 200.946 172 200.938 172 200.928C172 200.904 172.012 200.883 172.031 200.87C172.042 200.862 172.056 200.857 172.071 200.857H188V210.857ZM424 9.85716H248C245.791 9.85716 244 11.648 244 13.8572V24.8572C244 27.0663 245.791 28.8572 248 28.8572H424C426.209 28.8572 428 27.0663 428 24.8572V13.8572C428 11.648 426.209 9.85716 424 9.85716ZM340 58.8571V48.8571C340 46.648 338.209 44.8571 336 44.8571H240L90 44.8571C87.7909 44.8571 86 46.648 86 48.8571V58.8571C86 61.0663 87.7909 62.8571 90 62.8571H240H336C338.209 62.8571 340 61.0663 340 58.8571ZM249 66.8571H240H176C173.791 66.8571 172 68.648 172 70.8571V192.857C172 195.066 173.791 196.857 176 196.857H249C251.209 196.857 253 195.066 253 192.857V131.857V70.8571C253 68.648 251.209 66.8571 249 66.8571ZM164 66.8571H90C87.7909 66.8571 86 68.648 86 70.8571V92.8571V96.8571V115.857V119.857V192.857C86 195.066 87.7909 196.857 90 196.857H164C166.209 196.857 168 195.066 168 192.857V70.8571C168 68.648 166.209 66.8571 164 66.8571ZM336 196.857H261C258.791 196.857 257 195.066 257 192.857V131.857V127.857V70.8571C257 68.648 258.791 66.8571 261 66.8571H336C338.209 66.8571 340 68.648 340 70.8571V127.857V131.857V192.857C340 195.066 338.209 196.857 336 196.857Z" fill="#131344"></path> </svg> 