<svg width="1354" height="640" viewBox="0 0 1354 640" fill="none" xmlns="http://www.w3.org/2000/svg">
<g clip-path="url(#clip0_89_675)">
<path d="M639.359 146.684C742.05 193.811 751.413 109.635 877.202 177.63C1002.06 245.123 1070.55 412.805 960.332 476.441C846.943 541.906 772.4 474.052 716.142 627.7C617.276 897.719 325.858 651.797 349.733 406.38C361.206 288.435 136.017 147.124 324.908 40.9387C465.749 -38.2352 474.919 71.2168 639.359 146.684Z" stroke="#D7D7E0"/>
<path d="M637.7 139.421C745.109 186.529 753.377 98.6654 885.124 167.064C1015.89 234.956 1089.88 408.298 976.564 476.713C859.989 547.094 781.442 477.853 725.692 638.987C627.716 922.16 320.976 671.623 341.531 415.526C351.409 292.448 115.219 149.599 309.466 35.3444C454.3 -49.8458 465.704 63.9865 637.7 139.421Z" stroke="#D7D7E0"/>
<path d="M635.983 132.208C748.122 179.132 755.181 87.5857 892.913 156.188C1029.63 224.281 1109.29 403.149 993.018 476.493C873.399 551.943 790.793 481.441 735.779 650.11C639.1 946.529 316.853 691.859 333.752 425.096C341.872 296.89 94.6046 152.867 293.975 30.2859C442.632 -61.114 456.41 57.0642 635.983 132.208Z" stroke="#D7D7E0"/>
<path d="M634.373 125.096C751.252 171.677 756.986 76.4537 900.728 145.056C1043.41 213.151 1128.94 397.403 1009.85 475.822C887.329 556.494 800.613 484.854 746.567 661.108C651.588 970.853 313.662 712.538 326.57 435.132C332.774 301.811 74.357 156.98 278.617 25.818C430.918 -71.9794 447.209 50.5047 634.373 125.096Z" stroke="#D7D7E0"/>
<path d="M632.873 118.087C754.497 164.161 758.791 65.2708 908.563 133.671C1057.23 201.565 1148.81 391.055 1027.04 474.693C901.77 560.735 810.898 488.087 758.052 671.964C665.181 995.104 311.413 733.64 319.998 445.624C324.123 307.204 54.4972 161.932 263.402 21.943C419.167 -82.4362 438.11 44.309 632.873 118.087Z" stroke="#D7D7E0"/>
<path d="M631.483 111.18C757.854 156.582 760.593 54.0378 916.41 122.032C1071.07 189.523 1168.89 384.097 1044.59 473.096C916.714 564.651 821.641 491.124 770.227 682.657C679.873 1019.26 310.118 755.139 314.043 456.557C315.931 313.058 35.0433 167.718 248.346 18.6607C407.389 -92.4803 429.121 38.4786 631.483 111.18Z" stroke="#D7D7E0"/>
<path d="M630.207 104.378C761.321 148.942 762.391 42.7595 924.261 110.141C1084.93 177.025 1189.15 376.527 1062.47 471.022C932.152 568.233 832.837 493.96 783.088 693.175C695.661 1043.28 309.773 777.023 308.717 467.92C308.207 319.368 16.0159 174.336 233.461 15.9735C395.593 -102.105 420.249 33.0159 630.207 104.378Z" stroke="#D7D7E0"/>
<path d="M629.045 97.6776C764.896 141.24 764.182 31.4381 932.112 98.0007C1098.8 164.072 1209.58 368.337 1080.68 468.463C948.075 571.465 844.48 496.579 796.628 703.5C712.536 1067.14 310.406 799.258 304.027 479.704C300.962 326.127 -2.56617 181.779 218.762 13.8817C383.789 -111.306 411.503 27.9219 629.045 97.6776Z" stroke="#D7D7E0"/>
<path d="M627.998 91.0806C768.574 133.473 765.964 20.0758 939.952 85.6123C1112.65 150.662 1230.17 359.523 1099.2 465.409C964.472 574.338 856.561 498.972 810.842 713.614C730.501 1090.83 312.007 821.831 299.982 491.891C294.204 333.323 -20.6898 190.044 204.26 12.3858C371.985 -120.078 402.889 23.1962 627.998 91.0806Z" stroke="#D7D7E0"/>
<path d="M627.069 84.5869C772.355 125.644 767.735 8.67555 947.776 72.9755C1126.48 136.8 1250.9 350.082 1118.03 461.854C981.334 576.839 869.075 501.132 825.724 723.501C749.54 1114.29 314.586 844.718 296.591 504.472C287.942 340.95 -38.3252 199.118 189.97 11.4852C360.191 -128.418 394.417 18.8421 627.069 84.5869Z" stroke="#D7D7E0"/>
<path d="M626.256 78.1968C776.233 117.751 769.492 -2.76082 955.576 60.0946C1140.28 122.484 1271.75 340.008 1137.13 457.791C998.647 578.957 882.014 503.044 841.265 733.145C769.649 1137.52 318.152 867.895 293.861 517.431C282.186 348.999 -55.4603 208.999 175.904 11.1802C348.415 -136.318 386.093 14.8574 626.256 78.1968Z" stroke="#D7D7E0"/>
</g>
<defs>
<clipPath id="clip0_89_675">
<rect width="1072.52" height="944" fill="white" transform="translate(817.528 -369) rotate(60)"/>
</clipPath>
</defs>
</svg>
