<svg width="1202" height="580" viewBox="0 0 1202 580" fill="none" xmlns="http://www.w3.org/2000/svg">
<g clip-path="url(#clip0_89_570)">
<path d="M515.685 549.608C562.812 388.55 478.635 373.865 546.631 176.578C614.124 -19.2476 781.806 -126.67 845.442 46.1988C910.907 224.036 843.052 340.949 996.701 429.183C1266.72 584.243 1020.8 1041.3 775.381 1003.85C657.436 985.859 516.124 1339.04 409.939 1042.79C330.765 821.896 440.217 807.514 515.685 549.608Z" stroke="#D7D7E0"/>
<path d="M508.422 552.21C555.529 383.751 467.666 370.783 536.064 164.153C603.957 -40.9444 777.299 -156.984 845.714 20.7412C916.095 203.575 846.853 326.767 1007.99 414.205C1291.16 567.868 1040.62 1048.96 784.527 1016.72C661.448 1001.23 518.6 1371.66 404.345 1067.01C319.155 839.852 432.987 821.966 508.422 552.21Z" stroke="#D7D7E0"/>
<path d="M501.208 554.904C548.133 379.026 456.586 367.954 525.189 151.938C593.281 -62.4798 772.15 -187.431 845.493 -5.06521C920.944 182.543 850.441 312.102 1019.11 398.385C1315.53 550.015 1060.86 1055.42 794.097 1028.92C665.891 1016.18 521.868 1403.99 399.287 1091.3C307.887 858.153 426.065 836.544 501.208 554.904Z" stroke="#D7D7E0"/>
<path d="M494.097 557.428C540.677 374.116 445.454 365.124 514.057 139.68C582.151 -84.0938 766.404 -218.25 844.823 -31.4606C925.495 160.696 853.855 296.699 1030.11 381.464C1339.85 530.428 1081.54 1060.43 804.132 1040.18C670.812 1030.45 525.98 1435.75 394.819 1115.39C297.021 876.525 419.505 850.973 494.097 557.428Z" stroke="#D7D7E0"/>
<path d="M487.088 559.781C533.161 369.028 434.271 362.292 502.672 127.392C570.566 -105.769 760.056 -249.412 843.693 -58.4269C929.736 138.046 857.087 280.569 1040.96 363.453C1364.1 509.11 1102.64 1063.96 814.624 1050.49C676.204 1044.02 530.932 1466.9 390.944 1139.25C286.564 894.955 413.31 865.244 487.088 559.781Z" stroke="#D7D7E0"/>
<path d="M480.181 561.961C525.582 363.762 423.038 359.466 491.033 115.085C558.523 -127.485 753.098 -280.894 842.097 -85.9446C933.652 114.608 860.125 263.719 1051.66 344.357C1388.26 486.066 1124.14 1065.99 825.557 1059.83C682.059 1056.87 536.719 1497.41 387.661 1162.87C276.52 913.427 407.479 879.343 480.181 561.961Z" stroke="#D7D7E0"/>
<path d="M473.378 563.962C517.942 358.325 411.76 356.647 479.142 102.771C546.025 -149.225 745.527 -312.672 840.022 -113.993C937.233 90.3953 862.96 246.16 1062.18 324.186C1412.28 461.305 1146.02 1066.53 836.921 1068.18C688.369 1068.98 543.336 1527.25 384.974 1186.21C266.895 931.928 402.016 893.258 473.378 563.962Z" stroke="#D7D7E0"/>
<path d="M466.678 565.785C510.24 352.718 400.439 353.837 467.001 90.4587C533.072 -170.969 737.337 -344.72 837.463 -142.556C940.466 65.4226 865.579 227.9 1072.5 302.949C1436.14 434.838 1168.26 1065.53 848.704 1075.54C695.127 1080.35 550.779 1556.39 382.882 1209.27C257.694 950.441 396.922 906.974 466.678 565.785Z" stroke="#D7D7E0"/>
<path d="M460.081 567.426C502.474 346.949 389.076 351.043 454.613 78.1623C519.663 -192.697 728.524 -377.014 834.41 -171.606C943.338 39.7058 867.973 208.952 1082.61 280.656C1459.83 406.662 1190.83 1063.02 860.892 1081.88C702.324 1090.95 559.044 1584.82 381.386 1232.01C248.922 968.955 392.197 920.484 460.081 567.426Z" stroke="#D7D7E0"/>
<path d="M453.587 568.884C494.645 341.019 377.676 348.265 441.976 65.8918C505.801 -214.391 719.082 -409.526 830.855 -201.127C945.84 13.2602 870.132 189.325 1092.5 257.317C1483.29 376.802 1213.72 1058.98 873.472 1087.2C709.951 1100.77 568.119 1612.48 380.486 1254.42C240.583 987.452 387.843 933.772 453.587 568.884Z" stroke="#D7D7E0"/>
<path d="M447.197 570.159C486.751 334.937 366.24 345.509 429.095 53.6585C491.485 -236.03 709.009 -442.23 826.791 -231.096C947.958 -13.8941 872.045 169.032 1102.15 232.942C1506.52 345.263 1236.9 1053.39 886.432 1091.48C718 1109.79 578 1639.35 380.181 1276.48C232.682 1005.92 383.858 946.828 447.197 570.159Z" stroke="#D7D7E0"/>
</g>
<defs>
<clipPath id="clip0_89_570">
<rect width="1253.04" height="1366.32" fill="white" transform="matrix(0.74126 -0.671217 0.345455 0.938436 0 270.171)"/>
</clipPath>
</defs>
</svg>
