<svg width="956" height="944" viewBox="0 0 956 944" fill="none" xmlns="http://www.w3.org/2000/svg">
<g clip-path="url(#clip0_89_21)">
<path d="M318.671 412.141C400.817 346.772 340.011 296.575 448.561 221.636C556.308 147.252 716.274 171.777 716.274 299.049C716.274 429.979 630.672 460.608 724.206 586.153C888.582 806.783 568.866 936.197 390.06 792.813C304.127 723.904 94.681 848.268 96.8975 631.591C98.5501 470.032 187.127 516.817 318.671 412.141Z" stroke="#D7D7E0"/>
<path d="M312.325 409.946C396.559 340.481 332.419 289.389 443.935 209.492C554.625 130.188 721.409 152.785 723.718 285.128C726.093 421.275 637.636 454.678 737.175 583.526C912.102 809.962 581.995 950.338 393.465 804.489C302.858 734.395 87.3229 867.517 85.6971 642.167C84.4849 474.142 177.439 521.182 312.325 409.946Z" stroke="#D7D7E0"/>
<path d="M305.991 407.827C392.192 334.174 324.67 282.287 439.011 197.309C552.504 112.959 726.086 133.398 730.881 270.768C735.813 412.086 644.573 448.374 750.257 580.352C935.986 812.288 595.778 964.027 397.385 816.011C302.037 744.875 80.6583 887.004 74.8883 653.053C70.5861 478.613 167.953 525.77 305.991 407.827Z" stroke="#D7D7E0"/>
<path d="M299.784 405.665C387.832 327.735 316.881 275.158 433.901 184.975C550.054 95.4593 730.408 113.508 737.864 255.858C745.534 402.298 651.585 441.576 763.555 576.508C960.329 813.635 610.319 977.13 401.931 827.248C301.781 755.215 74.8087 906.595 64.5942 664.12C56.9779 483.325 158.789 530.458 299.784 405.665Z" stroke="#D7D7E0"/>
<path d="M293.705 403.46C383.476 321.167 309.053 268.003 428.604 172.497C547.27 77.698 734.363 93.127 744.655 240.403C755.244 391.912 658.664 434.285 777.053 571.99C985.107 813.989 625.606 989.629 407.101 838.186C302.088 765.403 69.7801 926.27 54.8219 675.359C43.6687 488.273 149.951 535.24 293.705 403.46Z" stroke="#D7D7E0"/>
<path d="M287.754 401.21C379.122 314.47 301.185 260.826 423.117 159.882C544.145 59.6856 737.938 72.2644 751.242 224.41C764.927 380.928 665.797 426.5 790.734 566.793C1010.3 813.341 641.625 1001.5 412.887 848.809C302.956 775.425 65.5771 946.011 45.578 686.757C30.6662 493.451 141.444 540.11 287.754 401.21Z" stroke="#D7D7E0"/>
<path d="M281.934 398.914C374.769 307.648 293.28 253.63 417.437 147.137C540.675 41.4326 741.124 50.9319 757.611 207.885C774.572 369.349 672.975 418.222 804.585 560.914C1035.88 811.68 658.364 1012.74 419.285 859.104C304.385 785.269 62.2052 965.798 36.8698 698.304C17.9791 498.854 133.273 545.062 281.934 398.914Z" stroke="#D7D7E0"/>
<path d="M276.244 396.57C370.417 300.701 285.339 246.418 411.564 134.268C536.855 22.9493 743.909 29.1404 763.752 190.834C784.164 357.176 680.186 409.449 818.59 554.35C1061.82 808.996 675.81 1023.31 426.291 869.057C306.373 794.923 59.6691 985.612 28.704 709.988C5.61578 504.476 125.443 550.089 276.244 396.57Z" stroke="#D7D7E0"/>
<path d="M270.685 394.178C366.061 293.632 277.362 239.194 405.495 121.284C532.678 4.24721 746.282 6.90216 769.65 173.266C793.689 344.412 687.418 400.183 832.732 547.097C1088.11 805.28 693.949 1033.21 433.896 878.654C308.916 804.374 57.9717 1005.44 21.086 721.799C-6.41677 510.313 117.956 555.186 270.685 394.178Z" stroke="#D7D7E0"/>
<path d="M265.258 391.736C361.703 286.443 269.351 231.96 399.227 108.19C528.142 -14.6631 748.233 -15.7711 775.295 155.188C803.135 331.06 694.662 390.425 846.997 539.153C1114.71 800.525 712.765 1042.42 442.096 887.881C312.013 813.61 57.1171 1025.25 14.0222 733.724C-18.1103 516.357 110.819 560.346 265.258 391.736Z" stroke="#D7D7E0"/>
<path d="M259.963 389.245C357.338 279.138 261.306 224.72 392.76 94.9947C523.24 -33.7697 749.75 -38.8664 780.674 136.608C812.486 317.125 701.905 380.176 861.368 530.516C1141.6 794.723 732.246 1050.92 450.883 896.725C315.661 822.62 57.108 1045.03 7.51787 745.753C-29.4576 522.605 104.033 565.563 259.963 389.245Z" stroke="#D7D7E0"/>
</g>
<defs>
<clipPath id="clip0_89_21">
<rect width="956" height="944" fill="white"/>
</clipPath>
</defs>
</svg>
