<svg width="380" height="340" viewBox="0 0 380 340" fill="none" xmlns="http://www.w3.org/2000/svg">
<path d="M299.331 132.266L299.305 132.204C297.407 129.36 295.33 126.641 293.085 124.063C292.375 123.255 291.712 122.529 291.059 121.844L290.98 121.761L290.876 121.796C276.974 108.67 259.843 107.159 243.871 117.65L243.828 117.679L243.807 117.726C243.49 118.421 243.27 119.156 243.151 119.911L243.134 120.061C243.113 120.264 243.09 120.464 243.061 120.675C243.037 120.963 243.029 121.252 243.035 121.541C243.04 121.632 243.026 121.722 242.994 121.807C242.962 121.892 242.912 121.969 242.848 122.034L242.809 122.072L242.797 122.124C242.006 125.74 240.264 128.699 237.777 130.68C235.848 132.245 233.441 133.101 230.956 133.107C229.748 133.102 228.546 132.913 227.395 132.546C226.617 132.297 225.884 131.927 225.223 131.448C224.385 131.061 223.255 130.657 221.93 130.974C221.008 131.197 220.188 131.649 219.575 132.018C216.683 133.836 213.957 135.906 211.428 138.204L211.402 138.234C209.786 140.564 208.463 143.083 207.462 145.736C203.77 155.399 204.285 161.77 204.886 169.163C205.006 170.645 205.13 172.176 205.219 173.764C205.234 174.178 205.354 174.581 205.567 174.936L205.664 175.089L205.817 174.992C206.027 174.855 206.208 174.679 206.351 174.474C206.723 173.967 206.926 173.305 206.972 172.447L206.744 170.404C206.744 170.377 206.744 170.349 206.735 170.316L206.682 169.822C206.676 169.765 206.681 169.707 206.695 169.651C206.695 169.525 206.695 169.398 206.712 169.232C206.781 168.325 207.104 167.397 207.671 166.471C207.86 166.169 208.067 165.88 208.293 165.606L208.462 165.342C209.137 164.293 209.903 163.105 209.675 161.522C209.618 161.124 209.579 160.806 209.548 160.516C209.509 160.217 209.494 159.916 209.505 159.614C209.512 159.549 209.516 159.488 209.521 159.416V159.388C209.526 159.239 209.543 159.091 209.569 158.944L209.713 158.295L209.953 157.661C210.001 157.534 210.059 157.411 210.127 157.294C210.167 157.223 210.205 157.151 210.235 157.089C210.65 156.344 211.19 155.676 211.834 155.116C212.037 154.925 212.254 154.749 212.483 154.59C212.592 154.51 212.7 154.431 212.79 154.359L213.043 154.199C213.302 154.03 213.568 153.873 213.842 153.731C214.402 153.437 214.939 153.216 215.457 153.002L215.488 152.99C215.651 152.923 215.816 152.855 215.976 152.787C217.317 152.269 218.732 151.803 220.302 151.361C222.475 150.764 224.681 150.293 226.908 149.95C227.468 149.831 228.048 149.677 228.362 149.225C228.559 148.95 228.616 148.617 228.537 148.195L228.523 148.16C228.339 147.803 228.176 147.435 228.034 147.059C227.761 146.33 227.599 145.564 227.555 144.787C227.508 143.983 227.617 143.177 227.877 142.414C228.148 141.652 228.563 140.95 229.1 140.345C229.633 139.754 230.264 139.259 230.965 138.883C231.653 138.508 232.398 138.249 233.171 138.117C233.942 137.977 234.731 137.963 235.506 138.075C236.263 138.173 237.004 138.371 237.709 138.662C238.399 138.941 239.06 139.288 239.683 139.696C240.977 140.524 242.089 141.529 243.004 142.403C243.918 143.277 244.777 144.176 245.618 145.063C246.687 146.178 247.695 147.23 248.785 148.23C251.065 150.342 253.218 151.691 255.359 152.356C255.47 152.386 255.58 152.417 255.692 152.45C255.878 152.505 256.072 152.56 256.28 152.603L257.254 152.816C257.475 152.864 257.697 152.904 257.917 152.943L258.242 153.001C258.58 153.064 258.914 153.119 259.232 153.161C260.678 153.39 262.134 153.498 263.241 153.566C263.867 153.602 264.508 153.623 265.193 153.634C266.991 153.604 269.462 153.317 270.167 151.167C270.82 149.181 268.466 147.031 266.908 145.609L266.608 145.335C266.046 144.855 265.468 144.394 265.07 144.08C264.928 143.96 264.837 143.79 264.817 143.605C264.796 143.42 264.849 143.234 264.963 143.087C265.076 142.939 265.243 142.842 265.427 142.814C265.611 142.787 265.799 142.832 265.951 142.94C266.778 143.556 267.747 144.295 268.666 145.116C269.461 145.8 270.262 146.561 271.188 147.513C271.586 147.926 271.973 148.343 272.35 148.764L272.383 148.789C272.473 148.847 272.575 148.884 272.681 148.897C272.787 148.91 272.895 148.898 272.996 148.864C273.357 148.738 273.679 148.313 273.959 147.587C274.404 145.925 275.133 144.351 276.112 142.935C278.075 140.066 280.925 137.625 284.358 135.877C287.791 134.129 291.451 133.304 294.943 133.455C295.396 133.477 295.855 133.517 296.319 133.574L297.313 133.584C297.44 133.584 297.59 133.601 297.742 133.615C298.204 133.658 298.728 133.707 299.08 133.532C299.402 133.364 299.478 132.954 299.331 132.266Z" fill="#FF5975"/>
<path d="M289.758 182.944C288.463 182.599 287.055 182.74 285.693 182.875C285.371 182.907 285.053 182.938 284.742 182.963C283.336 183.074 281.931 183.183 280.527 183.291C278.636 183.505 276.702 183.688 274.611 183.853C269.053 184.303 264.124 184.36 259.537 184.019C257.018 183.839 254.51 183.524 252.024 183.075C249.787 182.671 247.38 182.105 244.666 181.346C244.146 181.204 243.629 181.056 243.114 180.909C241.199 180.363 239.39 179.847 237.575 179.616C236.055 179.508 233.894 179.532 232.753 180.995L232.735 181.018V181.046C232.718 181.418 232.8 181.788 232.972 182.119C238.209 192.506 243.555 200.516 249.328 206.606C251.755 208.314 255.142 210.319 258.941 210.319C260.203 210.32 261.456 210.093 262.638 209.65C264.902 208.804 266.93 207.361 268.889 205.965C269.298 205.674 269.706 205.384 270.113 205.1C272.377 203.521 274.644 201.942 276.914 200.363L280.76 197.27C284.202 194.179 287.616 191.036 290.917 187.911C291.043 187.723 291.17 187.531 291.328 187.32L291.455 187.141C291.945 186.475 292.407 185.847 292.124 184.884C291.754 183.593 290.345 183.097 289.758 182.944Z" fill="#FF5975"/>
<path d="M188.398 134.458C187.918 134.084 187.416 133.74 186.894 133.427C189.765 129.564 191.013 124.732 190.371 119.962C189.729 115.192 187.249 110.862 183.459 107.895C175.449 101.615 163.818 103.028 157.538 111.039C155.418 113.741 154.098 116.983 153.728 120.398C150.825 118.062 147.905 115.746 144.967 113.448C142.613 111.602 140.249 109.768 137.874 107.947C135.513 106.115 133.123 104.313 130.747 102.5C125.984 98.8808 121.187 95.3046 116.355 91.7714C111.516 88.2425 106.653 84.7528 101.693 81.3848C101.049 80.9519 100.265 80.7788 99.4989 80.9001C98.7326 81.0215 98.0406 81.4284 97.5619 82.0391C97.0833 82.6497 96.8534 83.4189 96.9186 84.1921C96.9838 84.9652 97.3392 85.6851 97.9133 86.207C99.18 87.3495 100.458 88.484 101.749 89.6105L88.8567 106.057C88.5053 106.504 88.2456 107.017 88.0925 107.565C87.9395 108.113 87.896 108.685 87.9646 109.25C88.0332 109.815 88.2125 110.361 88.4923 110.856C88.7721 111.351 89.1469 111.787 89.5951 112.137L104.323 123.675C105.085 124.27 106.024 124.593 106.99 124.595C107.165 124.594 107.34 124.584 107.513 124.565C108.652 124.426 109.689 123.841 110.398 122.939L122.72 107.213C123.599 107.93 124.479 108.655 125.362 109.367C127.691 111.241 130.013 113.13 132.357 114.987C134.7 116.844 137.043 118.715 139.394 120.56C142.322 122.857 145.263 125.137 148.219 127.4C145.007 128.578 142.187 130.629 140.078 133.323C133.802 141.337 135.212 152.964 143.226 159.244C147.018 162.214 151.821 163.583 156.609 163.061C161.397 162.539 165.791 160.167 168.854 156.45C169.284 156.882 169.739 157.287 170.217 157.665C172.799 159.699 175.99 160.805 179.276 160.805C179.879 160.805 180.481 160.768 181.079 160.693C183.002 160.467 184.861 159.86 186.548 158.91C188.235 157.959 189.717 156.683 190.907 155.155C195.918 148.752 194.793 139.469 188.398 134.458ZM162.336 150.76C161.139 152.286 159.517 153.423 157.675 154.027C155.832 154.631 153.852 154.675 151.984 154.154C150.116 153.633 148.445 152.57 147.181 151.099C145.918 149.628 145.118 147.816 144.885 145.891C144.651 143.966 144.993 142.015 145.868 140.284C146.742 138.554 148.111 137.121 149.799 136.168C151.488 135.215 153.421 134.784 155.355 134.929C157.288 135.075 159.136 135.79 160.663 136.985C162.709 138.592 164.035 140.944 164.348 143.527C164.662 146.11 163.938 148.712 162.336 150.761V150.76ZM164.347 116.378C165.14 115.36 166.126 114.51 167.249 113.877C168.372 113.244 169.61 112.84 170.891 112.689C171.289 112.639 171.69 112.613 172.092 112.613C174.31 112.617 176.462 113.373 178.196 114.757C179.93 116.141 181.143 118.072 181.639 120.234C182.134 122.397 181.882 124.663 180.924 126.664C179.966 128.665 178.358 130.282 176.363 131.252C174.367 132.222 172.102 132.486 169.937 132.003C167.772 131.52 165.834 130.318 164.44 128.592C163.046 126.866 162.278 124.719 162.261 122.5C162.244 120.282 162.98 118.123 164.347 116.376V116.378ZM174.514 142.306C175.005 141.676 175.615 141.149 176.311 140.756C177.007 140.363 177.774 140.112 178.567 140.017C178.815 139.988 179.064 139.972 179.313 139.971C180.69 139.973 182.025 140.442 183.101 141.301C184.176 142.16 184.93 143.358 185.237 144.699C185.545 146.041 185.388 147.447 184.794 148.689C184.199 149.931 183.202 150.934 181.964 151.536C180.726 152.138 179.32 152.302 177.977 152.002C176.633 151.703 175.431 150.957 174.566 149.886C173.701 148.815 173.224 147.483 173.213 146.106C173.203 144.73 173.659 143.39 174.507 142.306H174.514Z" fill="#FCCA97"/>
<path d="M213.775 110.213L210.545 110.154C210.099 110.1 209.574 110.027 209.258 109.693C209.112 109.527 209.002 109.332 208.935 109.121L207.732 102.062C207.688 101.834 207.557 101.631 207.367 101.497C207.177 101.363 206.943 101.307 206.713 101.342C206.483 101.376 206.275 101.498 206.133 101.682C205.991 101.866 205.925 102.098 205.95 102.329L207.121 111.351V111.367C207.156 111.626 207.286 111.862 207.487 112.03C207.687 112.197 207.942 112.283 208.203 112.271L213.798 112.018C214.032 112.007 214.251 111.905 214.412 111.735C214.572 111.565 214.659 111.339 214.656 111.105C214.653 110.872 214.559 110.648 214.395 110.482C214.23 110.316 214.008 110.221 213.774 110.216L213.775 110.213Z" fill="#131344"/>
<path d="M353.04 95.9843C349.302 91.7334 341.514 91.6181 329.902 95.6423C319.144 99.3701 305.391 106.609 290.129 116.584C289.977 116.683 289.853 116.819 289.768 116.979C289.683 117.14 289.64 117.319 289.642 117.5C287.719 115.674 285.689 113.964 283.562 112.38C281.522 110.853 279.367 109.486 277.116 108.291C274.853 107.108 272.465 106.1 269.932 105.475C268.654 105.156 267.349 104.958 266.034 104.884C264.702 104.839 263.369 104.95 262.062 105.216C259.492 105.722 257.076 106.609 254.751 107.639C252.441 108.676 250.191 109.844 248.013 111.136C246.113 112.257 244.282 113.433 242.475 114.706C241.257 113.278 240.218 111.714 239.501 110.027C239.084 109.054 238.79 108.032 238.625 106.987C238.544 106.475 238.504 105.958 238.506 105.44C238.506 105.187 238.523 104.933 238.545 104.68C238.559 104.553 238.574 104.438 238.592 104.319L238.603 104.276C241.137 101.903 243.311 99.0952 244.819 95.9159C246.377 92.6466 247.225 88.972 246.972 85.2759C246.851 83.4204 246.423 81.5977 245.705 79.8824C244.983 78.1543 243.94 76.579 242.63 75.2401C241.32 73.9016 239.774 72.8165 238.07 72.0392C236.581 71.3624 235.009 70.8857 233.395 70.6218C232.974 69.6413 232.444 68.7112 231.815 67.8491C231.058 66.8267 230.178 65.9018 229.194 65.0954C227.244 63.488 224.984 62.3378 222.626 61.5728C220.253 60.7923 217.763 60.4314 215.267 60.5062C214.951 60.5138 214.634 60.5455 214.319 60.5708C214.003 60.5962 213.713 60.6316 213.411 60.6722C212.801 60.752 212.196 60.8457 211.594 60.961C210.381 61.1868 209.186 61.5013 208.018 61.9021C205.675 62.695 203.468 63.8958 201.479 65.2803C199.489 66.6648 197.671 68.1822 195.749 69.3501C194.808 69.9323 193.807 70.4121 192.764 70.7814C191.726 71.1417 190.649 71.3752 189.555 71.4768C187.356 71.6934 185.082 71.4376 182.842 70.9702L182.82 70.9626C182.723 70.9435 182.624 70.9388 182.525 70.9486C182.385 70.9592 182.248 70.9974 182.123 71.061C181.997 71.1245 181.886 71.2123 181.794 71.3192C181.703 71.426 181.633 71.5499 181.59 71.6837C181.547 71.8175 181.53 71.9586 181.541 72.0988C181.592 72.7321 181.668 73.2742 181.758 73.8544C181.848 74.4345 181.959 74.9944 182.082 75.553C182.327 76.6829 182.642 77.7967 183.023 78.8881C183.652 80.7509 184.524 82.5229 185.615 84.1587C185.937 84.5799 186.286 84.9809 186.657 85.3595C187.196 85.9163 187.768 86.4399 188.37 86.9276C188.975 87.4216 189.61 87.8903 190.27 88.321C190.926 88.7574 191.605 89.1594 192.303 89.5256L192.314 89.5332C192.357 89.5545 192.395 89.584 192.426 89.6202C192.456 89.6564 192.48 89.6984 192.494 89.7437C192.509 89.7891 192.514 89.8368 192.509 89.8842C192.505 89.9316 192.491 89.9776 192.469 90.0196C192.429 90.0958 192.363 90.1553 192.283 90.1871C192.203 90.2189 192.114 90.2211 192.033 90.1931C191.253 89.9263 190.487 89.6172 189.74 89.2672C189.511 89.1595 189.187 88.9923 188.845 88.8086C188.664 88.7113 188.461 88.6641 188.256 88.6718C188.051 88.6795 187.852 88.7419 187.679 88.8525C187.506 88.9631 187.366 89.1179 187.273 89.3008C187.181 89.4837 187.138 89.6882 187.151 89.8929C187.514 94.6923 189.819 99.0914 193.396 101.878C193.606 102.103 193.856 102.285 194.134 102.415C195.054 103.045 196.042 103.568 197.079 103.973C197.14 104.204 197.195 104.438 197.255 104.669C197.911 107.077 198.704 109.445 199.632 111.762C199.848 112.338 200.13 112.92 200.378 113.5C200.626 114.08 200.936 114.64 201.225 115.209C201.859 116.316 202.505 117.423 203.301 118.439L203.59 118.819L203.904 119.19C204.113 119.435 204.318 119.687 204.538 119.926C204.992 120.394 205.432 120.867 205.931 121.292C206.907 122.173 207.989 122.927 209.153 123.538C211.508 124.772 214.149 125.353 216.804 125.222C218.07 125.149 219.324 124.933 220.542 124.577C220.551 124.606 220.562 124.635 220.575 124.663L222.348 128.083C219.323 129.676 207.38 136.458 202.299 146.65C197.919 155.432 199.649 165.572 201.175 174.516C201.538 176.655 201.885 178.688 202.13 180.596C202.128 180.601 202.128 180.606 202.13 180.61C202.577 184.092 202.684 187.129 201.938 189.501C200.118 189.151 198.297 188.82 196.476 188.481C194.4 188.093 192.323 187.71 190.239 187.353C188.681 186.913 187.287 185.896 186.119 184.599C184.951 183.302 183.966 181.754 183.061 180.147C182.157 178.539 181.374 176.845 180.386 175.124C179.875 174.242 179.274 173.414 178.594 172.654C177.879 171.847 177.024 171.176 176.07 170.672C175.082 170.165 173.871 169.883 172.671 170.084C171.481 170.283 170.399 170.896 169.617 171.815C168.883 172.681 168.384 173.721 168.168 174.836C167.956 175.9 167.951 176.995 168.154 178.062C168.197 178.315 168.259 178.581 168.323 178.837C168.388 179.093 168.45 179.309 168.522 179.548C168.659 180.016 168.811 180.485 168.973 180.95C169.078 181.239 169.19 181.524 169.301 181.807C167.999 181.04 166.781 180.137 165.667 179.114C163.72 177.298 161.204 176.465 158.94 176.883C157.733 177.091 156.63 177.697 155.808 178.605C153.288 176.731 150.086 176.68 147.954 178.623C145.412 180.937 144.955 185.739 149.458 191.392C149.272 191.684 149.116 191.994 148.993 192.318C148.755 192.956 148.622 193.628 148.6 194.308C148.582 195.642 148.946 196.9 149.473 198.007C150.002 199.086 150.67 200.092 151.459 200.999C152.227 201.901 153.09 202.718 154.033 203.436C154.941 204.138 155.889 204.788 156.87 205.383C158.799 206.551 160.79 207.613 162.834 208.566C164.853 209.525 166.887 210.415 168.938 211.273C173.062 213.097 177.045 214.776 180.867 216.28C170.149 230.326 154.427 254.093 162.627 263.42C164.537 265.594 167.534 266.687 171.575 266.687C173.651 266.687 176.008 266.394 178.634 265.818C185.793 264.238 194.764 260.576 205.301 254.924C226.864 243.37 252.654 224.764 277.927 202.538C303.2 180.311 324.948 157.11 339.16 137.202C343.454 131.188 346.909 125.691 349.525 120.708C349.793 120.328 350.059 119.933 350.326 119.544C350.587 119.177 350.734 118.741 350.748 118.29C351.73 116.289 352.604 114.237 353.368 112.143C356.047 104.719 355.933 99.2764 353.04 95.9843ZM216.695 123.063C214.429 123.173 212.175 122.674 210.167 121.618C209.159 121.086 208.223 120.429 207.38 119.663C206.94 119.292 206.55 118.867 206.15 118.456C205.955 118.243 205.77 118.017 205.588 117.796L205.306 117.464L205.053 117.115C204.339 116.203 203.745 115.186 203.167 114.166C202.904 113.639 202.63 113.121 202.384 112.584C202.138 112.047 201.898 111.51 201.685 110.944C200.795 108.709 200.034 106.425 199.405 104.104C199.152 103.152 198.919 102.194 198.702 101.231C198.715 101.096 198.695 100.96 198.644 100.834C198.608 100.741 198.575 100.643 198.546 100.549C198.503 100.333 198.46 100.114 198.42 99.8932C198.371 99.494 198.408 99.0891 198.526 98.7047C198.644 98.3202 198.841 97.9648 199.105 97.6614C199.33 97.4928 199.566 97.34 199.812 97.2041C200.111 97.0433 200.422 96.9049 200.741 96.7899C201.058 96.6708 201.386 96.5809 201.743 96.4732L201.905 96.4264C202.165 96.3488 202.391 96.1867 202.548 95.9657C202.705 95.7447 202.784 95.4777 202.771 95.2069C202.759 94.9362 202.656 94.6774 202.48 94.4717C202.304 94.266 202.063 94.1252 201.798 94.0716C200.869 93.9046 199.911 94.0138 199.044 94.3858C198.817 94.4571 198.584 94.5101 198.349 94.5441C197.977 94.591 197.747 94.3604 197.581 94.0678C197.354 93.228 197.314 92.0855 198.017 91.4762C198.284 91.2419 198.65 91.1659 199.052 91.1342C201.229 91.2755 203.414 91.2056 205.577 90.9252C207.874 90.6301 210.102 89.9993 212.225 89.3824C213.281 89.0873 214.326 88.7909 215.293 88.687C215.736 88.629 216.186 88.6388 216.627 88.7162C217.015 88.7902 217.38 88.9547 217.693 89.1962C218.342 89.6788 218.869 90.5376 219.283 91.4636C219.7 92.4323 220.043 93.4312 220.31 94.4516C220.366 94.6569 220.481 94.8411 220.642 94.9811C220.802 95.1212 221 95.2109 221.211 95.239C221.422 95.2671 221.636 95.2324 221.827 95.1392C222.019 95.046 222.178 94.8985 222.286 94.7151L222.297 94.7012C222.889 93.6992 223.691 92.848 224.695 92.3325C225.711 91.7988 226.853 91.553 227.997 91.6219C230.312 91.741 232.59 93.1039 233.571 95.1407C233.811 95.6544 233.979 96.1993 234.069 96.7595C234.166 97.338 234.194 97.9262 234.151 98.5113C234.07 99.6835 233.694 100.816 233.059 101.805C232.436 102.788 231.551 103.577 230.503 104.085C229.445 104.586 228.264 104.771 227.103 104.618C226.867 104.583 226.626 104.643 226.434 104.786C226.242 104.929 226.114 105.142 226.079 105.379C226.044 105.615 226.105 105.856 226.247 106.048C226.39 106.24 226.603 106.368 226.84 106.403C228.353 106.654 229.906 106.464 231.314 105.854C231.745 105.661 232.158 105.428 232.546 105.159C232.609 105.131 232.668 105.096 232.722 105.054C233.411 104.534 234.687 103.446 235.616 104.056C236.06 104.348 236.123 105.094 236.226 105.563C236.276 105.776 236.323 105.985 236.37 106.196C236.392 106.576 236.431 106.942 236.489 107.313C236.679 108.538 237.023 109.733 237.513 110.871C237.751 111.434 238.018 111.983 238.313 112.518C238.341 112.589 238.377 112.655 238.421 112.717C238.439 112.742 238.454 112.768 238.472 112.789C238.877 113.5 239.325 114.186 239.813 114.844C240.516 116.051 241.049 117.295 241.262 118.675C241.067 123.077 239.384 126.881 236.554 129.138C234.265 130.954 231.463 131.545 228.598 130.829C226.561 130.108 225.025 128.359 224.978 126.084C224.931 123.727 226.485 122.05 228.018 120.468C228.105 120.38 228.173 120.276 228.219 120.161C228.898 119.527 229.536 118.85 230.129 118.135C230.281 117.955 230.357 117.724 230.34 117.489C230.324 117.255 230.216 117.036 230.041 116.88C229.865 116.723 229.635 116.642 229.401 116.653C229.166 116.664 228.945 116.766 228.784 116.938L228.773 116.949C227.178 118.659 225.314 120.095 223.254 121.2C221.198 122.255 218.959 122.944 216.695 123.063ZM204.232 147.629C207.74 140.587 214.999 135.133 219.686 132.176C220.41 131.74 221.168 131.353 221.986 131.156C223.14 130.878 224.167 131.156 225.153 131.617C225.819 132.101 226.559 132.475 227.344 132.724C228.513 133.097 229.733 133.289 230.96 133.294C233.486 133.292 235.933 132.421 237.893 130.828C240.441 128.801 242.199 125.745 242.976 122.169C243.057 122.088 243.121 121.99 243.163 121.883C243.204 121.776 243.223 121.661 243.218 121.546C243.212 121.262 243.22 120.978 243.243 120.694C243.279 120.441 243.304 120.188 243.333 119.934C243.66 117.889 244.727 116.034 246.332 114.725C247.248 114.137 248.174 113.564 249.109 113.016C251.216 111.769 253.393 110.642 255.627 109.642C257.852 108.661 260.148 107.831 262.467 107.378C263.603 107.147 264.763 107.05 265.921 107.089C267.093 107.157 268.256 107.336 269.393 107.622C271.701 108.192 273.936 109.134 276.078 110.258C278.225 111.404 280.281 112.713 282.229 114.174C286.155 117.087 289.713 120.507 292.95 124.18C295.19 126.752 297.263 129.465 299.156 132.302C299.264 132.809 299.268 133.228 299.016 133.355C298.594 133.564 297.79 133.394 297.332 133.388L296.337 133.376C295.882 133.318 295.425 133.279 294.966 133.257C291.235 133.095 287.561 134.046 284.292 135.698C281.023 137.35 278.085 139.732 275.979 142.814C274.989 144.248 274.253 145.84 273.801 147.522C273.548 148.175 273.095 148.972 272.493 148.614C272.115 148.192 271.729 147.776 271.335 147.367C270.521 146.531 269.689 145.72 268.802 144.96C267.915 144.2 267.01 143.472 266.076 142.775C265.887 142.629 265.647 142.565 265.41 142.595C265.173 142.626 264.958 142.75 264.813 142.939C264.667 143.128 264.602 143.368 264.633 143.605C264.664 143.842 264.787 144.057 264.977 144.203L264.998 144.216C265.505 144.621 266.011 145.031 266.509 145.453C268.052 146.873 270.669 149.094 270.013 151.091C269.368 153.059 267.15 153.401 265.207 153.434C264.559 153.423 263.913 153.401 263.268 153.366C261.93 153.283 260.596 153.171 259.277 152.962C258.949 152.918 258.617 152.864 258.292 152.803C257.968 152.742 257.636 152.692 257.308 152.62L256.335 152.407C256.007 152.338 255.726 152.241 255.42 152.161C253.013 151.415 250.87 149.881 248.923 148.076C246.976 146.271 245.173 144.211 243.147 142.261C242.127 141.288 241.049 140.332 239.798 139.531C239.166 139.116 238.495 138.765 237.794 138.482C237.074 138.186 236.32 137.985 235.548 137.884C234.754 137.771 233.947 137.785 233.158 137.927C232.366 138.064 231.602 138.329 230.897 138.713C230.177 139.099 229.53 139.606 228.983 140.213C228.43 140.835 228.003 141.558 227.725 142.343C227.457 143.127 227.344 143.956 227.393 144.784C227.438 145.579 227.604 146.364 227.883 147.11C228.027 147.493 228.194 147.867 228.381 148.231C228.419 148.379 228.425 148.534 228.399 148.686C228.374 148.837 228.317 148.981 228.233 149.11C227.944 149.517 227.382 149.658 226.888 149.762C224.657 150.105 222.448 150.577 220.272 151.176C218.808 151.586 217.359 152.055 215.927 152.607C215.213 152.91 214.525 153.165 213.774 153.558C213.407 153.742 213.06 153.976 212.71 154.191C212.378 154.445 212.025 154.674 211.722 154.974C211.067 155.546 210.516 156.226 210.093 156.986C209.983 157.18 209.885 157.381 209.798 157.587L209.56 158.221L209.408 158.895C209.372 159.124 209.35 159.355 209.339 159.586C209.327 159.901 209.341 160.215 209.383 160.527C209.412 160.852 209.455 161.187 209.509 161.541C209.747 163.187 208.849 164.407 208.154 165.503C207.927 165.778 207.719 166.069 207.531 166.372C207.024 167.201 206.626 168.164 206.546 169.213C206.535 169.357 206.529 169.502 206.529 169.646C206.512 169.711 206.508 169.779 206.517 169.845C206.531 169.978 206.546 170.108 206.56 170.241C206.568 170.302 206.572 170.368 206.578 170.421C206.654 171.103 206.73 171.78 206.805 172.462C206.766 173.157 206.614 173.821 206.217 174.362C205.584 175.241 204.516 175.328 203.81 174.506C203.338 173.955 203.154 173.183 203.014 172.458C201.639 164.28 200.432 155.245 204.231 147.628L204.232 147.629ZM158.873 180.23C159 179.492 159.506 179.127 160.113 178.954C161.497 178.954 162.976 179.574 164.194 180.709C165.179 181.618 166.242 182.44 167.37 183.164C168.588 184.015 170.045 184.984 170.434 186.521C170.982 188.674 168.959 189.602 167.337 188.831C167.171 188.737 167.012 188.64 166.854 188.542C166.835 188.532 166.817 188.52 166.8 188.507C166.737 188.458 166.668 188.418 166.594 188.388C163.808 186.65 161.72 184.74 159.806 182.742C159.283 182 158.721 181.141 158.872 180.229L158.873 180.23ZM181.015 244.672C181.015 244.65 181.004 244.633 181.002 244.611C181.02 244.626 181.039 244.639 181.06 244.65L181.015 244.672ZM234.613 202.809C233.971 208.526 232.418 212.73 229.962 215.349C225.611 219.992 219.829 221.992 212.77 221.992C201.508 221.992 186.985 216.898 169.814 209.313C169.814 209.313 169.814 209.313 169.807 209.313C169.799 209.313 169.799 209.313 169.795 209.305C167.769 208.44 165.757 207.546 163.785 206.595C161.813 205.643 159.858 204.652 158.028 203.519C156.198 202.387 154.441 201.151 153.136 199.604C152.467 198.84 151.898 197.994 151.445 197.085C151.021 196.244 150.793 195.319 150.778 194.378C150.793 193.95 150.874 193.527 151.02 193.124C151.169 192.734 151.393 192.378 151.679 192.075C152.272 191.448 153.068 191.054 153.925 190.964C154.363 190.909 154.806 190.926 155.238 191.015C156.132 191.205 156.956 191.639 157.62 192.269L157.873 192.522C157.953 192.594 158.065 192.721 158.162 192.817C158.361 193.026 158.555 193.235 158.764 193.438C159.588 194.264 160.483 195.015 161.439 195.684C162.395 196.339 163.397 196.922 164.439 197.429C166.487 198.442 168.577 199.221 170.645 200.021C170.868 200.109 171.116 200.106 171.336 200.011C171.555 199.917 171.728 199.739 171.817 199.517C171.905 199.294 171.902 199.046 171.808 198.826C171.713 198.607 171.535 198.433 171.313 198.345C169.276 197.501 167.243 196.644 165.332 195.666C164.388 195.186 163.482 194.636 162.621 194.019C161.772 193.401 160.976 192.712 160.242 191.961C160.055 191.777 159.875 191.581 159.694 191.385C159.596 191.283 159.524 191.205 159.405 191.082L159.065 190.742C158.6 190.293 158.076 189.91 157.507 189.602C157.221 189.445 156.925 189.307 156.621 189.188C156.309 189.076 155.99 188.986 155.666 188.918C155.012 188.779 154.34 188.747 153.676 188.825C153.501 188.843 153.328 188.871 153.156 188.907C152.436 188.991 151.706 188.889 151.037 188.611C150.367 188.332 149.78 187.887 149.331 187.317C147.636 184.07 148.001 181.531 149.413 180.244C150.737 179.04 153.116 178.897 155.143 180.9C155.203 180.984 155.276 181.058 155.359 181.121C155.377 181.139 155.392 181.156 155.41 181.175L155.867 181.682C158.884 185.013 161.772 188.193 166.634 190.95C167.096 191.355 167.59 191.721 168.112 192.046C169.151 192.713 170.401 193.439 170.311 194.846C170.289 195.026 170.332 195.207 170.432 195.358C170.532 195.508 170.682 195.619 170.856 195.668C170.988 195.751 171.139 195.797 171.295 195.801C171.534 195.809 171.766 195.721 171.941 195.558C172.115 195.394 172.217 195.168 172.225 194.929C172.235 193.843 172.422 192.767 172.78 191.742C173.155 190.744 173.699 189.817 174.387 189.002C174.514 188.846 174.594 188.656 174.616 188.456C174.639 188.256 174.603 188.054 174.514 187.873L174.496 187.838C173.638 186.168 172.787 184.493 172.037 182.805C171.657 181.962 171.313 181.114 171.014 180.261C170.862 179.831 170.721 179.403 170.596 178.966C170.531 178.75 170.469 178.527 170.412 178.314C170.355 178.101 170.315 177.91 170.279 177.705C170.128 176.91 170.128 176.093 170.279 175.298C170.422 174.548 170.753 173.847 171.242 173.261C171.693 172.725 172.319 172.366 173.009 172.248C173.679 172.136 174.402 172.283 175.093 172.628C175.811 173.013 176.454 173.523 176.993 174.135C177.57 174.785 178.079 175.491 178.513 176.244C179.407 177.798 180.218 179.546 181.162 181.223C182.107 182.9 183.149 184.584 184.512 186.08C185.197 186.848 185.97 187.533 186.816 188.12C187.693 188.725 188.663 189.182 189.688 189.472H189.696C189.71 189.472 189.729 189.472 189.747 189.48L189.78 189.491C191.877 189.895 193.976 190.274 196.074 190.651C198.171 191.029 200.274 191.411 202.375 191.768L208.685 192.85C210.786 193.217 212.891 193.565 214.998 193.91C215.229 193.945 215.465 193.888 215.655 193.752C215.845 193.615 215.975 193.411 216.017 193.18C216.06 192.95 216.011 192.713 215.881 192.518C215.751 192.323 215.551 192.187 215.322 192.137L212.315 191.535C212.303 191.53 212.291 191.525 212.279 191.521C208.226 190.393 205.336 187.227 204.553 183.237C204.513 182.679 204.463 182.109 204.398 181.525C204.446 180.579 204.681 179.653 205.09 178.799C206.416 176.744 208.636 175.846 210.501 175.46C212.296 175.237 213.424 176.38 214.283 177.789C214.515 178.295 214.82 178.765 215.188 179.183C216.183 180.323 217.542 181.046 218.937 181.374C220.2 181.652 221.507 181.665 222.776 181.413C222.796 181.413 222.815 181.41 222.835 181.406C223.891 181.193 225.127 180.899 226.184 181.301C226.883 181.554 227.398 182.101 227.838 182.694C228.199 183.336 228.562 183.961 228.923 184.583C228.935 184.604 228.941 184.626 228.953 184.647C230.698 187.766 233.038 191.003 234.047 194.456C234.817 197.04 234.713 199.993 234.612 202.809H234.613ZM256.821 217.435C256.819 217.417 256.819 217.399 256.821 217.38C256.831 217.389 256.841 217.399 256.85 217.41C256.838 217.415 256.828 217.424 256.819 217.434L256.821 217.435ZM291.26 187.267C291.112 187.472 290.971 187.667 290.846 187.862C287.547 190.981 284.167 194.094 280.705 197.202L276.862 200.292C274.598 201.868 272.333 203.445 270.066 205.025C267.701 206.672 265.333 208.548 262.61 209.564C256.586 211.806 251.063 208.01 246.514 204.354C244.495 202.223 242.386 199.847 240.241 197.18C240.142 197.012 240.02 196.858 239.88 196.722C238.085 194.469 236.271 192.01 234.473 189.321C234.448 189.225 234.409 189.133 234.357 189.048C233.091 187.04 231.534 184.638 232.278 182.154C232.988 179.782 235.41 179.551 237.573 179.706C239.874 179.999 242.239 180.772 244.647 181.432C247.054 182.092 249.521 182.712 252.012 183.163C254.501 183.613 257.013 183.928 259.536 184.108C264.573 184.479 269.627 184.346 274.62 183.942C276.596 183.786 278.569 183.599 280.539 183.379C281.941 183.271 283.345 183.162 284.749 183.051C286.357 182.925 288.149 182.608 289.735 183.03C290.701 183.283 291.739 183.862 292.045 184.908C292.347 185.911 291.789 186.535 291.26 187.267ZM309.815 163.726C309.639 166.073 308.993 168.34 307.765 170.273C306.536 172.206 304.777 173.799 302.771 175.046C300.766 176.292 298.52 177.245 296.218 178.01C293.892 178.765 291.524 179.379 289.124 179.849C284.305 180.808 279.384 181.369 274.451 181.749C269.519 182.129 264.592 182.279 259.696 181.923C257.25 181.75 254.816 181.447 252.402 181.014C249.996 180.579 247.614 179.995 245.232 179.327C244.039 178.995 242.845 178.65 241.623 178.321C240.401 177.993 239.143 177.688 237.823 177.539C236.522 177.404 235.213 177.376 233.908 177.456C232.625 177.521 231.355 177.655 230.1 177.824C227.587 178.166 225.107 178.685 222.681 179.217C221.621 179.468 220.517 179.48 219.451 179.252C218.428 179.014 217.49 178.492 216.844 177.749C216.525 177.396 216.283 176.981 216.132 176.53C215.981 176.079 215.925 175.602 215.968 175.128C216.062 174.195 216.581 173.297 217.349 172.572C218.116 171.848 219.122 171.293 220.194 170.824C221.29 170.363 222.419 169.985 223.572 169.692C228.266 168.512 233.215 168.106 238.138 167.868H238.146C238.381 167.855 238.602 167.751 238.761 167.578C238.921 167.405 239.006 167.177 239 166.942C238.993 166.706 238.895 166.483 238.726 166.319C238.557 166.156 238.331 166.064 238.095 166.065C235.586 166.077 233.073 166.173 230.561 166.411C228.049 166.649 225.535 166.999 223.045 167.63C221.782 167.94 220.544 168.345 219.342 168.84C218.724 169.101 218.124 169.403 217.547 169.745C217.294 169.893 217.053 170.051 216.815 170.225C215.751 170.773 214.689 171.332 213.607 171.836C212.504 172.352 211.4 172.856 210.225 172.131C209.616 171.751 209.198 171.143 208.84 170.52C208.728 170.156 208.688 169.774 208.721 169.395C208.819 168.112 209.68 166.835 210.816 165.855C211.369 165.376 211.966 164.951 212.601 164.588C212.753 164.545 212.893 164.469 213.012 164.365C213.599 164.059 214.23 163.789 214.861 163.529C217.893 162.325 221.133 161.528 224.396 160.934C227.679 160.36 230.992 159.974 234.318 159.776C234.551 159.755 234.766 159.645 234.919 159.468C235.072 159.292 235.15 159.063 235.138 158.83C235.126 158.597 235.024 158.377 234.854 158.218C234.683 158.058 234.458 157.971 234.224 157.974C230.817 158.103 227.42 158.441 224.054 158.987C221.964 159.334 219.892 159.786 217.848 160.342C217.812 160.342 217.772 160.35 217.732 160.356C216.356 160.663 211.788 162.18 211.538 159.87C211.538 159.809 211.531 159.743 211.538 159.686C211.544 159.546 211.557 159.407 211.578 159.268C211.611 159.131 211.638 158.991 211.668 158.85L211.822 158.442C211.877 158.304 211.942 158.17 212.017 158.042C212.319 157.497 212.714 157.009 213.185 156.601C214.13 155.703 215.362 155.183 216.732 154.621C218.079 154.094 219.458 153.615 220.856 153.203C223.664 152.383 226.533 151.79 229.436 151.43C229.897 151.369 230.356 151.322 230.817 151.278C231.033 151.326 231.258 151.305 231.462 151.22C232.241 151.162 233.016 151.119 233.791 151.101C235.223 151.053 236.656 151.132 238.074 151.339H238.081C238.313 151.372 238.548 151.313 238.737 151.176C238.927 151.039 239.055 150.833 239.095 150.603C239.136 150.372 239.085 150.135 238.953 149.942C238.822 149.748 238.621 149.613 238.392 149.566C237.818 149.458 237.245 149.39 236.675 149.335C236.552 149.261 236.412 149.217 236.268 149.208C234.799 149.119 233.381 148.635 232.165 147.806C231.181 147.15 229.829 146.22 229.616 144.965C229.539 144.325 229.607 143.676 229.815 143.065C230.203 142.027 230.968 141.172 231.957 140.671C232.458 140.4 233 140.213 233.562 140.116C234.123 140.012 234.698 140 235.263 140.083C235.851 140.159 236.427 140.312 236.976 140.538C237.546 140.77 238.093 141.056 238.608 141.393C239.669 142.067 240.659 142.936 241.622 143.852C243.551 145.697 245.363 147.778 247.448 149.688C248.495 150.665 249.621 151.553 250.815 152.342C252.045 153.155 253.381 153.794 254.785 154.242C255.138 154.336 255.509 154.451 255.852 154.523L256.886 154.746C257.232 154.822 257.582 154.873 257.929 154.938C258.276 155.002 258.62 155.064 258.971 155.107C260.365 155.324 261.758 155.439 263.16 155.521C268.759 155.814 274.344 155.182 279.743 153.914C279.97 153.857 280.165 153.715 280.289 153.518C280.413 153.32 280.456 153.082 280.408 152.854C280.361 152.626 280.227 152.425 280.034 152.293C279.842 152.161 279.606 152.109 279.376 152.147H279.368C279.339 152.147 279.31 152.155 279.279 152.161C277.927 152.056 276.665 151.706 276.142 150.322C275.865 149.586 275.843 148.793 275.919 148.008C276.309 146.583 276.939 145.234 277.78 144.02C279.633 141.302 282.312 139.124 285.283 137.613C288.253 136.102 291.596 135.259 294.883 135.407C295.504 135.435 296.123 135.502 296.736 135.606C298.415 135.998 300.071 136.543 301.44 137.621C302.522 138.472 303.369 139.658 304.133 140.902C305.489 143.67 306.646 146.531 307.594 149.464C308.343 151.786 308.933 154.156 309.361 156.558C309.765 158.959 309.995 161.373 309.815 163.724V163.726Z" fill="#131344"/>
<path d="M287.607 105.744C291.222 103.508 294.841 101.287 298.5 99.1395L301.255 97.5334L304.022 95.964L306.808 94.4376L309.613 92.943C313.362 90.9707 317.171 89.1214 321.048 87.4443C324.925 85.7673 328.887 84.3119 332.937 83.2314H332.952C333.175 83.1653 333.364 83.0156 333.479 82.8137C333.594 82.6117 333.627 82.373 333.571 82.1474C333.514 81.9218 333.373 81.7268 333.176 81.6031C332.979 81.4794 332.742 81.4365 332.514 81.4834C328.292 82.4651 324.205 83.8736 320.234 85.5152C316.263 87.1568 312.392 89.015 308.588 90.9872C304.784 92.9594 301.066 95.0874 297.406 97.2965C293.745 99.5056 290.148 101.821 286.621 104.233C286.43 104.367 286.298 104.57 286.253 104.8C286.209 105.029 286.255 105.267 286.383 105.463C286.51 105.659 286.709 105.798 286.937 105.851C287.165 105.903 287.404 105.865 287.604 105.744H287.607Z" fill="#131344"/>
<path d="M323.742 187.792C315.449 196.061 307.089 204.259 298.38 212.093C289.67 219.928 280.735 227.499 271.561 234.767C266.965 238.392 262.329 241.968 257.602 245.416C252.893 248.89 248.104 252.25 243.235 255.496C238.385 258.766 233.423 261.859 228.404 264.85C223.386 267.841 218.28 270.677 213.077 273.315C212.87 273.423 212.712 273.607 212.637 273.829C212.563 274.051 212.578 274.294 212.679 274.505C212.78 274.716 212.959 274.88 213.179 274.961C213.398 275.043 213.641 275.036 213.855 274.942C219.232 272.504 224.432 269.708 229.519 266.74C234.606 263.772 239.593 260.632 244.482 257.358C249.371 254.083 254.205 250.727 258.943 247.241C263.701 243.782 268.364 240.196 272.986 236.56C282.19 229.242 291.151 221.631 299.867 213.727C308.558 205.812 317.085 197.695 325.048 189.038C325.203 188.863 325.285 188.636 325.276 188.402C325.266 188.169 325.167 187.949 324.999 187.787C324.83 187.626 324.606 187.536 324.373 187.536C324.139 187.537 323.915 187.628 323.747 187.79L323.742 187.792Z" fill="#131344"/>
<path d="M342.061 167.361L342.038 167.384C341.315 168.112 340.621 168.863 339.933 169.619C339.245 170.376 338.57 171.139 337.898 171.913C337.227 172.687 336.57 173.466 335.926 174.261L334.964 175.455C334.653 175.863 334.33 176.262 334.03 176.676L334.011 176.701C333.878 176.885 333.819 177.111 333.845 177.336C333.872 177.561 333.982 177.768 334.153 177.916C334.325 178.063 334.546 178.141 334.772 178.134C334.998 178.126 335.214 178.034 335.375 177.876C335.741 177.515 336.091 177.137 336.449 176.767L337.494 175.627C338.189 174.867 338.865 174.095 339.536 173.316C340.208 172.537 340.87 171.751 341.516 170.951C342.162 170.15 342.809 169.352 343.424 168.528C343.564 168.345 343.629 168.115 343.605 167.886C343.581 167.657 343.471 167.446 343.297 167.296C343.122 167.146 342.897 167.068 342.667 167.078C342.437 167.089 342.22 167.187 342.059 167.352L342.061 167.361Z" fill="#131344"/>
<path d="M322.525 218.638C319.947 220.957 317.378 223.284 314.786 225.586C312.193 227.887 309.601 230.186 306.991 232.465C301.766 237.019 296.458 241.475 291.067 245.832C285.685 250.196 280.225 254.467 274.659 258.592C269.106 262.737 263.453 266.741 257.75 270.676C257.562 270.813 257.434 271.018 257.393 271.247C257.352 271.476 257.401 271.712 257.53 271.906C257.659 272.099 257.858 272.236 258.086 272.286C258.313 272.336 258.551 272.297 258.75 272.176C261.682 270.298 264.582 268.372 267.45 266.397C270.308 264.409 273.15 262.402 275.953 260.335C281.567 256.219 287.074 251.956 292.502 247.6C297.931 243.244 303.229 238.727 308.462 234.143C313.696 229.559 318.822 224.845 323.764 219.944C323.928 219.778 324.022 219.554 324.025 219.32C324.028 219.085 323.939 218.859 323.778 218.689C323.617 218.519 323.397 218.418 323.163 218.408C322.929 218.398 322.7 218.479 322.525 218.634V218.638Z" fill="#131344"/>
<path d="M204.035 100.32C203.839 99.8692 203.554 99.4625 203.197 99.1243C203.096 99.0307 202.983 98.9491 202.863 98.8811C202.666 98.7709 202.45 98.7005 202.225 98.674C202.001 98.6475 201.774 98.6654 201.557 98.7267C201.34 98.788 201.137 98.8914 200.96 99.0312C200.783 99.1709 200.635 99.3442 200.525 99.5411C200.288 99.9716 200.141 100.446 200.092 100.934C200.042 101.374 200.054 101.819 200.127 102.256C200.199 102.692 200.326 103.118 200.507 103.522C200.704 103.97 200.984 104.377 201.333 104.72C201.445 104.827 201.571 104.919 201.707 104.993C201.903 105.098 202.118 105.164 202.339 105.187C202.561 105.21 202.785 105.188 202.998 105.124C203.212 105.06 203.41 104.955 203.583 104.814C203.755 104.673 203.899 104.5 204.004 104.304C204.232 103.87 204.375 103.397 204.426 102.91C204.475 102.47 204.467 102.026 204.402 101.588C204.339 101.15 204.216 100.724 204.035 100.32Z" fill="#131344"/>
<path d="M214.748 98.0491C214.552 97.5982 214.268 97.1914 213.911 96.8533C213.809 96.7597 213.697 96.6781 213.576 96.6102C213.38 96.4999 213.163 96.4295 212.939 96.403C212.715 96.3765 212.488 96.3944 212.271 96.4557C212.053 96.517 211.851 96.6204 211.673 96.7602C211.496 96.8999 211.348 97.0732 211.238 97.2701C211.001 97.7006 210.854 98.1745 210.805 98.6634C210.755 99.1033 210.767 99.548 210.84 99.9845C210.912 100.421 211.04 100.847 211.22 101.251C211.417 101.699 211.698 102.106 212.046 102.449C212.158 102.558 212.284 102.651 212.42 102.727C212.616 102.833 212.831 102.898 213.053 102.921C213.274 102.944 213.498 102.922 213.712 102.858C213.925 102.794 214.124 102.689 214.296 102.548C214.469 102.407 214.612 102.234 214.718 102.038C214.945 101.604 215.089 101.131 215.14 100.644C215.188 100.204 215.18 99.76 215.115 99.3221C215.053 98.8826 214.93 98.4541 214.748 98.0491Z" fill="#131344"/>
<path d="M220.762 111.042C220.728 110.861 220.636 110.696 220.501 110.572C220.365 110.447 220.193 110.369 220.01 110.35C219.827 110.331 219.642 110.371 219.484 110.464C219.325 110.558 219.201 110.7 219.13 110.87L218.971 111.25C218.951 111.333 218.936 111.418 218.926 111.503C218.91 111.601 218.888 111.7 218.865 111.798C218.824 111.995 218.769 112.187 218.71 112.375C218.595 112.738 218.429 113.083 218.219 113.401C218.012 113.717 217.759 114 217.466 114.239C217.315 114.368 217.156 114.488 216.99 114.599C216.823 114.719 216.629 114.806 216.452 114.93L216.304 115.034C216.132 115.156 216.009 115.334 215.956 115.538C215.904 115.742 215.924 115.958 216.015 116.148C216.106 116.338 216.261 116.49 216.453 116.577C216.645 116.664 216.861 116.68 217.064 116.623C217.346 116.546 217.624 116.453 217.896 116.345C218.174 116.225 218.44 116.079 218.69 115.909C219.217 115.566 219.67 115.12 220.02 114.598C220.371 114.083 220.617 113.504 220.745 112.894L220.819 112.444C220.831 112.292 220.847 112.143 220.848 111.992C220.85 111.842 220.848 111.69 220.833 111.538C220.821 111.371 220.797 111.206 220.762 111.042Z" fill="#131344"/>
<path d="M215.494 92.5742C214.986 92.1691 214.387 91.8947 213.749 91.7749C213.139 91.6586 212.514 91.6522 211.902 91.7559C211.338 91.8469 210.787 92.0095 210.264 92.2398C209.77 92.4521 209.302 92.7216 208.871 93.0428C208.641 93.2128 208.477 93.4583 208.41 93.7364C208.342 94.0145 208.375 94.3074 208.501 94.5641C208.628 94.8207 208.841 95.0246 209.103 95.1401C209.364 95.2557 209.659 95.2755 209.934 95.1962L209.964 95.1873L211.198 94.8415C211.573 94.7408 211.954 94.6613 212.338 94.6034C212.673 94.556 213.012 94.5374 213.351 94.5476C213.673 94.56 213.993 94.5994 214.309 94.6654L214.494 94.7022C214.758 94.7542 215.033 94.7165 215.274 94.5951C215.514 94.4736 215.708 94.2753 215.823 94.0315C215.939 93.7877 215.969 93.5124 215.911 93.2491C215.852 92.9859 215.707 92.7497 215.499 92.578L215.494 92.5742Z" fill="#131344"/>
<path d="M178.444 138.944C176.632 139.163 174.973 140.065 173.803 141.466C172.633 142.866 172.042 144.661 172.15 146.482C172.257 148.304 173.056 150.016 174.382 151.27C175.708 152.523 177.463 153.223 179.288 153.228C179.582 153.228 179.875 153.209 180.167 153.173C181.101 153.06 182.004 152.764 182.824 152.302C183.644 151.84 184.365 151.221 184.945 150.48C185.526 149.74 185.955 148.892 186.208 147.985C186.461 147.079 186.533 146.131 186.42 145.197C186.307 144.263 186.011 143.36 185.549 142.54C185.087 141.72 184.468 140.999 183.727 140.418C182.987 139.838 182.139 139.409 181.232 139.156C180.326 138.902 179.378 138.83 178.444 138.944ZM184.271 145.458C184.351 146.11 184.302 146.772 184.125 147.405C183.949 148.038 183.649 148.63 183.244 149.147C182.423 150.189 181.224 150.864 179.907 151.025C178.59 151.185 177.264 150.817 176.217 150.002C175.402 149.356 174.808 148.472 174.516 147.473C174.225 146.475 174.252 145.41 174.593 144.427C174.933 143.444 175.571 142.592 176.418 141.987C177.264 141.383 178.278 141.057 179.318 141.054C180.539 141.058 181.716 141.508 182.628 142.32C183.541 143.131 184.125 144.247 184.272 145.459L184.271 145.458Z" fill="#131344"/>
<path d="M88.92 112.987L103.655 124.526C104.787 125.405 106.219 125.804 107.643 125.637C108.348 125.554 109.029 125.333 109.648 124.985C110.267 124.637 110.811 124.17 111.247 123.61L122.888 108.754C122.953 108.808 123.015 108.861 123.083 108.912C123.616 109.348 124.147 109.785 124.684 110.217C125.34 110.744 125.993 111.273 126.645 111.799C128.292 113.129 129.994 114.506 131.681 115.841C134.522 118.104 136.692 119.824 138.725 121.414C141.375 123.49 143.792 125.368 146.087 127.128C143.408 128.422 141.062 130.312 139.227 132.654C132.579 141.141 134.075 153.449 142.558 160.097C146.417 163.116 151.27 164.577 156.154 164.189C161.039 163.801 165.6 161.593 168.934 158.002C169.135 158.181 169.342 158.351 169.547 158.508C172.317 160.698 175.747 161.886 179.278 161.879C182.572 161.884 185.785 160.861 188.47 158.952C191.154 157.043 193.176 154.344 194.254 151.232C195.331 148.119 195.41 144.748 194.48 141.588C193.55 138.428 191.657 135.637 189.065 133.604C188.86 133.442 188.643 133.284 188.423 133.128C191.106 129.033 192.154 124.079 191.359 119.248C190.564 114.417 187.984 110.06 184.129 107.041C175.642 100.394 163.334 101.886 156.687 110.369C154.843 112.719 153.566 115.463 152.955 118.387C150.694 116.577 148.282 114.67 145.632 112.597C143.606 110.999 141.414 109.303 138.539 107.088C136.838 105.768 135.096 104.446 133.409 103.161C132.742 102.655 132.073 102.145 131.401 101.632C126.783 98.1212 121.934 94.5049 116.992 90.8885C113.022 87.9942 107.767 84.1942 102.298 80.4842C101.428 79.8941 100.366 79.6564 99.3265 79.819C98.2873 79.9816 97.3485 80.5324 96.6997 81.3602C96.0508 82.188 95.7402 83.2312 95.8305 84.2791C95.9208 85.327 96.4053 86.3016 97.1862 87.0062C98.135 87.8574 99.1255 88.7403 100.265 89.7422L88.0054 105.387C87.1195 106.516 86.7181 107.951 86.8896 109.376C87.0611 110.801 87.7914 112.1 88.92 112.987ZM89.7028 106.728L102.6 90.278C102.77 90.0599 102.85 89.7853 102.825 89.5099C102.8 89.2346 102.67 88.9793 102.463 88.796C100.999 87.5129 99.7842 86.4387 98.6378 85.4039C98.2698 85.0653 98.0428 84.6006 98.0019 84.1023C97.9609 83.6039 98.1091 83.1084 98.417 82.7144C98.7248 82.3203 99.1697 82.0566 99.6631 81.9757C100.157 81.8948 100.662 82.0026 101.08 82.2777C106.516 85.9688 111.754 89.7587 115.714 92.6429C120.646 96.2478 125.481 99.8527 130.087 103.36C130.754 103.867 131.424 104.38 132.094 104.889C133.778 106.166 135.514 107.488 137.214 108.804C140.087 111.015 142.268 112.708 144.295 114.302C147.515 116.821 150.375 119.093 153.045 121.242C153.197 121.363 153.378 121.442 153.57 121.469C153.763 121.496 153.959 121.471 154.138 121.397C154.318 121.322 154.474 121.201 154.59 121.046C154.707 120.89 154.779 120.706 154.801 120.513C155.15 117.301 156.391 114.25 158.384 111.706C164.297 104.164 175.245 102.84 182.788 108.746C186.355 111.539 188.69 115.615 189.294 120.106C189.898 124.596 188.724 129.144 186.021 132.781C185.932 132.902 185.869 133.041 185.836 133.188C185.803 133.335 185.801 133.487 185.83 133.635C185.859 133.783 185.919 133.923 186.005 134.047C186.092 134.17 186.203 134.275 186.332 134.353C187.99 135.35 189.418 136.688 190.52 138.279C191.623 139.869 192.375 141.676 192.726 143.578C193.078 145.481 193.021 147.437 192.56 149.317C192.099 151.196 191.244 152.956 190.052 154.48C188.949 155.896 187.577 157.08 186.014 157.962C184.451 158.844 182.728 159.407 180.946 159.618C180.39 159.684 179.832 159.718 179.273 159.719C177.476 159.719 175.698 159.362 174.04 158.669C172.383 157.975 170.88 156.96 169.618 155.681C169.512 155.574 169.384 155.49 169.243 155.436C169.102 155.381 168.951 155.356 168.801 155.364C168.65 155.371 168.502 155.41 168.367 155.477C168.232 155.545 168.113 155.64 168.017 155.757C165.133 159.255 160.997 161.488 156.49 161.979C151.984 162.471 147.464 161.183 143.893 158.389C136.348 152.476 135.027 141.531 140.933 133.986C142.918 131.451 145.571 129.52 148.594 128.412C148.776 128.346 148.938 128.232 149.06 128.081C149.183 127.931 149.262 127.749 149.289 127.557C149.317 127.366 149.294 127.17 149.221 126.991C149.148 126.812 149.029 126.655 148.875 126.538C146.161 124.464 143.276 122.231 140.06 119.709C138.034 118.127 135.864 116.416 133.03 114.146C131.347 112.816 129.648 111.441 128.004 110.115C127.352 109.588 126.696 109.059 126.04 108.533C125.51 108.104 124.983 107.672 124.454 107.239C124.104 106.95 123.755 106.665 123.401 106.381C123.209 106.223 122.968 106.137 122.72 106.135C122.68 106.135 122.637 106.135 122.593 106.143C122.451 106.159 122.313 106.203 122.188 106.273C122.063 106.344 121.953 106.438 121.865 106.551L109.546 122.269C109.285 122.606 108.959 122.888 108.588 123.098C108.216 123.308 107.807 123.441 107.383 123.491C106.528 123.59 105.669 123.35 104.989 122.824L90.2626 111.281C89.5855 110.75 89.1466 109.972 89.0424 109.118C88.9381 108.263 89.177 107.403 89.7066 106.724L89.7028 106.728Z" fill="#131344"/>
<path d="M146.038 137.991C144.515 139.93 143.696 142.329 143.712 144.794C143.728 147.26 144.58 149.647 146.128 151.566C147.676 153.485 149.829 154.823 152.235 155.361C154.642 155.899 157.159 155.606 159.377 154.528C161.595 153.451 163.382 151.654 164.447 149.43C165.512 147.206 165.792 144.687 165.24 142.284C164.689 139.88 163.339 137.735 161.411 136.198C159.483 134.661 157.091 133.822 154.626 133.819C152.971 133.812 151.336 134.184 149.847 134.907C148.358 135.63 147.055 136.685 146.038 137.991ZM154.626 135.983C156.574 135.977 158.467 136.63 159.998 137.836C161.628 139.11 162.753 140.92 163.174 142.945C163.594 144.97 163.283 147.078 162.296 148.896C161.308 150.713 159.709 152.121 157.781 152.87C155.853 153.619 153.721 153.66 151.766 152.985C149.811 152.311 148.158 150.965 147.102 149.186C146.046 147.408 145.654 145.313 145.997 143.273C146.34 141.234 147.396 139.382 148.976 138.047C150.555 136.712 152.558 135.981 154.626 135.983Z" fill="#131344"/>
<path d="M165.353 131.005C167.263 132.507 169.622 133.323 172.051 133.323C172.496 133.323 172.94 133.297 173.381 133.243C175.883 132.94 178.203 131.778 179.944 129.956C181.686 128.134 182.742 125.765 182.932 123.252C183.123 120.739 182.436 118.237 180.989 116.174C179.541 114.11 177.423 112.613 174.996 111.936C172.568 111.259 169.98 111.445 167.674 112.462C165.368 113.479 163.486 115.264 162.349 117.513C161.212 119.763 160.889 122.337 161.437 124.797C161.985 127.257 163.369 129.451 165.353 131.005ZM165.201 117.046C165.906 116.141 166.783 115.385 167.782 114.821C168.781 114.258 169.881 113.897 171.02 113.762C171.375 113.719 171.733 113.697 172.091 113.697C173.482 113.699 174.852 114.032 176.088 114.671C177.324 115.309 178.389 116.234 179.196 117.367C180.002 118.501 180.526 119.81 180.724 121.187C180.922 122.564 180.787 123.968 180.333 125.283C179.878 126.597 179.116 127.784 178.109 128.745C177.103 129.705 175.882 130.411 174.547 130.804C173.213 131.197 171.804 131.265 170.438 131.003C169.072 130.742 167.788 130.157 166.693 129.299C164.872 127.87 163.692 125.776 163.412 123.478C163.133 121.179 163.777 118.864 165.202 117.04L165.201 117.046Z" fill="#131344"/>
<path d="M108.988 97.2877L110.175 98.301C110.971 98.9724 111.777 99.631 112.594 100.277C113.41 100.923 114.227 101.568 115.063 102.191C115.899 102.814 116.728 103.441 117.585 104.038C117.773 104.171 118.005 104.228 118.233 104.196C118.461 104.164 118.669 104.045 118.813 103.865C118.957 103.685 119.027 103.457 119.008 103.227C118.989 102.997 118.882 102.783 118.711 102.629C117.941 101.925 117.15 101.247 116.353 100.576C115.557 99.9046 114.752 99.2434 113.947 98.5898C113.141 97.9362 112.317 97.294 111.487 96.6658L110.234 95.7322C109.81 95.4295 109.389 95.1217 108.956 94.8291C108.768 94.7012 108.538 94.649 108.313 94.683C108.088 94.717 107.884 94.8347 107.742 95.0125C107.599 95.1904 107.53 95.4153 107.546 95.6424C107.562 95.8695 107.664 96.0821 107.83 96.2376C108.205 96.5986 108.599 96.9394 108.988 97.2877Z" fill="#131344"/>
<path d="M206.112 305.13C205.385 305.064 204.658 305.02 203.932 304.99C203.384 304.965 202.866 304.733 202.484 304.34C202.102 303.946 201.884 303.422 201.875 302.874C201.87 302.6 201.863 302.325 201.855 302.051C201.822 300.723 201.781 299.391 201.698 298.067C201.69 297.947 201.659 297.829 201.605 297.722C201.552 297.614 201.477 297.518 201.386 297.439C201.294 297.361 201.188 297.301 201.074 297.264C200.959 297.227 200.838 297.213 200.718 297.224C200.498 297.249 200.293 297.352 200.142 297.514C199.99 297.677 199.902 297.888 199.893 298.11C199.81 299.424 199.766 300.739 199.738 302.052C199.73 302.327 199.724 302.601 199.718 302.875C199.709 303.425 199.489 303.95 199.105 304.344C198.721 304.737 198.201 304.969 197.652 304.991C196.916 305.021 196.18 305.068 195.444 305.135C195.207 305.157 194.989 305.271 194.835 305.453C194.682 305.635 194.606 305.87 194.625 306.107C194.647 306.324 194.744 306.527 194.901 306.68C195.058 306.832 195.263 306.925 195.481 306.941C196.207 307.007 196.932 307.053 197.658 307.083C198.205 307.108 198.722 307.339 199.104 307.731C199.486 308.123 199.705 308.646 199.715 309.194C199.72 309.467 199.727 309.74 199.734 310.013L199.793 312.006C199.828 312.669 199.848 313.333 199.896 313.998C199.905 314.117 199.937 314.233 199.991 314.34C200.045 314.446 200.119 314.541 200.209 314.619C200.3 314.697 200.405 314.756 200.518 314.792C200.632 314.829 200.752 314.844 200.87 314.834C201.09 314.811 201.294 314.711 201.446 314.552C201.598 314.392 201.689 314.184 201.701 313.964C201.748 313.311 201.767 312.659 201.803 312.007L201.861 310.014C201.869 309.741 201.875 309.467 201.88 309.192C201.889 308.642 202.107 308.116 202.492 307.722C202.876 307.329 203.396 307.097 203.946 307.074C204.681 307.044 205.415 306.998 206.15 306.931C206.387 306.91 206.606 306.796 206.76 306.614C206.913 306.432 206.989 306.197 206.971 305.96C206.948 305.743 206.849 305.541 206.692 305.389C206.535 305.237 206.33 305.146 206.112 305.13Z" fill="#131344"/>
<path d="M323.104 273.228C322.281 273.182 321.457 273.163 320.634 273.129L318.123 273.07C317.532 273.058 316.937 273.049 316.339 273.045C315.77 273.04 315.226 272.811 314.825 272.408C314.424 272.005 314.198 271.46 314.195 270.892C314.195 269.478 314.181 268.065 314.16 266.651C314.127 264.158 314.086 261.667 314.003 259.178C313.998 259.055 313.969 258.934 313.916 258.823C313.863 258.712 313.789 258.613 313.696 258.531C313.604 258.45 313.496 258.389 313.379 258.351C313.262 258.312 313.139 258.299 313.016 258.31C312.792 258.339 312.586 258.447 312.435 258.616C312.285 258.785 312.201 259.002 312.198 259.228C312.115 261.703 312.071 264.18 312.043 266.655C312.022 268.068 312.014 269.482 312.008 270.896C312.006 271.464 311.779 272.009 311.378 272.413C310.976 272.816 310.432 273.044 309.863 273.049C309.272 273.055 308.677 273.063 308.079 273.073L305.568 273.131C304.731 273.165 303.895 273.186 303.058 273.234C302.937 273.241 302.819 273.272 302.71 273.325C302.602 273.378 302.505 273.453 302.426 273.544C302.347 273.635 302.287 273.742 302.25 273.856C302.212 273.971 302.199 274.093 302.209 274.213C302.234 274.434 302.337 274.638 302.499 274.79C302.662 274.941 302.874 275.03 303.096 275.039C303.919 275.084 304.742 275.105 305.566 275.139L308.076 275.197C308.667 275.209 309.262 275.217 309.86 275.221C310.428 275.226 310.972 275.455 311.373 275.858C311.774 276.261 312 276.806 312.003 277.375C312.009 278.787 312.019 280.2 312.034 281.612L312.093 285.35C312.128 286.596 312.148 287.842 312.197 289.088C312.202 289.21 312.231 289.33 312.284 289.44C312.337 289.551 312.412 289.65 312.504 289.73C312.596 289.811 312.703 289.872 312.82 289.91C312.936 289.948 313.059 289.962 313.181 289.951C313.404 289.923 313.61 289.816 313.761 289.648C313.911 289.481 313.996 289.265 314 289.039C314.047 287.809 314.067 286.58 314.102 285.35L314.16 281.612C314.176 280.199 314.186 278.786 314.192 277.373C314.194 276.805 314.42 276.26 314.821 275.857C315.222 275.454 315.766 275.225 316.335 275.22C316.926 275.214 317.52 275.206 318.118 275.195L320.629 275.136C321.466 275.102 322.302 275.082 323.139 275.035C323.26 275.028 323.378 274.998 323.487 274.944C323.595 274.891 323.692 274.817 323.771 274.725C323.851 274.634 323.911 274.528 323.948 274.413C323.986 274.298 324 274.176 323.989 274.056C323.965 273.835 323.862 273.63 323.7 273.478C323.537 273.326 323.326 273.237 323.104 273.228Z" fill="#131344"/>
<path d="M46.3499 114.981C47.1555 115.026 47.9623 115.046 48.7679 115.081L51.2253 115.139C51.7851 115.152 52.3454 115.161 52.9061 115.167C53.4743 115.172 54.0174 115.401 54.418 115.804C54.8186 116.207 55.0445 116.752 55.0468 117.32C55.0527 118.679 55.0628 120.037 55.0772 121.396L55.1355 125.056C55.1709 126.275 55.1912 127.495 55.2393 128.715C55.2445 128.837 55.2744 128.957 55.3273 129.067C55.3801 129.178 55.4548 129.276 55.5468 129.357C55.6388 129.438 55.7462 129.499 55.8625 129.537C55.9789 129.575 56.1017 129.588 56.2235 129.578C56.4472 129.55 56.6534 129.442 56.8042 129.275C56.955 129.107 57.0402 128.891 57.0443 128.666C57.0912 127.462 57.1114 126.259 57.1456 125.056L57.2039 121.396C57.22 120.037 57.2301 118.678 57.2343 117.319C57.2366 116.751 57.4623 116.207 57.8626 115.804C58.263 115.401 58.8058 115.171 59.3737 115.165C59.9336 115.159 60.4939 115.149 61.0546 115.138L63.5119 115.079C64.3314 115.045 65.1497 115.025 65.9692 114.978C66.0899 114.971 66.2079 114.94 66.3163 114.887C66.4248 114.834 66.5214 114.759 66.6006 114.668C66.6797 114.577 66.7397 114.47 66.777 114.355C66.8144 114.24 66.8283 114.119 66.8179 113.999C66.793 113.778 66.6899 113.573 66.5273 113.422C66.3647 113.27 66.1533 113.182 65.9312 113.173C65.1256 113.129 64.32 113.108 63.5132 113.074L61.0558 113.016C60.4951 113.003 59.9344 112.994 59.3737 112.988C58.8055 112.982 58.2624 112.753 57.8618 112.35C57.4612 111.947 57.2354 111.403 57.233 110.835C57.233 109.474 57.2191 108.115 57.1989 106.755C57.1659 104.315 57.1254 101.876 57.0418 99.4373C57.0373 99.3145 57.0078 99.1939 56.9552 99.0829C56.9026 98.9719 56.8279 98.8727 56.7356 98.7915C56.6434 98.7103 56.5356 98.6488 56.4188 98.6106C56.302 98.5725 56.1787 98.5585 56.0563 98.5696C55.8323 98.5983 55.6262 98.7068 55.4759 98.8753C55.3256 99.0438 55.2411 99.2609 55.2381 99.4867C55.1557 101.91 55.1114 104.332 55.0835 106.755C55.0633 108.114 55.0544 109.474 55.0493 110.833C55.047 111.402 54.8211 111.946 54.4206 112.349C54.02 112.752 53.4768 112.981 52.9087 112.987C52.3479 112.993 51.7877 113.002 51.2278 113.015L48.7705 113.073C47.9509 113.107 47.1327 113.127 46.3131 113.176C46.1926 113.183 46.0747 113.214 45.9664 113.267C45.8581 113.32 45.7616 113.395 45.6826 113.486C45.6036 113.577 45.5437 113.684 45.5065 113.798C45.4692 113.913 45.4554 114.034 45.4657 114.155C45.4906 114.375 45.5933 114.579 45.7554 114.731C45.9175 114.882 46.1283 114.971 46.3499 114.981Z" fill="#131344"/>
<path d="M263.563 80.5017C264.187 80.5473 264.812 80.5675 265.436 80.6017L267.343 80.66L267.949 80.6752C268.514 80.6868 269.051 80.9184 269.447 81.3208C269.842 81.7231 270.065 82.2642 270.067 82.8285C270.073 83.6468 270.082 84.4646 270.094 85.2821L270.152 88.1207C270.188 89.0669 270.208 90.0131 270.256 90.9593C270.263 91.0804 270.293 91.1991 270.347 91.3081C270.4 91.4172 270.474 91.5144 270.566 91.594C270.658 91.6736 270.764 91.7341 270.88 91.7717C270.995 91.8093 271.117 91.8234 271.238 91.813C271.46 91.7862 271.665 91.6807 271.816 91.5158C271.967 91.3508 272.054 91.1372 272.061 90.9137C272.108 89.9827 272.128 89.0517 272.162 88.127L272.221 85.2884C272.233 84.4701 272.242 83.6519 272.247 82.8336C272.249 82.2695 272.472 81.7286 272.867 81.3263C273.263 80.924 273.8 80.6922 274.364 80.6803L274.971 80.6651L276.877 80.6068C277.51 80.5726 278.144 80.5523 278.783 80.5055C278.902 80.4967 279.018 80.4644 279.125 80.4106C279.231 80.3568 279.326 80.2826 279.403 80.192C279.481 80.1015 279.54 79.9965 279.577 79.8832C279.613 79.7698 279.628 79.6502 279.618 79.5314C279.595 79.3123 279.495 79.1085 279.336 78.9563C279.177 78.8041 278.969 78.7134 278.749 78.7005C278.125 78.6561 277.5 78.6359 276.876 78.6017L274.969 78.5434L274.36 78.5282C273.797 78.5166 273.261 78.2856 272.865 77.8843C272.47 77.4829 272.248 76.9431 272.245 76.3799C272.245 75.5604 272.231 74.7409 272.214 73.9201C272.181 72.0277 272.141 70.1353 272.057 68.2416C272.051 68.1199 272.021 68.0006 271.968 67.8908C271.915 67.7811 271.84 67.6832 271.748 67.603C271.657 67.5229 271.55 67.462 271.434 67.4242C271.318 67.3863 271.196 67.3722 271.074 67.3828C270.851 67.4107 270.646 67.5177 270.495 67.6844C270.344 67.8511 270.259 68.0664 270.253 68.291C270.171 70.1669 270.127 72.0441 270.099 73.9201C270.082 74.7396 270.075 75.5591 270.069 76.3787C270.064 76.9412 269.841 77.4799 269.446 77.8802C269.05 78.2804 268.514 78.5107 267.952 78.5219L267.344 78.5371L265.438 78.5953C264.804 78.6295 264.171 78.6498 263.531 78.6979C263.412 78.7067 263.296 78.739 263.19 78.7927C263.084 78.8465 262.989 78.9208 262.911 79.0113C262.834 79.1019 262.775 79.2068 262.738 79.3202C262.701 79.4336 262.687 79.5531 262.696 79.672C262.719 79.8904 262.819 80.0936 262.978 80.2455C263.136 80.3974 263.344 80.4882 263.563 80.5017Z" fill="#131344"/>
<path d="M147.187 73.0706C148.045 73.1428 148.906 73.1909 149.764 73.2213C150.315 73.2433 150.837 73.4757 151.221 73.8707C151.606 74.2656 151.824 74.793 151.832 75.3442C151.837 75.7166 151.845 76.089 151.853 76.4614L151.911 78.6147C151.947 79.3304 151.967 80.0461 152.015 80.7681C152.023 80.8876 152.055 81.0044 152.109 81.1115C152.163 81.2187 152.237 81.3141 152.328 81.3923C152.419 81.4704 152.524 81.5297 152.638 81.5667C152.752 81.6037 152.872 81.6177 152.992 81.6079C153.212 81.5841 153.416 81.4828 153.567 81.3221C153.719 81.1615 153.809 80.9521 153.82 80.7313C153.867 80.0283 153.886 79.3241 153.922 78.6211L153.98 76.4677C153.989 76.0945 153.996 75.7213 154.001 75.348C154.006 74.7942 154.224 74.2634 154.609 73.8659C154.995 73.4684 155.519 73.2348 156.072 73.2137C156.941 73.1833 157.811 73.1352 158.68 73.0617C158.919 73.0414 159.139 72.9275 159.294 72.745C159.449 72.5625 159.525 72.3261 159.506 72.0876C159.483 71.8693 159.384 71.6661 159.226 71.5139C159.068 71.3616 158.861 71.2701 158.642 71.2554C157.782 71.1832 156.922 71.1364 156.063 71.106C155.51 71.0845 154.987 70.8508 154.601 70.4533C154.216 70.0559 153.998 69.5252 153.994 68.9716C153.988 68.6026 153.98 68.2336 153.97 67.8646C153.937 66.4332 153.896 65.0019 153.813 63.5706C153.806 63.4499 153.774 63.3319 153.721 63.2235C153.668 63.1152 153.593 63.0186 153.502 62.9396C153.41 62.8606 153.304 62.8007 153.189 62.7635C153.074 62.7264 152.953 62.7126 152.832 62.7232C152.612 62.7486 152.408 62.8519 152.256 63.0144C152.105 63.1769 152.017 63.3881 152.008 63.6098C151.925 65.0272 151.881 66.4446 151.853 67.8608C151.843 68.2298 151.835 68.5984 151.829 68.9666C151.822 69.5206 151.603 70.051 151.216 70.448C150.83 70.8449 150.305 71.0782 149.752 71.0996C148.881 71.13 148.011 71.1782 147.141 71.2529C146.903 71.2735 146.683 71.3874 146.529 71.5696C146.374 71.7517 146.298 71.9876 146.316 72.2257C146.337 72.4473 146.435 72.6543 146.595 72.8093C146.755 72.9642 146.965 73.0569 147.187 73.0706Z" fill="#131344"/>
<path d="M139.018 247.239C138.393 247.195 137.769 247.175 137.145 247.141L135.238 247.082L134.629 247.067C134.066 247.056 133.531 246.826 133.135 246.425C132.74 246.025 132.516 245.486 132.512 244.924C132.512 244.104 132.498 243.285 132.482 242.464C132.449 240.572 132.408 238.679 132.325 236.786C132.319 236.664 132.289 236.545 132.236 236.435C132.183 236.325 132.108 236.227 132.016 236.147C131.924 236.067 131.817 236.006 131.701 235.968C131.586 235.93 131.463 235.916 131.342 235.927C131.119 235.955 130.913 236.062 130.763 236.228C130.612 236.395 130.526 236.61 130.521 236.835C130.439 238.711 130.394 240.588 130.367 242.464C130.35 243.284 130.343 244.103 130.336 244.923C130.332 245.485 130.108 246.024 129.713 246.424C129.318 246.824 128.782 247.055 128.22 247.066L127.612 247.081L125.705 247.139C125.072 247.173 124.439 247.194 123.799 247.242C123.68 247.251 123.564 247.283 123.458 247.337C123.351 247.391 123.257 247.465 123.179 247.555C123.101 247.646 123.042 247.751 123.006 247.864C122.969 247.978 122.955 248.097 122.964 248.216C122.987 248.435 123.087 248.638 123.246 248.791C123.404 248.943 123.612 249.034 123.832 249.047C124.456 249.093 125.081 249.113 125.705 249.147L127.612 249.205L128.218 249.22C128.783 249.232 129.32 249.464 129.716 249.866C130.111 250.268 130.334 250.809 130.336 251.374C130.342 252.192 130.351 253.01 130.363 253.827L130.421 256.666C130.457 257.612 130.477 258.558 130.525 259.505C130.531 259.626 130.562 259.744 130.615 259.853C130.669 259.962 130.743 260.06 130.835 260.139C130.927 260.219 131.033 260.279 131.149 260.317C131.264 260.355 131.386 260.369 131.507 260.358C131.729 260.331 131.934 260.226 132.085 260.061C132.236 259.896 132.323 259.682 132.33 259.459C132.377 258.528 132.397 257.597 132.431 256.672L132.49 253.834C132.502 253.015 132.511 252.197 132.516 251.379C132.518 250.815 132.741 250.274 133.136 249.872C133.532 249.469 134.069 249.237 134.633 249.225L135.239 249.21L137.146 249.152C137.779 249.118 138.412 249.098 139.052 249.051C139.171 249.042 139.287 249.01 139.393 248.956C139.5 248.902 139.594 248.828 139.672 248.737C139.75 248.647 139.809 248.542 139.845 248.428C139.882 248.315 139.896 248.195 139.887 248.077C139.866 247.856 139.766 247.651 139.607 247.498C139.448 247.344 139.239 247.253 139.018 247.239Z" fill="#131344"/>
<path d="M347.648 211.313C349.643 211.313 351.261 209.696 351.261 207.7C351.261 205.705 349.643 204.088 347.648 204.088C345.653 204.088 344.036 205.705 344.036 207.7C344.036 209.696 345.653 211.313 347.648 211.313Z" fill="#131344"/>
<path d="M124.455 132.453C126.45 132.453 128.068 130.836 128.068 128.841C128.068 126.845 126.45 125.228 124.455 125.228C122.46 125.228 120.842 126.845 120.842 128.841C120.842 130.836 122.46 132.453 124.455 132.453Z" fill="#131344"/>
<path d="M148.336 228.709C150.331 228.709 151.948 227.092 151.948 225.097C151.948 223.102 150.331 221.484 148.336 221.484C146.34 221.484 144.723 223.102 144.723 225.097C144.723 227.092 146.34 228.709 148.336 228.709Z" fill="#131344"/>
<path d="M306.101 74.3559C308.097 74.3559 309.714 72.7385 309.714 70.7434C309.714 68.7482 308.097 67.1309 306.101 67.1309C304.106 67.1309 302.489 68.7482 302.489 70.7434C302.489 72.7385 304.106 74.3559 306.101 74.3559Z" fill="#131344"/>
<path d="M73.8188 73.0107C75.8139 73.0107 77.4313 71.3933 77.4313 69.3982C77.4313 67.403 75.8139 65.7856 73.8188 65.7856C71.8237 65.7856 70.2063 67.403 70.2063 69.3982C70.2063 71.3933 71.8237 73.0107 73.8188 73.0107Z" fill="#131344"/>
<path d="M31.1384 146.871C33.1336 146.871 34.751 145.254 34.751 143.259C34.751 141.263 33.1336 139.646 31.1384 139.646C29.1433 139.646 27.5259 141.263 27.5259 143.259C27.5259 145.254 29.1433 146.871 31.1384 146.871Z" fill="#131344"/>
</svg>
