<svg width="292" height="143" viewBox="0 0 292 143" fill="none" xmlns="http://www.w3.org/2000/svg">
<g clip-path="url(#clip0_89_409)">
<mask id="mask0_89_409" style="mask-type:luminance" maskUnits="userSpaceOnUse" x="0" y="0" width="292" height="143">
<path d="M292 0H0V143H292V0Z" fill="white"/>
</mask>
<g mask="url(#mask0_89_409)">
<path fill-rule="evenodd" clip-rule="evenodd" d="M73.4069 9.52594H117.597L129.043 9.76432V67.4872H84.7717C84.6668 62.0004 81.9459 47.8767 71.8986 35.2775L72.1855 29.9624V10.7511C72.1855 10.0769 72.735 9.52594 73.4069 9.52594ZM98.1522 31.9344C98.1522 33.4042 96.9647 34.5956 95.4991 34.5956C94.034 34.5956 92.8466 33.4042 92.8466 31.9344C92.8466 30.4647 94.034 29.2732 95.4991 29.2732C96.9647 29.2732 98.1522 30.4647 98.1522 31.9344ZM108.1 47.2364C109.565 47.2364 110.753 46.0449 110.753 44.5752C110.753 43.1054 109.565 41.9139 108.1 41.9139C106.635 41.9139 105.447 43.1054 105.447 44.5752C105.447 46.0449 106.635 47.2364 108.1 47.2364Z" fill="#FFD500"/>
<path fill-rule="evenodd" clip-rule="evenodd" d="M129.359 69.2952L84.7817 69.1572L84.7742 69.2952C84.6693 70.9753 84.0834 74.8388 82.5763 76.8546C81.0692 78.8705 78.4268 80.0819 77.294 80.4353C76.1599 80.4788 74.9963 80.2759 73.9193 79.8557L73.9049 79.8482C73.5438 79.6957 73.1319 79.7323 72.8066 79.9496C72.4813 80.1669 72.286 80.5298 72.286 80.921V125.941C72.286 126.615 72.8355 127.166 73.5074 127.166H129.359V69.2952Z" fill="#FF5975"/>
<path fill-rule="evenodd" clip-rule="evenodd" d="M70.6671 82.6452C70.6671 80.1002 70.0599 77.5558 68.9038 75.2867L68.5352 74.4892C68.4831 74.3569 68.436 74.2195 68.3902 74.0847C68.3782 74.0501 68.3663 74.0161 68.3544 73.982C68.3255 73.8875 68.2897 73.7861 68.2533 73.6916C68.2388 73.6482 68.2244 73.6047 68.2099 73.5543C68.2005 73.5253 68.1898 73.4963 68.1792 73.4674C68.1584 73.4094 68.1377 73.3508 68.1233 73.2929L68.0222 72.8796C68.0115 72.8361 68.0002 72.7946 67.9895 72.753C67.9789 72.7114 67.9682 72.6698 67.9569 72.6264C67.9462 72.5804 67.9349 72.5338 67.923 72.4865C67.8891 72.3467 67.8539 72.2037 67.8269 72.0676L67.7038 71.2417C67.7007 71.2159 67.6969 71.1888 67.6931 71.1617C67.6894 71.1346 67.6862 71.1075 67.6825 71.0817L67.6793 71.0634C67.6661 70.9834 67.6536 70.9091 67.6536 70.8285L67.6247 70.4152C67.5958 69.755 67.0539 69.2404 66.3964 69.2404H14.0542C13.4255 69.2404 12.9124 69.755 12.9124 70.3932V90.228V118.356C12.9179 118.374 12.9235 118.392 12.9293 118.411C13.0823 118.903 13.3276 119.692 13.815 119.692L18.9929 119.847C19.4265 119.847 19.7806 120.202 19.7806 120.637L20.0946 125.991C20.0946 126.629 21.3385 127.099 21.9745 127.099H69.518C70.1541 127.099 70.6671 126.585 70.6671 125.946V82.6452ZM24.4903 93.5485C25.7462 90.5247 32.7584 83.6789 36.1075 80.6344C38.3958 79.7738 52.4098 92.2445 56.7855 96.1382C57.213 96.5187 57.5485 96.8167 57.772 97.0132C59.7815 98.7771 59.4466 100.898 59.028 101.738C56.8301 104.363 51.932 110.305 49.9226 113.077C47.9131 115.849 45.1082 114.652 43.957 113.707L27.6301 100.163C26.0602 99.2181 23.2344 96.5723 24.4903 93.5485Z" fill="#59ADFF"/>
<path d="M84.7509 109.529C85.0279 109.729 85.3739 109.812 85.7123 109.759C86.0508 109.706 86.3541 109.521 86.5563 109.245L94.0384 99.0058C94.4868 98.5742 94.9615 98.1849 95.5091 98.1944C95.9838 98.2032 96.4837 98.4999 96.9641 98.876L103.996 105.359C104.049 105.408 104.105 105.453 104.164 105.496C104.338 105.617 104.533 105.703 104.741 105.749C104.947 105.796 105.161 105.801 105.371 105.765C105.58 105.729 105.779 105.651 105.958 105.538C106.138 105.425 106.293 105.278 106.415 105.105L113.548 94.9992C113.558 94.9885 113.571 94.9803 113.58 94.969C113.785 94.7063 114.196 94.0486 114.604 94.1412C114.868 94.2017 114.994 94.5608 115.067 94.8877L115.104 95.7615C115.104 96.1029 115.241 96.4305 115.483 96.6718C115.726 96.9137 116.055 97.0491 116.397 97.0491C116.74 97.0491 117.069 96.9137 117.312 96.6718C117.554 96.4305 117.69 96.1029 117.69 95.7615L117.999 88.5082C118.069 88.2278 118.062 87.9343 117.976 87.6577C117.891 87.3818 117.732 87.1342 117.516 86.9415C117.23 86.663 116.848 86.5018 116.448 86.4898C116.048 86.4778 115.658 86.6164 115.355 86.8772L108.543 90.0289C108.226 90.1605 107.975 90.4113 107.845 90.7275C107.714 91.0431 107.715 91.3978 107.847 91.7134C107.979 92.0284 108.231 92.2785 108.548 92.4089C108.865 92.5386 109.221 92.538 109.538 92.407L109.902 92.2728C110.321 92.1688 111.272 91.8828 111.2 92.5928C111.195 92.6545 111.184 92.715 111.173 92.7755L105.568 100.713C104.827 101.354 104.046 100.911 103.369 100.355C103.322 100.317 103.27 100.284 103.215 100.256L96.1371 93.7292L96.1082 93.7028C95.9392 93.5491 95.7389 93.4338 95.521 93.3645C95.3031 93.2952 95.0733 93.2732 94.846 93.3002C94.6193 93.3273 94.4008 93.4029 94.2055 93.522C94.0108 93.6404 93.8438 93.7998 93.7163 93.9888L84.4414 107.775C84.2567 108.051 84.1852 108.387 84.2429 108.713C84.3007 109.04 84.4828 109.332 84.7509 109.529Z" fill="#131344"/>
<path d="M106.934 35.4375C108.23 34.0591 109.508 32.6645 110.734 31.2172C110.92 31.0023 111.018 30.7243 111.008 30.4396C110.998 30.1549 110.881 29.8846 110.68 29.6834C110.479 29.4822 110.209 29.3651 109.925 29.3558C109.641 29.3464 109.364 29.4457 109.151 29.6333C107.708 30.8641 106.319 32.1451 104.944 33.445C103.569 34.7449 102.221 36.0692 100.881 37.4016C99.5412 38.7339 98.2263 40.0934 96.9333 41.4744C95.6403 42.8555 94.3606 44.2487 93.136 45.6987C92.9426 45.9128 92.8384 46.1937 92.8453 46.4829C92.8528 46.7722 92.9709 47.0474 93.1756 47.2514C93.3797 47.4555 93.6547 47.5726 93.943 47.5784C94.2312 47.5842 94.5106 47.4783 94.7235 47.2827C96.1691 46.0545 97.555 44.7735 98.9346 43.4736C100.314 42.1737 101.657 40.8495 102.994 39.513C104.332 38.1766 105.645 36.8199 106.934 35.4375Z" fill="#131344"/>
<path d="M101.042 32.2046C101.042 31.1657 100.735 30.1501 100.16 29.2863C99.5845 28.4224 98.7669 27.749 97.8106 27.3512C96.8536 26.9534 95.8011 26.849 94.7857 27.0513C93.7697 27.2536 92.8365 27.7535 92.1037 28.4877C91.3715 29.2219 90.8723 30.1575 90.6694 31.1763C90.4666 32.1951 90.5696 33.2513 90.9652 34.2114C91.3608 35.1715 92.0308 35.9924 92.8918 36.5703C93.7521 37.1483 94.7643 37.4573 95.7998 37.4584C97.1889 37.4584 98.522 36.905 99.5048 35.9199C100.488 34.9348 101.041 33.5985 101.042 32.2046ZM93.5467 32.2046C93.5467 31.7562 93.6792 31.318 93.9279 30.9452C94.1759 30.5725 94.5289 30.2821 94.9421 30.1108C95.3553 29.9395 95.8093 29.8949 96.2476 29.9828C96.6859 30.0706 97.0884 30.287 97.4043 30.6044C97.7195 30.9218 97.9343 31.326 98.0209 31.7658C98.1076 32.2057 98.0617 32.6615 97.8903 33.0754C97.7182 33.4893 97.4281 33.8428 97.0558 34.0911C96.684 34.3394 96.2469 34.4714 95.7998 34.4703C95.202 34.4682 94.6293 34.2286 94.2067 33.804C93.7847 33.3794 93.5474 32.8043 93.5467 32.2046Z" fill="#131344"/>
<path d="M108.17 39.3534C107.134 39.3534 106.122 39.6615 105.261 40.2388C104.399 40.8161 103.728 41.6366 103.332 42.5966C102.935 43.5566 102.832 44.613 103.033 45.632C103.235 46.6512 103.735 47.5873 104.467 48.3221C105.199 49.0568 106.132 49.5572 107.148 49.7599C108.164 49.9626 109.217 49.8585 110.174 49.4609C111.131 49.0633 111.949 48.3899 112.524 47.5259C113.1 46.662 113.407 45.6462 113.407 44.6071C113.405 43.2141 112.853 41.8787 111.872 40.8938C110.89 39.9088 109.558 39.3548 108.17 39.3534ZM108.17 46.8728C107.724 46.8728 107.286 46.7399 106.915 46.491C106.544 46.242 106.254 45.8882 106.083 45.4742C105.912 45.0602 105.868 44.6046 105.955 44.1651C106.042 43.7256 106.257 43.3219 106.573 43.005C106.889 42.6881 107.291 42.4724 107.729 42.3849C108.167 42.2975 108.621 42.3424 109.034 42.5139C109.447 42.6854 109.8 42.9758 110.048 43.3483C110.296 43.7209 110.429 44.159 110.429 44.6071C110.427 45.2078 110.189 45.7837 109.766 46.2084C109.343 46.6332 108.769 46.8721 108.17 46.8728Z" fill="#131344"/>
<path d="M24.8618 99.1551L43.8371 114.784C44.8192 115.591 46.0805 115.975 47.3442 115.851C48.6078 115.726 49.7706 115.104 50.5773 114.12L59.2727 103.495C60.0772 102.51 60.4593 101.245 60.3352 99.9772C60.211 98.7097 59.5908 97.543 58.6105 96.7335L39.6352 81.1049C39.1492 80.7049 38.5893 80.4044 37.9875 80.2211C37.3857 80.0378 36.7538 79.9748 36.1279 80.0365C35.502 80.0983 34.8943 80.2828 34.3396 80.5802C33.7849 80.8775 33.294 81.282 32.895 81.7695L24.1974 92.3944C23.7982 92.882 23.4987 93.4433 23.3159 94.0474C23.1332 94.6509 23.0708 95.2846 23.1322 95.9127C23.1937 96.5408 23.378 97.1499 23.6744 97.7068C23.9707 98.263 24.3735 98.7557 24.8596 99.1557L24.8618 99.1551ZM34.2237 82.9854C34.7106 82.3718 35.4097 81.9642 36.1821 81.8445C36.5915 81.7866 37.0085 81.8143 37.4065 81.9264C37.8045 82.0385 38.1749 82.2332 38.494 82.4971L57.4704 98.1238C58.0831 98.6297 58.4708 99.3592 58.5484 100.151C58.626 100.944 58.3872 101.734 57.8844 102.35L57.8247 102.422C57.6927 102.583 57.5023 102.685 57.2955 102.705C57.0886 102.726 56.8822 102.663 56.7214 102.531L34.3321 84.0922C34.1716 83.9593 34.0701 83.7684 34.0497 83.5611C34.0294 83.3532 34.092 83.1466 34.2237 82.9854ZM25.6356 93.4785L29.0182 89.3467C29.0835 89.2666 29.1638 89.2005 29.2546 89.152C29.3454 89.1035 29.4449 89.0733 29.5474 89.0632C29.6499 89.0531 29.7533 89.0632 29.8518 89.0928C29.9503 89.123 30.042 89.1722 30.1215 89.2377L52.5108 107.68C52.6713 107.813 52.7729 108.003 52.7932 108.211C52.8135 108.419 52.751 108.626 52.6192 108.787L49.1889 112.978C48.6847 113.593 47.958 113.982 47.1682 114.06C46.3784 114.137 45.5901 113.898 44.9762 113.393L26.0019 97.7629C25.6488 97.4737 25.3666 97.1064 25.177 96.69C24.9874 96.2743 24.8956 95.8201 24.9084 95.3627C24.9342 94.6704 25.1903 94.0071 25.6356 93.4785Z" fill="#131344"/>
<path d="M31.8013 97.737C32.5599 98.3896 33.3186 99.0322 34.0914 99.6703C34.8641 100.308 35.638 100.935 36.4258 101.55L37.6094 102.47C38.0104 102.768 38.406 103.075 38.8135 103.365C38.9683 103.475 39.1589 103.522 39.3469 103.497C39.535 103.472 39.7065 103.376 39.8269 103.228C39.9472 103.082 40.0076 102.894 39.9957 102.704C39.9839 102.514 39.9006 102.336 39.7629 102.205C39.3987 101.86 39.0227 101.532 38.6531 101.195L37.5227 100.21C36.764 99.5576 36.0054 98.9157 35.2304 98.2788C34.4555 97.6413 33.6838 97.0144 32.8948 96.4009C32.1058 95.7879 31.3189 95.1712 30.5104 94.5841C30.3556 94.4738 30.1651 94.4272 29.977 94.4524C29.789 94.4776 29.6175 94.5734 29.4971 94.7208C29.3767 94.8676 29.3164 95.0553 29.3282 95.2449C29.34 95.4351 29.4233 95.6134 29.561 95.7445C30.2926 96.4261 31.0448 97.0837 31.8013 97.737Z" fill="#131344"/>
<path fill-rule="evenodd" clip-rule="evenodd" d="M9.41935 20.7885H0.941935C0.421718 20.7885 0 20.3655 0 19.8436V4.09471C0 3.57284 0.421719 3.14978 0.941935 3.14978H1.88387C2.57749 3.14978 3.13978 2.5857 3.13978 1.88987V0.944934C3.13978 0.423061 3.5615 0 4.08172 0H19.7806C20.3008 0 20.7226 0.423061 20.7226 0.944934V6.29956C20.7226 6.99541 21.2849 7.55947 21.9785 7.55947H41.0337C44.4623 2.05637 51.6666 0.2392 57.2908 3.5334C59.0018 4.53814 60.4115 5.91895 61.4298 7.55947H270.022C270.715 7.55947 271.277 6.99541 271.277 6.29956V4.09471C271.277 3.57284 271.699 3.14978 272.219 3.14978H273.161C273.855 3.14978 274.417 2.5857 274.417 1.88987V0.944934C274.417 0.423061 274.839 0 275.359 0H291.058C291.578 0 292 0.423061 292 0.944934V16.6938C292 17.2157 291.578 17.6388 291.058 17.6388H290.116C289.422 17.6388 288.86 18.2028 288.86 18.8987V19.8436C288.86 20.3655 288.438 20.7885 287.918 20.7885H286.348C285.655 20.7885 285.092 21.3526 285.092 22.0485V117.802C285.092 118.498 285.655 119.062 286.348 119.062H291.058C291.578 119.062 292 119.485 292 120.007V135.755C292 136.277 291.578 136.7 291.058 136.7H290.116C289.422 136.7 288.86 137.264 288.86 137.96V138.905C288.86 139.427 288.438 139.85 287.918 139.85H272.219C271.699 139.85 271.277 139.427 271.277 138.905V130.401C271.277 129.705 270.715 129.141 270.022 129.141V126.621C270.715 126.621 271.277 126.057 271.277 125.361V123.156C271.277 122.635 271.699 122.211 272.219 122.211H273.161C273.855 122.211 274.417 121.648 274.417 120.952V120.007C274.417 119.485 274.839 119.062 275.359 119.062H281.325C282.019 119.062 282.581 118.498 282.581 117.802V22.0485C282.581 21.3526 282.019 20.7885 281.325 20.7885H272.219C271.699 20.7885 271.277 20.3655 271.277 19.8436V11.3392C271.277 10.6434 270.715 10.0793 270.022 10.0793H132.499C131.805 10.0793 131.243 10.6434 131.243 11.3392V125.361C131.243 126.057 131.805 126.621 132.499 126.621H270.022V129.141H21.9785C21.2849 129.141 20.7226 129.705 20.7226 130.401V135.755C20.7226 136.277 20.3008 136.7 19.7806 136.7H18.8387C18.1451 136.7 17.5828 137.264 17.5828 137.96V138.905C17.5828 139.427 17.1611 139.85 16.6409 139.85H0.941935C0.421718 139.85 0 139.427 0 138.905V123.156C0 122.635 0.421719 122.211 0.941935 122.211H1.88387C2.57749 122.211 3.13978 121.648 3.13978 120.952V120.007C3.13978 119.485 3.5615 119.062 4.08172 119.062H9.41935C10.113 119.062 10.6753 118.498 10.6753 117.802V22.0485C10.6753 21.3526 10.113 20.7885 9.41935 20.7885ZM18.8387 14.804C18.8387 15.3258 18.417 15.7489 17.8968 15.7489H5.96559C5.44537 15.7489 5.02366 15.3258 5.02366 14.804V2.8348C5.02366 2.31293 5.44537 1.88987 5.96559 1.88987H17.8968C18.417 1.88987 18.8387 2.31293 18.8387 2.8348V14.804ZM289.174 15.7489C289.694 15.7489 290.116 15.3258 290.116 14.804V2.8348C290.116 2.31293 289.694 1.88987 289.174 1.88987H277.243C276.723 1.88987 276.301 2.31293 276.301 2.8348V14.804C276.301 15.3258 276.723 15.7489 277.243 15.7489H289.174ZM290.116 133.866C290.116 134.387 289.694 134.811 289.174 134.811H277.243C276.723 134.811 276.301 134.387 276.301 133.866V121.896C276.301 121.375 276.723 120.952 277.243 120.952H289.174C289.694 120.952 290.116 121.375 290.116 121.896V133.866ZM17.8968 134.811C18.417 134.811 18.8387 134.387 18.8387 133.866V121.896C18.8387 121.375 18.417 120.952 17.8968 120.952H5.96559C5.44537 120.952 5.02366 121.375 5.02366 121.896V133.866C5.02366 134.387 5.44537 134.811 5.96559 134.811H17.8968ZM72.843 11.3392C72.843 10.6434 73.405 10.0793 74.0989 10.0793H127.475C128.169 10.0793 128.731 10.6434 128.731 11.3392V65.8304C128.731 66.5265 128.169 67.0903 127.475 67.0903H85.492C85.3456 63.4693 84.815 59.8579 83.8988 56.3537C82.8225 52.2142 81.2105 48.2052 79.115 44.4789C77.5395 41.6806 75.6895 39.0345 73.601 36.5914C73.3234 36.2679 73.0703 35.9271 72.843 35.572V11.3392ZM20.7226 125.361C20.7226 126.057 21.2849 126.621 21.9785 126.621H69.0753C69.7692 126.621 70.3312 126.057 70.3312 125.361V83.1542C70.3312 80.3824 68.7632 77.3554 67.9789 76.1888L67.9644 76.1598L67.6102 75.3837C67.5361 75.2054 67.4752 75.0233 67.4143 74.84C67.3861 74.7562 67.3578 74.6706 67.3283 74.5862C67.3025 74.503 67.2737 74.4198 67.2454 74.3386C67.2272 74.285 67.2084 74.2321 67.1914 74.1805L67.0903 73.7672C67.0664 73.6576 67.0394 73.5473 67.0118 73.4365C66.9722 73.2746 66.9321 73.1114 66.9019 72.9476L66.7795 72.1218L66.7738 72.0859C66.77 72.0632 66.7656 72.0405 66.7619 72.0184C66.7443 71.9151 66.7267 71.8118 66.7217 71.7085L66.6928 71.2953C66.6639 70.6716 65.9217 69.6101 65.3075 69.6101H14.443C13.7494 69.6101 13.1871 70.1739 13.1871 70.87V117.802C13.1871 118.498 13.7494 119.062 14.443 119.062H19.7806C20.3008 119.062 20.7226 119.485 20.7226 120.007V125.361ZM128.731 125.361C128.731 126.057 128.169 126.621 127.475 126.621H74.0989C73.405 126.621 72.843 126.057 72.843 125.361V80.8265L72.8524 80.8303L72.8637 80.8353L72.8782 80.8429C73.9627 81.2706 75.1401 81.4804 76.3181 81.4369C77.4893 81.3935 78.6522 81.1037 79.7003 80.5814C80.7553 80.0668 81.6947 79.3493 82.4683 78.4793C83.2344 77.6093 83.8341 76.6234 84.3039 75.5865C85.0405 73.8541 85.4022 72.0128 85.5108 70.1859L85.492 69.6101H127.475C128.169 69.6101 128.731 70.1739 128.731 70.87V125.361ZM43.9505 18.6197H43.9289C43.0617 18.6197 42.5486 19.6274 43.105 20.3089C44.1095 21.6065 45.4392 22.6577 47.0074 23.3755C48.8935 24.2381 50.982 24.4919 53.0271 24.1221C56.0478 23.5712 58.5916 21.7805 60.1164 19.1562C60.12 19.1453 60.1254 19.1362 60.1308 19.1272C60.1362 19.1182 60.1416 19.1091 60.1453 19.0982C62.5734 14.85 57.6883 10.1378 53.5185 12.6896C52.5068 13.313 51.5963 14.1685 50.6496 15.0675L50.6442 15.0726C48.8462 16.7676 46.8816 18.6197 43.9505 18.6197ZM69.236 74.7096L69.54 75.3623C69.7704 75.8171 70.0342 76.2518 70.3312 76.6537C70.5924 77.0077 70.88 77.3359 71.1946 77.6314C71.6844 78.112 72.2433 78.5114 72.843 78.8251C73.0666 78.9417 73.2958 79.0469 73.5287 79.1388C74.389 79.4796 75.3209 79.639 76.239 79.6031C77.1564 79.5666 78.067 79.3278 78.8984 78.9215C79.7223 78.5082 80.4809 77.9432 81.1025 77.2326C81.7236 76.522 82.2222 75.7031 82.6197 74.8255C83.3004 73.2047 83.625 71.4231 83.6859 69.6101C83.6922 69.4205 83.696 69.2303 83.6966 69.0406C83.6954 68.3899 83.6815 67.7398 83.6552 67.0903C83.5126 63.6186 83.0052 60.1619 82.1286 56.8032C81.0881 52.8159 79.5339 48.9592 77.5182 45.3634C76.1592 42.9404 74.5975 40.6327 72.843 38.4824C72.0449 37.5045 71.2078 36.5591 70.3312 35.6502L70.3054 35.6233C70.2571 35.5737 70.2094 35.5243 70.161 35.475C67.6178 32.8579 64.7486 30.5525 61.6267 28.6894C61.2365 28.4574 60.7523 28.4937 60.3982 28.7691C59.1119 29.7696 57.6521 30.48 56.1417 30.9585C54.1978 31.5747 52.1455 31.8212 50.1148 31.6834C48.0842 31.5457 46.0752 31.0165 44.2396 30.1103C42.9894 29.5086 41.8404 28.7111 40.807 27.7904C40.3662 27.3989 39.6941 27.4352 39.2967 27.8702C38.3283 28.9286 37.4178 30.0595 36.5433 31.2122C35.2715 32.9014 34.0719 34.6558 32.9517 36.4537C30.7043 40.0567 28.7098 43.8265 27.0332 47.7195C26.1949 49.6623 25.4361 51.6414 24.8002 53.6569C24.1714 55.665 23.6512 57.7166 23.3765 59.7682C23.2465 60.7977 23.167 61.8271 23.2104 62.8348C23.2537 63.8423 23.4055 64.8281 23.7523 65.6912C23.933 66.1189 24.1498 66.5177 24.4244 66.8585C24.4896 66.9391 24.5577 67.0166 24.6287 67.0903H61.475V66.4232C61.475 66.2714 61.4678 66.141 61.4605 66.0106L61.4388 65.6042C61.3666 64.5314 61.1209 63.4725 60.7089 62.4796C59.8562 60.5077 58.3531 58.8185 56.4742 57.7746C55.5348 57.2599 54.5085 56.9047 53.4535 56.7162L53.056 56.6582L53.0276 56.6533L52.9907 56.6469L52.9886 56.6465L52.9872 56.6463L52.9861 56.6461C52.8774 56.627 52.7655 56.6074 52.6585 56.6074L51.8564 56.5639H43.0762C42.6137 56.5639 42.2306 56.187 42.2306 55.7158C42.2306 55.636 42.2451 55.5563 42.2668 55.4765L44.6298 47.3135C44.7238 46.98 45.0562 46.7553 45.3959 46.8278C45.7572 46.9075 45.974 47.2628 45.8945 47.6107L44.5721 53.2291C44.3842 54.0483 44.9984 54.8313 45.8367 54.8313H51.8709L52.8175 54.882C52.9414 54.8877 53.0653 54.9065 53.1857 54.9248L53.2369 54.9327L53.2873 54.94L53.757 55.0125C55 55.23 56.2068 55.6505 57.3197 56.2595C59.531 57.4919 61.3015 59.4782 62.306 61.8054C62.718 62.7985 62.9922 63.8567 63.1153 64.9226C63.31 65.7787 63.5775 66.7155 64.1873 67.0903C64.2124 67.106 64.2381 67.1205 64.2645 67.1338C64.7882 67.4021 65.2253 67.3555 65.5725 67.1287C65.5794 67.1243 65.5863 67.1193 65.5926 67.1149C65.6008 67.1098 65.6083 67.1042 65.6159 67.0991L65.6278 67.0903C65.6579 67.0683 65.6874 67.0456 65.7157 67.021C66.0014 66.7759 66.2156 66.4049 66.355 66.003C66.5107 65.5551 66.5741 65.0681 66.5408 64.6763L66.5333 64.6108L66.4831 64.2341L66.3889 63.48C66.0925 61.4792 65.5361 59.529 64.6544 57.7384C64.5785 57.5504 64.4786 57.3768 64.3782 57.2019C64.3549 57.161 64.331 57.1199 64.3078 57.0787C64.2425 56.9735 64.1829 56.8648 64.1232 56.7561C64.0642 56.6474 64.0045 56.5385 63.9392 56.4335L63.5348 55.81C63.4563 55.6787 63.3646 55.558 63.2723 55.4367C63.2114 55.3571 63.1511 55.2771 63.094 55.1938C62.986 55.0375 62.8585 54.8862 62.7312 54.7359L62.6872 54.6836L62.6529 54.6428C62.6429 54.6309 62.6329 54.6189 62.6228 54.6069C62.6083 54.5894 62.5938 54.5718 62.5792 54.554L62.5784 54.553L62.5576 54.5278C62.509 54.469 62.4594 54.4096 62.4072 54.3528L62.1542 54.0846C62.0293 53.9428 61.8961 53.8175 61.764 53.6931C61.7204 53.6521 61.677 53.6112 61.634 53.5699C61.578 53.5226 61.5205 53.4734 61.4634 53.4244C61.3365 53.3154 61.211 53.2077 61.1064 53.1276L61.0775 53.1059C60.8101 52.9029 60.7162 52.5332 60.8896 52.2432C61.0775 51.9387 61.4533 51.8445 61.7496 52.0039C62.0419 52.1613 62.2569 52.3116 62.4916 52.4758L62.5011 52.4824C62.5315 52.506 62.562 52.5295 62.5926 52.5529L62.6527 52.5989L62.6862 52.6244C62.8497 52.7494 63.0117 52.8748 63.1587 53.0117L63.477 53.2871C63.5436 53.3497 63.6077 53.4155 63.673 53.4824L63.6974 53.5075L63.7194 53.5298C63.737 53.548 63.7546 53.5662 63.7728 53.5844L64.0692 53.8816C64.1257 53.9385 64.1759 53.9999 64.2256 54.0609L64.245 54.0848L64.262 54.1055C64.2884 54.138 64.3154 54.17 64.3436 54.2006L64.3706 54.2328L64.3907 54.2567L64.4083 54.2779C64.4416 54.3171 64.4755 54.3563 64.5088 54.3957C64.6344 54.542 64.7618 54.6904 64.8717 54.8458L65.3559 55.5273C65.4664 55.6885 65.5625 55.8533 65.6598 56.0192L65.6604 56.02L65.6887 56.0681L65.7264 56.1329C65.7471 56.1678 65.7678 56.2027 65.7892 56.2377C65.8074 56.2694 65.8256 56.301 65.8438 56.3325L65.879 56.392C65.9876 56.5781 66.0962 56.7637 66.1867 56.9626C67.1839 58.9418 67.7836 61.0732 68.1088 63.2262L68.2175 64.0382L68.2677 64.4445L68.2966 64.6473L68.311 64.8502L68.4052 66.4742C68.4272 66.6777 68.4285 66.8849 68.4247 67.0903C68.4234 67.1558 68.4216 67.2213 68.4197 67.2862L68.4052 68.0982L68.3833 69.6712L68.3764 70.4177L68.4272 71.1573L68.4561 71.5271C68.4599 71.6002 68.4718 71.6707 68.4837 71.7419L68.49 71.7778L68.495 71.8074C68.4969 71.8219 68.4994 71.837 68.5013 71.8515L68.5038 71.8666L68.5063 71.8893L68.615 72.6219C68.647 72.7757 68.6859 72.9262 68.7242 73.0774L68.7249 73.0787V73.0799C68.7456 73.1631 68.7676 73.2475 68.7883 73.3319L68.8103 73.422L69.236 74.7096Z" fill="#131344"/>
</g>
<path d="M248.43 67.22L243.773 107.653C243.565 109.46 242.164 110.899 240.364 111.156L209.063 115.618C208.592 115.686 208.112 115.668 207.646 115.566L176.514 108.775C174.853 108.413 173.602 107.039 173.396 105.351L168.5 65.22L175.24 61.35L226.92 31.72L248.43 67.22Z" fill="#59ADFF"/>
<path d="M208.35 115.72L176.514 108.775C174.853 108.413 173.602 107.039 173.396 105.351L168.5 65.22L175.24 61.35L204.72 63.51L208.35 115.72Z" fill="#FF5975"/>
<path d="M163.026 59.6889L183.261 24.1742C184.019 22.8441 185.469 22.0632 186.997 22.1628L228.452 24.8664C229.738 24.9503 230.904 25.6483 231.586 26.7415L253.186 61.3836C254.848 64.0479 252.932 67.5 249.792 67.5H248.5L229.749 36.5393C228.54 34.5432 225.615 34.6311 224.528 36.6962L208.264 67.5983C207.501 69.0483 205.931 69.8862 204.301 69.7129L166.078 65.6466C163.211 65.3416 161.599 62.1945 163.026 59.6889Z" fill="#131344"/>
<path d="M224.454 75.684C222.28 75.8262 220.62 77.6821 220.719 79.8584L222.29 114.16L235.21 112.06L236.697 79.3347C236.805 76.953 234.819 75.0061 232.44 75.1617L224.454 75.684Z" fill="white"/>
<path d="M180.654 76.3037C178.718 76.0772 177.084 77.7273 177.329 79.6605L178.189 86.4474C178.415 88.2296 179.801 89.6427 181.579 89.9025L193.423 91.6339C195.305 91.9091 196.965 90.3853 196.852 88.4865L196.432 81.4711C196.317 79.5359 194.83 77.9622 192.904 77.7369L180.654 76.3037Z" fill="#FF95A7" stroke="#131344" stroke-width="2"/>
<path d="M232 55.94C232 57.8793 231.424 59.5948 230.541 60.8014C229.658 62.0086 228.521 62.65 227.36 62.65C226.199 62.65 225.062 62.0086 224.179 60.8014C223.296 59.5948 222.72 57.8793 222.72 55.94C222.72 54.0006 223.296 52.2851 224.179 51.0786C225.062 49.8714 226.199 49.23 227.36 49.23C228.521 49.23 229.658 49.8714 230.541 51.0786C231.424 52.2851 232 54.0006 232 55.94Z" fill="white" stroke="#131344" stroke-width="2"/>
<path fill-rule="evenodd" clip-rule="evenodd" d="M185.38 79.5547L181.515 79.0332C180.871 78.9463 180.316 79.4872 180.387 80.1332L181.004 85.7546C181.102 86.6471 181.782 87.3649 182.668 87.5103L186.077 88.0695L185.38 79.5547ZM187.192 88.2523L186.408 79.6934L190.874 80.2959C191.833 80.4254 192.562 81.2237 192.604 82.1911L192.855 87.9605C192.883 88.5945 192.32 89.0935 191.694 88.9908L187.192 88.2523Z" fill="white"/>
<path d="M168.5 65.5L173.636 105.657C173.854 107.357 175.129 108.729 176.809 109.07L208.5 115.5M208.5 115.5L207 93.5L205.5 67M208.5 115.5L222.5 113.5M222.5 113.5L220.705 79.8477C220.591 77.6998 222.195 75.8459 224.337 75.6511L232.456 74.9131C234.863 74.6942 236.913 76.6437 236.815 79.0587L235.5 111.5M222.5 113.5L235.5 111.5M235.5 111.5L240.392 110.889C242.217 110.66 243.652 109.216 243.868 107.389L249 64" stroke="#131344" stroke-width="2"/>
</g>
<defs>
<clipPath id="clip0_89_409">
<rect width="292" height="143" fill="white"/>
</clipPath>
</defs>
</svg>
