<svg width="292" height="119" viewBox="0 0 292 119" fill="none" xmlns="http://www.w3.org/2000/svg">
<g clip-path="url(#clip0_89_366)">
<path d="M92.95 106.117C92.95 108.133 94.5909 109.774 96.605 109.774H170.116V102.449H96.605C94.5909 102.46 92.95 104.102 92.95 106.117Z" fill="#FF5975"/>
<path d="M63.9627 86.9348C64.0159 87.0204 64.0586 87.1166 64.1119 87.2014C64.1651 87.2976 64.2184 87.3831 64.2717 87.4679C64.3569 87.6068 64.4422 87.7344 64.5381 87.8626L64.7406 88.1398C64.8152 88.236 64.8898 88.3208 64.9644 88.417L64.975 88.4277C65.0603 88.5346 65.1455 88.6301 65.2308 88.7156L65.2415 88.7263C65.2734 88.7583 65.3054 88.8011 65.348 88.8331C65.3907 88.8759 65.4227 88.9073 65.4652 88.95C65.5825 89.0676 65.6997 89.1852 65.8169 89.2806L65.8276 89.2913C65.8703 89.3234 65.9022 89.3555 65.9448 89.3875C66.0727 89.5044 66.2113 89.6113 66.3391 89.7075C66.3818 89.7395 66.4244 89.7716 66.4777 89.8137C66.5417 89.8564 66.6055 89.8992 66.6589 89.9419C66.7441 89.9954 66.8294 90.0595 66.9146 90.1122C66.9999 90.1657 67.0851 90.2191 67.1704 90.2725C67.2556 90.326 67.3516 90.3787 67.4368 90.4215C67.618 90.5177 67.7991 90.6139 67.991 90.6987C68.0442 90.72 68.0869 90.7414 68.1402 90.7628C68.2467 90.8056 68.3533 90.8483 68.4492 90.8911C68.5558 90.9338 68.6517 90.9652 68.7583 91.0079C69.6321 91.3065 70.5486 91.4561 71.4759 91.4561H220.566C221.493 91.4561 222.41 91.3065 223.273 91.0079C223.327 90.9866 223.39 90.9652 223.443 90.9438C223.667 90.859 223.891 90.7735 224.104 90.6666H224.115C224.232 90.6139 224.339 90.5604 224.435 90.507C224.488 90.4749 224.541 90.4535 224.594 90.4215C224.648 90.3894 224.701 90.3573 224.765 90.326L224.787 90.3153C224.957 90.2191 225.127 90.1122 225.287 90.006H225.298C225.373 89.9526 225.447 89.8992 225.543 89.835H225.554C225.639 89.7709 225.724 89.7075 225.799 89.654C225.852 89.6113 225.916 89.5685 225.959 89.5258C226.065 89.4303 226.172 89.3448 226.267 89.2593C226.363 89.1745 226.47 89.0783 226.566 88.9821C226.619 88.9286 226.662 88.8866 226.704 88.8331C226.79 88.737 226.885 88.6408 226.982 88.5346C227.024 88.4811 227.067 88.4277 227.11 88.3743C227.237 88.2253 227.365 88.0543 227.482 87.8947C227.61 87.7244 227.717 87.5534 227.823 87.3831C227.877 87.2976 227.93 87.2014 227.984 87.1166C228.036 87.0204 228.09 86.9349 228.132 86.8501C228.207 86.7004 228.282 86.5615 228.345 86.4125C228.41 86.2636 228.474 86.1033 228.527 85.9543C228.591 85.794 228.644 85.6344 228.687 85.4848C228.719 85.3993 228.74 85.3145 228.761 85.2503C228.793 85.1541 228.815 85.048 228.836 84.9518C228.879 84.7494 228.921 84.5463 228.953 84.3332C228.964 84.2477 228.985 84.1416 228.996 84.024C229.017 83.843 229.028 83.6827 229.038 83.5124C229.049 83.3314 229.049 83.1603 229.049 83.0007V40.798C229.049 40.4567 229.028 40.1049 228.985 39.7744C228.974 39.6571 228.953 39.5505 228.932 39.4332C228.879 39.1346 228.815 38.836 228.74 38.5482C228.719 38.4735 228.697 38.3882 228.665 38.3029C228.622 38.1536 228.57 38.0044 228.506 37.8337C228.452 37.6845 228.388 37.5352 228.324 37.3753C228.261 37.226 228.186 37.0767 228.111 36.9381C228.068 36.8528 228.016 36.7675 227.962 36.6715C227.909 36.5862 227.866 36.5009 227.802 36.405C227.707 36.2344 227.589 36.0638 227.461 35.8932C227.344 35.7226 227.216 35.5626 227.088 35.4133C227.046 35.36 227.003 35.3067 226.96 35.2534C226.864 35.1468 226.779 35.0402 226.683 34.9549C226.64 34.9016 226.587 34.8589 226.545 34.8056C226.46 34.7203 226.363 34.6243 226.247 34.5284C226.14 34.4324 226.033 34.3471 225.937 34.2618C225.895 34.2191 225.841 34.1765 225.777 34.1338C225.702 34.0698 225.618 34.0165 225.532 33.9526C225.447 33.8886 225.362 33.8247 225.287 33.782H225.277C225.116 33.6754 224.946 33.5687 224.765 33.4621H224.755C224.584 33.3661 224.403 33.2702 224.221 33.1742C224.104 33.1102 223.976 33.0569 223.849 33.0036C223.656 32.9183 223.465 32.8437 223.273 32.7797C222.399 32.4812 221.493 32.3319 220.566 32.3319H213.671V33.4515V33.4621C214.694 36.5436 215.93 39.7957 217.593 43.6982C218.286 45.3296 219.042 47.0249 219.841 48.7416C220.236 49.6053 220.652 50.4689 221.024 51.2366L221.621 52.4841L221.93 53.1026C222.058 53.3479 222.176 53.625 222.26 53.8596C222.644 54.8939 222.772 56.0454 222.623 57.1757C222.473 58.2846 222.047 59.3616 221.397 60.2785C220.768 61.1848 219.895 61.9419 218.872 62.4643L218.776 62.507C218.744 62.5177 218.712 62.539 218.679 62.5497C218.627 62.571 218.573 62.603 218.52 62.6243C218.467 62.6456 218.424 62.667 218.371 62.6883C218.328 62.7096 218.286 62.7203 218.243 62.7416C218.125 62.7843 218.019 62.8269 217.923 62.8589C217.87 62.8802 217.816 62.8909 217.764 62.9122C217.71 62.9229 217.657 62.9442 217.614 62.9549L217.582 62.9655C217.539 62.9762 217.497 62.9869 217.444 62.9975L217.145 63.0721C216.847 63.1361 216.549 63.1787 216.25 63.2001C216.037 63.2214 215.824 63.2214 215.621 63.2214C214.992 63.2214 214.342 63.1254 213.713 62.9335L213.682 62.9229V76.2085C213.682 76.5177 213.564 76.8056 213.341 77.0293C213.32 77.0507 213.287 77.0828 213.255 77.1042C213.213 77.1362 213.17 77.1683 213.117 77.2004C213.085 77.221 213.053 77.2317 213.021 77.2531C212.989 77.2745 212.946 77.2852 212.914 77.2958C212.787 77.3386 212.659 77.3707 212.52 77.3707H79.4788C79.2872 77.3707 79.0957 77.3172 78.9247 77.2317C78.9034 77.221 78.882 77.2004 78.8507 77.1897C78.8079 77.1576 78.7545 77.1255 78.7225 77.0935L78.7118 77.0828C78.7011 77.0721 78.7011 77.0721 78.6904 77.0614C78.6797 77.0614 78.6797 77.0507 78.6691 77.0507L78.6584 77.04C78.4454 76.8163 78.3172 76.5284 78.3172 76.2191V62.9335L78.2859 62.9442C77.657 63.1361 77.0068 63.232 76.3672 63.232C76.165 63.232 75.952 63.232 75.7597 63.2107C75.2377 63.1681 74.7157 63.0615 74.1936 62.9016C74.1188 62.8802 74.0547 62.8589 73.98 62.8269H73.9693H73.9586C73.8632 62.7949 73.7777 62.7629 73.7029 62.7309L73.6495 62.7096C73.6281 62.6989 73.5968 62.6883 73.5754 62.6776C73.522 62.6563 73.4686 62.635 73.4152 62.6136C73.3198 62.571 73.2236 62.5283 73.1061 62.4643C72.0834 61.9312 71.2202 61.1848 70.5913 60.2785C69.9412 59.3616 69.5255 58.2846 69.3657 57.1757C69.2165 56.0454 69.3444 54.8939 69.728 53.8596C69.8239 53.5717 69.9625 53.2945 70.0584 53.1026L70.9642 51.2366C71.3477 50.437 71.7316 49.6266 72.0941 48.8375L72.1368 48.7416C72.8291 47.2488 73.6281 45.4788 74.3745 43.6982C74.46 43.485 74.5554 43.2717 74.6409 43.0691C74.7263 42.8558 74.8218 42.6426 74.9072 42.44C75.0782 42.0348 75.2591 41.6083 75.4293 41.1712C75.6323 40.6807 75.7918 40.2755 75.9413 39.9023C76.0261 39.6891 76.1116 39.4758 76.197 39.2625C76.197 39.2519 76.2077 39.2412 76.2077 39.2306C76.2711 39.0706 76.3352 38.9107 76.3993 38.7401L76.4527 38.6122C76.7191 37.919 76.9641 37.258 77.1984 36.6182C77.2731 36.4156 77.3372 36.2344 77.4013 36.0531L77.422 35.9892C77.454 35.8932 77.4861 35.8079 77.5181 35.7119V35.7012C77.7845 34.9442 78.0509 34.1871 78.2859 33.4621V32.3426H71.4225C70.4953 32.3426 69.5789 32.4918 68.7049 32.7904C67.8737 33.0676 67.0958 33.4728 66.3924 33.9952C66.2965 34.0698 66.2113 34.1338 66.1366 34.1978C66.0514 34.2618 65.9661 34.3364 65.8916 34.4004C65.7424 34.5284 65.5932 34.667 65.4439 34.8163C65.4014 34.8589 65.348 34.9122 65.3054 34.9549L65.1989 35.0722C65.1029 35.1788 65.0177 35.2747 64.9431 35.36C64.7513 35.5946 64.5701 35.8292 64.3996 36.0851C64.3463 36.1598 64.3036 36.2344 64.2504 36.309C64.1971 36.3837 64.1544 36.4689 64.1119 36.5436C63.3552 37.8337 62.9609 39.3052 62.9609 40.8086V82.9793C62.9609 84.3546 63.3019 85.7192 63.9414 86.9242L63.9627 86.9348ZM97.1911 87.6816H97.1697C97.1697 87.6816 97.1591 87.6816 97.1484 87.6816C97.1377 87.6816 97.127 87.6816 97.1163 87.6816C97.095 87.6816 97.0736 87.6816 97.0629 87.6923H97.0522C97.0095 87.6923 96.9675 87.703 96.9248 87.703C96.882 87.703 96.8286 87.703 96.7752 87.703C96.7111 87.703 96.6691 87.703 96.6263 87.703C96.5729 87.703 96.5302 87.6923 96.4768 87.6923C96.4768 87.6923 96.4661 87.6923 96.4554 87.6923C96.4127 87.6923 96.3707 87.6816 96.3172 87.6709C96.2638 87.6602 96.2104 87.6496 96.1677 87.6496C96.1356 87.6389 96.0936 87.6389 96.0616 87.6282C96.0402 87.6282 96.0188 87.6175 95.9975 87.6068C95.9227 87.5854 95.8586 87.5641 95.8052 87.5427C95.7845 87.532 95.7525 87.532 95.7311 87.5213C95.6457 87.4892 95.5602 87.4572 95.4754 87.4151C95.3793 87.3724 95.2938 87.3189 95.219 87.2762C95.177 87.2548 95.145 87.2334 95.1129 87.2014L95.0916 87.1907C95.0488 87.1586 95.0168 87.1379 94.9847 87.1059C94.942 87.0738 94.9 87.0417 94.8679 87.0204C94.8252 86.9883 94.7931 86.9562 94.7611 86.9242C94.7184 86.8921 94.6863 86.86 94.6543 86.8287C94.6229 86.7966 94.5909 86.7645 94.5588 86.7218C94.5268 86.6897 94.4947 86.6577 94.4627 86.6149C94.4306 86.5722 94.3986 86.5301 94.3559 86.4874L94.3452 86.4767C94.3452 86.4767 94.3352 86.466 94.3352 86.4553C94.3138 86.4339 94.3032 86.4125 94.2818 86.3805C94.2497 86.3377 94.2284 86.295 94.207 86.2636C94.1856 86.2208 94.1536 86.1781 94.1322 86.1353C94.1109 86.0926 94.0895 86.0498 94.0681 86.0071C93.9834 85.8368 93.9193 85.6558 93.8659 85.4527C93.8018 85.2076 93.7697 84.9624 93.7697 84.7066C93.7697 84.4508 93.8018 84.195 93.8659 83.9598C93.8872 83.8644 93.9193 83.7682 93.9513 83.6827C93.962 83.6406 93.9834 83.6086 93.9941 83.5658C94.0154 83.5124 94.0368 83.4696 94.0575 83.4162C94.0788 83.3734 94.1002 83.3314 94.1215 83.2886C94.1429 83.2565 94.1536 83.2245 94.175 83.1924C94.1856 83.1817 94.1963 83.1603 94.207 83.1497C94.2284 83.1069 94.2497 83.0748 94.2711 83.0435C94.3032 83.0007 94.3245 82.9687 94.3559 82.9259C94.4413 82.8083 94.5375 82.7022 94.6436 82.5953C94.6756 82.5632 94.7184 82.5205 94.7504 82.4991C94.8252 82.4357 94.9 82.3715 94.974 82.3181C95.0061 82.2967 95.0381 82.2646 95.0809 82.2433L95.1022 82.2326C95.145 82.2112 95.177 82.1798 95.2091 82.1585C95.2511 82.1371 95.2938 82.105 95.3366 82.0836C95.3793 82.0623 95.422 82.0409 95.4647 82.0195C95.5175 81.9981 95.5602 81.9768 95.5922 81.9554C95.635 81.934 95.6777 81.9233 95.7311 81.9019C95.7845 81.8813 95.8265 81.8706 95.8693 81.8599C95.9013 81.8492 95.9227 81.8385 95.9547 81.8385C95.9547 81.8385 95.9654 81.8385 95.9761 81.8385C95.9975 81.8385 96.0188 81.8278 96.0402 81.8278H96.0509C96.0829 81.8171 96.125 81.8064 96.157 81.8064C96.1677 81.8064 96.1677 81.8064 96.1784 81.8064C96.2104 81.7958 96.2425 81.7958 96.2745 81.7851H96.2852C96.3066 81.7851 96.3279 81.7744 96.3493 81.7744C96.3813 81.7744 96.4127 81.7637 96.4447 81.7637C96.4554 81.7637 96.4661 81.7637 96.4768 81.7637C96.5195 81.7637 96.5622 81.753 96.6157 81.753C96.6584 81.753 96.7111 81.753 96.7645 81.753C96.8179 81.753 96.8713 81.753 96.9248 81.753C96.9675 81.753 97.0202 81.7637 97.0736 81.7637C97.1056 81.7637 97.1377 81.7744 97.1697 81.7744H97.1911C97.2125 81.7744 97.2338 81.7744 97.2552 81.7851H97.2865C97.3079 81.7851 97.3293 81.7958 97.3506 81.7958C97.3934 81.8064 97.4468 81.8171 97.5002 81.8278C97.5109 81.8278 97.5322 81.8385 97.5429 81.8385C97.5743 81.8492 97.6063 81.8599 97.6384 81.8599C97.6491 81.8599 97.6704 81.8706 97.6811 81.8706H97.6918C97.7238 81.8813 97.7559 81.8912 97.7986 81.9019C97.8093 81.9126 97.82 81.9126 97.8413 81.9126H97.8513C97.8727 81.9233 97.8834 81.9233 97.9047 81.934L97.9154 81.9447C97.9475 81.9554 97.9688 81.9661 98.0009 81.9874C98.0116 81.9981 98.0329 81.9981 98.0436 82.0088C98.0543 82.0195 98.0757 82.0195 98.097 82.0302C98.097 82.0302 98.1077 82.0302 98.1184 82.0409C98.139 82.0516 98.1497 82.0623 98.1711 82.073L98.1818 82.0836C98.1925 82.0943 98.2031 82.0943 98.2138 82.105C98.2459 82.1264 98.2779 82.1371 98.31 82.1585C98.342 82.1798 98.3741 82.2005 98.4061 82.2219C98.4375 82.2433 98.4695 82.2646 98.5016 82.286C98.5122 82.2967 98.5336 82.3074 98.5443 82.3181L98.555 82.3288C98.5657 82.3395 98.5763 82.3501 98.587 82.3501C98.6938 82.4357 98.7893 82.5205 98.8854 82.606L98.8961 82.6166C98.8961 82.6166 98.9068 82.6273 98.9175 82.638C98.9388 82.6594 98.9602 82.6808 98.9816 82.7022L99.0129 82.7449C99.0236 82.7656 99.045 82.7763 99.0556 82.7976C99.0877 82.8404 99.1197 82.8725 99.1518 82.9152C99.1731 82.9473 99.1945 82.9794 99.2159 83.0114C99.2372 83.0435 99.2693 83.0855 99.2907 83.1176C99.322 83.171 99.354 83.2245 99.3861 83.2779L99.4075 83.31C99.4181 83.3314 99.4288 83.342 99.4395 83.3627C99.5143 83.5124 99.5784 83.6613 99.6311 83.8109C99.6418 83.8537 99.6525 83.8964 99.6738 83.9385C99.6952 84.0347 99.7272 84.1309 99.7379 84.237C99.7486 84.3119 99.7593 84.3974 99.77 84.4936C99.7807 84.5891 99.7806 84.6746 99.7806 84.7601C99.7806 84.8235 99.7807 84.8983 99.77 84.9624C99.77 85.0266 99.7593 85.08 99.7486 85.1327C99.7166 85.3893 99.6525 85.6344 99.557 85.8795C99.5463 85.9116 99.5357 85.933 99.525 85.965L99.5143 85.9964C99.4929 86.0391 99.4822 86.0712 99.4609 86.114C99.4395 86.1674 99.4075 86.2102 99.3754 86.2636C99.2907 86.4018 99.2052 86.5301 99.1091 86.647C99.0877 86.679 99.0556 86.7111 99.0343 86.7325C98.9282 86.8501 98.8106 86.9669 98.7045 87.0631C98.6938 87.0738 98.6832 87.0845 98.6725 87.0952L98.6618 87.1059C98.6511 87.1166 98.6297 87.1272 98.6191 87.1379C98.5656 87.18 98.5016 87.2227 98.4275 87.2762C98.3954 87.2976 98.3634 87.3189 98.3313 87.3403C98.2672 87.3831 98.1925 87.4151 98.1291 87.4572C98.097 87.4785 98.0543 87.4892 98.0222 87.5106C98.0116 87.5213 97.9902 87.5213 97.9795 87.532C97.9688 87.5427 97.9475 87.5427 97.9368 87.5534C97.9154 87.5641 97.8834 87.5747 97.8513 87.5854C97.8413 87.5961 97.82 87.5961 97.8093 87.6068C97.7452 87.6282 97.6704 87.6496 97.585 87.6709C97.5636 87.6816 97.5323 87.6816 97.5109 87.6923C97.4895 87.703 97.4575 87.703 97.4361 87.7137C97.4147 87.7137 97.3934 87.7244 97.3827 87.7244H97.372C97.372 87.7244 97.3613 87.7244 97.3506 87.7244C97.3293 87.7244 97.3079 87.7344 97.2972 87.7344H97.2865C97.2232 87.6709 97.2018 87.6709 97.1911 87.6816ZM163.211 87.6496H163.2C163.2 87.6496 163.19 87.6496 163.179 87.6496C163.157 87.6496 163.136 87.6603 163.125 87.6603H163.115C163.104 87.6603 163.083 87.6602 163.072 87.6709H163.061L163.051 87.6816C163.051 87.6816 163.04 87.6816 163.029 87.6816C163.019 87.6816 163.008 87.6816 162.997 87.6816C162.976 87.6816 162.954 87.6816 162.944 87.6923H162.923C162.88 87.6923 162.838 87.703 162.795 87.703C162.752 87.703 162.699 87.703 162.645 87.703C162.582 87.703 162.539 87.703 162.497 87.703C162.443 87.703 162.4 87.6923 162.348 87.6923C162.348 87.6923 162.337 87.6923 162.326 87.6923C162.284 87.6923 162.241 87.6816 162.187 87.6709C162.134 87.6602 162.081 87.6496 162.039 87.6496C162.007 87.6389 161.964 87.6389 161.932 87.6282C161.91 87.6282 161.889 87.6175 161.868 87.6068C161.793 87.5854 161.719 87.5641 161.644 87.532H161.633C161.623 87.532 161.612 87.5213 161.601 87.5213H161.591L161.569 87.5106C161.548 87.4999 161.527 87.4999 161.505 87.4892C161.442 87.4679 161.388 87.4365 161.346 87.4151C161.26 87.3724 161.185 87.3296 161.111 87.2869L161.079 87.2655C161.047 87.2441 161.026 87.2334 160.994 87.212L160.962 87.1907C160.94 87.18 160.919 87.1586 160.898 87.1379L160.866 87.1166C160.781 87.0524 160.706 86.999 160.642 86.9348C160.599 86.9028 160.568 86.8707 160.536 86.8394C160.504 86.8073 160.472 86.7752 160.44 86.7325C160.376 86.6577 160.312 86.5828 160.259 86.5087C160.237 86.4767 160.216 86.4553 160.195 86.4232L160.173 86.3912C160.152 86.3591 160.12 86.3163 160.099 86.2736C159.811 85.8047 159.662 85.2717 159.662 84.7173C159.662 84.1629 159.811 83.6299 160.099 83.1603C160.12 83.1283 160.141 83.0855 160.173 83.0435C160.205 83.0007 160.227 82.9687 160.259 82.9259C160.291 82.8832 160.322 82.8404 160.344 82.8083C160.376 82.7656 160.408 82.7342 160.44 82.7022C160.472 82.6701 160.504 82.6273 160.536 82.5953C160.568 82.5632 160.599 82.5311 160.642 82.4991C160.674 82.4677 160.717 82.4357 160.749 82.4036C160.781 82.3715 160.813 82.3501 160.866 82.3181C160.898 82.286 160.94 82.2646 160.983 82.2326C161.026 82.2005 161.069 82.1798 161.111 82.1585C161.154 82.1264 161.196 82.105 161.239 82.0836C161.271 82.0623 161.292 82.0516 161.324 82.0409C161.335 82.0302 161.356 82.0302 161.367 82.0195L161.388 82.0088C161.42 81.9981 161.442 81.9874 161.473 81.9768L161.537 81.9447C161.559 81.934 161.58 81.9233 161.601 81.9126L161.633 81.9019C161.687 81.8813 161.73 81.8706 161.772 81.8599C161.804 81.8492 161.825 81.8385 161.857 81.8385C161.857 81.8385 161.868 81.8385 161.878 81.8385C161.9 81.8385 161.921 81.8278 161.942 81.8278H161.953C161.985 81.8171 162.028 81.8064 162.059 81.8064C162.07 81.8064 162.07 81.8064 162.081 81.8064C162.113 81.7958 162.145 81.7958 162.177 81.7851H162.187C162.209 81.7851 162.23 81.7744 162.252 81.7744C162.284 81.7744 162.316 81.7637 162.348 81.7637C162.358 81.7637 162.368 81.7637 162.379 81.7637C162.422 81.7637 162.465 81.753 162.518 81.753C162.561 81.753 162.614 81.753 162.667 81.753C162.72 81.753 162.774 81.753 162.827 81.753C162.87 81.753 162.923 81.7637 162.976 81.7637C163.008 81.7637 163.04 81.7744 163.072 81.7744H163.093C163.115 81.7744 163.136 81.7744 163.157 81.7851H163.19C163.211 81.7851 163.232 81.7958 163.253 81.7958C163.296 81.8064 163.349 81.8171 163.402 81.8278C163.413 81.8278 163.435 81.8385 163.445 81.8385C163.477 81.8492 163.509 81.8492 163.541 81.8599C163.551 81.8599 163.573 81.8706 163.583 81.8706H163.594C163.626 81.8813 163.658 81.8912 163.701 81.9019C163.712 81.9126 163.722 81.9126 163.744 81.9126H163.754C163.776 81.9233 163.786 81.9233 163.807 81.934L163.818 81.9447C163.85 81.9554 163.871 81.9661 163.903 81.9874C163.914 81.9981 163.935 81.9981 163.946 82.0088C163.957 82.0195 163.978 82.0195 163.999 82.0302C163.999 82.0302 164.01 82.0302 164.021 82.0409C164.042 82.0516 164.053 82.0623 164.074 82.073L164.085 82.0836C164.095 82.0943 164.105 82.0943 164.116 82.105C164.148 82.1264 164.18 82.1371 164.212 82.1585C164.244 82.1798 164.276 82.2005 164.308 82.2112H164.319C164.351 82.2326 164.383 82.2539 164.414 82.2753C164.425 82.286 164.447 82.2967 164.457 82.3074L164.468 82.3181C164.479 82.3288 164.489 82.3395 164.5 82.3395C164.607 82.425 164.702 82.5098 164.798 82.5953L164.809 82.606C164.809 82.606 164.82 82.6166 164.83 82.6273C164.852 82.6487 164.873 82.6701 164.895 82.6915L164.927 82.7342C164.937 82.7556 164.959 82.7656 164.969 82.787C165.001 82.8297 165.033 82.8618 165.065 82.9045C165.086 82.9366 165.107 82.9687 165.129 83.0007C165.15 83.0328 165.182 83.0748 165.204 83.1069C165.236 83.1603 165.267 83.2138 165.299 83.2672L165.32 83.2993C165.331 83.3207 165.342 83.3314 165.352 83.352C165.427 83.5017 165.491 83.6506 165.545 83.8002C165.555 83.843 165.565 83.8857 165.587 83.9285C165.608 84.024 165.64 84.1202 165.651 84.2264C165.662 84.3012 165.672 84.3867 165.683 84.4829C165.694 84.5784 165.694 84.6639 165.694 84.7494C165.694 84.8128 165.694 84.8876 165.683 84.9518C165.683 85.0159 165.672 85.0693 165.662 85.1221C165.63 85.3786 165.565 85.6237 165.47 85.8688C165.459 85.9009 165.449 85.933 165.427 85.9543L165.417 85.9857C165.395 86.0285 165.384 86.0605 165.363 86.1033C165.342 86.1567 165.31 86.1995 165.278 86.2529C165.193 86.3912 165.107 86.5194 165.011 86.6363C164.99 86.6683 164.959 86.7004 164.937 86.7218C164.83 86.8394 164.713 86.9562 164.607 87.0524C164.596 87.0631 164.585 87.0738 164.575 87.0845L164.564 87.0952C164.553 87.1059 164.532 87.1166 164.521 87.1272C164.468 87.1693 164.404 87.212 164.33 87.2655C164.298 87.2869 164.266 87.3082 164.234 87.3296C164.169 87.3724 164.095 87.4044 164.031 87.4465C163.999 87.4679 163.957 87.4785 163.925 87.4999C163.914 87.5106 163.892 87.5106 163.882 87.5213C163.871 87.532 163.85 87.532 163.839 87.5427C163.808 87.5534 163.786 87.5641 163.754 87.5747L163.712 87.5961C163.647 87.6175 163.573 87.6389 163.488 87.6603C163.467 87.6709 163.435 87.6709 163.413 87.6816C163.392 87.6923 163.36 87.6923 163.338 87.703C163.253 87.6496 163.232 87.6496 163.211 87.6496ZM179.697 81.7316C179.707 81.7316 179.707 81.7316 179.718 81.7316C179.729 81.7316 179.74 81.7316 179.75 81.7316H179.772C179.793 81.7316 179.814 81.7423 179.836 81.7423C179.867 81.753 179.899 81.753 179.931 81.7637C179.963 81.7744 180.006 81.7744 180.038 81.7851C180.07 81.7958 180.102 81.8064 180.134 81.8171C180.145 81.8171 180.155 81.8278 180.165 81.8278H180.176C180.197 81.8385 180.219 81.8385 180.24 81.8492C180.251 81.8492 180.272 81.8599 180.283 81.8706C180.294 81.8813 180.304 81.8813 180.326 81.8813C180.347 81.892 180.368 81.8912 180.39 81.9019H180.4C180.432 81.9126 180.453 81.9233 180.485 81.9447C180.56 81.9768 180.613 81.9981 180.667 82.0302C180.677 82.0409 180.688 82.0409 180.699 82.0516C180.731 82.073 180.762 82.0836 180.794 82.105C180.826 82.1264 180.858 82.1478 180.89 82.1585H180.901C180.933 82.1798 180.965 82.2005 180.997 82.2219C181.05 82.2646 181.114 82.3074 181.178 82.3608C181.242 82.4143 181.317 82.4777 181.391 82.5525C181.402 82.5632 181.412 82.5739 181.423 82.5846L181.434 82.5953C181.445 82.606 181.466 82.6273 181.477 82.638L181.541 82.7128C181.541 82.7128 181.551 82.7235 181.551 82.7342C181.583 82.7763 181.615 82.8083 181.647 82.8511C181.668 82.8831 181.689 82.9152 181.711 82.9473C182.073 83.4589 182.265 84.056 182.265 84.6853C182.265 84.7066 182.265 84.7173 182.265 84.7387C182.265 84.7601 182.265 84.7708 182.265 84.7921C182.265 84.8128 182.265 84.8235 182.265 84.8449C182.265 84.8662 182.265 84.8769 182.265 84.8983C182.265 84.9624 182.254 85.0159 182.244 85.0693C182.233 85.1328 182.222 85.1862 182.222 85.2396C182.159 85.5703 182.041 85.8902 181.871 86.1888C181.786 86.327 181.7 86.4553 181.605 86.5721C181.583 86.6042 181.562 86.6256 181.53 86.6577C181.423 86.7752 181.317 86.8814 181.2 86.9883C181.189 86.999 181.178 87.0097 181.167 87.0204L181.157 87.031C181.146 87.0417 181.125 87.0524 181.114 87.0631C181.05 87.1166 180.987 87.1586 180.922 87.2014C180.89 87.2227 180.858 87.2441 180.826 87.2655C180.752 87.3082 180.688 87.351 180.624 87.3831C180.592 87.4044 180.549 87.4151 180.517 87.4358C180.507 87.4465 180.485 87.4465 180.475 87.4572C180.464 87.4679 180.443 87.4679 180.432 87.4785L180.411 87.4892C180.39 87.4999 180.379 87.4999 180.358 87.5106C180.336 87.5213 180.326 87.5213 180.304 87.532C180.229 87.5641 180.155 87.5854 180.081 87.5961C180.059 87.5961 180.038 87.6068 180.017 87.6068H180.006C179.974 87.6175 179.931 87.6282 179.899 87.6282C179.888 87.6282 179.888 87.6282 179.878 87.6282C179.836 87.6389 179.793 87.6496 179.75 87.6496C179.707 87.6603 179.665 87.6602 179.611 87.6709C179.601 87.6709 179.601 87.6709 179.59 87.6709C179.548 87.6709 179.505 87.6816 179.452 87.6816C179.409 87.6816 179.356 87.6816 179.302 87.6816C179.239 87.6816 179.196 87.6816 179.153 87.6816C179.1 87.6816 179.057 87.6709 179.014 87.6709C179.004 87.6709 178.993 87.6709 178.972 87.6709C178.93 87.6709 178.898 87.6603 178.855 87.6603H178.844C178.78 87.6496 178.727 87.6389 178.685 87.6282H178.674C178.642 87.6175 178.621 87.6175 178.589 87.6068C178.567 87.6068 178.557 87.5961 178.535 87.5961L178.503 87.5854C178.482 87.5747 178.46 87.5747 178.439 87.5641C178.428 87.5641 178.418 87.5641 178.418 87.5534C178.386 87.5427 178.354 87.532 178.322 87.5213L178.301 87.5106C178.301 87.5106 178.301 87.5106 178.29 87.5106L178.269 87.4999C178.258 87.4999 178.258 87.4999 178.247 87.4892H178.237L178.215 87.4785C178.194 87.4679 178.173 87.4679 178.151 87.4572C178.088 87.4358 178.035 87.4044 177.992 87.3831C177.906 87.3403 177.832 87.2976 177.768 87.2548C177.757 87.2548 177.757 87.2441 177.747 87.2441L177.736 87.2334C177.704 87.212 177.672 87.1907 177.629 87.1693C177.587 87.1379 177.544 87.1166 177.512 87.0845C176.745 86.5087 176.308 85.6344 176.308 84.6746C176.308 84.3119 176.372 83.9705 176.489 83.6406C176.5 83.5979 176.521 83.5551 176.532 83.523C176.542 83.5017 176.542 83.4803 176.553 83.4696C176.564 83.4482 176.575 83.4268 176.585 83.4055C176.596 83.3841 176.596 83.3734 176.607 83.352C176.628 83.3207 176.639 83.2779 176.659 83.2458C176.681 83.2031 176.702 83.171 176.723 83.139C176.734 83.1283 176.745 83.1069 176.755 83.0962V83.0855C176.766 83.0641 176.777 83.0435 176.798 83.0221L176.809 83.0007C176.841 82.958 176.862 82.9152 176.894 82.8832C176.947 82.8083 177.011 82.7342 177.075 82.6594C177.107 82.6273 177.139 82.5846 177.171 82.5525C177.203 82.5204 177.235 82.4884 177.277 82.457C177.309 82.425 177.352 82.3929 177.384 82.3608C177.416 82.3288 177.448 82.3074 177.502 82.2753C177.533 82.2539 177.565 82.2219 177.597 82.2005C177.64 82.1798 177.683 82.1371 177.736 82.1157C177.779 82.0836 177.821 82.0623 177.864 82.0409C177.896 82.0195 177.938 81.9981 177.981 81.9874L178.024 81.9661C178.045 81.9554 178.077 81.9447 178.099 81.934L178.13 81.9126C178.173 81.8912 178.215 81.8813 178.258 81.8599C178.312 81.8385 178.354 81.8278 178.397 81.8171C178.428 81.8064 178.471 81.7958 178.503 81.7851C178.525 81.7744 178.557 81.7744 178.578 81.7637H178.589C178.61 81.753 178.631 81.753 178.653 81.753C178.663 81.753 178.685 81.7423 178.695 81.7423H178.705C178.705 81.7423 178.716 81.7423 178.727 81.7423C178.759 81.7316 178.791 81.7316 178.834 81.7209C178.866 81.7103 178.919 81.7103 178.962 81.6996H178.972H178.982C178.993 81.6996 179.004 81.6996 179.004 81.6996H179.014C179.057 81.6996 179.1 81.6889 179.143 81.6889C179.185 81.6889 179.239 81.6889 179.292 81.6889C179.345 81.6889 179.398 81.6889 179.452 81.6889C179.495 81.6889 179.548 81.6996 179.601 81.6996C179.601 81.7209 179.643 81.7316 179.697 81.7316ZM198.485 86.7859L198.464 86.7752C198.464 86.7859 198.453 86.7859 198.442 86.7966L198.432 86.8073C198.421 86.818 198.41 86.8287 198.4 86.8394C198.378 86.8707 198.346 86.8921 198.314 86.9135C198.304 86.9242 198.293 86.9348 198.272 86.9455L198.261 86.9562L198.25 86.9669C198.23 86.9883 198.208 87.0097 198.176 87.031C198.155 87.0524 198.123 87.0738 198.101 87.0952L198.091 87.1059C198.069 87.1166 198.048 87.1379 198.027 87.1479C198.005 87.1586 197.995 87.1693 197.973 87.18C197.962 87.1907 197.952 87.2014 197.942 87.2014L197.931 87.212C197.899 87.2334 197.856 87.2548 197.824 87.2762C197.782 87.2976 197.739 87.3296 197.696 87.351C197.643 87.3831 197.59 87.4044 197.547 87.4258C197.505 87.4465 197.462 87.4679 197.408 87.4892H197.398C197.376 87.4999 197.356 87.5106 197.324 87.5213L197.292 87.532C197.238 87.5534 197.185 87.5641 197.131 87.5854L197.11 87.5961C197.089 87.6068 197.078 87.6068 197.047 87.6175C197.047 87.6175 197.036 87.6175 197.025 87.6175L196.972 87.6282C196.94 87.6389 196.918 87.6389 196.886 87.6496C196.865 87.6496 196.844 87.6603 196.822 87.6603C196.791 87.6709 196.759 87.6709 196.716 87.6816C196.705 87.6816 196.695 87.6816 196.684 87.6816C196.641 87.6923 196.599 87.6923 196.556 87.703C196.556 87.703 196.545 87.703 196.535 87.703C196.502 87.703 196.471 87.7137 196.45 87.7137H196.439C196.418 87.7137 196.407 87.7137 196.386 87.7137H196.375C196.375 87.7137 196.375 87.7137 196.364 87.7137C196.332 87.7137 196.29 87.7137 196.247 87.7137C196.183 87.7137 196.141 87.7137 196.098 87.7137C196.044 87.7137 196.002 87.703 195.948 87.703C195.938 87.703 195.938 87.703 195.927 87.703C195.885 87.703 195.842 87.6923 195.789 87.6816C195.735 87.6709 195.682 87.6603 195.639 87.6603C195.608 87.6496 195.576 87.6496 195.544 87.6389C195.512 87.6282 195.48 87.6282 195.448 87.6175C195.373 87.5961 195.299 87.5747 195.224 87.5427L195.171 87.5213H195.16C195.139 87.5106 195.117 87.4999 195.085 87.4892C195.022 87.4679 194.968 87.4365 194.926 87.4151C194.84 87.3724 194.765 87.3296 194.691 87.2869C194.681 87.2869 194.681 87.2762 194.67 87.2762C194.627 87.2548 194.595 87.2334 194.552 87.2014C194.499 87.1693 194.467 87.1479 194.436 87.1166C194.35 87.0524 194.275 86.999 194.211 86.9348C194.169 86.9028 194.137 86.8707 194.105 86.8394C194.073 86.8073 194.041 86.7752 194.009 86.7325C193.945 86.6577 193.881 86.5828 193.828 86.5087C193.807 86.4767 193.785 86.4446 193.764 86.4232L193.743 86.3912C193.721 86.3591 193.689 86.3163 193.668 86.2736C193.38 85.8047 193.231 85.2717 193.231 84.7173C193.231 84.1629 193.38 83.6299 193.668 83.1603C193.689 83.1283 193.711 83.0855 193.743 83.0435C193.775 83.0007 193.796 82.958 193.828 82.9259C193.86 82.8832 193.892 82.8404 193.913 82.8083C193.934 82.7763 193.966 82.7449 194.009 82.7022C194.041 82.6701 194.073 82.6273 194.105 82.5953C194.137 82.5632 194.169 82.5311 194.211 82.4991C194.243 82.4677 194.286 82.4357 194.318 82.4036C194.35 82.3715 194.382 82.3501 194.436 82.3181C194.478 82.286 194.51 82.2646 194.552 82.2326C194.585 82.2112 194.627 82.1798 194.67 82.1585C194.713 82.1264 194.755 82.105 194.797 82.0836C194.829 82.0623 194.851 82.0516 194.883 82.0409L194.947 82.0088C194.979 81.9981 195 81.9874 195.032 81.9768L195.064 81.9661C195.107 81.9447 195.16 81.9233 195.203 81.9126C195.256 81.8912 195.299 81.8813 195.341 81.8706C195.373 81.8599 195.416 81.8492 195.448 81.8385C195.469 81.8278 195.501 81.8278 195.522 81.8171C195.555 81.8064 195.587 81.7958 195.629 81.7958C195.671 81.7851 195.725 81.7744 195.778 81.7744H195.789C195.832 81.7637 195.874 81.7637 195.927 81.753C195.927 81.753 195.938 81.753 195.948 81.753C195.991 81.753 196.034 81.7423 196.087 81.7423C196.13 81.7423 196.183 81.7423 196.236 81.7423C196.279 81.7423 196.322 81.7423 196.375 81.7423C196.386 81.7423 196.407 81.7423 196.418 81.7423C196.46 81.7423 196.502 81.753 196.545 81.753C196.599 81.753 196.641 81.7637 196.695 81.7744C196.748 81.7851 196.801 81.7958 196.844 81.7958C196.886 81.8064 196.929 81.8171 196.972 81.8278C197.068 81.8492 197.163 81.8813 197.249 81.9126C197.26 81.9126 197.281 81.9233 197.292 81.9233L197.302 81.934C197.334 81.9447 197.376 81.9661 197.419 81.9768C197.451 81.9874 197.472 81.9981 197.494 82.0088L197.537 82.0302C197.569 82.0516 197.611 82.0623 197.643 82.0836C197.717 82.1264 197.792 82.1692 197.867 82.2219C197.888 82.2326 197.91 82.2433 197.931 82.2646C197.952 82.2753 197.973 82.2967 198.005 82.3181C198.016 82.3288 198.027 82.3395 198.037 82.3395L198.069 82.3608C198.091 82.3822 198.123 82.4036 198.144 82.425C198.165 82.4463 198.197 82.4677 198.219 82.4884L198.23 82.4991L198.24 82.5098C198.25 82.5205 198.261 82.5311 198.282 82.5418C198.314 82.5632 198.336 82.5953 198.368 82.6166C198.4 82.6487 198.432 82.6808 198.464 82.7235C198.496 82.7556 198.528 82.7976 198.559 82.8297C198.623 82.9045 198.677 82.9793 198.73 83.0641C198.752 83.0962 198.773 83.1283 198.794 83.171C198.805 83.1924 198.816 83.2138 198.836 83.2352C198.847 83.2458 198.847 83.2565 198.858 83.2672C198.868 83.2993 198.89 83.3207 198.9 83.352C198.911 83.3734 198.922 83.4055 198.932 83.4268C198.943 83.4482 198.954 83.4589 198.965 83.4803L198.975 83.5017C198.997 83.5444 199.018 83.5979 199.039 83.6506C199.05 83.6827 199.061 83.7147 199.082 83.7575C199.093 83.7895 199.103 83.8323 199.114 83.8644C199.145 83.9599 199.167 84.056 199.188 84.1522C199.199 84.2057 199.21 84.2477 199.21 84.2905V84.3012C199.22 84.3332 199.22 84.376 199.22 84.4081V84.4188C199.22 84.4401 199.22 84.4508 199.22 84.4722L199.135 84.5142H199.188L199.177 84.5249H199.22C199.22 84.5356 199.22 84.5463 199.22 84.557L199.21 84.5677L199.188 84.5997H199.22V84.6532C199.22 84.6853 199.22 84.7173 199.22 84.7601C199.22 84.8028 199.22 84.8235 199.22 84.8662V84.9197H199.177L199.21 84.9518L199.22 84.9624C199.22 84.9731 199.22 84.9838 199.22 84.9945H199.124L199.188 85.0266L199.199 85.0373L199.22 85.0586V85.0693C199.22 85.0907 199.22 85.1014 199.22 85.1221V85.1327C199.22 85.1755 199.21 85.2076 199.21 85.2503V85.261C199.199 85.3038 199.199 85.3465 199.188 85.3993C199.167 85.4954 199.145 85.5916 199.114 85.6871C199.103 85.7192 199.093 85.7513 199.082 85.7833C199.082 85.7833 199.082 85.7833 199.082 85.794C199.071 85.8154 199.071 85.8368 199.061 85.8581C199.05 85.8902 199.039 85.9116 199.029 85.9437C199.018 85.9757 199.007 85.9964 198.997 86.0285C198.975 86.0819 198.943 86.1353 198.911 86.1888C198.9 86.2102 198.89 86.2422 198.868 86.2636V86.2736C198.836 86.327 198.816 86.3805 198.773 86.4339C198.762 86.4553 198.752 86.466 198.741 86.4874L198.73 86.5087C198.72 86.5301 198.709 86.5408 198.687 86.5622C198.677 86.5828 198.655 86.6042 198.645 86.6149L198.634 86.6256C198.613 86.647 198.591 86.679 198.57 86.7004C198.539 86.7432 198.507 86.7752 198.485 86.7966C198.475 86.8073 198.453 86.8287 198.442 86.8501L198.485 86.7859Z" fill="#FF5975"/>
<path d="M219.798 54.1475L218.882 52.2602C218.456 51.3645 218.061 50.5436 217.689 49.7332C216.858 47.9312 216.111 46.2572 215.408 44.6258C214.108 41.5976 211.827 35.3493 211.806 35.296C211.657 34.8589 211.433 34.1871 211.422 34.1551C211.209 33.43 210.761 31.9799 210.761 31.9586C210.751 31.9373 210.037 29.4529 209.866 28.7279C209.365 26.67 209.035 24.8466 208.843 23.1194C208.492 19.9632 208.247 16.6045 208.118 13.1391V13.1178L208.108 13.0965C208.055 12.9685 208.034 12.8299 208.034 12.7019C208.034 12.606 208.055 12.51 208.087 12.3928V12.3714V12.3501C208.087 12.2755 208.087 12.2115 208.076 12.1369C208.076 12.0622 208.066 11.9982 208.066 11.9236C208.034 10.7081 208.012 9.46051 208.012 8.213V8.14901L207.959 8.11702C202.258 5.01423 195.245 5.20615 189.202 8.62886L188.957 8.76746C186.198 10.3348 183.586 11.817 180.24 11.5824C177.384 11.3798 174.72 10.0257 172.727 7.77584C172.343 7.33867 171.917 7.07211 171.448 6.95482L171.32 6.92283V7.29599C171.32 7.89313 171.32 8.50088 171.32 9.10864V9.6311V9.88706L171.31 10.1749C171.31 10.5268 171.278 10.868 171.235 11.2305L171.225 11.3265C171.128 12.0516 170.969 12.7872 170.755 13.5337C170.564 14.1841 170.319 14.8665 169.999 15.6129C169.668 16.3592 169.349 17.0097 169.04 17.5747C167.814 19.8139 166.248 22.0318 164.095 24.5588C162.368 26.574 160.45 28.5679 158.223 30.6471L157.445 31.3615L153.065 35.1681L152.745 35.4666C152.66 35.5306 152.586 35.6159 152.522 35.6905C152.49 35.7225 152.468 35.7545 152.436 35.7758C152.319 35.8825 152.223 36.0104 152.148 36.117C150.656 37.9297 150.379 40.6593 151.456 42.7598C151.978 43.8154 152.799 44.6898 153.821 45.2975C154.823 45.8947 156.017 46.1932 157.189 46.1612C157.775 46.1399 158.362 46.0333 158.905 45.852C159.171 45.7667 159.438 45.6601 159.715 45.5214C159.854 45.4468 159.97 45.3935 160.109 45.3082L163.967 43.101L164.212 42.9731C164.745 42.6959 165.47 42.3334 166.248 42.0454L166.78 41.8535L167.345 41.6936C167.505 41.6402 167.676 41.5976 167.921 41.5656C167.985 41.555 168.049 41.5443 168.112 41.523C168.251 41.491 168.379 41.4697 168.517 41.459C169.466 41.3311 170.383 41.4483 171.15 41.7895C171.203 41.8215 171.257 41.8428 171.31 41.8748C171.47 41.9601 171.64 42.0455 171.779 42.1414C171.832 42.1841 171.896 42.2267 171.949 42.2694C172.088 42.3654 172.226 42.472 172.333 42.5893C172.365 42.6319 172.407 42.6639 172.44 42.7065C172.567 42.8451 172.695 42.9731 172.791 43.1117C172.94 43.3036 173.068 43.4849 173.164 43.6662C173.633 44.4872 173.857 45.3188 174.006 45.948C174.177 46.7157 174.261 47.4727 174.325 48.1658C174.443 49.6586 174.432 51.1087 174.4 52.4521C174.39 53.0066 174.368 53.5717 174.357 54.1155C174.336 54.9365 174.304 55.7896 174.304 56.6106L174.187 62.8802C174.177 63.1894 174.187 63.4133 174.198 63.6479L174.209 63.8078L174.261 64.2237C174.272 64.309 174.293 64.3943 174.315 64.4795C174.325 64.5328 174.336 64.5862 174.357 64.6501C174.496 65.2046 174.72 65.7377 175.029 66.2282C175.338 66.7081 175.721 67.1345 176.169 67.5077C176.649 67.9023 177.15 68.2008 177.64 68.3821C178.162 68.5847 178.716 68.7126 179.334 68.7553C179.441 68.7659 179.547 68.7659 179.654 68.7659C179.835 68.7659 180.006 68.7553 180.176 68.7446C180.464 68.7126 180.752 68.6593 181.018 68.5953C181.551 68.4567 182.084 68.2221 182.595 67.9023C183.576 67.2732 184.332 66.3349 184.727 65.258C184.929 64.7248 185.046 64.1704 185.078 63.5626L185.185 61.4834L186.059 44.8071C186.08 44.3699 186.347 43.9967 186.73 43.8581C187.029 43.7515 187.349 43.7621 187.615 43.9007C187.881 44.0393 188.073 44.2739 188.158 44.5512L192.144 58.018L193.956 63.9251L194.073 64.2983L194.095 64.3623C194.126 64.4582 194.158 64.5542 194.201 64.6395C194.585 65.5458 195.203 66.3242 196.002 66.9C196.79 67.4758 197.75 67.8277 198.709 67.9129C199.646 67.9982 200.637 67.817 201.554 67.3798C202.449 66.9319 203.195 66.2602 203.707 65.4499C203.973 65.0554 204.176 64.6075 204.325 64.1277C204.485 63.6159 204.56 63.1361 204.56 62.6989C204.581 62.2404 204.527 61.7606 204.399 61.2381L203.984 59.5321L200.659 45.916V45.8947C200.552 45.4681 200.702 45.031 201.032 44.7964C201.288 44.6045 201.597 44.5298 201.885 44.5832C202.172 44.6365 202.439 44.8071 202.598 45.0416L208.779 54.2755L211.86 58.8817C212.691 60.1079 214.183 60.8969 215.653 60.8862C216.399 60.8862 217.145 60.7157 217.795 60.3745C218.477 60.0226 219.053 59.5215 219.458 58.935C219.884 58.3273 220.161 57.6128 220.268 56.8772C220.363 56.1307 220.289 55.363 220.033 54.6913C219.959 54.4887 219.895 54.3394 219.798 54.1475Z" fill="#59ADFF"/>
<path d="M49.448 53.4332C49.6718 53.4865 49.9062 53.5078 50.1407 53.5078C51.5687 53.5078 52.7942 52.5269 53.1246 51.1301C53.3057 50.3304 53.1672 49.5093 52.741 48.8163C52.304 48.1232 51.6326 47.6434 50.8334 47.4621L9.16481 37.8658C8.36551 37.6845 7.54492 37.8232 6.85225 38.2497C6.15955 38.6868 5.67999 39.3586 5.49882 40.1583C5.31765 40.958 5.4562 41.779 5.88247 42.472C6.3194 43.1652 6.99079 43.6449 7.79006 43.8262L49.448 53.4332Z" fill="#59ADFF"/>
<path d="M53.5935 84.5997C54.0304 83.9071 54.169 83.0862 53.9771 82.286C53.7959 81.4865 53.3164 80.8145 52.6237 80.3777C51.931 79.9402 51.1104 79.802 50.3112 79.9937L9.55907 89.3768C8.75985 89.5585 8.08846 90.0381 7.65153 90.7307C7.2146 91.4241 7.07604 92.245 7.26787 93.0452C7.58757 94.4418 8.81312 95.4223 10.2518 95.4223C10.4863 95.4223 10.7101 95.4009 10.9445 95.3482L51.6965 85.965C52.4851 85.7726 53.1672 85.2931 53.5935 84.5997Z" fill="#59ADFF"/>
<path d="M286.511 40.1687C286.33 39.369 285.85 38.6972 285.158 38.2601C284.465 37.8229 283.644 37.6843 282.845 37.8763L241.177 47.4726C240.377 47.6539 239.706 48.1337 239.269 48.8268C238.832 49.5198 238.694 50.3409 238.885 51.1405C239.205 52.5373 240.431 53.5183 241.869 53.5183C242.104 53.5183 242.328 53.497 242.562 53.4436L284.231 43.8473C285.03 43.666 285.701 43.1862 286.138 42.4931C286.564 41.7895 286.703 40.9684 286.511 40.1687Z" fill="#59ADFF"/>
<path d="M282.43 89.3661L241.678 79.9829C240.878 79.802 240.057 79.9402 239.365 80.367C238.672 80.8038 238.193 81.4758 238.011 82.2753C237.83 83.0748 237.969 83.8957 238.395 84.589C238.821 85.2824 239.503 85.7619 240.302 85.9429L281.055 95.3261C281.279 95.3795 281.513 95.4009 281.747 95.4009C283.175 95.4009 284.401 94.4197 284.731 93.0231C284.912 92.2236 284.774 91.4027 284.347 90.7093C283.9 90.0374 283.229 89.5471 282.43 89.3661Z" fill="#59ADFF"/>
<path d="M139.542 35.8186C139.51 35.7866 139.467 35.744 139.435 35.712C139.371 35.6374 139.307 35.5734 139.233 35.5094L138.902 35.2108L138.497 34.8696C138.018 34.4751 137.506 34.0379 136.888 33.5048C135.812 32.5771 134.757 31.6282 133.755 30.6792C131.517 28.5787 129.599 26.5848 127.883 24.5802C125.73 22.0532 124.164 19.8354 122.938 17.5962C122.181 16.1888 121.617 14.8666 121.223 13.5551C121.052 12.9579 120.86 12.1689 120.764 11.3373C120.753 11.2733 120.753 11.1987 120.743 11.1347C120.732 11.0174 120.711 10.8894 120.7 10.7721L120.679 10.1857L120.669 9.8978V9.11945C120.669 8.60761 120.669 8.10645 120.669 7.60537V6.97625L120.54 6.99757C120.082 7.07221 119.645 7.34941 119.251 7.78658C117.258 10.0364 114.594 11.3906 111.738 11.5932C108.392 11.8277 105.781 10.3457 103.02 8.7782L102.775 8.6396C96.7332 5.21692 89.7316 5.025 84.0297 8.12783L83.9763 8.15983V8.22374C83.9763 9.43933 83.955 10.6868 83.9229 11.9343L83.9016 12.3715L83.9122 12.3929C83.955 12.5102 83.9657 12.6168 83.9657 12.7128C83.9657 12.8513 83.9336 12.9899 83.8809 13.1179L83.8702 13.1392V13.1605C83.742 16.6152 83.497 19.9633 83.1452 23.1194C82.8895 25.1666 82.5484 27.0006 82.1118 28.7279C82.0157 29.1865 81.76 30.0821 81.76 30.0927L81.2379 31.9481C81.2379 31.9588 80.8007 33.4302 80.5557 34.1446L80.1611 35.3175C80.1397 35.3814 77.8807 41.6191 76.5809 44.6365C75.7918 46.4919 74.95 48.3471 74.3104 49.744L74.2677 49.8399C73.8952 50.6396 73.5113 51.4607 73.1168 52.271L72.51 53.5292L72.2009 54.1582C72.0941 54.3715 72.03 54.5101 71.9659 54.6807C71.7102 55.3631 71.6361 56.1202 71.7316 56.8666C71.8384 57.6023 72.1154 58.3167 72.5413 58.9244C72.9466 59.5109 73.522 60.0121 74.2043 60.3639C74.9179 60.7158 75.6536 60.8971 76.3459 60.8757C77.8379 60.8864 79.2872 60.1186 80.1397 58.8711L83.22 54.2649L89.3904 45.0418L89.4011 45.0311C89.6461 44.6685 90.072 44.4766 90.4666 44.5619C90.7757 44.6259 91.042 44.7965 91.2016 45.0524C91.3511 45.2977 91.4045 45.5962 91.3404 45.8734L87.5893 61.2276C87.4611 61.75 87.4077 62.2192 87.4291 62.6883C87.4291 63.1362 87.5038 63.6054 87.6641 64.1278C87.7168 64.3304 87.7916 64.5117 87.877 64.693L87.9304 64.8209C87.9518 64.8742 87.9831 64.9168 88.0045 64.9701C88.09 65.1301 88.1754 65.3007 88.2816 65.4606C88.7936 66.271 89.5393 66.9427 90.4345 67.3905C90.8932 67.6038 91.3618 67.7637 91.8197 67.849C92.3952 67.945 92.8538 67.9663 93.2691 67.9237C94.2498 67.849 95.1877 67.4972 95.9868 66.9214C96.4241 66.5908 96.7645 66.271 97.0416 65.9192C97.3827 65.482 97.617 65.0767 97.7879 64.6716C97.8307 64.597 97.852 64.5223 97.8734 64.4477C97.8841 64.405 97.9054 64.3624 97.9154 64.3197C97.9261 64.2877 97.9368 64.2451 97.9475 64.2131C97.9795 64.1385 98.0009 64.0531 98.0329 63.9465L99.7806 58.0608L103.766 44.5939V44.5832C103.884 44.1674 104.235 43.8582 104.64 43.8156C104.96 43.7836 105.258 43.8689 105.493 44.0715C105.717 44.2634 105.855 44.5406 105.866 44.8391L106.686 60.5238V60.5345C106.697 60.5985 106.697 60.6411 106.697 60.6838V60.6944L106.857 63.584C106.889 64.1918 107.006 64.7463 107.209 65.2793C107.613 66.3563 108.37 67.3053 109.34 67.9343C110.224 68.4995 111.248 68.8087 112.26 68.8087C112.377 68.8087 112.505 68.8087 112.622 68.798C113.73 68.7553 114.86 68.3182 115.777 67.5611C116.214 67.1987 116.597 66.7615 116.906 66.271C117.194 65.8338 117.418 65.3113 117.578 64.693C117.588 64.6396 117.599 64.597 117.61 64.5437C117.631 64.4584 117.652 64.3624 117.663 64.2771L117.727 63.8505C117.727 63.7759 117.738 63.7013 117.738 63.6267C117.738 63.5627 117.738 63.4987 117.749 63.4348C117.759 63.3175 117.749 63.1788 117.749 63.0295L117.706 60.8437L117.62 56.6746C117.61 55.811 117.588 54.9367 117.556 54.0836C117.546 53.5612 117.524 53.0387 117.514 52.5163C117.482 51.1621 117.471 49.712 117.588 48.2298C117.663 47.3875 117.759 46.6838 117.908 46.012C118.1 45.1164 118.366 44.3913 118.75 43.7302C118.814 43.6023 118.91 43.4743 118.995 43.3464C119.038 43.293 119.08 43.2291 119.112 43.1758C119.198 43.0479 119.315 42.9306 119.432 42.8026C119.486 42.7493 119.528 42.696 119.57 42.6533C119.752 42.4827 119.954 42.3334 120.125 42.1948C120.178 42.1628 120.231 42.1308 120.285 42.0988C120.434 42.0029 120.594 41.9176 120.753 41.843C121.734 41.4058 122.735 41.4165 123.396 41.5018C123.525 41.5124 123.652 41.5338 123.78 41.5658C123.855 41.5764 123.929 41.5978 124.004 41.6084L124.292 41.6617L125.144 41.8963L125.687 42.0882C126.316 42.3228 126.945 42.6107 127.723 43.0159L127.969 43.1438L131.379 45.0951L131.847 45.3616C131.997 45.4469 132.103 45.5002 132.231 45.5749C132.497 45.7135 132.764 45.8201 133.041 45.9054C133.584 46.0867 134.17 46.1933 134.767 46.2146C135.94 46.2466 137.133 45.9481 138.125 45.351C139.137 44.7538 139.957 43.8795 140.49 42.8133C141.577 40.7234 141.3 37.9938 139.808 36.1811C139.723 36.0211 139.638 35.9039 139.542 35.8186Z" fill="#FFD500"/>
<path d="M53.9879 66.6122C53.9879 64.9275 52.6132 63.5521 50.9294 63.5521H3.05854C1.37474 63.5521 0 64.9275 0 66.6122C0 68.297 1.37474 69.6724 3.05854 69.6724H50.9401C52.6239 69.6724 53.9879 68.297 53.9879 66.6122Z" fill="#FFD500"/>
<path d="M22.0067 19.9098L52.5813 34.7734C53.0077 34.976 53.4552 35.0826 53.9135 35.0826C55.0964 35.0826 56.1514 34.4216 56.6629 33.3553C57.0253 32.6196 57.068 31.7879 56.8015 31.0202C56.5351 30.2525 55.9809 29.6234 55.2456 29.2715L24.6815 14.4078C23.1683 13.6721 21.3247 14.3012 20.5893 15.8259C20.227 16.5617 20.1844 17.3934 20.4507 18.161C20.7278 18.9288 21.2713 19.5579 22.0067 19.9098Z" fill="#FFD500"/>
<path d="M58.2188 97.4268C57.4515 97.1603 56.6203 97.2137 55.885 97.5657L24.7667 112.696C24.0314 113.059 23.4772 113.677 23.2108 114.445C22.9444 115.212 22.9977 116.044 23.3494 116.78C23.8609 117.846 24.9266 118.507 26.0988 118.507C26.5677 118.507 27.0153 118.4 27.431 118.198L58.5492 103.068C60.0625 102.331 60.7019 100.498 59.9665 98.9731C59.6149 98.237 58.9861 97.6933 58.2188 97.4268Z" fill="#FFD500"/>
<path d="M288.941 63.5521H241.06C239.376 63.5521 238.001 64.9275 238.001 66.6122C238.001 68.297 239.376 69.6724 241.06 69.6724H288.941C290.625 69.6724 292 68.297 292 66.6122C292 64.9275 290.636 63.5521 288.941 63.5521Z" fill="#FFD500"/>
<path d="M238.086 35.0829C238.555 35.0829 239.003 34.9763 239.419 34.7737L269.993 19.91C270.728 19.5476 271.282 18.9291 271.549 18.1614C271.816 17.3937 271.762 16.562 271.41 15.8263C271.048 15.0905 270.43 14.5361 269.663 14.2695C268.896 14.0029 268.064 14.0563 267.329 14.4081L236.744 29.2718C236.008 29.6343 235.454 30.2528 235.188 31.0205C234.921 31.7882 234.975 32.6199 235.326 33.3556C235.848 34.4218 236.903 35.0829 238.086 35.0829Z" fill="#FFD500"/>
<path d="M267.233 112.696L236.115 97.5658C235.38 97.2031 234.548 97.1603 233.781 97.4268C233.014 97.6933 232.385 98.2484 232.033 98.9838C231.671 99.7192 231.628 100.551 231.895 101.319C232.161 102.086 232.715 102.716 233.45 103.068L264.569 118.198C264.995 118.401 265.443 118.507 265.901 118.507C267.084 118.507 268.139 117.846 268.651 116.78C269.013 116.044 269.055 115.212 268.789 114.445C268.523 113.666 267.968 113.048 267.233 112.696Z" fill="#FFD500"/>
<path d="M290.092 62.4226C285.914 62.0067 281.747 62.1027 277.57 62.06C273.382 62.0281 269.193 62.0387 265.016 62.0281L254.593 62.0814C253.507 62.092 252.633 61.207 252.633 60.1301C252.633 60.1194 252.633 60.1194 252.633 60.1088C252.643 59.0318 252.633 57.9656 252.611 56.8886C252.569 54.7455 252.505 52.5917 252.292 50.4484C252.249 50.0006 251.866 49.6381 251.375 49.6487C250.917 49.6594 250.555 50.0326 250.512 50.4911C250.299 52.6236 250.235 54.7561 250.203 56.8886C250.182 57.9656 250.171 59.0318 250.182 60.1088C250.182 60.1301 250.182 60.1407 250.182 60.1621C250.182 61.239 249.318 62.1134 248.242 62.1134C245.461 62.124 242.679 62.1667 239.898 62.4226C239.45 62.4652 239.077 62.849 239.088 63.3396C239.098 63.798 239.482 64.1605 239.941 64.2032C244.118 64.5764 248.285 64.4805 252.462 64.5231L265.027 64.5871C269.215 64.5764 273.403 64.5871 277.581 64.5551C281.769 64.5124 285.957 64.6084 290.145 64.1925C290.593 64.1499 290.955 63.766 290.945 63.2756C290.923 62.8384 290.539 62.4759 290.092 62.4226Z" fill="#131344"/>
<path d="M252.622 41.3849C252.622 41.0117 252.633 40.6279 252.633 40.244C252.643 38.9538 252.623 37.6529 252.601 36.3628C252.591 35.0726 252.569 33.7718 252.516 32.4816C252.462 31.1915 252.398 29.8906 252.292 28.6004C252.25 28.1419 251.866 27.7687 251.376 27.7901C250.917 27.8007 250.555 28.1846 250.513 28.6431C250.406 29.9226 250.342 31.2128 250.289 32.4923C250.235 33.7825 250.214 35.0833 250.203 36.3734C250.193 37.6636 250.161 38.9645 250.182 40.2546C250.182 40.8411 250.182 41.4169 250.193 42.0034C250.203 43.1016 249.457 44.0505 248.392 44.3065C245.6 44.9675 242.807 45.65 240.058 46.5349C239.61 46.6842 239.333 47.164 239.482 47.6438C239.61 48.0704 240.058 48.3156 240.495 48.2516C244.225 47.7185 247.87 46.8548 251.535 46.0338L262.554 43.5494L273.553 40.9691C277.218 40.0947 280.895 39.3057 284.486 38.1221C284.934 37.9728 285.211 37.493 285.062 37.0132C284.934 36.5867 284.497 36.3415 284.05 36.4054C280.32 36.9173 276.675 37.8129 273.009 38.6233L261.99 41.1077L254.487 42.867C253.528 43.0803 252.612 42.3552 252.622 41.3849Z" fill="#131344"/>
<path d="M284.466 88.5239C283.655 88.2046 282.824 87.9481 281.993 87.7137C281.162 87.4792 280.32 87.2662 279.478 87.0738C278.636 86.8821 277.795 86.7011 276.941 86.5621C276.089 86.4132 275.236 86.285 274.373 86.1994C273.979 86.1674 273.606 86.3918 273.457 86.7752C273.276 87.2448 273.51 87.7564 273.969 87.9267C274.778 88.236 275.61 88.4925 276.441 88.7269C277.272 88.9614 278.103 89.1744 278.945 89.3775C279.787 89.5692 280.629 89.7502 281.482 89.8998C282.334 90.0488 283.187 90.1877 284.06 90.2519C284.444 90.2832 284.817 90.0595 284.966 89.6861C285.158 89.2172 284.934 88.7056 284.466 88.5239Z" fill="#131344"/>
<path d="M269.013 112.216C266.413 110.628 263.674 109.295 260.956 107.952C259.144 107.045 256.097 105.552 254.221 104.635C253.241 104.156 252.612 103.153 252.623 102.055C252.623 101.575 252.633 101.085 252.633 100.605C252.644 99.251 252.612 97.8964 252.601 96.5425C252.591 95.1886 252.559 93.834 252.505 92.4801C252.452 91.1262 252.388 89.7716 252.292 88.4177C252.26 87.9595 251.866 87.5862 251.376 87.5968C250.918 87.6075 250.555 88.0016 250.512 88.4605C250.406 89.8037 250.352 91.1369 250.3 92.4801C250.257 93.834 250.214 95.1886 250.203 96.5425C250.193 97.8964 250.161 99.251 250.171 100.605C250.171 100.669 250.171 100.733 250.171 100.808C250.171 101.672 249.276 102.237 248.498 101.863C247.166 101.223 245.823 100.573 244.492 99.9436C241.731 98.6432 239.013 97.2572 236.125 96.2333C235.689 96.0843 235.187 96.276 234.996 96.7449C234.826 97.1503 235.007 97.6085 235.369 97.8437C237.948 99.4854 240.708 100.755 243.425 102.119C246.154 103.473 248.903 104.817 251.642 106.16C254.392 107.483 257.13 108.815 259.891 110.116C262.64 111.427 265.39 112.761 268.256 113.827C268.683 113.986 269.173 113.805 269.386 113.358C269.578 112.942 269.396 112.451 269.013 112.216Z" fill="#131344"/>
<path d="M263.343 17.17C263.877 17.0527 264.377 16.8821 264.878 16.6902C265.368 16.4983 265.848 16.2851 266.327 16.0505C266.797 15.8159 267.265 15.5706 267.723 15.2934C268.182 15.0269 268.629 14.739 269.045 14.4084C269.312 14.1951 269.45 13.8433 269.365 13.4808C269.247 12.9903 268.757 12.6918 268.267 12.809C267.745 12.937 267.244 13.1076 266.743 13.2995C266.253 13.4915 265.763 13.7047 265.294 13.9286C264.814 14.1525 264.345 14.3977 263.897 14.675C263.44 14.9416 262.992 15.2294 262.576 15.5813C262.321 15.7945 262.192 16.1358 262.267 16.477C262.374 16.9568 262.853 17.2767 263.343 17.17Z" fill="#131344"/>
<path d="M248.743 80.1006C248.221 79.9837 247.699 79.8768 247.187 79.7699C246.068 79.5248 244.939 79.2904 243.819 79.0666C242.7 78.8422 241.571 78.6077 240.452 78.3947C239.983 78.2985 239.503 78.6184 239.419 79.1094C239.333 79.5782 239.653 80.0151 240.1 80.1433C241.198 80.4312 242.285 80.7191 243.383 80.9963C244.491 81.2842 245.599 81.5613 246.719 81.8385C248.104 82.1799 249.489 82.5212 250.874 82.8625C251.024 82.9366 251.183 82.9901 251.365 82.9901C251.376 82.9901 251.386 82.9901 251.407 82.9901C252.068 83.1504 252.74 83.3207 253.4 83.4703L260.093 85.0373C262.331 85.5489 264.568 86.0185 266.86 86.2957C267.307 86.3491 267.744 86.0613 267.84 85.581C267.936 85.1335 267.649 84.696 267.222 84.5577C265.059 83.8109 262.842 83.2566 260.615 82.7342L253.901 81.22H253.89C253.144 81.0497 252.601 80.3884 252.611 79.621C252.611 79.3224 252.611 79.0239 252.611 78.7253C252.622 77.6799 252.601 76.646 252.579 75.6121C252.558 74.5667 252.527 73.5328 252.484 72.4981C252.43 71.4535 252.366 70.419 252.27 69.3847C252.228 68.9369 251.844 68.5744 251.354 68.5851C250.906 68.5958 250.533 68.9689 250.491 69.4274C250.395 70.451 250.342 71.4855 250.277 72.5088C250.235 73.5434 250.203 74.5881 250.182 75.622C250.161 76.6567 250.15 77.7013 250.15 78.736C250.15 78.8108 250.15 78.8849 250.15 78.9597C250.182 79.6851 249.489 80.2502 248.743 80.1006Z" fill="#131344"/>
<path d="M22.9977 14.4191C25.6193 15.9759 28.3368 17.3407 31.0544 18.6841L35.1572 20.7207L39.2602 22.7359C41.999 24.0687 44.7485 25.4016 47.5086 26.7024C50.2687 27.9926 52.9863 29.4001 55.885 30.413C56.3112 30.5623 56.8228 30.3704 57.004 29.9012C57.1745 29.496 56.9933 29.0375 56.6309 28.8029C54.052 27.1502 51.2918 25.892 48.5743 24.5273C46.9545 23.7168 45.3346 22.9278 43.7148 22.1282C42.5319 21.5524 41.7859 20.3581 41.7859 19.0466V15.7093C41.7859 14.707 42.5958 13.8966 43.5975 13.8966H78.7973C80.3107 13.8966 81.5043 15.1654 81.4082 16.6795C81.27 18.7481 81.0884 20.806 80.8541 22.8532C80.6839 24.2607 80.4282 25.6682 80.1084 27.0756C79.8734 27.79 79.5857 28.4937 79.0957 28.9949C78.4134 29.6986 77.38 29.8905 76.41 29.9865H71.4652C65.4975 29.9865 60.6592 34.8273 60.6592 40.7983V82.9687C60.6592 88.94 65.4975 93.7805 71.4652 93.7805H220.555C226.524 93.7805 231.362 88.94 231.362 82.9687V40.7983C231.362 34.8273 226.524 29.9865 220.555 29.9865H215.611C214.641 29.8905 213.607 29.6879 212.926 28.9949C212.414 28.4724 212.126 27.7367 211.892 27.001C211.583 25.6255 211.327 24.25 211.178 22.8532C210.932 20.7527 210.751 18.6415 210.613 16.5196C210.517 15.0908 211.657 13.8859 213.085 13.8859H248.36C249.404 13.8859 250.246 14.7283 250.246 15.7732V18.9507C250.246 20.3262 249.446 21.5843 248.2 22.1708C247.699 22.4053 247.187 22.6506 246.687 22.8852L243.82 24.282L240.963 25.7108C239.067 26.6811 237.191 27.6834 235.38 28.8136C234.985 29.0589 234.825 29.5813 235.081 30.0185C235.294 30.4024 235.774 30.5516 236.19 30.3917C238.193 29.6666 240.122 28.8136 242.051 27.9286L244.939 26.5638L247.805 25.167C249.703 24.218 251.599 23.2584 253.496 22.2881C254.445 21.8083 255.383 21.3178 256.32 20.806C257.258 20.3048 258.185 19.793 259.112 19.2599C259.518 19.0253 259.677 18.5135 259.453 18.0764C259.24 17.6711 258.729 17.5112 258.303 17.6818C257.322 18.0764 256.353 18.4816 255.393 18.908C254.946 19.1 254.509 19.2919 254.072 19.4838C253.39 19.793 252.622 19.2919 252.622 18.5455V12.7237C252.622 12.0733 252.089 11.5401 251.44 11.5401H212.946C211.529 11.5401 210.368 10.3993 210.346 8.98115C210.335 8.11751 210.335 7.24318 210.335 6.36882C210.335 4.51353 210.325 2.65823 210.037 0.802936C209.974 0.408422 209.654 0.0778802 209.227 0.0458925C208.759 0.00324212 208.332 0.376433 208.258 0.845591C207.98 2.67956 207.97 4.52419 207.97 6.35816C207.949 8.21342 207.96 10.0901 208.012 11.956C208.012 12.1053 208.023 12.2439 208.023 12.3826C207.991 12.4892 207.97 12.6064 207.97 12.7237C207.97 12.873 208.002 13.0223 208.055 13.1609C208.173 16.4983 208.407 19.825 208.78 23.1411C208.982 25.0497 209.355 26.9263 209.803 28.7603C209.984 29.5067 210.698 32.0017 210.698 32.0017C210.698 32.0017 211.146 33.4625 211.359 34.1982C211.359 34.2089 211.743 35.3498 211.743 35.3498C211.743 35.3498 214.034 41.63 215.344 44.6902C216.08 46.4069 216.847 48.1129 217.625 49.7976C218.019 50.64 218.414 51.4823 218.818 52.3247L219.426 53.5828L219.735 54.2119C219.831 54.4039 219.895 54.5531 219.959 54.7238C220.215 55.3955 220.278 56.1418 220.194 56.8669C220.098 57.5813 219.82 58.2744 219.405 58.8715C218.989 59.4686 218.425 59.9484 217.774 60.2789C217.124 60.6095 216.4 60.7801 215.685 60.7801C214.236 60.7908 212.798 60.023 211.977 58.8181L208.897 54.2119L202.716 44.9781C202.365 44.4556 201.607 44.253 200.989 44.7009C200.617 44.9781 200.467 45.4686 200.574 45.9164V45.9271L203.909 59.5539L204.325 61.2599C204.443 61.7397 204.506 62.2089 204.474 62.6887C204.474 63.1685 204.379 63.6376 204.24 64.0962C204.102 64.5546 203.899 64.9918 203.632 65.397C203.121 66.2073 202.375 66.8578 201.523 67.2842C200.66 67.7001 199.69 67.9027 198.741 67.8068C197.792 67.7321 196.855 67.3802 196.087 66.8151C195.31 66.2606 194.691 65.4823 194.329 64.5973C194.286 64.4907 194.244 64.3734 194.201 64.2561L194.084 63.8829L193.828 63.0406L193.328 61.3559L192.325 57.9865L188.34 44.5196C188.158 43.9119 187.488 43.496 186.773 43.7519C186.337 43.9012 186.06 44.3277 186.028 44.7969V44.8075L185.154 61.4732L185.036 63.5523C185.004 64.1388 184.898 64.6826 184.695 65.2157C184.301 66.2713 183.555 67.1989 182.606 67.8174C182.127 68.1266 181.615 68.3612 181.061 68.4998C180.795 68.5744 180.507 68.6171 180.23 68.6491C179.952 68.6704 179.665 68.6811 179.398 68.6597C178.802 68.6171 178.258 68.4998 177.736 68.2972C177.203 68.1053 176.724 67.7961 176.287 67.4442C175.85 67.0816 175.477 66.6659 175.168 66.186C174.87 65.7062 174.657 65.1837 174.507 64.6399C174.486 64.5014 174.432 64.3628 174.422 64.2241L174.369 63.8083C174.358 63.5203 174.337 63.2752 174.358 62.902L174.401 60.8121L174.475 56.6323C174.486 55.2675 174.55 53.8814 174.582 52.4739C174.614 51.0665 174.625 49.6377 174.507 48.1769C174.443 47.4412 174.358 46.6948 174.187 45.9378C174.017 45.1807 173.772 44.4023 173.335 43.6346C173.239 43.4427 173.1 43.2508 172.962 43.0695C172.834 42.8776 172.653 42.707 172.493 42.5364C172.333 42.3658 172.12 42.2272 171.928 42.0672C171.726 41.9286 171.502 41.8219 171.278 41.7047C170.361 41.2995 169.403 41.2569 168.582 41.3635C168.369 41.3742 168.177 41.4275 167.975 41.4595C167.772 41.4915 167.57 41.5341 167.389 41.5981L166.824 41.758L166.28 41.9499C165.555 42.2165 164.895 42.5364 164.223 42.8882L163.978 43.0162L163.754 43.1441L163.296 43.4L162.39 43.9225L160.579 44.9675L160.131 45.2233C159.982 45.3086 159.875 45.3726 159.737 45.4366C159.481 45.5645 159.215 45.6712 158.938 45.7671C158.394 45.9484 157.829 46.0444 157.243 46.0657C156.092 46.1084 154.93 45.8098 153.94 45.2233C152.948 44.6369 152.128 43.7626 151.616 42.7283C150.55 40.6704 150.817 37.9941 152.287 36.2028C152.373 36.0855 152.469 35.9789 152.575 35.8722C152.671 35.7656 152.767 35.659 152.884 35.563L153.215 35.2645L153.609 34.9233L155.197 33.5371L156.785 32.151L157.584 31.4579L158.362 30.7435C160.418 28.8136 162.39 26.7984 164.234 24.6445C166.078 22.48 167.804 20.1982 169.189 17.6392C169.541 16.9994 169.85 16.3383 170.148 15.6666C170.436 14.9842 170.692 14.2911 170.905 13.5768C171.118 12.8517 171.278 12.116 171.374 11.3483C171.417 10.9644 171.449 10.5805 171.46 10.186L171.47 9.89816V9.64221V9.11975C171.449 6.33683 171.566 3.55389 171.172 0.770949C171.108 0.365771 170.788 0.0352306 170.361 0.00324276C169.882 -0.0394077 169.466 0.344447 169.392 0.813604C169.072 3.12738 169.104 5.44117 169.104 7.75495C168.859 9.09844 168.454 10.5165 167.048 10.9964C166.28 11.263 165.438 11.4016 164.596 11.5082H127.457C126.615 11.3909 125.773 11.263 125.006 10.9964C123.599 10.5165 123.194 9.09844 122.949 7.76564C122.949 5.4305 122.96 3.10606 122.651 0.770949C122.597 0.365771 122.267 0.0352306 121.841 0.00324276C121.361 -0.0394077 120.946 0.344446 120.882 0.824264C120.519 3.58588 120.605 6.35816 120.594 9.11975V9.64221V9.89816L120.605 10.186L120.626 10.7725C120.637 10.9644 120.669 11.1564 120.69 11.3483C120.775 12.116 120.956 12.8517 121.159 13.5768C121.585 15.0162 122.192 16.3596 122.885 17.6392C124.281 20.1982 126.007 22.4906 127.84 24.6445C129.684 26.7984 131.666 28.8136 133.723 30.7435C134.746 31.7032 135.801 32.6415 136.856 33.5691C137.389 34.0276 137.922 34.4861 138.466 34.9339L138.87 35.2752L139.201 35.5737C139.318 35.6696 139.403 35.7763 139.51 35.8829C139.617 35.9789 139.701 36.0962 139.787 36.2134C141.258 38.0047 141.535 40.6811 140.458 42.739C139.936 43.7733 139.126 44.6476 138.135 45.234C137.144 45.8205 135.982 46.1084 134.831 46.0764C134.256 46.0551 133.68 45.9591 133.137 45.7671C132.86 45.6818 132.594 45.5645 132.338 45.4366C132.199 45.3726 132.092 45.3086 131.943 45.2233L131.485 44.9675L129.674 43.9225L128.768 43.4L128.309 43.1441L128.085 43.0162L127.83 42.8882C127.169 42.5364 126.498 42.2165 125.784 41.9499L125.24 41.758L124.675 41.5981L124.388 41.5234L124.089 41.4701C123.887 41.4382 123.695 41.3955 123.482 41.3742C122.651 41.2675 121.691 41.3209 120.785 41.726C120.562 41.8219 120.349 41.9606 120.135 42.0885C119.944 42.2378 119.741 42.3871 119.57 42.5577C119.411 42.7283 119.241 42.8989 119.102 43.0908C118.974 43.2827 118.825 43.464 118.729 43.656C118.292 44.4236 118.047 45.2127 117.876 45.9697C117.717 46.7267 117.62 47.4732 117.556 48.2089C117.45 49.6697 117.461 51.0985 117.482 52.5059C117.514 53.9133 117.578 55.2995 117.588 56.6643L117.663 60.8441L117.706 62.9339C117.706 63.1046 117.717 63.2858 117.706 63.4137C117.695 63.5523 117.695 63.691 117.695 63.8402L117.631 64.2561C117.62 64.3947 117.567 64.5333 117.546 64.6719C117.408 65.2157 117.195 65.7489 116.885 66.218C116.576 66.6872 116.203 67.1243 115.777 67.4869C114.903 68.2013 113.816 68.6491 112.686 68.6917C111.557 68.777 110.417 68.4571 109.468 67.8494C108.519 67.2309 107.774 66.314 107.379 65.2477C107.177 64.7146 107.07 64.1708 107.038 63.5843L106.921 61.5051L106.878 60.7055C106.889 60.6415 106.878 60.5882 106.868 60.5242L106.047 44.8395C106.015 44.1997 105.461 43.6453 104.704 43.7199C104.246 43.7733 103.873 44.1144 103.735 44.5623V44.5729L99.7486 58.0398L98.7473 61.4092L98.2459 63.0939L98.0009 63.9362C97.9582 64.0855 97.9162 64.1921 97.8841 64.2988C97.8414 64.4161 97.8093 64.5333 97.7559 64.6399C97.575 65.0878 97.3193 65.493 97.0316 65.8661C96.7332 66.2393 96.3814 66.5699 95.9975 66.8578C95.2198 67.4229 94.2925 67.7641 93.3439 67.8388C92.8646 67.8814 92.3852 67.8387 91.9159 67.7641C91.4473 67.6681 90.9886 67.5188 90.5627 67.3162C89.7103 66.8898 88.9639 66.2393 88.4525 65.4183C88.3136 65.2157 88.2182 65.0025 88.1007 64.7892C88.0053 64.5653 87.9091 64.3521 87.845 64.1175C87.7068 63.659 87.6214 63.1899 87.6107 62.71C87.5893 62.2302 87.6534 61.7611 87.7702 61.2812L88.1861 59.5752L91.458 45.9058V45.8951C91.6068 45.2766 91.2443 44.5943 90.4986 44.445C90.0407 44.349 89.582 44.5729 89.3157 44.9568L83.1346 54.1906L80.055 58.7862C79.2346 59.991 77.8059 60.7588 76.3459 60.7481C75.6216 60.7695 74.8966 60.5669 74.2471 60.2469C73.6075 59.9164 73.0321 59.4366 72.6268 58.8395C72.2116 58.2424 71.9346 57.5493 71.8384 56.8349C71.7423 56.1205 71.8171 55.3741 72.0727 54.7024C72.1368 54.5212 72.2009 54.3825 72.2964 54.1906L72.6055 53.5615L73.213 52.3033C73.6182 51.4609 74.012 50.6186 74.4066 49.7763C75.1843 48.0809 75.9521 46.3856 76.687 44.6689C77.9982 41.6194 80.268 35.3498 80.268 35.3498L80.6625 34.1982C80.6625 34.1982 80.6732 34.1876 80.6732 34.1769C80.9182 33.4518 81.3548 31.9804 81.3548 31.9804L81.8775 30.1251C81.8775 30.1251 82.1332 29.2188 82.2286 28.7496C82.698 26.9157 83.0284 25.0284 83.2627 23.1305C83.6359 19.8144 83.8596 16.4876 83.987 13.1609C84.0405 13.0223 84.0725 12.873 84.0725 12.713C84.0725 12.5851 84.0511 12.4785 84.0084 12.3612C84.0191 12.2226 84.0191 12.084 84.0298 11.9454C84.0832 10.0794 84.0939 8.20281 84.0725 6.3475C84.0618 5.41984 84.0511 4.4922 83.9977 3.56455C83.955 2.6369 83.8916 1.71992 83.7741 0.781616C83.71 0.333784 83.3268 -0.028745 82.8255 0.00324276C82.3996 0.0245679 82.0477 0.376435 81.9943 0.813604C81.8775 1.73059 81.8134 2.64756 81.7707 3.56455C81.728 4.4922 81.7066 5.41984 81.7066 6.3475C81.7066 7.1685 81.7066 7.98953 81.6959 8.79987C81.6852 10.3033 80.4595 11.5295 78.9575 11.5295H40.603C40.5603 11.5295 40.5177 11.5188 40.4857 11.5188C39.8889 11.5188 39.4307 11.9773 39.4307 12.5958V18.2043C39.4307 19.0466 38.5461 19.6011 37.7895 19.2386L36.2443 18.4922L32.12 16.5196C29.3705 15.1974 26.6104 13.8966 23.7544 12.7983C23.3281 12.6278 22.8272 12.8197 22.6247 13.2675C22.4223 13.694 22.6034 14.1845 22.9977 14.4191ZM197.079 71.4641C197.079 70.675 197.718 70.0886 198.507 70.1525H198.517C199.903 70.2805 201.298 69.9926 202.545 69.3955C203.782 68.777 204.858 67.8281 205.604 66.6552C205.988 66.0794 206.275 65.4397 206.478 64.7785C206.68 64.1175 206.808 63.4244 206.819 62.7313C206.851 62.0383 206.766 61.3345 206.595 60.6842L206.18 58.9781L205.487 56.1205C205.285 55.2995 206.371 54.8304 206.84 55.5341L209.91 60.183L210.037 60.3642C210.89 61.6331 211.348 63.1259 211.348 64.6613V73.0952C211.348 74.1619 210.485 75.0256 209.42 75.0256H199.007C197.942 75.0256 197.079 74.1619 197.079 73.0952V71.4641ZM163.818 47.3666C163.893 47.0573 163.989 46.7587 164.138 46.4709C164.447 45.8524 165.023 45.3833 165.662 44.9781C166.717 44.445 167.847 43.9865 168.859 43.8692C169.413 43.7946 169.893 43.8479 170.255 44.0078C170.617 44.1677 170.915 44.4556 171.161 44.8928C171.417 45.33 171.598 45.8951 171.737 46.4815C171.875 47.0787 171.95 47.729 172.003 48.3795C172.109 49.6803 172.098 51.0452 172.067 52.4206C172.035 53.7961 171.971 55.1929 171.96 56.6003L171.928 58.1358C171.907 59.1807 171.065 60.0123 170.021 60.0123H165.715C164.66 60.0123 163.808 59.1594 163.808 58.1038V47.3666H163.818ZM163.818 64.2988C163.818 63.2432 164.671 62.3901 165.726 62.3901H171.853L171.843 62.87C171.832 63.1899 171.843 63.6483 171.864 64.0428L171.939 64.6613C171.971 64.8638 172.024 65.0664 172.067 65.269C172.269 66.0687 172.6 66.8471 173.036 67.5402C173.484 68.2439 174.038 68.8623 174.678 69.3848C175.317 69.9073 176.031 70.3445 176.809 70.643C177.225 70.8029 177.651 70.9202 178.077 71.0055V73.1273C178.077 74.1833 177.225 75.0363 176.169 75.0363H165.726C164.671 75.0363 163.818 74.1833 163.818 73.1273V64.2988ZM159.545 62.3794C160.6 62.3794 161.453 63.2325 161.453 64.2881V73.1166C161.453 74.1726 160.6 75.0256 159.545 75.0256H149.101C148.046 75.0256 147.194 74.1726 147.194 73.1166V64.2881C147.194 63.2325 148.046 62.3794 149.101 62.3794H159.545ZM138.54 29.6986C136.132 29.2401 134.192 27.5767 132.381 26.0413C132.349 26.0093 132.317 25.9986 132.285 25.9773C131.379 25.039 130.494 24.0794 129.642 23.0985C127.873 21.0406 126.232 18.8547 124.953 16.5303C124.91 16.4556 124.878 16.381 124.835 16.3063C124.398 15.336 124.249 14.2591 125.666 14.0352C126.114 13.9606 126.551 13.9499 126.977 13.9179H165.033C165.459 13.9499 165.897 13.9606 166.344 14.0352C167.761 14.2698 167.612 15.3467 167.164 16.3277C167.122 16.4023 167.09 16.4663 167.058 16.5409C165.779 18.876 164.138 21.0512 162.369 23.1091C161.527 24.0901 160.643 25.0497 159.737 25.988C159.705 26.0093 159.662 26.0306 159.63 26.0626C157.818 27.6087 155.879 29.2721 153.47 29.7199C152.16 29.9652 150.838 29.8265 149.581 30.0078H142.43C141.172 29.8052 139.851 29.9438 138.54 29.6986ZM141.78 32.4602C142.099 32.3962 142.408 32.3749 142.718 32.3536H149.283C149.592 32.3749 149.9 32.3962 150.22 32.4602C151.435 32.7055 150.849 33.889 150.348 34.6567C150.348 34.6673 150.337 34.6673 150.337 34.678C148.77 36.5653 148.163 39.1563 148.59 41.5554C148.622 42.4191 148.973 43.2508 148.899 44.1144C148.856 44.6369 148.525 44.8822 148.089 44.9995H146H143.911C143.474 44.8822 143.144 44.6369 143.101 44.1144C143.027 43.2401 143.389 42.4084 143.421 41.5341C143.836 39.135 143.229 36.5653 141.673 34.678C141.663 34.6673 141.663 34.6567 141.652 34.6567C141.151 33.889 140.575 32.7055 141.78 32.4602ZM130.548 49.7656C130.548 49.723 130.558 49.691 130.558 49.6483C130.632 49.0938 130.612 48.4861 131.24 48.2515C131.581 48.1236 131.975 48.1556 132.338 48.1875C133.105 48.4328 133.893 48.5714 134.704 48.6034C135.514 48.6248 136.323 48.5288 137.101 48.3368C137.155 48.3262 137.208 48.3155 137.261 48.2942C137.346 48.2622 137.442 48.2409 137.528 48.2089C137.624 48.1769 137.719 48.1449 137.815 48.1129C138.775 47.8037 139.755 47.5691 140.757 47.4305C140.959 47.4092 141.161 47.3879 141.354 47.3666H142.909C143.965 47.3666 144.817 48.2195 144.817 49.2751V58.1038C144.817 59.1594 143.965 60.0123 142.909 60.0123H132.465C131.411 60.0123 130.558 59.1594 130.558 58.1038V49.7656H130.548ZM130.548 64.2988C130.548 63.2432 131.4 62.3901 132.455 62.3901H142.898C143.954 62.3901 144.806 63.2432 144.806 64.2988V73.1273C144.806 74.1833 143.954 75.0363 142.898 75.0363H132.455C131.4 75.0363 130.548 74.1833 130.548 73.1273V64.2988ZM120.008 48.3902C120.061 47.7397 120.146 47.1 120.274 46.5028C120.402 45.8951 120.594 45.3406 120.85 44.9035C121.105 44.4663 121.404 44.1677 121.766 44.0185C122.129 43.8586 122.608 43.8053 123.162 43.8692C123.727 43.9438 124.324 44.1144 124.92 44.3383C124.963 44.3703 125.006 44.4023 125.07 44.4343C126.284 45.0315 127.383 45.6178 127.723 47.036C128.021 48.2515 128.085 49.5737 128.203 50.8319V58.1038C128.203 59.1594 127.35 60.0123 126.295 60.0123H121.99C120.946 60.0123 120.104 59.1807 120.083 58.1358L120.05 56.611C120.04 55.2035 119.976 53.7961 119.944 52.4313C119.912 51.0665 119.901 49.7017 120.008 48.3902ZM97.2873 71.0695C97.4789 69.598 98.1398 68.4145 99.0136 67.0817C99.1518 66.8791 99.2693 66.6659 99.3975 66.4526C99.4182 66.4099 99.4502 66.3673 99.4716 66.3246C99.493 66.2926 99.5036 66.2606 99.525 66.2287C99.6532 65.9941 99.7807 65.7595 99.8768 65.5143C99.9516 65.3544 99.9936 65.1944 100.058 65.0345C100.111 64.8745 100.175 64.6932 100.207 64.5653L100.452 63.7229L100.953 62.0383L101.955 58.6689L102.658 56.2911C103.042 55.7474 103.564 55.4061 103.98 56.3018C104.214 56.8029 104.161 57.4853 104.257 58.0291C104.268 58.0611 104.268 58.0825 104.278 58.1144L104.448 61.5798L104.545 63.659C104.577 64.4587 104.736 65.301 105.024 66.0687C105.599 67.6148 106.676 68.969 108.061 69.8753C108.796 70.3658 109.627 70.7176 110.491 70.9309C111.109 71.0802 111.557 71.6237 111.557 72.2636V73.6389C111.557 74.3964 110.939 75.0149 110.182 75.0149H100.751C100.1 74.9828 99.4396 75.0783 98.7793 74.9294C97.543 74.6522 97.4575 73.4472 97.2873 72.3491V71.0695ZM87.5466 51.9408V51.9515C87.5466 51.9515 87.5466 51.9515 87.5359 51.9515L87.5466 51.9408ZM77.6036 35.3925C77.5823 35.4884 77.5502 35.595 77.5289 35.6909C76.5702 38.3779 75.5041 41.0436 74.3852 43.6773C73.6716 45.3726 72.9146 47.0467 72.1475 48.7207C71.753 49.5524 71.3698 50.384 70.9645 51.2157L70.3571 52.4633L70.0586 53.0817C69.9414 53.3056 69.8242 53.5828 69.7283 53.8387C69.334 54.8943 69.2168 56.0566 69.366 57.1762C69.5152 58.2957 69.9414 59.3726 70.5915 60.2896C71.2309 61.2172 72.1261 61.9637 73.1175 62.4861C73.9273 62.8913 74.8225 63.1579 75.7284 63.2325C76.4848 63.3711 77.2518 63.595 77.7212 64.2455C78.1043 64.7679 78.2325 65.4717 78.2966 66.122V76.2092C78.2966 76.2199 78.2966 76.2199 78.2966 76.2199C78.2966 76.5391 78.4241 76.8377 78.6377 77.0514C78.8507 77.2645 79.1491 77.3928 79.4689 77.3928C79.4796 77.3928 79.4796 77.3928 79.4796 77.3928H96.083H96.0937H96.1043H112.708C112.718 77.3928 112.718 77.3928 112.718 77.3928C112.729 77.3928 112.729 77.3928 112.729 77.3928H129.343H129.354H129.365H145.979H145.989H146H162.625H162.635H162.646H179.25H179.26H179.271H195.874C195.885 77.3928 195.885 77.3928 195.885 77.3928C195.896 77.3928 195.896 77.3928 195.896 77.3928H212.499H212.51C212.83 77.3928 213.128 77.2645 213.341 77.0514C213.554 76.8377 213.682 76.5391 213.682 76.2199V76.2092V66.122C213.746 65.461 213.874 64.7679 214.258 64.2455C214.737 63.595 215.494 63.3711 216.261 63.2325C217.167 63.1579 218.062 62.902 218.861 62.4861C219.863 61.9743 220.748 61.2172 221.397 60.2896C222.048 59.362 222.474 58.2851 222.623 57.1762C222.773 56.0566 222.655 54.905 222.261 53.8387C222.165 53.5828 222.048 53.3056 221.931 53.071L221.622 52.4526L221.014 51.2051C220.62 50.3734 220.226 49.5417 219.831 48.7101C219.064 47.036 218.307 45.3619 217.583 43.6666C216.463 41.0329 215.398 38.3779 214.438 35.7016C214.406 35.595 214.375 35.4884 214.354 35.3818C213.884 33.4092 214.886 32.6628 216.495 32.3429H220.503C225.16 32.3429 228.943 36.1281 228.943 40.7877V82.958C228.943 87.6182 225.149 91.4034 220.503 91.4034H71.4118C66.7551 91.4034 62.9718 87.6075 62.9718 82.958V40.7983C62.9718 36.1388 66.7657 32.3536 71.4118 32.3536H75.4193C77.0709 32.6628 78.073 33.4092 77.6036 35.3925Z" fill="#131344"/>
<path d="M224.307 100.851C223.231 100.851 222.368 101.309 221.739 102.237C221.11 103.164 220.79 104.454 220.79 106.128C220.79 107.781 221.1 109.06 221.718 109.999C222.336 110.937 223.21 111.395 224.329 111.395C225.426 111.395 226.279 110.927 226.875 109.988C227.472 109.05 227.76 107.749 227.76 106.075C227.76 104.465 227.451 103.197 226.843 102.258C226.247 101.32 225.394 100.851 224.307 100.851ZM225.203 108.72C225.022 109.221 224.723 109.466 224.307 109.466C223.881 109.466 223.572 109.21 223.38 108.709C223.188 108.207 223.092 107.376 223.092 106.224C223.092 104.849 223.188 103.932 223.38 103.463C223.572 103.004 223.881 102.77 224.297 102.77C224.723 102.77 225.022 103.004 225.213 103.484C225.394 103.964 225.49 104.763 225.49 105.915C225.48 107.29 225.383 108.218 225.203 108.72Z" fill="#131344"/>
<path d="M215.398 100.851C214.322 100.851 213.469 101.309 212.84 102.237C212.211 103.164 211.892 104.454 211.892 106.128C211.892 107.781 212.201 109.06 212.819 109.999C213.437 110.937 214.311 111.395 215.419 111.395C216.528 111.395 217.37 110.927 217.967 109.988C218.553 109.05 218.851 107.749 218.851 106.075C218.851 104.465 218.542 103.197 217.935 102.258C217.338 101.32 216.485 100.851 215.398 100.851ZM216.293 108.72C216.112 109.221 215.814 109.466 215.398 109.466C214.972 109.466 214.663 109.21 214.471 108.709C214.279 108.207 214.183 107.376 214.183 106.224C214.183 104.849 214.279 103.932 214.471 103.463C214.663 103.004 214.972 102.77 215.387 102.77C215.814 102.77 216.123 103.004 216.304 103.484C216.485 103.964 216.581 104.763 216.581 105.915C216.581 107.29 216.485 108.218 216.293 108.72Z" fill="#131344"/>
<path d="M206.5 102.119V110.126C206.5 110.755 207.011 111.267 207.64 111.267C208.268 111.267 208.78 110.755 208.78 110.126V102.119C208.78 101.49 208.268 100.989 207.64 100.989C207.011 100.978 206.5 101.49 206.5 102.119Z" fill="#131344"/>
<path d="M96.605 100.232C93.3546 100.232 90.7116 102.876 90.7116 106.128C90.7116 109.38 93.3546 112.014 96.605 112.014H194.595C197.846 112.014 200.489 109.37 200.489 106.128C200.489 102.876 197.846 100.232 194.595 100.232H96.605ZM198.133 106.117C198.133 108.058 196.557 109.647 194.606 109.647H96.6157C94.6764 109.647 93.0882 108.068 93.0882 106.117C93.0882 104.176 94.6764 102.588 96.6157 102.588H194.606C196.546 102.588 198.133 104.176 198.133 106.117Z" fill="#131344"/>
<path d="M196.28 87.7351C197.951 87.7351 199.306 86.3797 199.306 84.7073C199.306 83.0349 197.951 81.6789 196.28 81.6789C194.608 81.6789 193.253 83.0349 193.253 84.7073C193.253 86.3797 194.608 87.7351 196.28 87.7351Z" fill="#131344"/>
<path d="M179.26 87.7351C180.932 87.7351 182.287 86.3797 182.287 84.7073C182.287 83.0349 180.932 81.6789 179.26 81.6789C177.589 81.6789 176.233 83.0349 176.233 84.7073C176.233 86.3797 177.589 87.7351 179.26 87.7351Z" fill="#131344"/>
<path d="M162.635 87.7351C164.307 87.7351 165.662 86.3797 165.662 84.7073C165.662 83.0349 164.307 81.6789 162.635 81.6789C160.964 81.6789 159.609 83.0349 159.609 84.7073C159.609 86.3797 160.964 87.7351 162.635 87.7351Z" fill="#131344"/>
<path d="M96.7652 87.7351C98.4368 87.7351 99.7913 86.3797 99.7913 84.7073C99.7913 83.0349 98.4368 81.6789 96.7652 81.6789C95.0937 81.6789 93.7384 83.0349 93.7384 84.7073C93.7384 86.3797 95.0937 87.7351 96.7652 87.7351Z" fill="#131344"/>
<path d="M80.1084 100.851C79.0316 100.851 78.1684 101.309 77.5403 102.237C76.9114 103.164 76.5916 104.454 76.5916 106.128C76.5916 107.781 76.9007 109.06 77.5189 109.999C78.1364 110.937 79.0102 111.395 80.1298 111.395C81.2273 111.395 82.0798 110.927 82.6766 109.988C83.2734 109.05 83.5612 107.749 83.5612 106.075C83.5612 104.465 83.2521 103.197 82.6446 102.258C82.0477 101.32 81.1952 100.851 80.1084 100.851ZM81.0037 108.72C80.8221 109.221 80.5236 109.466 80.1084 109.466C79.6818 109.466 79.3727 109.21 79.1812 108.709C78.9896 108.207 78.8934 107.376 78.8934 106.224C78.8934 104.849 78.9896 103.932 79.1812 103.463C79.3727 103.004 79.6818 102.77 80.0978 102.77C80.5236 102.77 80.8221 103.004 81.0143 103.484C81.1952 103.964 81.2914 104.763 81.2914 105.915C81.2807 107.29 81.1846 108.218 81.0037 108.72Z" fill="#131344"/>
<path d="M37.8001 104.667C37.7894 104.667 37.7894 104.678 37.7894 104.678C35.8072 105.67 33.8251 106.682 31.9387 107.877C31.5445 108.122 31.3953 108.645 31.6404 109.082C31.8535 109.455 32.3331 109.604 32.738 109.455C34.8268 108.708 36.8303 107.781 38.8338 106.843C40.8479 105.904 42.8515 104.955 44.855 103.995L47.8495 102.545L50.8335 101.063C52.8264 100.072 54.7872 99.0479 56.6628 97.8223C57.0359 97.5765 57.1957 97.0648 56.9506 96.628C56.7374 96.2546 56.2685 96.0943 55.8636 96.2333C53.7535 96.948 51.7393 97.8643 49.7465 98.8028L46.7412 100.232L43.7466 101.682C43.7147 101.703 43.6827 101.714 43.6507 101.735C42.8195 102.151 41.8497 101.543 41.8497 100.616C41.8497 100.605 41.8497 100.605 41.8497 100.594C41.8604 99.2403 41.8284 97.8857 41.8177 96.5318C41.8071 95.1779 41.7751 93.8233 41.7218 92.4694C41.6685 91.1155 41.6046 89.7609 41.5087 88.407C41.4767 87.9482 41.0824 87.5755 40.5922 87.5862C40.134 87.5969 39.7716 87.9909 39.729 88.4498C39.6224 89.793 39.5691 91.1255 39.5159 92.4694C39.4732 93.8233 39.4306 95.1779 39.4199 96.5318C39.4092 97.8857 39.3773 99.2403 39.3879 100.594C39.3879 101.084 39.3879 101.575 39.3986 102.076C39.3879 103.164 38.7698 104.166 37.8001 104.667Z" fill="#131344"/>
<path d="M31.1608 64.2027C32.898 64.3093 34.635 64.384 36.3721 64.4266C38.1198 64.4799 39.8676 64.5226 41.6153 64.5333C43.363 64.5439 45.1108 64.5119 46.8692 64.4693C47.743 64.448 48.6169 64.416 49.4908 64.3626C50.3646 64.32 51.2385 64.2667 52.1123 64.2027C52.5706 64.1707 52.9436 63.7762 52.9223 63.2857C52.9116 62.8272 52.528 62.4648 52.0698 62.4221C51.2065 62.3581 50.3433 62.3048 49.4908 62.2622C48.6169 62.2195 47.743 62.1875 46.8692 62.1555C45.8354 62.1235 44.8124 62.1022 43.7787 62.0915C42.7023 62.0809 41.8391 61.2066 41.8391 60.119C41.8391 60.1083 41.8391 60.1083 41.8391 60.0976C41.8498 59.0207 41.8391 57.9544 41.8178 56.8775C41.7752 54.7343 41.7112 52.5805 41.4981 50.4373C41.4555 49.9895 41.0718 49.6269 40.5816 49.6376C40.1233 49.6483 39.761 50.0215 39.7184 50.48C39.5052 52.6125 39.4413 54.745 39.4093 56.8775C39.388 57.9544 39.3774 59.0207 39.388 60.0976C39.388 60.1296 39.388 60.1616 39.388 60.1829C39.388 61.2492 38.5461 62.1235 37.4804 62.1555C37.1181 62.1662 36.7451 62.1768 36.3827 62.1875C34.635 62.2408 32.8873 62.3048 31.1289 62.4114C30.66 62.4434 30.2764 62.8379 30.2977 63.3284C30.2977 63.8189 30.6919 64.1707 31.1608 64.2027Z" fill="#131344"/>
<path d="M41.0186 82.948C42.8516 82.5105 44.6845 82.0943 46.5069 81.6255C47.4233 81.4017 48.3292 81.1459 49.235 80.9008C50.1409 80.6549 51.0467 80.3884 51.9525 80.1006C52.4002 79.9623 52.6772 79.4927 52.5494 79.0239C52.4321 78.5757 51.9739 78.3091 51.5156 78.384C50.5992 78.5229 49.6826 78.6718 48.7661 78.8536C47.839 79.0239 46.9118 79.2048 45.9953 79.3972C45.1108 79.5782 44.2369 79.7699 43.3631 79.9623C42.5744 80.1433 41.8285 79.5355 41.8285 78.7253C41.8285 78.7146 41.8285 78.7146 41.8285 78.7146C41.8392 77.67 41.8178 76.6353 41.7965 75.6014C41.7752 74.556 41.7432 73.5221 41.7006 72.4874C41.6367 71.4428 41.5833 70.4084 41.4875 69.3742C41.4448 68.9263 41.0612 68.5638 40.571 68.5744C40.1233 68.5851 39.7504 68.9583 39.7078 69.4168C39.6119 70.4404 39.5586 71.4748 39.4946 72.4981C39.452 73.5328 39.42 74.5774 39.3987 75.6121C39.3774 76.646 39.3667 77.6913 39.3667 78.7253C39.3667 78.736 39.3667 78.736 39.3667 78.7467C39.3667 79.9837 38.5142 81.0604 37.31 81.3376L29.4558 83.1076L18.4685 85.6879C14.8025 86.5408 11.1365 87.4258 7.53451 88.5239C7.08691 88.6629 6.80983 89.1317 6.93771 89.6013C7.05494 90.0488 7.52383 90.3153 7.97144 90.2412C11.6801 89.6548 15.346 88.8545 19.0014 88.0123L30.0206 85.5282L41.0186 82.948Z" fill="#131344"/>
<path d="M37.8534 42.8776C37.8427 42.8776 37.8427 42.8776 37.8427 42.8776C35.4663 42.3445 33.1004 41.8327 30.7239 41.3209C28.3475 40.8091 25.9709 40.3186 23.5518 39.9774C23.1042 39.9135 22.6566 40.212 22.5607 40.6918C22.4755 41.1396 22.7632 41.5768 23.2002 41.7154C25.502 42.4618 27.8466 43.0696 30.2017 43.6347C32.5569 44.2105 34.9227 44.7863 37.2886 45.3407C39.6544 45.8952 42.0203 46.4389 44.3968 46.9508C46.7626 47.4839 49.1391 47.9957 51.5796 48.2303C52.0272 48.273 52.4641 47.9744 52.5494 47.4839C52.6239 47.0574 52.3575 46.6415 51.9525 46.4922C49.6613 45.6393 47.3168 45.0741 44.9616 44.5197C44.823 44.4877 44.6845 44.4557 44.5353 44.4131C42.9581 44.0292 41.8498 42.6217 41.8498 40.9904C41.8498 40.7344 41.8498 40.4785 41.8498 40.2226C41.8604 38.9325 41.8392 37.6316 41.8285 36.3415C41.8178 35.0513 41.7965 33.7504 41.7432 32.4602C41.6899 31.1701 41.626 29.8692 41.5194 28.579C41.4768 28.1206 41.0931 27.7474 40.6029 27.7687C40.1447 27.7793 39.7823 28.1632 39.7397 28.6217C39.6331 29.9012 39.5692 31.1914 39.5159 32.4709C39.4626 33.7611 39.4413 35.0619 39.4307 36.3521C39.42 37.6423 39.388 38.9431 39.3987 40.2333C39.3987 40.7024 39.3987 41.1716 39.4094 41.6407C39.388 42.4618 38.642 43.0482 37.8534 42.8776Z" fill="#131344"/>
<path d="M26.1201 112.994C26.5038 112.813 26.8768 112.622 27.2285 112.397C27.5801 112.174 27.9318 111.928 28.2515 111.63C28.4541 111.427 28.5713 111.129 28.5286 110.83C28.4541 110.319 27.9852 109.967 27.4736 110.031C27.0367 110.094 26.6317 110.212 26.2374 110.361C25.8431 110.51 25.4594 110.681 25.0865 110.873C24.7135 111.065 24.3404 111.267 23.9888 111.492C23.6265 111.715 23.2748 111.95 22.9551 112.238C22.7206 112.44 22.5927 112.771 22.6567 113.101C22.7526 113.602 23.2321 113.922 23.733 113.827C24.1593 113.752 24.5643 113.613 24.9586 113.475C25.3635 113.336 25.7472 113.165 26.1201 112.994Z" fill="#131344"/>
<path d="M13.0442 64.5544C14.9092 64.5438 16.7635 64.5225 18.6284 64.4798C19.5556 64.4585 20.4934 64.4265 21.4206 64.3839C22.3477 64.3412 23.2855 64.2879 24.2127 64.2133C24.639 64.1813 24.9906 63.84 25.0226 63.4029C25.0652 62.9124 24.7029 62.4859 24.2127 62.4432C23.2748 62.3686 22.3477 62.3153 21.4206 62.2726C20.4934 62.23 19.5556 62.198 18.6284 62.1767C16.7635 62.134 14.9092 62.1127 13.0442 62.1021C11.1793 62.1021 9.32493 62.1234 7.45998 62.166C5.59503 62.2087 3.74073 62.2833 1.87576 62.4539C1.46014 62.4966 1.10847 62.8271 1.0765 63.2536C1.03386 63.7441 1.38555 64.1813 1.87576 64.2239C3.74073 64.3945 5.59503 64.4692 7.45998 64.5118C9.32493 64.5225 11.1899 64.5544 13.0442 64.5544Z" fill="#131344"/>
<path d="M7.53453 38.1112C8.3871 38.4311 9.2396 38.6977 10.1135 38.9429C10.9767 39.1881 11.8506 39.412 12.7244 39.6146C13.5983 39.8172 14.4828 39.9985 15.3674 40.1584C16.2519 40.3183 17.1471 40.457 18.0529 40.5316C18.4365 40.5636 18.8202 40.3397 18.9694 39.9558C19.1399 39.4973 18.9161 38.9748 18.4472 38.8043C17.5946 38.4844 16.7421 38.2178 15.8682 37.9726C15.005 37.7273 14.1312 37.5141 13.2573 37.3115C12.3834 37.1196 11.4989 36.9277 10.6143 36.7677C9.72987 36.6078 8.83464 36.4691 7.93948 36.3838C7.54521 36.3412 7.16155 36.5758 7.02299 36.9596C6.84182 37.4182 7.07628 37.9406 7.53453 38.1112Z" fill="#131344"/>
</g>
<defs>
<clipPath id="clip0_89_366">
<rect width="292" height="119" fill="white"/>
</clipPath>
</defs>
</svg>
