<svg width="332" height="157" viewBox="0 0 332 157" fill="none" xmlns="http://www.w3.org/2000/svg">
<path d="M147.626 151.709V125.702C147.626 124.396 146.56 123.326 145.26 123.326H141.571C132.846 123.326 125.737 116.201 125.737 107.43V87.4064C125.737 86.1018 124.917 84.9258 123.699 84.4795L116.122 81.6692C114.283 80.9873 112.854 79.5175 112.21 77.6597C111.566 75.7899 111.801 73.7561 112.831 72.0865L127.166 50.182C129.203 46.8663 130.621 44.4442 131.593 41.058C132.588 37.613 133.15 31.9105 133.197 28.054C133.279 20.5644 136.254 13.5451 141.548 8.27763C142.437 7.39583 143.386 6.57279 144.381 5.80854C144.955 5.37351 145.178 4.65629 144.943 3.9861C144.722 3.31591 144.124 2.89264 143.41 2.89264H5.23911C3.93915 2.89264 2.87341 3.96258 2.87341 5.26768V50.3583C2.87341 51.6164 3.84545 52.6511 5.08686 52.7216C26.3267 53.9442 33.2613 66.4609 38.1097 78.0985C38.1118 78.1038 38.1149 78.1083 38.1187 78.112C38.1225 78.1165 38.1257 78.121 38.1278 78.1262C38.8528 79.8868 39.5661 81.6834 40.2444 83.4328L40.42 83.8679C43.383 91.4869 46.4513 99.3758 52.026 105.396C57.987 111.815 66.6769 116.178 75.0854 120.387L75.1092 120.399C89.1979 127.465 103.779 134.767 105.512 151.957C105.629 153.168 106.647 154.084 107.865 154.084H145.26C146.56 154.084 147.626 153.026 147.626 151.709ZM141.395 136.624C141.325 137.729 140.822 138.729 140.001 139.458C139.17 140.187 138.116 140.54 137.015 140.469C135.915 140.398 134.919 139.893 134.193 139.07C133.467 138.236 133.115 137.177 133.186 136.072C133.256 134.966 133.759 133.967 134.579 133.238C135.341 132.58 136.289 132.215 137.285 132.215C137.378 132.215 137.472 132.215 137.566 132.227C138.666 132.297 139.662 132.803 140.388 133.626C141.114 134.45 141.466 135.519 141.395 136.624ZM66.7471 15.438C66.7471 14.3328 67.6489 13.4275 68.7498 13.4275C69.8506 13.4275 70.7524 14.3328 70.7524 15.438C70.7524 16.5433 69.8506 17.4486 68.7498 17.4486C67.6489 17.4486 66.7471 16.5433 66.7471 15.438ZM106.355 46.4548C106.355 44.1738 108.206 42.3161 110.477 42.3161C112.749 42.3161 114.588 44.1738 114.588 46.4548C114.588 48.7358 112.738 50.5817 110.477 50.5817C108.206 50.5935 106.355 48.7358 106.355 46.4548ZM113.159 92.6741C113.159 91.5691 114.061 90.6638 115.162 90.6638C116.263 90.6638 117.165 91.5691 117.165 92.6741C117.165 93.7791 116.263 94.6845 115.162 94.6845C114.061 94.6845 113.159 93.7791 113.159 92.6741ZM55.352 30.8759C55.352 34.0975 52.7403 36.7195 49.5314 36.7195C46.3225 36.7195 43.7109 34.0975 43.7109 30.8759C43.7109 27.6543 46.3225 25.0323 49.5314 25.0323C52.7403 25.0323 55.352 27.6543 55.352 30.8759ZM95.5338 13.5451C95.5338 11.2641 97.3839 9.41813 99.6443 9.41813C101.917 9.41813 103.767 11.2759 103.767 13.5451C103.767 15.8143 101.917 17.672 99.6443 17.672C97.372 17.6838 95.5338 15.826 95.5338 13.5451ZM117.902 142.868C119.354 142.868 120.525 144.055 120.525 145.513C120.525 146.971 119.343 148.147 117.902 148.147C116.462 148.147 115.279 146.959 115.279 145.513C115.279 144.055 116.45 142.868 117.902 142.868ZM93.1446 108.9C92.2661 107.594 91.9497 106.031 92.2542 104.479C92.4418 103.515 92.8632 102.621 93.4722 101.868C94.1162 101.081 94.152 99.929 93.5779 99.0707L92.3361 97.2241C91.6571 96.2133 90.3452 95.8844 89.2798 96.4601C85.0635 98.7059 80.309 99.9051 75.5187 99.9051C65.6931 99.9051 56.5583 95.0493 51.0891 86.901C46.6973 80.3758 45.1046 72.5098 46.6036 64.7497C48.1027 56.9897 52.5061 50.2996 59.0177 45.8904C65.5291 41.4813 73.3641 39.8705 81.0818 41.3755C89.3617 42.9863 96.3297 47.8893 100.699 55.1554C104.071 60.7639 105.488 67.4305 104.692 73.9325C103.802 81.1518 100.347 87.748 94.9598 92.5096C94.0812 93.2857 93.9174 94.6142 94.5853 95.6018L95.8733 97.5187C96.4585 98.3882 97.5366 98.7881 98.4963 98.4824C100.956 97.7063 103.685 98.6708 105.126 100.81L119.378 121.998C120.257 123.303 120.572 124.867 120.268 126.419C119.975 127.971 119.097 129.311 117.797 130.181L115.583 131.686C114.612 132.344 113.475 132.697 112.304 132.697C110.348 132.697 108.521 131.722 107.421 130.099L93.1446 108.9ZM79.805 30.8759C79.805 29.4179 80.988 28.2422 82.4287 28.2422C83.8693 28.2422 85.0516 29.4297 85.0516 30.8759C85.0516 32.3338 83.8693 33.5214 82.4287 33.5214C80.988 33.5214 79.805 32.3338 79.805 30.8759ZM79.7 108.288C79.7 109.746 78.5169 110.934 77.0763 110.934C75.6244 110.934 74.4415 109.746 74.4415 108.288C74.4415 106.83 75.6244 105.655 77.0763 105.655C78.5169 105.655 79.7 106.83 79.7 108.288ZM115.595 25.5144C115.595 24.4092 116.497 23.5039 117.598 23.5039C118.699 23.5039 119.601 24.4092 119.601 25.5144C119.601 26.6196 118.699 27.5249 117.598 27.5249C116.497 27.5249 115.595 26.6196 115.595 25.5144ZM33.2175 45.9375C33.2175 47.0427 32.3158 47.948 31.2149 47.948C30.114 47.948 29.2122 47.0427 29.2122 45.9375C29.2122 44.8322 30.114 43.9269 31.2149 43.9269C32.3158 43.9269 33.2175 44.8205 33.2175 45.9375ZM21.7404 22.8454C19.4684 22.8454 17.6297 20.9877 17.6297 18.7067C17.6297 16.4257 19.4801 14.5798 21.7404 14.5798C24.0007 14.5798 25.8511 16.4374 25.8511 18.7067C25.8511 20.9994 24.0007 22.8454 21.7404 22.8454Z" fill="#59ADFF"/>
<path d="M75.4219 52.9568C71.9673 52.9568 68.6179 53.9915 65.7486 55.9315C61.919 58.53 59.3191 62.4805 58.429 67.0542C57.5506 71.628 58.4875 76.2601 61.0757 80.1171C63.6757 83.9733 67.599 86.5833 72.1547 87.4654C73.2673 87.677 74.3799 87.7944 75.4927 87.7944C78.9123 87.7944 82.2619 86.7717 85.1663 84.8084C89.0073 82.1977 91.6072 78.2593 92.4857 73.6855C93.3642 69.1236 92.4269 64.4793 89.8389 60.6228C86.6062 55.8257 81.2195 52.9568 75.4219 52.9568ZM74.9536 82.6097L72.5177 75.9902C72.0611 74.7555 71.089 73.7796 69.8593 73.321L63.2658 70.8754C63.0081 70.7814 62.9145 70.558 62.9145 70.3699C62.9145 70.1935 63.0081 69.9584 63.2658 69.8643L69.8593 67.4069C71.089 66.9484 72.0611 65.9725 72.5177 64.738L74.9536 58.1184C75.0474 57.8597 75.27 57.7657 75.4577 57.7657C75.6445 57.7657 75.8671 57.8597 75.961 58.1184L78.397 64.738C78.8534 65.9725 79.8139 66.9484 81.055 67.4069L87.6485 69.8643C87.9061 69.9584 87.9999 70.1818 87.9999 70.3699C87.9999 70.5462 87.9061 70.7814 87.6485 70.8754L81.055 73.321C79.8258 73.7796 78.8534 74.7555 78.397 75.9902L75.949 82.6097C75.8552 82.8683 75.6326 82.9625 75.4457 82.9625C75.2581 82.9625 75.0474 82.8683 74.9536 82.6097Z" fill="#59ADFF"/>
<path d="M102.802 102.351C102.229 101.492 101.256 100.975 100.214 100.975C99.593 100.975 98.9958 101.163 98.4806 101.515L96.2552 103.021C95.5762 103.479 95.1079 104.196 94.9441 105.02C94.7796 105.843 94.9553 106.678 95.4124 107.36L109.654 128.546C110.122 129.24 110.825 129.71 111.645 129.864C111.843 129.899 112.042 129.922 112.242 129.922C112.851 129.922 113.46 129.734 113.975 129.393L116.188 127.888C116.879 127.418 117.336 126.712 117.5 125.889C117.664 125.066 117.488 124.232 117.031 123.55L102.802 102.351Z" fill="#FFD500"/>
<path d="M75.4919 97.1299C80.6217 97.1299 85.8095 95.6489 90.3653 92.556C96.2679 88.5585 100.273 82.4803 101.62 75.4609C102.978 68.4415 101.526 61.3163 97.5448 55.3905C93.563 49.4647 87.5078 45.4552 80.516 44.0914C78.8296 43.7622 77.0964 43.5976 75.3869 43.5976C70.0932 43.5976 64.9519 45.1848 60.525 48.183C54.6342 52.1806 50.6407 58.2476 49.2822 65.2787C47.9236 72.3097 49.3641 79.4345 53.346 85.3489C58.4989 93.0031 66.9194 97.1299 75.4919 97.1299ZM75.4219 50.1818C82.1323 50.1818 88.3744 53.5093 92.1224 59.0706C95.1317 63.5385 96.221 68.9235 95.2025 74.2144C94.1832 79.5056 91.1619 84.0907 86.7119 87.1006C83.3623 89.3704 79.4975 90.5576 75.5038 90.5576C74.2039 90.5576 72.9039 90.4283 71.6274 90.1816C66.3572 89.1581 61.7898 86.1369 58.7918 81.6572C55.7936 77.2006 54.7045 71.8159 55.7233 66.5132C56.7422 61.2105 59.7638 56.6368 64.2024 53.6268C67.5284 51.3811 71.4165 50.1818 75.4219 50.1818Z" fill="#FFD500"/>
<path d="M102.654 151.368C101.681 144.008 98.0622 138.153 91.258 132.932C88.8576 131.086 85.8475 130.063 82.7674 130.063C82.7555 130.063 82.7324 130.063 82.7205 130.063C76.8886 130.086 67.0977 130.11 66.9923 130.11C65.6923 130.11 64.6266 131.18 64.6266 132.486V151.709C64.6266 153.014 65.6923 154.084 66.9923 154.084H100.323C101.002 154.084 101.646 153.79 102.091 153.284C102.536 152.756 102.747 152.062 102.654 151.368Z" fill="#FF5975"/>
<path d="M42.2653 106.689V124.96C42.2653 126.265 43.331 127.335 44.631 127.335H76.0175C76.8842 127.335 77.4225 126.724 77.5632 126.113C77.7389 125.372 77.4113 124.666 76.7435 124.325C75.8999 123.902 74.8933 123.385 73.8741 122.891L73.839 122.867C65.2195 118.541 56.2954 114.072 50.0065 107.289C49.784 107.053 49.5497 106.794 49.2687 106.465C48.6831 105.796 47.9804 105.266 47.1841 104.89C46.376 104.513 45.521 104.326 44.6427 104.326C43.3193 104.326 42.2653 105.384 42.2653 106.689Z" fill="#FF5975"/>
<path d="M59.4944 130.11H21.9128C20.6128 130.11 19.5471 131.18 19.5471 132.486V151.709C19.5471 153.014 20.6128 154.084 21.9128 154.084H59.4944C60.7945 154.084 61.8602 153.014 61.8602 151.709V132.486C61.8602 131.18 60.8061 130.11 59.4944 130.11Z" fill="#FF5975"/>
<path d="M39.5007 124.96V106.689C39.5007 105.384 38.4349 104.314 37.135 104.314H5.23328C3.93333 104.314 2.86758 105.384 2.86758 106.689V124.96C2.86758 126.265 3.93333 127.335 5.23328 127.335H37.135C38.4467 127.335 39.5007 126.277 39.5007 124.96Z" fill="#FF5975"/>
<path d="M33.3425 76.3312C33.7056 75.7548 33.7406 75.0378 33.4362 74.4261C30.6255 68.6649 27.5102 64.6084 23.6689 61.6573C18.9258 58.0359 12.953 56.0253 5.41095 55.5198C4.7434 55.4727 4.11098 55.7079 3.63082 56.1547C3.15065 56.6132 2.8813 57.2246 2.8813 57.8831V74.8845C2.8813 76.1899 3.94702 77.2597 5.24698 77.2597H31.6677C32.347 77.2597 32.9794 76.9188 33.3425 76.3312Z" fill="#FF5975"/>
<path d="M5.23328 80.0341C3.93333 80.0341 2.86758 81.1047 2.86758 82.4093V99.1762C2.86758 100.481 3.93333 101.551 5.23328 101.551H14.415C15.7149 101.551 16.7807 100.481 16.7807 99.1762V82.4093C16.7807 81.1047 15.7149 80.0341 14.415 80.0341H5.23328Z" fill="#FF5975"/>
<path fill-rule="evenodd" clip-rule="evenodd" d="M4 0C1.79086 0 0 1.79086 0 4V153C0 155.209 1.79086 157 4 157H200C202.209 157 204 155.209 204 153V4C204 1.79086 202.209 0 200 0H190.263H190.192H161.336H161.265H4ZM145.022 81.7746C143.136 81.0688 141.684 79.5878 141.04 77.6828C140.384 75.7779 140.619 73.7087 141.66 72.0039C141.668 71.9964 141.671 71.9889 141.675 71.9814C141.677 71.9772 141.679 71.9729 141.684 71.9687L156.03 50.1112C158.056 46.8072 159.462 44.3852 160.445 41.0107C161.43 37.5892 161.992 31.8868 162.039 28.0303C162.12 20.5171 165.095 13.4625 170.423 8.17155L170.482 8.11279C172.403 6.25507 171.091 2.98645 168.421 2.98645H161.289C147.552 3.02173 136.25 14.262 136.098 28.0655C136.063 32.1337 135.454 38.1654 134.388 41.8455C133.31 45.5844 131.741 48.2887 129.633 51.6985C129.621 51.7102 129.621 51.7219 129.609 51.7337L115.31 73.5912C114.736 74.5318 114.619 75.6605 114.97 76.6952C115.322 77.7419 116.118 78.5531 117.149 78.9411L127.653 82.8444C128.239 83.068 128.638 83.6324 128.638 84.2552V107.418C128.638 114.614 134.435 120.434 141.59 120.434H149.015C149.847 120.434 150.514 121.104 150.514 121.939V151.709C150.514 152.955 151.521 153.967 152.763 153.967H173.445C175.108 153.967 176.443 152.614 176.443 150.956V126.442C176.443 124.784 175.108 123.444 173.457 123.444H170.505C161.698 123.444 154.555 116.271 154.555 107.43V87.4064C154.555 86.1481 153.77 85.02 152.599 84.5849L145.022 81.7746ZM183.306 37.8597C178.867 37.8597 175.261 41.4692 175.261 45.9372C175.261 50.3933 178.867 54.0147 183.306 54.0147C187.745 54.0147 191.352 50.3933 191.352 45.9372C191.352 41.4692 187.745 37.8597 183.306 37.8597ZM141.473 8.18336C142.375 7.28976 143.323 6.46672 144.319 5.71422C145.467 4.84416 144.869 3.00996 143.429 2.9982H5.25841C4.017 2.9982 3.00983 4.00936 3.00983 5.25567V50.3581C3.00983 51.5456 3.92331 52.5332 5.10616 52.6037C25.8001 53.8031 32.9558 65.4078 38.2259 78.0589C38.2259 78.0649 38.2288 78.0679 38.2317 78.0709C38.2347 78.0739 38.2376 78.0768 38.2376 78.0828C38.8673 79.5885 39.4604 81.1025 40.0518 82.6179L40.1701 82.9207C40.287 83.2205 40.404 83.5203 40.5212 83.8201L40.5401 83.8687C43.4972 91.4727 46.5527 99.3294 52.1155 105.325C58.0649 111.733 66.7664 116.095 75.1755 120.305L75.1896 120.312C89.3207 127.4 103.904 134.713 105.648 151.956C105.765 153.108 106.737 153.978 107.885 153.978H145.279C146.52 153.978 147.528 152.967 147.528 151.721V125.713C147.528 124.467 146.52 123.455 145.279 123.455H141.59C132.783 123.455 125.639 116.283 125.639 107.442V87.4184C125.639 86.1601 124.855 85.0312 123.684 84.5961L116.107 81.7865C114.221 81.0808 112.78 79.5878 112.125 77.6948C111.469 75.7899 111.703 73.7205 112.757 72.0157C112.763 72.0098 112.766 72.0039 112.769 71.998C112.772 71.9921 112.775 71.9863 112.78 71.9804L127.08 50.1229C129.106 46.819 130.523 44.3969 131.495 41.0225C132.479 37.601 133.041 31.8985 133.088 28.042C133.17 20.5289 136.145 13.4743 141.473 8.18336ZM14.4167 80.1522H5.23498C3.99358 80.1522 2.9864 81.163 2.9864 82.4093V99.1762C2.9864 100.422 3.99358 101.433 5.23498 101.433H14.4167C15.6581 101.433 16.6652 100.422 16.6652 99.1762V82.4093C16.6652 81.163 15.6581 80.1522 14.4167 80.1522ZM2.9864 57.883V74.8845C2.9864 76.1428 3.99358 77.1423 5.23498 77.1304H31.6558C33.0143 77.1304 33.916 75.6957 33.3188 74.4613C28.4937 64.5731 21.4904 56.7072 5.38722 55.6255C4.08726 55.5432 2.9864 56.5779 2.9864 57.883ZM37.1367 104.443H5.23498C3.99358 104.443 2.9864 105.455 2.9864 106.701V124.972C2.9864 126.218 3.99358 127.23 5.23498 127.23H37.1367C38.3781 127.23 39.3853 126.218 39.3853 124.972V106.701C39.3853 105.455 38.3781 104.443 37.1367 104.443ZM21.9119 130.228C20.6706 130.228 19.6634 131.239 19.6634 132.486V151.709C19.6634 152.955 20.6706 153.967 21.9119 153.967H59.4936C60.735 153.967 61.7422 152.955 61.7422 151.709V132.486C61.7422 131.239 60.735 130.228 59.4936 130.228H21.9119ZM42.3834 124.96C42.3834 126.207 43.3906 127.218 44.632 127.218V127.206H76.0302C77.5758 127.206 78.0799 125.113 76.6973 124.42C75.7488 123.949 74.7883 123.467 73.8283 122.985L73.7451 122.944C65.128 118.618 56.2176 114.145 49.9255 107.359C49.6678 107.077 49.4219 106.806 49.176 106.524C48.6021 105.866 47.8994 105.348 47.1265 104.984C46.3535 104.632 45.5103 104.431 44.632 104.431C43.3906 104.431 42.3834 105.443 42.3834 106.689V124.96ZM66.9889 130.228C65.7476 130.228 64.7404 131.239 64.7404 132.486V151.709C64.7404 152.955 65.7476 153.967 66.9889 153.967H100.32C101.69 153.967 102.72 152.756 102.544 151.391C101.456 143.244 97.1226 137.588 91.1843 133.026C88.7601 131.156 85.7738 130.169 82.7175 130.181C76.8149 130.205 66.9889 130.228 66.9889 130.228Z" fill="#131344"/>
<path d="M98.4345 98.3643C97.4979 98.6588 96.4905 98.2588 95.9403 97.4477L94.6515 95.5308C94.0194 94.6022 94.1721 93.332 95.0149 92.5911C100.402 87.8295 103.881 81.2924 104.782 73.9438C105.59 67.4065 104.173 60.74 100.777 55.0962C96.3967 47.8064 89.3349 42.8683 81.0781 41.2574C73.3255 39.7525 65.4672 41.3632 58.9206 45.7959C45.4173 54.9434 41.8454 73.4147 50.9568 86.9713C56.6603 95.4485 65.9942 100.022 75.4919 100.022C80.2003 100.022 84.9429 98.8936 89.3118 96.5655C90.3184 96.025 91.5833 96.3419 92.2162 97.2944L93.4573 99.1403C94.0075 99.9514 93.9725 101.033 93.3635 101.798C92.7426 102.562 92.3093 103.467 92.1224 104.455C91.8179 106.042 92.1335 107.641 93.0359 108.97L107.276 130.157C108.436 131.874 110.333 132.803 112.254 132.803C113.402 132.803 114.573 132.474 115.603 131.78L117.817 130.275C119.14 129.381 120.042 128.017 120.347 126.43C120.651 124.855 120.323 123.244 119.433 121.927L105.181 100.739C103.681 98.4824 100.894 97.5882 98.4345 98.3643ZM90.3072 92.4618C78.1737 100.681 61.6376 97.4589 53.4513 85.2779C45.2651 73.0973 48.474 56.4954 60.5952 48.2768C65.0339 45.2668 70.1517 43.7031 75.3981 43.7031C77.0964 43.7031 78.8065 43.8677 80.5048 44.1969C87.4609 45.549 93.4804 49.5466 97.4509 55.449C101.421 61.3513 102.861 68.453 101.503 75.437C100.168 82.4325 96.186 88.4762 90.3072 92.4618ZM117.407 125.865C117.255 126.653 116.809 127.335 116.142 127.782L113.929 129.287C112.559 130.216 110.696 129.852 109.771 128.476L95.5301 107.289C95.0848 106.63 94.921 105.831 95.0737 105.031C95.2256 104.244 95.6708 103.562 96.3267 103.115L98.5521 101.61C99.0673 101.257 99.6406 101.092 100.227 101.092C101.187 101.092 102.136 101.563 102.71 102.421L116.962 123.608C117.407 124.267 117.559 125.066 117.407 125.865Z" fill="#131344"/>
<path d="M92.2169 58.9997C88.3171 53.1914 81.9231 50.0639 75.4227 50.0639C71.5231 50.0639 67.5998 51.1926 64.1332 53.5324C54.8929 59.7993 52.4452 72.4388 58.6874 81.7275C61.709 86.2184 66.2881 89.2642 71.605 90.2989C72.905 90.5576 74.205 90.675 75.5046 90.675C79.4982 90.675 83.3988 89.487 86.7826 87.1948C91.2565 84.161 94.2897 79.5519 95.3209 74.2259C96.3394 68.9114 95.239 63.5029 92.2169 58.9997ZM92.3696 73.6616C91.491 78.2002 88.9142 82.1155 85.0963 84.7022C81.2784 87.289 76.6876 88.2295 72.1672 87.3473C67.6466 86.4659 63.7467 83.8791 61.1702 80.0461C55.8533 72.1448 57.9379 61.363 65.8079 56.0251C68.7592 54.0262 72.1086 53.0738 75.4227 53.0738C80.9627 53.0738 86.4081 55.7429 89.7339 60.6928C92.3107 64.5258 93.2474 69.1231 92.3696 73.6616Z" fill="#131344"/>
<path d="M292.263 126.512C368.557 96.8643 321.96 63.0684 261.476 89.5937C206.582 113.668 238.877 147.271 292.263 126.512Z" fill="#FF5975"/>
<path d="M281.596 68.6169C318.759 54.0483 292.453 37.4759 265.741 48.691C239.029 59.9061 259.207 77.3978 281.596 68.6169Z" fill="#FFD500"/>
</svg>
