<svg width="15" height="15" viewBox="0 0 15 15" fill="none" xmlns="http://www.w3.org/2000/svg">
<g clip-path="url(#clip0_89_99)">
<path d="M14.4458 10.2889L11.2671 8.92604C10.8926 8.764 10.4535 8.87328 10.1992 9.18913L8.90749 10.7659C6.87868 9.76979 5.23073 8.12009 4.23464 6.09304L5.8111 4.8028C6.12604 4.54555 6.23327 4.10876 6.07401 3.73434L4.71141 0.555634C4.53288 0.148114 4.09325 -0.074835 3.66288 0.0250673L0.709754 0.70622C0.292274 0.801435 0.000183105 1.16911 0.000183105 1.5986C0.000183105 8.9902 6.0119 15.0019 13.4035 15.0019C13.8333 15.0019 14.1998 14.7099 14.2956 14.2924L14.9767 11.3392C15.0754 10.91 14.8531 10.4647 14.4458 10.2889Z" fill="#131344"/>
</g>
<defs>
<clipPath id="clip0_89_99">
<rect width="15" height="15" fill="white" transform="matrix(-1 0 0 1 15 0)"/>
</clipPath>
</defs>
</svg>
